<?xml version='1.0' encoding='UTF-8' standalone='no'?>
<svg viewBox="0 0 1122 660" xmlns:inkscape="http://www.inkscape.org/namespaces/inkscape" xmlns:cc="http://creativecommons.org/ns#" baseProfile="tiny" width="431.8mm" xmlns:xlink="http://www.w3.org/1999/xlink" version="1.2" height="254mm" xmlns="http://www.w3.org/2000/svg">
 <defs/>
 <g inkscape:groupmode="layer" stroke="black" stroke-linejoin="bevel" fill="none" stroke-linecap="square" stroke-width="1" inkscape:label="Layer 1" fill-rule="evenodd" id="Layer 1">
  <g font-weight="400" stroke="#000000" stroke-linejoin="bevel" font-family="MS Shell Dlg 2" transform="matrix(1,0,0,1,0,0)" fill="none" stroke-linecap="square" stroke-width="1" font-style="normal" font-size="7.5625" stroke-opacity="1"/>
  <g font-weight="400" stroke="#000000" stroke-linejoin="bevel" font-family="MS Shell Dlg 2" transform="matrix(1,0,0,1,0,0)" fill="none" stroke-linecap="square" stroke-width="1" font-style="normal" font-size="7.5625" stroke-opacity="1"/>
  <g font-weight="400" stroke="#000000" stroke-linejoin="bevel" font-family="MS Shell Dlg 2" transform="matrix(2.59843,0,0,2.59843,0,0)" fill="none" stroke-linecap="square" stroke-width="1" font-style="normal" font-size="7.5625" stroke-opacity="1"/>
  <g font-weight="400" stroke="#000000" stroke-linejoin="bevel" font-family="MS Shell Dlg 2" transform="matrix(2.59843,0,0,2.59843,0,0)" fill="none" stroke-linecap="square" stroke-width="1" font-style="normal" font-size="7.5625" stroke-opacity="1"/>
  <g font-weight="400" stroke="#000000" stroke-linejoin="bevel" font-family="MS Shell Dlg 2" transform="matrix(1,0,0,1,0,0)" fill="none" stroke-linecap="square" stroke-width="1" font-style="normal" font-size="7.5625" stroke-opacity="1"/>
 </g>
 <defs/>
 <g inkscape:groupmode="layer" stroke="black" stroke-linejoin="bevel" fill="none" stroke-linecap="square" stroke-width="1" inkscape:label="Page" fill-rule="evenodd" id="Page">
  <g font-weight="400" stroke="#000000" stroke-linejoin="bevel" font-family="MS Shell Dlg 2" transform="matrix(1,0,0,1,0,0)" fill="none" stroke-linecap="square" stroke-width="1" font-style="normal" font-size="7.5625" stroke-opacity="1"/>
  <g font-weight="400" stroke="#000000" stroke-linejoin="bevel" font-family="MS Shell Dlg 2" transform="matrix(1,0,0,1,0,0)" fill="none" stroke-linecap="square" stroke-width="1" font-style="normal" font-size="7.5625" stroke-opacity="1"/>
  <g font-weight="400" stroke="#000000" stroke-linejoin="bevel" font-family="MS Shell Dlg 2" transform="matrix(2.59843,0,0,2.59843,0,0)" fill="none" stroke-linecap="square" stroke-width="1" font-style="normal" font-size="7.5625" stroke-opacity="1"/>
  <g font-weight="400" stroke="#000000" stroke-linejoin="bevel" font-family="MS Shell Dlg 2" transform="matrix(1,0,0,1,0,0)" fill="none" stroke-linecap="square" stroke-width="1" font-style="normal" font-size="7.5625" stroke-opacity="1"/>
  <g font-weight="400" stroke="none" font-family="MS Shell Dlg 2" transform="matrix(1,0,0,1,0,0)" fill="#ffffff" font-style="normal" fill-opacity="1" font-size="7.5625">
   <path fill-rule="evenodd" vector-effect="none" d="M-2,-2 L1124,-2 L1124,663 L-2,663 L-2,-2"/>
  </g>
  <g font-weight="400" stroke="#000000" stroke-linejoin="bevel" font-family="MS Shell Dlg 2" transform="matrix(1,0,0,1,0,0)" fill="none" stroke-linecap="square" stroke-width="1" font-style="normal" font-size="7.5625" stroke-opacity="1"/>
  <g font-weight="400" stroke="#000000" stroke-linejoin="bevel" font-family="MS Shell Dlg 2" transform="matrix(2.59843,0,0,2.59843,0,0)" fill="none" stroke-linecap="square" stroke-width="1" font-style="normal" font-size="7.5625" stroke-opacity="1"/>
  <g font-weight="400" stroke="#000000" stroke-linejoin="bevel" font-family="MS Shell Dlg 2" transform="matrix(2.59843,0,0,2.59843,0,0)" fill="none" stroke-linecap="square" stroke-width="1" font-style="normal" font-size="7.5625" stroke-opacity="1"/>
  <g font-weight="400" stroke="#000000" stroke-linejoin="bevel" font-family="MS Shell Dlg 2" transform="matrix(1,0,0,1,0,0)" fill="none" stroke-linecap="square" stroke-width="1" font-style="normal" font-size="7.5625" stroke-opacity="1"/>
 </g>
 <defs/>
 <g inkscape:groupmode="layer" stroke="black" stroke-linejoin="bevel" fill="none" stroke-linecap="square" stroke-width="1" inkscape:label="Map 1: Background" fill-rule="evenodd" id="Map 1: Background">
  <g font-weight="400" stroke="#000000" stroke-linejoin="bevel" font-family="MS Shell Dlg 2" transform="matrix(1,0,0,1,0,0)" fill="none" stroke-linecap="square" stroke-width="1" font-style="normal" font-size="7.5625" stroke-opacity="1"/>
  <g font-weight="400" stroke="#000000" stroke-linejoin="bevel" font-family="MS Shell Dlg 2" transform="matrix(1,0,0,1,0,0)" fill="none" stroke-linecap="square" stroke-width="1" font-style="normal" font-size="7.5625" stroke-opacity="1"/>
  <g font-weight="400" stroke="#000000" stroke-linejoin="bevel" font-family="MS Shell Dlg 2" transform="matrix(2.59843,0,0,2.59843,0,85.5885)" fill="none" stroke-linecap="square" stroke-width="1" font-style="normal" font-size="7.5625" stroke-opacity="1"/>
  <g font-weight="400" stroke="none" font-family="MS Shell Dlg 2" transform="matrix(2.59843,0,0,2.59843,0,85.5885)" fill="#ffffff" font-style="normal" fill-opacity="1" font-size="7.5625">
   <path fill-rule="evenodd" vector-effect="none" d="M0,0 L431.8,0 L431.8,221.061 L0,221.061 L0,0"/>
  </g>
  <g font-weight="400" stroke="#000000" stroke-linejoin="bevel" font-family="MS Shell Dlg 2" transform="matrix(2.59843,0,0,2.59843,0,85.5885)" fill="none" stroke-linecap="square" stroke-width="1" font-style="normal" font-size="7.5625" stroke-opacity="1"/>
  <g font-weight="400" stroke="#000000" stroke-linejoin="bevel" font-family="MS Shell Dlg 2" transform="matrix(2.59843,0,0,2.59843,0,85.5885)" fill="none" stroke-linecap="square" stroke-width="1" font-style="normal" font-size="7.5625" stroke-opacity="1"/>
  <g font-weight="400" stroke="#000000" stroke-linejoin="bevel" font-family="MS Shell Dlg 2" transform="matrix(2.59843,0,0,2.59843,0,85.5885)" fill="none" stroke-linecap="square" stroke-width="1" font-style="normal" font-size="7.5625" stroke-opacity="1"/>
  <g font-weight="400" stroke="#000000" stroke-linejoin="bevel" font-family="MS Shell Dlg 2" transform="matrix(2.59843,0,0,2.59843,0,85.5885)" fill="none" stroke-linecap="square" stroke-width="1" font-style="normal" font-size="7.5625" stroke-opacity="1"/>
  <g font-weight="400" stroke="#000000" stroke-linejoin="bevel" font-family="MS Shell Dlg 2" transform="matrix(1,0,0,1,0,0)" fill="none" stroke-linecap="square" stroke-width="1" font-style="normal" font-size="7.5625" stroke-opacity="1"/>
  <g font-weight="400" stroke="#000000" stroke-linejoin="bevel" font-family="MS Shell Dlg 2" transform="matrix(2.59843,0,0,2.59843,0,85.5885)" fill="none" stroke-linecap="square" stroke-width="1" font-style="normal" font-size="7.5625" stroke-opacity="1"/>
  <g font-weight="400" stroke="#000000" stroke-linejoin="bevel" font-family="MS Shell Dlg 2" transform="matrix(2.59843,0,0,2.59843,0,85.5885)" fill="none" stroke-linecap="square" stroke-width="1" font-style="normal" font-size="7.5625" stroke-opacity="1"/>
  <g font-weight="400" stroke="#000000" stroke-linejoin="bevel" font-family="MS Shell Dlg 2" transform="matrix(1,0,0,1,0,0)" fill="none" stroke-linecap="square" stroke-width="1" font-style="normal" font-size="7.5625" stroke-opacity="1"/>
 </g>
 <defs/>
 <g inkscape:groupmode="layer" stroke="black" stroke-linejoin="bevel" fill="none" stroke-linecap="square" stroke-width="1" inkscape:label="Map 1: LRC-H-v2" fill-rule="evenodd" id="Map 1: LRC-H-v2">
  <g font-weight="400" stroke="#000000" stroke-linejoin="bevel" font-family="MS Shell Dlg 2" transform="matrix(1,0,0,1,0,0)" fill="none" stroke-linecap="square" stroke-width="1" font-style="normal" font-size="7.5625" stroke-opacity="1"/>
  <g font-weight="400" stroke="#000000" stroke-linejoin="bevel" font-family="MS Shell Dlg 2" transform="matrix(1,0,0,1,0,0)" fill="none" stroke-linecap="square" stroke-width="1" font-style="normal" font-size="7.5625" stroke-opacity="1"/>
  <g font-weight="400" stroke="#000000" stroke-linejoin="bevel" font-family="MS Shell Dlg 2" transform="matrix(2.59843,0,0,2.59843,0,85.5885)" fill="none" stroke-linecap="square" stroke-width="1" font-style="normal" font-size="7.5625" stroke-opacity="1"/>
  <g font-weight="400" stroke="#000000" stroke-linejoin="bevel" font-family="MS Shell Dlg 2" transform="matrix(2.59843,0,0,2.59843,0,85.5885)" fill="none" stroke-linecap="square" stroke-width="1" font-style="normal" font-size="7.5625" stroke-opacity="1"/>
  <g font-weight="400" stroke="none" font-family="MS Shell Dlg 2" transform="matrix(1,0,0,1,0,85.5885)" fill="#000000" font-style="normal" fill-opacity="0" font-size="7.5625">
   <rect x="0" width="1122" y="0" height="574"/>
  </g>
  <g font-weight="400" stroke="#000000" stroke-linejoin="bevel" font-family="MS Shell Dlg 2" transform="matrix(1,0,0,1,0,85.5885)" fill="none" stroke-linecap="square" stroke-width="1" font-style="normal" font-size="7.5625" stroke-opacity="1"/>
  <g font-weight="400" stroke="#232323" stroke-linejoin="bevel" font-family="MS Shell Dlg 2" transform="matrix(1,0,0,1,0,85.5885)" fill="#ffffff" stroke-linecap="square" stroke-width="0.675591" font-style="normal" fill-opacity="0.189807" font-size="7.5625" stroke-opacity="0.0603952">
   <path fill-rule="evenodd" vector-effect="none" d="M1187.17,-95.0029 L1187.16,-94.9145 L1186.72,-91.1148 L1186.37,-88.58 L1185.89,-84.9213 L1185.14,-79.443 L1184.36,-73.7807 L1182.25,-58.2861 L1181.15,-50.2526 L1180.1,-42.7906 L1176.89,-19.4456 L1184.39,-18.4037 L1189.25,-17.7322 L1201.6,-16.0997 L1200.59,-8.84243 L1199.18,1.58255 L1198.15,8.94198 L1196.9,18.5681 L1196.62,19.7164 L1195.59,27.9108 L1194.19,37.7856 L1193.09,45.7988 L1192.64,48.9679 L1191.64,56.1229 L1190.08,68.405 L1188.85,76.9512 L1194.91,77.6895 L1201.23,78.42 L1213.55,80.0736 L1238.28,83.4591 L1237.05,92.1278 L1238.55,92.3304 L1244.19,284.011 L1243.57,283.926 L1235.71,282.752 L1227.84,281.498 L1218.11,280.012 L1210.98,279.102 L1186.54,275.707 L1161.92,272.114 L1156.02,271.248 L1137.18,268.645 L1129.03,267.663 L1122.08,266.686 L1113.38,265.495 L1087.64,261.791 L1070.82,259.474 L1062.95,258.279 L1055.15,257.347 L1054.31,257.249 L1048.08,256.312 L1044.33,255.831 L1030.14,253.824 L1029.16,253.73 L1028.19,253.616 L1032.55,222.033 L1035.37,200.634 L1036.92,191.509 L1038.88,177.587 L1042.04,153.205 L1043.37,143.496 L1044.73,133.419 L1045.82,125.019 L1046.71,117.419 L1037.32,116.127 L1035.69,115.889 L1021.52,114.145 L1011.97,112.816 L1005.13,111.897 L1003.34,111.786 L996.648,110.781 L982.062,108.784 L971.966,107.572 L970.842,115.22 L969.766,123.476 L945.034,120.167 L920.271,116.879 L895.507,113.53 L865.363,109.522 L866.443,101.408 L866.606,99.9983 L867.461,93.8452 L867.996,88.5566 L868.66,84.9743 L869.216,80.927 L870.374,73.3399 L845.281,69.9787 L819.244,66.4816 L818.609,71.5899 L817.789,76.276 L792.338,72.4356 L793.019,68.914 L793.17,68.197 L793.334,67.3575 L794.576,66.4256 L795.021,66.0869 L798.194,63.6737 L808.553,55.0657 L812.832,51.3376 L818.861,46.337 L813.515,45.6986 L805.459,44.5893 L784.738,41.7309 L775.803,40.5655 L767.329,39.6106 L749.708,37.2113 L738.753,35.5343 L714.348,30.4813 L709.005,25.0986 L697.438,13.6667 L712.595,-1.30973 L713.707,-2.42104 L715.089,-3.39768 L738.211,-20.3362 L745.495,-27.9789 L759.217,-38.9237 L774.06,-51.7336 L792.675,-83.472 L1187.17,-95.0029"/>
   <path fill-rule="evenodd" vector-effect="none" d="M975.307,638.936 L975.779,635.237 L979.281,609.156 L979.644,606.54 L980.747,598.689 L983.167,580.641 L986.618,554.928 L990.155,529.518 L993.683,504.333 L997.417,478.713 L1001.03,452.731 L1004.2,429.795 L1004.24,428.47 L1007.69,403.735 L1011.22,378.61 L1012.99,365.874 L1014.67,353.65 L1018.12,328.935 L1021.66,303.667 L1025.17,278.461 L1028.19,253.616 L1029.16,253.73 L1030.14,253.824 L1044.33,255.831 L1048.08,256.312 L1054.31,257.249 L1055.15,257.347 L1062.95,258.279 L1070.82,259.474 L1087.64,261.791 L1113.38,265.495 L1122.08,266.686 L1129.03,267.663 L1137.18,268.645 L1156.02,271.248 L1161.92,272.114 L1186.54,275.707 L1210.98,279.102 L1218.11,280.012 L1227.84,281.498 L1235.71,282.752 L1243.57,283.926 L1244.19,284.011 L1254.39,630.758 L975.307,638.936"/>
   <path fill-rule="evenodd" vector-effect="none" d="M-111.145,670.237 L-112.629,618.037 L-112.586,617.996 L-88.5272,594.694 L-84.2409,590.52 L-76.5362,583.074 L-68.36,575.125 L-61.1753,568.141 L-57.315,564.428 L-53.4866,560.695 L-47.0028,554.423 L-45.7985,553.228 L-42.5184,550.061 L-30.3907,538.315 L-19.5765,527.786 L-24.5513,522.635 L-30.7413,516.093 L-50.1475,496.266 L-40.1637,486.311 L-30.0513,476.475 L-23.4486,469.996 L-17.9244,464.728 L-11.1652,458.245 L-1.71508,448.834 L7.57365,439.815 L17.469,449.875 L27.3187,459.978 L48.0148,439.843 L56.4684,431.783 L65.0978,423.841 L60.083,418.936 L82.5233,398.994 L86.3176,402.876 L97.605,414.464 L110.921,401.603 L147.361,366.46 L166.685,347.787 L167.967,346.549 L158.181,336.508 L189.461,325.962 L193.916,324.47 L225.211,313.903 L234.509,310.766 L239.602,309.072 L273.736,297.547 L305.605,286.819 L307.312,286.22 L315.741,283.392 L333.995,277.228 L396.953,255.974 L402.012,254.24 L408.733,251.97 L416.09,249.498 L425.636,246.251 L425.234,248.095 L424.232,252.48 L423.801,254.386 L422.079,258.813 L418.694,265.344 L414.409,272.736 L405.411,284.661 L404.686,284.498 L386.637,325.553 L348.511,387.971 L347.769,390.497 L332.032,455.406 L338.818,489.17 L359.521,518.442 L395.603,539.025 L475.969,537.238 L503.222,560.333 L513.006,557.689 L521.064,555.522 L528.716,553.449 L543.872,549.55 L599.19,535.348 L606.767,533.378 L615.511,531.639 L625.196,530.442 L643.609,527.527 L646.573,527.034 L657.074,524.266 L666.359,521.717 L668.985,520.928 L672.668,519.824 L676.01,518.831 L677.969,518.265 L679.261,517.984 L679.635,517.891 L680.429,517.705 L681.114,517.543 L682.905,517.125 L684.446,516.775 L690.752,514.739 L696.235,512.992 L700.57,511.665 L701.673,511.328 L702.435,511.102 L727.828,504.563 L732.99,503.11 L755.906,497.131 L757.478,496.718 L760.138,496.03 L769.673,493.453 L777.989,491.053 L780.27,474.618 L789.289,475.883 L792.802,450.596 L793.946,441.971 L795.106,434.405 L796.466,425.122 L799.884,400.367 L808.628,401.335 L816.342,402.495 L824.839,403.632 L834.983,404.782 L845.028,406.322 L855.101,407.719 L853.824,416.103 L852.842,423.807 L851.565,432.721 L860.304,434.075 L867.701,435.101 L876.313,436.398 L873.011,461.332 L872.28,465.812 L881.345,462.739 L898.524,458.96 L910.366,455.968 L913.427,455.044 L924.443,452.239 L933.555,449.713 L940.854,448.442 L942.082,448.08 L950.644,445.509 L976.888,438.106 L1004.2,429.795 L1001.03,452.731 L997.417,478.713 L993.683,504.333 L990.155,529.518 L986.618,554.928 L983.167,580.641 L980.747,598.689 L979.644,606.54 L979.281,609.156 L975.779,635.237 L975.307,638.936 L-111.145,670.237"/>
  </g>
  <g font-weight="400" stroke="none" font-family="MS Shell Dlg 2" transform="matrix(1,0,0,1,0,85.5885)" fill="#ffb81c" font-style="normal" fill-opacity="0.901961" font-size="7.5625">
   <path fill-rule="evenodd" vector-effect="none" d="M1004.2,429.795 L976.888,438.106 L950.644,445.509 L942.082,448.08 L940.854,448.442 L933.555,449.713 L924.443,452.239 L913.427,455.044 L910.366,455.968 L898.524,458.96 L881.345,462.739 L872.28,465.812 L873.011,461.332 L876.313,436.398 L867.701,435.101 L860.304,434.075 L851.565,432.721 L852.842,423.807 L853.824,416.103 L855.101,407.719 L845.028,406.322 L834.983,404.782 L824.839,403.632 L816.342,402.495 L808.628,401.335 L799.884,400.367 L796.466,425.122 L795.106,434.405 L793.946,441.971 L792.802,450.596 L789.289,475.883 L780.27,474.618 L777.989,491.053 L769.673,493.453 L760.138,496.03 L757.478,496.718 L755.906,497.131 L732.99,503.11 L727.828,504.563 L702.435,511.102 L701.673,511.328 L700.57,511.665 L696.235,512.992 L690.752,514.739 L684.446,516.775 L682.905,517.125 L681.114,517.543 L680.429,517.705 L679.635,517.891 L679.261,517.984 L677.969,518.265 L676.01,518.831 L672.668,519.824 L668.985,520.928 L666.359,521.717 L657.074,524.266 L646.573,527.034 L643.609,527.527 L625.196,530.442 L615.511,531.639 L606.767,533.378 L599.19,535.348 L543.872,549.55 L528.716,553.449 L521.064,555.522 L513.006,557.689 L503.222,560.333 L475.969,537.238 L395.603,539.025 L359.521,518.442 L338.818,489.17 L332.032,455.406 L347.769,390.497 L348.511,387.971 L386.637,325.553 L404.686,284.498 L405.411,284.661 L414.409,272.736 L418.694,265.344 L422.079,258.813 L423.801,254.386 L424.232,252.48 L425.234,248.095 L425.636,246.251 L416.09,249.498 L408.733,251.97 L402.012,254.24 L396.953,255.974 L333.995,277.228 L315.741,283.392 L307.312,286.22 L305.605,286.819 L273.736,297.547 L239.602,309.072 L234.509,310.766 L225.211,313.903 L193.916,324.47 L189.461,325.962 L158.181,336.508 L137.342,314.811 L144.567,307.702 L150.557,301.769 L158.273,294.28 L137.776,273.571 L115.192,249.99 L94.6783,228.67 L75.291,208.885 L83.3243,200.98 L90.1721,194.372 L98.2221,186.507 L105.406,179.604 L112.011,173.266 L119.18,166.404 L114.935,162.067 L111.095,158.227 L107.393,154.261 L104.448,151.006 L96.4769,142.989 L117.493,122.762 L124.87,115.486 L130.907,109.572 L138.525,102.514 L148.802,92.5694 L171.249,115.788 L160.758,125.942 L180.257,145.783 L200.726,167.185 L208.801,175.545 L215.373,182.299 L223.398,190.538 L233.542,201.078 L243.749,211.596 L251.191,204.42 L257.414,198.459 L237.083,177.523 L244.321,170.353 L264.728,191.185 L270.417,197.191 L283.837,210.996 L296.023,223.859 L296.984,222.935 L304.732,215.526 L310.436,210.048 L313.625,207.025 L316.339,204.402 L320.182,200.688 L332.017,189.334 L335.647,185.85 L343.395,178.44 L347.237,174.726 L351.706,170.444 L361.893,181.369 L365.094,182.03 L368.16,182.919 L379.626,188.717 L414.312,206.266 L423.663,210.964 L431.468,215.32 L432.351,210.632 L433.344,185.277 L433.681,176.818 L435,142.658 L435.188,139.416 L435.257,137.989 L436.157,128.984 L437.462,120.966 L438.572,114.907 L440.059,109.938 L442.188,104.97 L444.837,99.5593 L448.599,93.6281 L451.279,90.3748 L454.741,87.0582 L459.392,83.1373 L466.475,77.721 L478.661,73.1551 L487.564,70.5162 L495.074,69.0371 L500.793,68.4445 L505.639,68.0399 L509.863,68.3251 L513.015,68.9466 L519.042,71.4396 L565.39,92.3933 L580.104,98.8492 L584.821,100.484 L591.324,102.087 L595.458,102.497 L603.432,102.979 L610.918,102.803 L612.719,103.85 L615.174,100.42 L631.105,91.5297 L648.33,81.8894 L649.318,81.3518 L649.964,80.3965 L691.024,19.9809 L697.438,13.6667 L709.005,25.0986 L714.348,30.4813 L738.753,35.5343 L749.708,37.2113 L767.329,39.6106 L775.803,40.5655 L784.738,41.7309 L805.459,44.5893 L813.515,45.6986 L818.861,46.337 L812.832,51.3376 L808.553,55.0657 L798.194,63.6737 L795.021,66.0869 L794.576,66.4256 L793.334,67.3575 L793.17,68.197 L793.019,68.914 L792.338,72.4356 L817.789,76.276 L818.609,71.5899 L819.244,66.4816 L845.281,69.9787 L870.374,73.3399 L869.216,80.927 L868.66,84.9743 L867.996,88.5566 L867.461,93.8452 L866.606,99.9983 L866.443,101.408 L865.363,109.522 L895.507,113.53 L920.271,116.879 L945.034,120.167 L969.766,123.476 L970.842,115.22 L971.966,107.572 L982.062,108.784 L996.648,110.781 L1003.34,111.786 L1005.13,111.897 L1011.97,112.816 L1021.52,114.145 L1035.69,115.889 L1037.32,116.127 L1046.71,117.419 L1045.82,125.019 L1044.73,133.419 L1043.37,143.496 L1042.04,153.205 L1038.88,177.587 L1036.92,191.509 L1035.37,200.634 L1032.55,222.033 L1028.19,253.616 L1025.17,278.461 L1021.66,303.667 L1018.12,328.935 L1014.67,353.65 L1012.99,365.874 L1011.22,378.61 L1007.69,403.735 L1004.24,428.47 L1004.2,429.795"/>
  </g>
  <g font-weight="400" stroke="#232323" stroke-linejoin="bevel" font-family="MS Shell Dlg 2" transform="matrix(1,0,0,1,0,85.5885)" fill="#ffffff" stroke-linecap="square" stroke-width="0.675591" font-style="normal" fill-opacity="0.189807" font-size="7.5625" stroke-opacity="0.0603952">
   <path fill-rule="evenodd" vector-effect="none" d="M792.675,-83.472 L774.06,-51.7336 L759.217,-38.9237 L745.495,-27.9789 L738.211,-20.3362 L715.089,-3.39768 L713.707,-2.42104 L712.595,-1.30973 L697.438,13.6667 L691.024,19.9809 L649.964,80.3965 L649.318,81.3518 L648.33,81.8894 L631.105,91.5297 L615.174,100.42 L612.719,103.85 L610.918,102.803 L603.432,102.979 L595.458,102.497 L591.324,102.087 L584.821,100.484 L580.104,98.8492 L565.39,92.3933 L519.042,71.4396 L513.015,68.9466 L509.863,68.3251 L505.639,68.0399 L500.793,68.4445 L495.074,69.0371 L487.564,70.5162 L478.661,73.1551 L466.475,77.721 L459.392,83.1373 L454.741,87.0582 L451.279,90.3748 L448.599,93.6281 L444.837,99.5593 L442.188,104.97 L440.059,109.938 L438.572,114.907 L437.462,120.966 L436.157,128.984 L435.257,137.989 L435.188,139.416 L435,142.658 L433.681,176.818 L433.344,185.277 L432.351,210.632 L431.468,215.32 L423.663,210.964 L414.312,206.266 L379.626,188.717 L368.16,182.919 L365.094,182.03 L361.893,181.369 L351.706,170.444 L347.237,174.726 L343.395,178.44 L335.647,185.85 L332.017,189.334 L320.182,200.688 L316.339,204.402 L313.625,207.025 L310.436,210.048 L304.732,215.526 L296.984,222.935 L296.023,223.859 L283.837,210.996 L270.417,197.191 L264.728,191.185 L244.321,170.353 L237.083,177.523 L257.414,198.459 L251.191,204.42 L243.749,211.596 L233.542,201.078 L223.398,190.538 L215.373,182.299 L208.801,175.545 L200.726,167.185 L180.257,145.783 L160.758,125.942 L171.249,115.788 L148.802,92.5694 L159.411,82.1677 L152.167,74.9033 L145.679,68.3298 L138.779,61.0147 L130.337,52.4001 L128.234,50.0986 L123.23,48.8166 L118.051,47.4581 L101.917,43.2979 L91.5335,40.7444 L86.2975,39.5707 L81.0197,38.5814 L75.7443,37.6734 L70.622,36.6389 L65.3835,41.9597 L51.834,54.7655 L43.751,62.5495 L37.7109,68.3409 L30.8976,75.0502 L22.7155,66.7329 L16.1438,59.9372 L8.26164,51.6927 L-12.6191,71.7511 L-4.62326,80.135 L1.93445,86.9923 L-9.48884,98.0064 L-21.0069,109.003 L-24.3599,105.719 L-27.6428,102.148 L-35.5041,94.0855 L-53.8807,111.873 L-65.3089,100.166 L-76.4399,88.4306 L-86.9642,78.1841 L-93.4356,71.5887 L-98.4538,66.4992 L-106.686,58.0603 L-115.901,48.0818 L-112.58,46.9491 L-111.393,36.8784 L-110.021,27.2707 L-108.669,16.4216 L-107.31,5.77602 L-106.124,-3.76532 L-104.585,-14.64 L-103.217,-25.5099 L-102.562,-30.0075 L-102.058,-34.9079 L-100.576,-45.5978 L-99.1601,-55.8583 L-98.9008,-57.8268 L792.675,-83.472"/>
   <path fill-rule="evenodd" vector-effect="none" d="M158.181,336.508 L167.967,346.549 L166.685,347.787 L147.361,366.46 L110.921,401.603 L97.605,414.464 L86.3176,402.876 L82.5233,398.994 L60.083,418.936 L65.0978,423.841 L56.4684,431.783 L48.0148,439.843 L27.3187,459.978 L17.469,449.875 L7.57365,439.815 L-1.71508,448.834 L-11.1652,458.245 L-17.9244,464.728 L-23.4486,469.996 L-30.0513,476.475 L-40.1637,486.311 L-50.1475,496.266 L-30.7413,516.093 L-24.5513,522.635 L-19.5765,527.786 L-30.3907,538.315 L-42.5184,550.061 L-45.7985,553.228 L-47.0028,554.423 L-53.4866,560.695 L-57.315,564.428 L-61.1753,568.141 L-68.36,575.125 L-76.5362,583.074 L-84.2409,590.52 L-88.5272,594.694 L-112.586,617.996 L-112.629,618.037 L-131.809,-56.8912 L-98.9008,-57.8268 L-99.1601,-55.8583 L-100.576,-45.5978 L-102.058,-34.9079 L-102.562,-30.0075 L-103.217,-25.5099 L-104.585,-14.64 L-106.124,-3.76532 L-107.31,5.77602 L-108.669,16.4216 L-110.021,27.2707 L-111.393,36.8784 L-112.58,46.9491 L-115.901,48.0818 L-106.686,58.0603 L-98.4538,66.4992 L-93.4356,71.5887 L-86.9642,78.1841 L-76.4399,88.4306 L-65.3089,100.166 L-53.8807,111.873 L-35.5041,94.0855 L-27.6428,102.148 L-24.3599,105.719 L-21.0069,109.003 L-9.48884,98.0064 L1.93445,86.9923 L-4.62326,80.135 L-12.6191,71.7511 L8.26164,51.6927 L16.1438,59.9372 L22.7155,66.7329 L30.8976,75.0502 L37.7109,68.3409 L43.751,62.5495 L51.834,54.7655 L65.3835,41.9597 L70.622,36.6389 L75.7443,37.6734 L81.0197,38.5814 L86.2975,39.5707 L91.5335,40.7444 L101.917,43.2979 L118.051,47.4581 L123.23,48.8166 L128.234,50.0986 L130.337,52.4001 L138.779,61.0147 L145.679,68.3298 L152.167,74.9033 L159.411,82.1677 L148.802,92.5694 L138.525,102.514 L130.907,109.572 L124.87,115.486 L117.493,122.762 L96.4769,142.989 L104.448,151.006 L107.393,154.261 L111.095,158.227 L114.935,162.067 L119.18,166.404 L112.011,173.266 L105.406,179.604 L98.2221,186.507 L90.1721,194.372 L83.3243,200.98 L75.291,208.885 L94.6783,228.67 L115.192,249.99 L137.776,273.571 L158.273,294.28 L150.557,301.769 L144.567,307.702 L137.342,314.811 L158.181,336.508"/>
  </g>
  <g font-weight="400" stroke="#000000" stroke-linejoin="bevel" font-family="MS Shell Dlg 2" transform="matrix(1,0,0,1,0,85.5885)" fill="none" stroke-linecap="square" stroke-width="1" font-style="normal" font-size="7.5625" stroke-opacity="1"/>
  <g font-weight="400" stroke="#000000" stroke-linejoin="bevel" font-family="MS Shell Dlg 2" transform="matrix(2.59843,0,0,2.59843,0,85.5885)" fill="none" stroke-linecap="square" stroke-width="1" font-style="normal" font-size="7.5625" stroke-opacity="1"/>
  <g font-weight="400" stroke="#000000" stroke-linejoin="bevel" font-family="MS Shell Dlg 2" transform="matrix(2.59843,0,0,2.59843,0,85.5885)" fill="none" stroke-linecap="square" stroke-width="1" font-style="normal" font-size="7.5625" stroke-opacity="1"/>
  <g font-weight="400" stroke="#000000" stroke-linejoin="bevel" font-family="MS Shell Dlg 2" transform="matrix(2.59843,0,0,2.59843,0,85.5885)" fill="none" stroke-linecap="square" stroke-width="1" font-style="normal" font-size="7.5625" stroke-opacity="1"/>
  <g font-weight="400" stroke="#000000" stroke-linejoin="bevel" font-family="MS Shell Dlg 2" transform="matrix(1,0,0,1,0,0)" fill="none" stroke-linecap="square" stroke-width="1" font-style="normal" font-size="7.5625" stroke-opacity="1"/>
  <g font-weight="400" stroke="#000000" stroke-linejoin="bevel" font-family="MS Shell Dlg 2" transform="matrix(2.59843,0,0,2.59843,0,85.5885)" fill="none" stroke-linecap="square" stroke-width="1" font-style="normal" font-size="7.5625" stroke-opacity="1"/>
  <g font-weight="400" stroke="#000000" stroke-linejoin="bevel" font-family="MS Shell Dlg 2" transform="matrix(2.59843,0,0,2.59843,0,85.5885)" fill="none" stroke-linecap="square" stroke-width="1" font-style="normal" font-size="7.5625" stroke-opacity="1"/>
  <g font-weight="400" stroke="#000000" stroke-linejoin="bevel" font-family="MS Shell Dlg 2" transform="matrix(1,0,0,1,0,0)" fill="none" stroke-linecap="square" stroke-width="1" font-style="normal" font-size="7.5625" stroke-opacity="1"/>
 </g>
 <defs/>
 <g inkscape:groupmode="layer" stroke="black" stroke-linejoin="bevel" fill="none" stroke-linecap="square" stroke-width="1" inkscape:label="Map 1: Pittsburgh" fill-rule="evenodd" id="Map 1: Pittsburgh">
  <g font-weight="400" stroke="#000000" stroke-linejoin="bevel" font-family="MS Shell Dlg 2" transform="matrix(1,0,0,1,0,0)" fill="none" stroke-linecap="square" stroke-width="1" font-style="normal" font-size="7.5625" stroke-opacity="1"/>
  <g font-weight="400" stroke="#000000" stroke-linejoin="bevel" font-family="MS Shell Dlg 2" transform="matrix(1,0,0,1,0,0)" fill="none" stroke-linecap="square" stroke-width="1" font-style="normal" font-size="7.5625" stroke-opacity="1"/>
  <g font-weight="400" stroke="#000000" stroke-linejoin="bevel" font-family="MS Shell Dlg 2" transform="matrix(2.59843,0,0,2.59843,0,85.5885)" fill="none" stroke-linecap="square" stroke-width="1" font-style="normal" font-size="7.5625" stroke-opacity="1"/>
  <g font-weight="400" stroke="#000000" stroke-linejoin="bevel" font-family="MS Shell Dlg 2" transform="matrix(2.59843,0,0,2.59843,0,85.5885)" fill="none" stroke-linecap="square" stroke-width="1" font-style="normal" font-size="7.5625" stroke-opacity="1"/>
  <g font-weight="400" stroke="none" font-family="MS Shell Dlg 2" transform="matrix(1,0,0,1,0,85.5885)" fill="#000000" font-style="normal" fill-opacity="0" font-size="7.5625">
   <rect x="0" width="1122" y="0" height="574"/>
  </g>
  <g font-weight="400" stroke="#000000" stroke-linejoin="bevel" font-family="MS Shell Dlg 2" transform="matrix(1,0,0,1,0,85.5885)" fill="none" stroke-linecap="square" stroke-width="1" font-style="normal" font-size="7.5625" stroke-opacity="1"/>
  <g font-weight="400" stroke="#000000" stroke-linejoin="bevel" font-family="MS Shell Dlg 2" transform="matrix(1,0,0,1,0,85.5885)" fill="none" stroke-linecap="square" stroke-width="1" font-style="normal" font-size="7.5625" stroke-opacity="1"/>
  <g font-weight="400" stroke="#000000" stroke-linejoin="bevel" font-family="MS Shell Dlg 2" transform="matrix(2.59843,0,0,2.59843,0,85.5885)" fill="none" stroke-linecap="square" stroke-width="1" font-style="normal" font-size="7.5625" stroke-opacity="1"/>
  <g font-weight="400" stroke="#000000" stroke-linejoin="bevel" font-family="MS Shell Dlg 2" transform="matrix(2.59843,0,0,2.59843,0,85.5885)" fill="none" stroke-linecap="square" stroke-width="1" font-style="normal" font-size="7.5625" stroke-opacity="1"/>
  <g font-weight="400" stroke="#000000" stroke-linejoin="bevel" font-family="MS Shell Dlg 2" transform="matrix(2.59843,0,0,2.59843,0,85.5885)" fill="none" stroke-linecap="square" stroke-width="1" font-style="normal" font-size="7.5625" stroke-opacity="1"/>
  <g font-weight="400" stroke="#000000" stroke-linejoin="bevel" font-family="MS Shell Dlg 2" transform="matrix(1,0,0,1,0,0)" fill="none" stroke-linecap="square" stroke-width="1" font-style="normal" font-size="7.5625" stroke-opacity="1"/>
  <g font-weight="400" stroke="#000000" stroke-linejoin="bevel" font-family="MS Shell Dlg 2" transform="matrix(2.59843,0,0,2.59843,0,85.5885)" fill="none" stroke-linecap="square" stroke-width="1" font-style="normal" font-size="7.5625" stroke-opacity="1"/>
  <g font-weight="400" stroke="#000000" stroke-linejoin="bevel" font-family="MS Shell Dlg 2" transform="matrix(2.59843,0,0,2.59843,0,85.5885)" fill="none" stroke-linecap="square" stroke-width="1" font-style="normal" font-size="7.5625" stroke-opacity="1"/>
  <g font-weight="400" stroke="#000000" stroke-linejoin="bevel" font-family="MS Shell Dlg 2" transform="matrix(1,0,0,1,0,0)" fill="none" stroke-linecap="square" stroke-width="1" font-style="normal" font-size="7.5625" stroke-opacity="1"/>
 </g>
 <defs/>
 <g inkscape:groupmode="layer" stroke="black" stroke-linejoin="bevel" fill="none" stroke-linecap="square" stroke-width="1" inkscape:label="Map 1: WP_Wards_reallocated (atlas)" fill-rule="evenodd" id="Map 1: WP_Wards_reallocated (atlas)">
  <g font-weight="400" stroke="#000000" stroke-linejoin="bevel" font-family="MS Shell Dlg 2" transform="matrix(1,0,0,1,0,0)" fill="none" stroke-linecap="square" stroke-width="1" font-style="normal" font-size="7.5625" stroke-opacity="1"/>
  <g font-weight="400" stroke="#000000" stroke-linejoin="bevel" font-family="MS Shell Dlg 2" transform="matrix(1,0,0,1,0,0)" fill="none" stroke-linecap="square" stroke-width="1" font-style="normal" font-size="7.5625" stroke-opacity="1"/>
  <g font-weight="400" stroke="#000000" stroke-linejoin="bevel" font-family="MS Shell Dlg 2" transform="matrix(2.59843,0,0,2.59843,0,85.5885)" fill="none" stroke-linecap="square" stroke-width="1" font-style="normal" font-size="7.5625" stroke-opacity="1"/>
  <g font-weight="400" stroke="#000000" stroke-linejoin="bevel" font-family="MS Shell Dlg 2" transform="matrix(2.59843,0,0,2.59843,0,85.5885)" fill="none" stroke-linecap="square" stroke-width="1" font-style="normal" font-size="7.5625" stroke-opacity="1"/>
  <g font-weight="400" stroke="none" font-family="MS Shell Dlg 2" transform="matrix(1,0,0,1,0,85.5885)" fill="#000000" font-style="normal" fill-opacity="0" font-size="7.5625">
   <rect x="0" width="1122" y="0" height="574"/>
  </g>
  <g font-weight="400" stroke="#000000" stroke-linejoin="bevel" font-family="MS Shell Dlg 2" transform="matrix(1,0,0,1,0,85.5885)" fill="none" stroke-linecap="square" stroke-width="1" font-style="normal" font-size="7.5625" stroke-opacity="1"/>
  <g stroke-dasharray="2.07874,1.03937" font-weight="400" stroke="#232323" stroke-linejoin="bevel" font-family="MS Shell Dlg 2" stroke-dashoffset="0" transform="matrix(1,0,0,1,0,85.5885)" fill="none" stroke-linecap="square" stroke-width="0.519685" font-style="normal" font-size="7.5625" stroke-opacity="0.0599985">
   <path fill-rule="evenodd" vector-effect="none" d="M1248.7,437.267 L1239.08,435.858 L1214.39,432.349 L1189.66,428.8 L1165.45,425.48 L1140.88,422.006 L1116.12,418.599 L1107.3,417.433 L1105.75,417.071 L1100.11,416.299 L1091.25,415.052 L1092.53,406.301 L1093.6,398.981 L1094.74,390.132 L1096.04,381.523 L1097.27,373.302 L1098.27,365.028 L1099.76,356.474 L1100.74,348.932 L1102.02,340.181 L1097.77,339.43 L1095.53,339.597 L1091.77,338.628 L1077.11,336.717 L1069.36,335.518 L1062.78,334.652 L1052.37,333.186 L1043.44,331.859 L1034.55,330.612 L1029.39,330.051 L1019.74,328.582 L1018.12,328.935 L1021.66,303.667 L1025.17,278.461 L1028.19,253.616 L1029.16,253.73 L1030.14,253.824 L1044.33,255.831 L1048.08,256.312 L1054.31,257.249 L1055.15,257.347 L1062.95,258.279 L1070.82,259.474 L1087.64,261.791 L1113.38,265.495 L1122.08,266.686 L1129.03,267.663 L1137.18,268.645 L1156.02,271.248 L1161.92,272.114 L1186.54,275.707 L1210.98,279.102 L1218.11,280.012 L1227.84,281.498 L1235.71,282.752 L1243.57,283.926 L1244.19,284.011 L1248.7,437.267"/>
   <path fill-rule="evenodd" vector-effect="none" d="M1244.19,284.011 L1243.57,283.926 L1235.71,282.752 L1227.84,281.498 L1218.11,280.012 L1210.98,279.102 L1186.54,275.707 L1161.92,272.114 L1156.02,271.248 L1137.18,268.645 L1129.03,267.663 L1122.08,266.686 L1113.38,265.495 L1087.64,261.791 L1070.82,259.474 L1062.95,258.279 L1055.15,257.347 L1054.31,257.249 L1048.08,256.312 L1044.33,255.831 L1030.14,253.824 L1029.16,253.73 L1028.19,253.616 L1032.55,222.033 L1035.37,200.634 L1036.92,191.509 L1038.88,177.587 L1042.04,153.205 L1043.37,143.496 L1044.73,133.419 L1045.82,125.019 L1046.71,117.419 L1049.49,96.836 L1051.36,84.7692 L1051.65,82.2566 L1052.21,77.1098 L1053.62,68.6193 L1054.86,59.1361 L1056.15,59.3223 L1057.3,59.4516 L1073.77,61.5957 L1077.58,62.2374 L1089.81,63.9355 L1114.53,67.1198 L1120.9,67.9103 L1139.34,70.2403 L1146.07,71.1015 L1156.68,72.5209 L1164.1,73.5042 L1173.37,74.6778 L1180.78,75.7834 L1188.85,76.9512 L1194.91,77.6895 L1201.23,78.42 L1213.55,80.0736 L1238.28,83.4591 L1238.29,83.4603 L1244.19,284.011"/>
   <path fill-rule="evenodd" vector-effect="none" d="M-93.4356,71.5887 L-86.9642,78.1841 L-76.4399,88.4306 L-65.3089,100.166 L-53.8807,111.873 L-42.587,123.258 L-31.4212,135.094 L-23.3706,143.192 L-20.1015,146.824 L-16.7797,150.109 L-8.79852,158.514 L-7.83871,159.199 L1.20269,171.259 L10.9321,184.357 L21.4834,194.948 L31.988,205.541 L39.7632,213.849 L46.3745,220.358 L54.4249,228.965 L33.5501,249.308 L8.71511,273.145 L3.40001,277.47 L1.91405,278.123 L0.0812486,278.704 L-1.95513,279.292 L-4.47929,279.812 L-6.29295,279.965 L-8.93659,279.593 L-13.3446,278.354 L-15.8124,276.999 L-19.5569,274.846 L-20.3833,273.892 L-25.1015,270.566 L-31.0504,266.949 L-43.6058,258.633 L-45.0123,257.676 L-44.0495,256.814 L-41.4313,254.642 L-38.0087,252.651 L-37.333,252.164 L-34.8019,250.239 L-31.8277,247.365 L-27.5322,241.909 L-26.6726,239.624 L-26.7566,237.224 L-26.7444,234.353 L-25.6992,232.532 L-24.614,231.015 L-24.2045,228.336 L-25.0002,225.163 L-24.9746,222.21 L-25.3753,219.147 L-26.5091,216.757 L-27.3627,214.847 L-28.2297,210.82 L-28.6071,205.273 L-28.9962,203.167 L-30.1213,201.631 L-31.5695,200.308 L-33.6655,199.35 L-36.741,198.664 L-41.3175,198.102 L-43.9117,197.809 L-47.0539,197.532 L-50.2176,197.052 L-52.6157,197.039 L-55.4883,197.426 L-58.5494,197.799 L-62.6857,198.934 L-67.3963,200.27 L-70.0932,201.324 L-72.3963,201.898 L-75.4359,202.473 L-78.6953,202.484 L-81.1033,202.675 L-83.7851,203.159 L-87.4987,203.732 L-89.5982,204.301 L-91.7029,204.687 L-94.4798,204.583 L-96.8803,204.488 L-98.3198,204.57 L-100.476,206.993 L-100.698,206.917 L-101.934,206.423 L-103.508,205.654 L-104.671,204.974 L-105.039,204.7 L-106.124,204.568 L-107.961,203.928 L-109.595,203.2 L-110.639,202.314 L-111.422,201.257 L-113.856,198.863 L-116.809,195.323 L-118.741,193.505 L-119.594,192.165 L-119.591,190.638 L-119.303,188.635 L-118.723,186.419 L-117.678,184.028 L-116.432,182.12 L-114.621,180.215 L-113.388,178.389 L-111.852,176.187 L-110.414,173.316 L-108.502,170.554 L-107.391,167.734 L-106.845,166.537 L-106.491,165.774 L-105.846,164.758 L-105.245,163.845 L-102.819,160.987 L-101.187,158.294 L-99.4726,154.662 L-99.3477,151.89 L-99.9489,148.934 L-100.498,146.161 L-101.092,143.47 L-102.22,140.692 L-103.388,138.221 L-105.116,134.769 L-106.916,132.092 L-109.202,128.838 L-110.656,126.742 L-111.883,124.924 L-113.512,123.871 L-115.346,123.292 L-117.736,123.014 L-118.727,122.879 L-121.984,122.422 L-124.564,122.048 L-126.728,121.873 L-131.809,-56.8912 L-98.9008,-57.8268 L-99.1601,-55.8583 L-100.576,-45.5978 L-102.058,-34.9079 L-102.562,-30.0075 L-103.217,-25.5099 L-104.585,-14.64 L-106.124,-3.76532 L-107.31,5.77602 L-108.669,16.4216 L-110.021,27.2707 L-111.393,36.8784 L-112.58,46.9491 L-115.901,48.0818 L-106.686,58.0603 L-98.4538,66.4992 L-93.4356,71.5887"/>
   <path fill-rule="evenodd" vector-effect="none" d="M1233.01,-96.35 L1238.29,83.4603 L1238.28,83.4591 L1213.55,80.0736 L1201.23,78.42 L1194.91,77.6895 L1188.85,76.9512 L1180.78,75.7834 L1173.37,74.6778 L1164.1,73.5042 L1156.68,72.5209 L1146.07,71.1015 L1139.34,70.2403 L1120.9,67.9103 L1114.53,67.1198 L1089.81,63.9355 L1077.58,62.2374 L1073.77,61.5957 L1057.3,59.4516 L1056.15,59.3223 L1054.86,59.1361 L1056.32,50.7053 L1056.34,50.4196 L1056.75,47.5168 L1057.93,38.6869 L1058.98,38.8393 L1060.15,38.9681 L1060.63,35.5133 L1062.8,20.404 L1064.54,7.58774 L1065.68,-0.976355 L1066.43,-8.53131 L1067.69,-17.4652 L1069.95,-33.6152 L1073.14,-56.8369 L1075.33,-71.9467 L1077.47,-87.951 L1078.05,-91.8022 L1233.01,-96.35"/>
   <path fill-rule="evenodd" vector-effect="none" d="M1078.05,-91.8022 L1077.47,-87.951 L1075.33,-71.9467 L1073.14,-56.8369 L1069.95,-33.6152 L1067.69,-17.4652 L1066.43,-8.53131 L1065.68,-0.976355 L1064.54,7.58774 L1062.8,20.404 L1060.63,35.5133 L1060.15,38.9681 L1058.98,38.8393 L1057.93,38.6869 L1043.29,36.5704 L1032.3,35.1005 L1020.14,33.5017 L1007.67,32.1968 L982.979,28.6024 L958.003,25.4841 L933.327,22.438 L921.128,20.5748 L908.517,19.0697 L878.496,14.8959 L865.968,13.5712 L853.414,11.8603 L843.833,10.5716 L835.068,9.32026 L819.025,7.28306 L801.528,4.79938 L782.164,2.2476 L772.947,1.07006 L764.015,-0.0140232 L748.293,-6.09252 L744.653,-7.88017 L738.211,-20.3362 L745.495,-27.9789 L759.217,-38.9237 L774.06,-51.7336 L792.675,-83.472 L1078.05,-91.8022"/>
   <path fill-rule="evenodd" vector-effect="none" d="M469.64,653.611 L497.864,586.527 L503.222,560.333 L513.006,557.689 L521.064,555.522 L528.716,553.449 L543.872,549.55 L599.19,535.348 L606.767,533.378 L615.511,531.639 L625.196,530.442 L643.609,527.527 L646.573,527.034 L657.074,524.266 L666.359,521.717 L668.985,520.928 L672.668,519.824 L676.01,518.831 L677.969,518.265 L679.261,517.984 L679.635,517.891 L680.429,517.705 L681.114,517.543 L682.905,517.125 L684.446,516.775 L690.752,514.739 L696.235,512.992 L700.57,511.665 L701.673,511.328 L702.435,511.102 L727.828,504.563 L732.99,503.11 L755.906,497.131 L757.478,496.718 L760.138,496.03 L769.673,493.453 L777.989,491.053 L787.488,488.883 L814.392,480.955 L818.734,479.872 L826.861,477.416 L836.015,475.236 L846.317,472.656 L855.604,470.207 L863.045,468.443 L872.28,465.812 L881.345,462.739 L898.524,458.96 L910.366,455.968 L913.427,455.044 L924.443,452.239 L933.555,449.713 L940.854,448.442 L942.082,448.08 L950.644,445.509 L976.888,438.106 L1004.2,429.795 L1001.03,452.731 L997.417,478.713 L993.683,504.333 L990.155,529.518 L986.618,554.928 L983.167,580.641 L980.747,598.689 L979.644,606.54 L979.281,609.156 L975.779,635.237 L975.307,638.936 L469.64,653.611"/>
   <path fill-rule="evenodd" vector-effect="none" d="M691.024,19.9809 L649.964,80.3965 L649.318,81.3518 L648.33,81.8894 L631.105,91.5297 L615.174,100.42 L612.719,103.85 L610.918,102.803 L603.432,102.979 L595.458,102.497 L591.324,102.087 L584.821,100.484 L580.104,98.8492 L565.39,92.3933 L519.042,71.4396 L513.015,68.9466 L509.863,68.3251 L505.639,68.0399 L500.793,68.4445 L495.074,69.0371 L487.564,70.5162 L478.661,73.1551 L466.475,77.721 L459.392,83.1373 L454.741,87.0582 L451.279,90.3748 L448.599,93.6281 L444.837,99.5593 L442.188,104.97 L440.059,109.938 L438.572,114.907 L437.462,120.966 L436.157,128.984 L435.257,137.989 L435.188,139.416 L435,142.658 L433.681,176.818 L433.344,185.277 L432.351,210.632 L431.468,215.32 L423.663,210.964 L414.312,206.266 L379.626,188.717 L368.16,182.919 L365.094,182.03 L361.893,181.369 L351.706,170.444 L347.237,174.726 L343.395,178.44 L335.647,185.85 L332.017,189.334 L320.182,200.688 L316.339,204.402 L313.625,207.025 L310.436,210.048 L304.732,215.526 L296.984,222.935 L296.023,223.859 L283.837,210.996 L270.417,197.191 L264.728,191.185 L244.321,170.353 L236.436,162.069 L229.784,155.256 L221.759,147.017 L230.59,138.559 L239.059,130.03 L258.229,112.154 L265.085,105.341 L270.433,100.037 L277.468,93.4215 L281.231,89.6895 L296.454,74.6345 L316.485,55.6951 L336.084,36.4623 L343.723,29.0966 L355.883,17.6715 L345.539,6.71044 L335.106,-4.10559 L328.888,-10.5232 L320.797,-18.9025 L315.904,-23.9534 L310.393,-29.2309 L309.933,-30.5207 L312.87,-54.2827 L314.903,-69.6579 L792.675,-83.472 L774.06,-51.7336 L759.217,-38.9237 L745.495,-27.9789 L738.211,-20.3362 L715.089,-3.39768 L713.707,-2.42104 L712.595,-1.30973 L697.438,13.6667 L691.024,19.9809"/>
   <path fill-rule="evenodd" vector-effect="none" d="M1045.82,125.019 L1044.73,133.419 L1043.37,143.496 L1042.04,153.205 L1038.88,177.587 L1013.23,173.939 L1005.25,172.971 L988.395,171.041 L980.496,169.969 L972.145,168.971 L963.592,168.02 L953.912,166.592 L946.614,165.686 L938.877,164.792 L930.092,163.44 L922.655,162.598 L914.073,161.749 L889.53,158.494 L858.99,154.356 L834,150.808 L807.962,147.311 L782.065,143.829 L753.517,140.811 L739.871,139.334 L728.497,137.812 L714.378,136.247 L706.166,142.735 L702.217,146.494 L698.918,149.481 L695.009,153.035 L690.427,156.079 L682.179,149.946 L666.641,138.364 L637.041,116.298 L631.948,114.145 L630.045,113.365 L627.784,112.657 L612.719,103.85 L615.174,100.42 L631.105,91.5297 L648.33,81.8894 L649.318,81.3518 L649.964,80.3965 L691.024,19.9809 L697.438,13.6667 L712.595,-1.30973 L713.707,-2.42104 L715.089,-3.39768 L738.211,-20.3362 L744.653,-7.88017 L748.293,-6.09252 L764.015,-0.0140232 L772.947,1.07006 L782.164,2.2476 L801.528,4.79938 L819.025,7.28306 L835.068,9.32026 L843.833,10.5716 L853.414,11.8603 L865.968,13.5712 L878.496,14.8959 L908.517,19.0697 L921.128,20.5748 L933.327,22.438 L958.003,25.4841 L982.979,28.6024 L1007.67,32.1968 L1020.14,33.5017 L1032.3,35.1005 L1043.29,36.5704 L1057.93,38.6869 L1056.75,47.5168 L1056.34,50.4196 L1056.32,50.7053 L1054.86,59.1361 L1053.62,68.6193 L1052.21,77.1098 L1051.65,82.2566 L1051.36,84.7692 L1049.49,96.836 L1046.71,117.419 L1045.82,125.019"/>
   <path fill-rule="evenodd" vector-effect="none" d="M682.179,149.946 L690.427,156.079 L695.009,153.035 L698.918,149.481 L702.217,146.494 L706.166,142.735 L714.378,136.247 L728.497,137.812 L739.871,139.334 L753.517,140.811 L782.065,143.829 L807.962,147.311 L834,150.808 L858.99,154.356 L889.53,158.494 L914.073,161.749 L922.655,162.598 L930.092,163.44 L938.877,164.792 L946.614,165.686 L953.912,166.592 L963.592,168.02 L972.145,168.971 L980.496,169.969 L988.395,171.041 L1005.25,172.971 L1013.23,173.939 L1038.88,177.587 L1036.92,191.509 L1035.37,200.634 L1032.55,222.033 L1028.19,253.616 L1025.17,278.461 L1021.66,303.667 L1018.12,328.935 L1014.67,353.65 L1012.99,365.874 L1011.22,378.61 L1001.39,376.902 L994.009,376.018 L985.443,374.681 L976.885,373.628 L969.662,372.658 L960.863,371.367 L952.325,370.456 L945.018,369.305 L936.111,368.079 L911.541,364.581 L902.273,363.345 L895.081,362.354 L886.651,361.357 L861.876,357.804 L831.628,353.595 L806.808,350.082 L780.74,346.789 L777.263,346.34 L754.943,343.1 L746.576,342.121 L738.753,340.964 L726.819,339.132 L726.063,339.032 L710.549,336.978 L701.501,335.754 L676.548,332.488 L664.214,330.911 L651.982,329.067 L643.499,327.847 L635.726,326.81 L627.276,325.65 L630.657,300.612 L634.089,275.715 L625.465,274.478 L617.594,273.301 L609.201,272.486 L601.057,271.072 L596.917,270.459 L592.998,269.88 L584.598,268.82 L576.24,267.596 L568.058,266.469 L559.96,265.563 L533.156,261.635 L529.011,260.838 L528.903,262.551 L527.544,275.193 L526.199,286.144 L524.949,293.306 L524.772,294.227 L524.584,298.59 L524.882,302.918 L525.468,305.853 L526.257,308.762 L526.451,309.509 L527.158,311.199 L527.75,312.689 L528.25,313.713 L525.374,312.9 L522.578,312.146 L516.715,310.503 L515.173,310.283 L484.945,302.89 L461.177,296.653 L456.068,296.658 L449.358,293.879 L444.576,293.834 L418.593,287.966 L405.411,284.661 L414.409,272.736 L418.694,265.344 L422.079,258.813 L423.801,254.386 L424.232,252.48 L425.234,248.095 L425.636,246.251 L426.072,243.999 L431.468,215.32 L432.351,210.632 L433.344,185.277 L433.681,176.818 L435,142.658 L435.188,139.416 L435.257,137.989 L436.157,128.984 L437.462,120.966 L438.572,114.907 L440.059,109.938 L442.188,104.97 L444.837,99.5593 L448.599,93.6281 L451.279,90.3748 L454.741,87.0582 L459.392,83.1373 L466.475,77.721 L478.661,73.1551 L487.564,70.5162 L495.074,69.0371 L500.793,68.4445 L505.639,68.0399 L509.863,68.3251 L513.015,68.9466 L519.042,71.4396 L565.39,92.3933 L580.104,98.8492 L584.821,100.484 L591.324,102.087 L595.458,102.497 L603.432,102.979 L610.918,102.803 L612.719,103.85 L627.784,112.657 L630.045,113.365 L631.948,114.145 L637.041,116.298 L666.641,138.364 L682.179,149.946"/>
   <path fill-rule="evenodd" vector-effect="none" d="M1091.77,338.628 L1095.53,339.597 L1097.77,339.43 L1102.02,340.181 L1100.74,348.932 L1099.76,356.474 L1098.27,365.028 L1097.27,373.302 L1096.04,381.523 L1094.74,390.132 L1093.6,398.981 L1092.53,406.301 L1091.25,415.052 L1100.11,416.299 L1105.75,417.071 L1107.3,417.433 L1116.12,418.599 L1140.88,422.006 L1165.45,425.48 L1189.66,428.8 L1214.39,432.349 L1239.08,435.858 L1248.7,437.267 L1254.39,630.758 L975.307,638.936 L975.779,635.237 L979.281,609.156 L979.644,606.54 L980.747,598.689 L983.167,580.641 L986.618,554.928 L990.155,529.518 L993.683,504.333 L997.417,478.713 L1001.03,452.731 L1004.2,429.795 L1004.24,428.47 L1007.69,403.735 L1011.22,378.61 L1012.99,365.874 L1014.67,353.65 L1018.12,328.935 L1019.74,328.582 L1029.39,330.051 L1034.55,330.612 L1043.44,331.859 L1052.37,333.186 L1062.78,334.652 L1069.36,335.518 L1077.11,336.717 L1091.77,338.628"/>
   <path fill-rule="evenodd" vector-effect="none" d="M137.776,273.571 L158.273,294.28 L150.557,301.769 L144.567,307.702 L137.342,314.811 L158.181,336.508 L189.461,325.962 L193.916,324.47 L225.211,313.903 L234.509,310.766 L239.602,309.072 L273.736,297.547 L305.605,286.819 L307.312,286.22 L315.741,283.392 L333.995,277.228 L396.953,255.974 L402.012,254.24 L408.733,251.97 L416.09,249.498 L425.636,246.251 L425.234,248.095 L424.232,252.48 L423.801,254.386 L422.079,258.813 L418.694,265.344 L414.409,272.736 L405.411,284.661 L404.686,284.498 L386.637,325.553 L348.511,387.971 L347.769,390.497 L332.032,455.406 L338.818,489.17 L359.521,518.442 L395.603,539.025 L475.969,537.238 L503.222,560.333 L497.864,586.527 L469.64,653.611 L-111.145,670.237 L-121.745,297.252 L-119.454,296.908 L-116.195,296.876 L-115.517,297.02 L-112.475,297.625 L-111.636,297.927 L-109.244,298.816 L-108.341,299.157 L-107.101,299.753 L-104.53,300.901 L-103.275,301.476 L-98.9496,303.125 L-96.092,304.957 L-94.0946,306.855 L-91.5173,309.306 L-87.701,312.882 L-84.6898,315.158 L-82.335,316.394 L-79.6948,317.195 L-76.9125,318.032 L-74.3188,318.854 L-71.8862,319.517 L-68.518,318.913 L-66.7026,318.271 L-65.028,317.083 L-63.4845,315.695 L-62.0715,313.578 L-60.4752,311.293 L-58.9565,308.481 L-57.2082,304.93 L-56.1287,302.11 L-55.2493,299.418 L-55.0548,295.239 L-55.053,294.75 L-55.144,292.656 L-55.1677,291.822 L-55.3578,288.448 L-55.2528,287.182 L-55.1657,285.836 L-54.3298,282.718 L-53.6406,279.4 L-53.4352,278.356 L-52.8969,275.246 L-51.9374,271.513 L-50.606,264.329 L-49.3235,260.934 L-46.7715,259.192 L-45.0123,257.676 L-43.6058,258.633 L-31.0504,266.949 L-25.1015,270.566 L-20.3833,273.892 L-19.5569,274.846 L-15.8124,276.999 L-13.3446,278.354 L-8.93659,279.593 L-6.29295,279.965 L-4.47929,279.812 L-1.95513,279.292 L0.0812486,278.704 L1.91405,278.123 L3.40001,277.47 L8.71511,273.145 L33.5501,249.308 L54.4249,228.965 L62.0368,221.662 L67.8949,216.059 L75.291,208.885 L94.6783,228.67 L115.192,249.99 L137.776,273.571"/>
   <path fill-rule="evenodd" vector-effect="none" d="M314.903,-69.6579 L312.87,-54.2827 L309.933,-30.5207 L310.393,-29.2309 L315.904,-23.9534 L320.797,-18.9025 L328.888,-10.5232 L335.106,-4.10559 L345.539,6.71044 L355.883,17.6715 L343.723,29.0966 L336.084,36.4623 L316.485,55.6951 L296.454,74.6345 L281.231,89.6895 L271.506,87.1795 L267.596,83.0774 L256.887,71.943 L254.148,69.3545 L246.515,61.1041 L237.303,51.9014 L226.133,39.9656 L215.06,28.6988 L204.303,17.5042 L194.36,7.3653 L186.452,-0.673899 L180.705,-7.10561 L158.789,-3.05775 L148.307,-1.37332 L122.876,3.03923 L118.337,3.18943 L115.776,2.97762 L104.596,3.25655 L84.1419,3.61718 L80.9166,3.70933 L65.6952,4.04233 L58.1788,4.21625 L52.3533,4.34186 L45.379,4.29665 L38.9852,4.27555 L23.5208,4.32999 L17.0476,4.82004 L-12.4529,14.9042 L-24.2027,18.8425 L-34.8693,22.8518 L-46.8812,26.3902 L-48.3443,27.287 L-51.7542,28.6056 L-69.353,34.6035 L-80.3933,37.6051 L-92.0053,40.8874 L-101.523,43.418 L-112.58,46.9491 L-111.393,36.8784 L-110.021,27.2707 L-108.669,16.4216 L-107.31,5.77602 L-106.124,-3.76532 L-104.585,-14.64 L-103.217,-25.5099 L-102.562,-30.0075 L-102.058,-34.9079 L-100.576,-45.5978 L-99.1601,-55.8583 L-98.9008,-57.8268 L314.903,-69.6579"/>
   <path fill-rule="evenodd" vector-effect="none" d="M630.657,300.612 L627.276,325.65 L635.726,326.81 L643.499,327.847 L651.982,329.067 L664.214,330.911 L676.548,332.488 L701.501,335.754 L710.549,336.978 L726.063,339.032 L726.819,339.132 L738.753,340.964 L746.576,342.121 L754.943,343.1 L777.263,346.34 L780.74,346.789 L806.808,350.082 L831.628,353.595 L861.876,357.804 L886.651,361.357 L895.081,362.354 L902.273,363.345 L911.541,364.581 L936.111,368.079 L945.018,369.305 L952.325,370.456 L960.863,371.367 L969.662,372.658 L976.885,373.628 L985.443,374.681 L994.009,376.018 L1001.39,376.902 L1011.22,378.61 L1007.69,403.735 L1004.24,428.47 L1004.2,429.795 L976.888,438.106 L950.644,445.509 L942.082,448.08 L940.854,448.442 L933.555,449.713 L924.443,452.239 L913.427,455.044 L910.366,455.968 L898.524,458.96 L881.345,462.739 L872.28,465.812 L863.045,468.443 L855.604,470.207 L846.317,472.656 L836.015,475.236 L826.861,477.416 L818.734,479.872 L814.392,480.955 L787.488,488.883 L777.989,491.053 L769.673,493.453 L760.138,496.03 L757.478,496.718 L755.906,497.131 L732.99,503.11 L727.828,504.563 L702.435,511.102 L701.673,511.328 L700.57,511.665 L696.235,512.992 L690.752,514.739 L684.446,516.775 L682.905,517.125 L681.114,517.543 L680.429,517.705 L679.635,517.891 L679.261,517.984 L677.969,518.265 L676.01,518.831 L672.668,519.824 L668.985,520.928 L666.359,521.717 L657.074,524.266 L646.573,527.034 L643.609,527.527 L625.196,530.442 L615.511,531.639 L606.767,533.378 L599.19,535.348 L543.872,549.55 L528.716,553.449 L521.064,555.522 L513.006,557.689 L503.222,560.333 L475.969,537.238 L395.603,539.025 L359.521,518.442 L338.818,489.17 L332.032,455.406 L347.769,390.497 L348.511,387.971 L386.637,325.553 L404.686,284.498 L405.411,284.661 L418.593,287.966 L444.576,293.834 L449.358,293.879 L456.068,296.658 L461.177,296.653 L484.945,302.89 L515.173,310.283 L516.715,310.503 L522.578,312.146 L525.374,312.9 L528.25,313.713 L527.75,312.689 L527.158,311.199 L526.451,309.509 L526.257,308.762 L525.468,305.853 L524.882,302.918 L524.584,298.59 L524.772,294.227 L524.949,293.306 L526.199,286.144 L527.544,275.193 L528.903,262.551 L529.011,260.838 L533.156,261.635 L559.96,265.563 L568.058,266.469 L576.24,267.596 L584.598,268.82 L592.998,269.88 L596.917,270.459 L601.057,271.072 L609.201,272.486 L617.594,273.301 L625.465,274.478 L634.089,275.715 L630.657,300.612"/>
   <path fill-rule="evenodd" vector-effect="none" d="M186.452,-0.673899 L194.36,7.3653 L204.303,17.5042 L215.06,28.6988 L226.133,39.9656 L237.303,51.9014 L246.515,61.1041 L254.148,69.3545 L256.887,71.943 L267.596,83.0774 L271.506,87.1795 L281.231,89.6895 L277.468,93.4215 L270.433,100.037 L265.085,105.341 L258.229,112.154 L239.059,130.03 L230.59,138.559 L221.759,147.017 L229.784,155.256 L236.436,162.069 L244.321,170.353 L264.728,191.185 L270.417,197.191 L283.837,210.996 L296.023,223.859 L296.984,222.935 L304.732,215.526 L310.436,210.048 L313.625,207.025 L316.339,204.402 L320.182,200.688 L332.017,189.334 L335.647,185.85 L343.395,178.44 L347.237,174.726 L351.706,170.444 L361.893,181.369 L365.094,182.03 L368.16,182.919 L379.626,188.717 L414.312,206.266 L423.663,210.964 L431.468,215.32 L426.072,243.999 L425.636,246.251 L416.09,249.498 L408.733,251.97 L402.012,254.24 L396.953,255.974 L333.995,277.228 L315.741,283.392 L307.312,286.22 L305.605,286.819 L273.736,297.547 L239.602,309.072 L234.509,310.766 L225.211,313.903 L193.916,324.47 L189.461,325.962 L158.181,336.508 L137.342,314.811 L144.567,307.702 L150.557,301.769 L158.273,294.28 L137.776,273.571 L115.192,249.99 L94.6783,228.67 L75.291,208.885 L67.8949,216.059 L62.0368,221.662 L54.4249,228.965 L46.3745,220.358 L39.7632,213.849 L31.988,205.541 L21.4834,194.948 L10.9321,184.357 L1.20269,171.259 L-7.83871,159.199 L-8.79852,158.514 L-16.7797,150.109 L-20.1015,146.824 L-23.3706,143.192 L-31.4212,135.094 L-42.587,123.258 L-53.8807,111.873 L-65.3089,100.166 L-76.4399,88.4306 L-86.9642,78.1841 L-93.4356,71.5887 L-98.4538,66.4992 L-106.686,58.0603 L-115.901,48.0818 L-112.58,46.9491 L-101.523,43.418 L-92.0053,40.8874 L-80.3933,37.6051 L-69.353,34.6035 L-51.7542,28.6056 L-48.3443,27.287 L-46.8812,26.3902 L-34.8693,22.8518 L-24.2027,18.8425 L-12.4529,14.9042 L17.0476,4.82004 L23.5208,4.32999 L38.9852,4.27555 L45.379,4.29665 L52.3533,4.34186 L58.1788,4.21625 L65.6952,4.04233 L80.9166,3.70933 L84.1419,3.61718 L104.596,3.25655 L115.776,2.97762 L118.337,3.18943 L122.876,3.03923 L148.307,-1.37332 L158.789,-3.05775 L180.705,-7.10561 L186.452,-0.673899"/>
  </g>
  <g font-weight="400" stroke="#000000" stroke-linejoin="bevel" font-family="MS Shell Dlg 2" transform="matrix(1,0,0,1,0,85.5885)" fill="none" stroke-linecap="square" stroke-width="1" font-style="normal" font-size="7.5625" stroke-opacity="1"/>
  <g font-weight="400" stroke="#000000" stroke-linejoin="bevel" font-family="MS Shell Dlg 2" transform="matrix(2.59843,0,0,2.59843,0,85.5885)" fill="none" stroke-linecap="square" stroke-width="1" font-style="normal" font-size="7.5625" stroke-opacity="1"/>
  <g font-weight="400" stroke="#000000" stroke-linejoin="bevel" font-family="MS Shell Dlg 2" transform="matrix(2.59843,0,0,2.59843,0,85.5885)" fill="none" stroke-linecap="square" stroke-width="1" font-style="normal" font-size="7.5625" stroke-opacity="1"/>
  <g font-weight="400" stroke="#000000" stroke-linejoin="bevel" font-family="MS Shell Dlg 2" transform="matrix(2.59843,0,0,2.59843,0,85.5885)" fill="none" stroke-linecap="square" stroke-width="1" font-style="normal" font-size="7.5625" stroke-opacity="1"/>
  <g font-weight="400" stroke="#000000" stroke-linejoin="bevel" font-family="MS Shell Dlg 2" transform="matrix(1,0,0,1,0,0)" fill="none" stroke-linecap="square" stroke-width="1" font-style="normal" font-size="7.5625" stroke-opacity="1"/>
  <g font-weight="400" stroke="#000000" stroke-linejoin="bevel" font-family="MS Shell Dlg 2" transform="matrix(2.59843,0,0,2.59843,0,85.5885)" fill="none" stroke-linecap="square" stroke-width="1" font-style="normal" font-size="7.5625" stroke-opacity="1"/>
  <g font-weight="400" stroke="#000000" stroke-linejoin="bevel" font-family="MS Shell Dlg 2" transform="matrix(2.59843,0,0,2.59843,0,85.5885)" fill="none" stroke-linecap="square" stroke-width="1" font-style="normal" font-size="7.5625" stroke-opacity="1"/>
  <g font-weight="400" stroke="#000000" stroke-linejoin="bevel" font-family="MS Shell Dlg 2" transform="matrix(1,0,0,1,0,0)" fill="none" stroke-linecap="square" stroke-width="1" font-style="normal" font-size="7.5625" stroke-opacity="1"/>
 </g>
 <defs/>
 <g inkscape:groupmode="layer" stroke="black" stroke-linejoin="bevel" fill="none" stroke-linecap="square" stroke-width="1" inkscape:label="Map 1: Municipalities (atlas)" fill-rule="evenodd" id="Map 1: Municipalities (atlas)">
  <g font-weight="400" stroke="#000000" stroke-linejoin="bevel" font-family="MS Shell Dlg 2" transform="matrix(1,0,0,1,0,0)" fill="none" stroke-linecap="square" stroke-width="1" font-style="normal" font-size="7.5625" stroke-opacity="1"/>
  <g font-weight="400" stroke="#000000" stroke-linejoin="bevel" font-family="MS Shell Dlg 2" transform="matrix(1,0,0,1,0,0)" fill="none" stroke-linecap="square" stroke-width="1" font-style="normal" font-size="7.5625" stroke-opacity="1"/>
  <g font-weight="400" stroke="#000000" stroke-linejoin="bevel" font-family="MS Shell Dlg 2" transform="matrix(2.59843,0,0,2.59843,0,85.5885)" fill="none" stroke-linecap="square" stroke-width="1" font-style="normal" font-size="7.5625" stroke-opacity="1"/>
  <g font-weight="400" stroke="#000000" stroke-linejoin="bevel" font-family="MS Shell Dlg 2" transform="matrix(2.59843,0,0,2.59843,0,85.5885)" fill="none" stroke-linecap="square" stroke-width="1" font-style="normal" font-size="7.5625" stroke-opacity="1"/>
  <g font-weight="400" stroke="none" font-family="MS Shell Dlg 2" transform="matrix(1,0,0,1,0,85.5885)" fill="#000000" font-style="normal" fill-opacity="0" font-size="7.5625">
   <rect x="0" width="1122" y="0" height="574"/>
  </g>
  <g font-weight="400" stroke="#000000" stroke-linejoin="bevel" font-family="MS Shell Dlg 2" transform="matrix(1,0,0,1,0,85.5885)" fill="none" stroke-linecap="square" stroke-width="1" font-style="normal" font-size="7.5625" stroke-opacity="1"/>
  <g font-weight="400" stroke="#232323" stroke-linejoin="bevel" font-family="MS Shell Dlg 2" transform="matrix(1,0,0,1,0,85.5885)" fill="none" stroke-linecap="square" stroke-width="0.519685" font-style="normal" font-size="7.5625" stroke-opacity="0.0500038">
   <path fill-rule="evenodd" vector-effect="none" d="M-131.809,-56.8912 L1233.01,-96.35 L1254.39,630.758 L-111.145,670.237 L-121.745,297.252 L-119.454,296.908 L-116.195,296.876 L-115.517,297.02 L-112.475,297.625 L-111.636,297.927 L-109.244,298.816 L-108.341,299.157 L-107.101,299.753 L-104.53,300.901 L-103.275,301.476 L-98.9496,303.125 L-96.092,304.957 L-94.0946,306.855 L-91.5173,309.306 L-87.701,312.882 L-84.6898,315.158 L-82.335,316.394 L-79.6948,317.195 L-76.9125,318.032 L-74.3188,318.854 L-71.8862,319.517 L-68.518,318.913 L-66.7026,318.271 L-65.028,317.083 L-63.4845,315.695 L-62.0715,313.578 L-60.4752,311.293 L-58.9565,308.481 L-57.2082,304.93 L-56.1287,302.11 L-55.2493,299.418 L-55.0548,295.239 L-55.053,294.75 L-55.144,292.656 L-55.1677,291.822 L-55.3578,288.448 L-55.2528,287.182 L-55.1657,285.836 L-54.3298,282.718 L-53.6406,279.4 L-53.4352,278.356 L-52.8969,275.246 L-51.9374,271.513 L-50.606,264.329 L-49.3235,260.934 L-46.7715,259.192 L-45.0123,257.676 L-44.0495,256.814 L-41.4313,254.642 L-38.0087,252.651 L-37.333,252.164 L-34.8019,250.239 L-31.8277,247.365 L-27.5322,241.909 L-26.6726,239.624 L-26.7566,237.224 L-26.7444,234.353 L-25.6992,232.532 L-24.614,231.015 L-24.2045,228.336 L-25.0002,225.163 L-24.9746,222.21 L-25.3753,219.147 L-26.5091,216.757 L-27.3627,214.847 L-28.2297,210.82 L-28.6071,205.273 L-28.9962,203.167 L-30.1213,201.631 L-31.5695,200.308 L-33.6655,199.35 L-36.741,198.664 L-41.3175,198.102 L-43.9117,197.809 L-47.0539,197.532 L-50.2176,197.052 L-52.6157,197.039 L-55.4883,197.426 L-58.5494,197.799 L-62.6857,198.934 L-67.3963,200.27 L-70.0932,201.324 L-72.3963,201.898 L-75.4359,202.473 L-78.6953,202.484 L-81.1033,202.675 L-83.7851,203.159 L-87.4987,203.732 L-89.5982,204.301 L-91.7029,204.687 L-94.4798,204.583 L-96.8803,204.488 L-98.3198,204.57 L-100.476,206.993 L-100.698,206.917 L-101.934,206.423 L-103.508,205.654 L-104.671,204.974 L-105.039,204.7 L-106.124,204.568 L-107.961,203.928 L-109.595,203.2 L-110.639,202.314 L-111.422,201.257 L-113.856,198.863 L-116.809,195.323 L-118.741,193.505 L-119.594,192.165 L-119.591,190.638 L-119.303,188.635 L-118.723,186.419 L-117.678,184.028 L-116.432,182.12 L-114.621,180.215 L-113.388,178.389 L-111.852,176.187 L-110.414,173.316 L-108.502,170.554 L-107.391,167.734 L-106.845,166.537 L-106.491,165.774 L-105.846,164.758 L-105.245,163.845 L-102.819,160.987 L-101.187,158.294 L-99.4726,154.662 L-99.3477,151.89 L-99.9489,148.934 L-100.498,146.161 L-101.092,143.47 L-102.22,140.692 L-103.388,138.221 L-105.116,134.769 L-106.916,132.092 L-109.202,128.838 L-110.656,126.742 L-111.883,124.924 L-113.512,123.871 L-115.346,123.292 L-117.736,123.014 L-118.727,122.879 L-121.984,122.422 L-124.564,122.048 L-126.728,121.873 L-131.809,-56.8912"/>
  </g>
  <g font-weight="400" stroke="#000000" stroke-linejoin="bevel" font-family="MS Shell Dlg 2" transform="matrix(1,0,0,1,0,85.5885)" fill="none" stroke-linecap="square" stroke-width="1" font-style="normal" font-size="7.5625" stroke-opacity="1"/>
  <g font-weight="400" stroke="#000000" stroke-linejoin="bevel" font-family="MS Shell Dlg 2" transform="matrix(2.59843,0,0,2.59843,0,85.5885)" fill="none" stroke-linecap="square" stroke-width="1" font-style="normal" font-size="7.5625" stroke-opacity="1"/>
  <g font-weight="400" stroke="#000000" stroke-linejoin="bevel" font-family="MS Shell Dlg 2" transform="matrix(2.59843,0,0,2.59843,0,85.5885)" fill="none" stroke-linecap="square" stroke-width="1" font-style="normal" font-size="7.5625" stroke-opacity="1"/>
  <g font-weight="400" stroke="#000000" stroke-linejoin="bevel" font-family="MS Shell Dlg 2" transform="matrix(2.59843,0,0,2.59843,0,85.5885)" fill="none" stroke-linecap="square" stroke-width="1" font-style="normal" font-size="7.5625" stroke-opacity="1"/>
  <g font-weight="400" stroke="#000000" stroke-linejoin="bevel" font-family="MS Shell Dlg 2" transform="matrix(1,0,0,1,0,0)" fill="none" stroke-linecap="square" stroke-width="1" font-style="normal" font-size="7.5625" stroke-opacity="1"/>
  <g font-weight="400" stroke="#000000" stroke-linejoin="bevel" font-family="MS Shell Dlg 2" transform="matrix(2.59843,0,0,2.59843,0,85.5885)" fill="none" stroke-linecap="square" stroke-width="1" font-style="normal" font-size="7.5625" stroke-opacity="1"/>
  <g font-weight="400" stroke="#000000" stroke-linejoin="bevel" font-family="MS Shell Dlg 2" transform="matrix(2.59843,0,0,2.59843,0,85.5885)" fill="none" stroke-linecap="square" stroke-width="1" font-style="normal" font-size="7.5625" stroke-opacity="1"/>
  <g font-weight="400" stroke="#000000" stroke-linejoin="bevel" font-family="MS Shell Dlg 2" transform="matrix(1,0,0,1,0,0)" fill="none" stroke-linecap="square" stroke-width="1" font-style="normal" font-size="7.5625" stroke-opacity="1"/>
 </g>
 <defs/>
 <g inkscape:groupmode="layer" stroke="black" stroke-linejoin="bevel" fill="none" stroke-linecap="square" stroke-width="1" inkscape:label="Map 1: County Population" fill-rule="evenodd" id="Map 1: County Population">
  <g font-weight="400" stroke="#000000" stroke-linejoin="bevel" font-family="MS Shell Dlg 2" transform="matrix(1,0,0,1,0,0)" fill="none" stroke-linecap="square" stroke-width="1" font-style="normal" font-size="7.5625" stroke-opacity="1"/>
  <g font-weight="400" stroke="#000000" stroke-linejoin="bevel" font-family="MS Shell Dlg 2" transform="matrix(1,0,0,1,0,0)" fill="none" stroke-linecap="square" stroke-width="1" font-style="normal" font-size="7.5625" stroke-opacity="1"/>
  <g font-weight="400" stroke="#000000" stroke-linejoin="bevel" font-family="MS Shell Dlg 2" transform="matrix(2.59843,0,0,2.59843,0,85.5885)" fill="none" stroke-linecap="square" stroke-width="1" font-style="normal" font-size="7.5625" stroke-opacity="1"/>
  <g font-weight="400" stroke="#000000" stroke-linejoin="bevel" font-family="MS Shell Dlg 2" transform="matrix(2.59843,0,0,2.59843,0,85.5885)" fill="none" stroke-linecap="square" stroke-width="1" font-style="normal" font-size="7.5625" stroke-opacity="1"/>
  <g font-weight="400" stroke="none" font-family="MS Shell Dlg 2" transform="matrix(1,0,0,1,0,85.5885)" fill="#000000" font-style="normal" fill-opacity="0" font-size="7.5625">
   <rect x="0" width="1122" y="0" height="574"/>
  </g>
  <g font-weight="400" stroke="#000000" stroke-linejoin="bevel" font-family="MS Shell Dlg 2" transform="matrix(1,0,0,1,0,85.5885)" fill="none" stroke-linecap="square" stroke-width="1" font-style="normal" font-size="7.5625" stroke-opacity="1"/>
  <g font-weight="400" stroke="#232323" stroke-linejoin="bevel" font-family="MS Shell Dlg 2" transform="matrix(1,0,0,1,0,85.5885)" fill="none" stroke-linecap="square" stroke-width="2.59843" font-style="normal" font-size="7.5625" stroke-opacity="0.701961">
   <path fill-rule="evenodd" vector-effect="none" d="M-131.809,-56.8912 L1233.01,-96.35 L1254.39,630.758 L-111.145,670.237 L-121.745,297.252 L-119.454,296.908 L-116.195,296.876 L-115.517,297.02 L-112.475,297.625 L-111.636,297.927 L-109.244,298.816 L-108.341,299.157 L-107.101,299.753 L-104.53,300.901 L-103.275,301.476 L-98.9496,303.125 L-96.092,304.957 L-94.0946,306.855 L-91.5173,309.306 L-87.701,312.882 L-84.6898,315.158 L-82.335,316.394 L-79.6948,317.195 L-76.9125,318.032 L-74.3188,318.854 L-71.8862,319.517 L-68.518,318.913 L-66.7026,318.271 L-65.028,317.083 L-63.4845,315.695 L-62.0715,313.578 L-60.4752,311.293 L-58.9565,308.481 L-57.2082,304.93 L-56.1287,302.11 L-55.2493,299.418 L-55.0548,295.239 L-55.053,294.75 L-55.144,292.656 L-55.1677,291.822 L-55.3578,288.448 L-55.2528,287.182 L-55.1657,285.836 L-54.3298,282.718 L-53.6406,279.4 L-53.4352,278.356 L-52.8969,275.246 L-51.9374,271.513 L-50.606,264.329 L-49.3235,260.934 L-46.7715,259.192 L-45.0123,257.676 L-44.0495,256.814 L-41.4313,254.642 L-38.0087,252.651 L-37.333,252.164 L-34.8019,250.239 L-31.8277,247.365 L-27.5322,241.909 L-26.6726,239.624 L-26.7566,237.224 L-26.7444,234.353 L-25.6992,232.532 L-24.614,231.015 L-24.2045,228.336 L-25.0002,225.163 L-24.9746,222.21 L-25.3753,219.147 L-26.5091,216.757 L-27.3627,214.847 L-28.2297,210.82 L-28.6071,205.273 L-28.9962,203.167 L-30.1213,201.631 L-31.5695,200.308 L-33.6655,199.35 L-36.741,198.664 L-41.3175,198.102 L-43.9117,197.809 L-47.0539,197.532 L-50.2176,197.052 L-52.6157,197.039 L-55.4883,197.426 L-58.5494,197.799 L-62.6857,198.934 L-67.3963,200.27 L-70.0932,201.324 L-72.3963,201.898 L-75.4359,202.473 L-78.6953,202.484 L-81.1033,202.675 L-83.7851,203.159 L-87.4987,203.732 L-89.5982,204.301 L-91.7029,204.687 L-94.4798,204.583 L-96.8803,204.488 L-98.3198,204.57 L-100.476,206.993 L-100.698,206.917 L-101.934,206.423 L-103.508,205.654 L-104.671,204.974 L-105.039,204.7 L-106.124,204.568 L-107.961,203.928 L-109.595,203.2 L-110.639,202.314 L-111.422,201.257 L-113.856,198.863 L-116.809,195.323 L-118.741,193.505 L-119.594,192.165 L-119.591,190.638 L-119.303,188.635 L-118.723,186.419 L-117.678,184.028 L-116.432,182.12 L-114.621,180.215 L-113.388,178.389 L-111.852,176.187 L-110.414,173.316 L-108.502,170.554 L-107.391,167.734 L-106.845,166.537 L-106.491,165.774 L-105.846,164.758 L-105.245,163.845 L-102.819,160.987 L-101.187,158.294 L-99.4726,154.662 L-99.3477,151.89 L-99.9489,148.934 L-100.498,146.161 L-101.092,143.47 L-102.22,140.692 L-103.388,138.221 L-105.116,134.769 L-106.916,132.092 L-109.202,128.838 L-110.656,126.742 L-111.883,124.924 L-113.512,123.871 L-115.346,123.292 L-117.736,123.014 L-118.727,122.879 L-121.984,122.422 L-124.564,122.048 L-126.728,121.873 L-131.809,-56.8912"/>
  </g>
  <g font-weight="400" stroke="#000000" stroke-linejoin="bevel" font-family="MS Shell Dlg 2" transform="matrix(1,0,0,1,0,85.5885)" fill="none" stroke-linecap="square" stroke-width="1" font-style="normal" font-size="7.5625" stroke-opacity="1"/>
  <g font-weight="400" stroke="#000000" stroke-linejoin="bevel" font-family="MS Shell Dlg 2" transform="matrix(2.59843,0,0,2.59843,0,85.5885)" fill="none" stroke-linecap="square" stroke-width="1" font-style="normal" font-size="7.5625" stroke-opacity="1"/>
  <g font-weight="400" stroke="#000000" stroke-linejoin="bevel" font-family="MS Shell Dlg 2" transform="matrix(2.59843,0,0,2.59843,0,85.5885)" fill="none" stroke-linecap="square" stroke-width="1" font-style="normal" font-size="7.5625" stroke-opacity="1"/>
  <g font-weight="400" stroke="#000000" stroke-linejoin="bevel" font-family="MS Shell Dlg 2" transform="matrix(2.59843,0,0,2.59843,0,85.5885)" fill="none" stroke-linecap="square" stroke-width="1" font-style="normal" font-size="7.5625" stroke-opacity="1"/>
  <g font-weight="400" stroke="#000000" stroke-linejoin="bevel" font-family="MS Shell Dlg 2" transform="matrix(1,0,0,1,0,0)" fill="none" stroke-linecap="square" stroke-width="1" font-style="normal" font-size="7.5625" stroke-opacity="1"/>
  <g font-weight="400" stroke="#000000" stroke-linejoin="bevel" font-family="MS Shell Dlg 2" transform="matrix(2.59843,0,0,2.59843,0,85.5885)" fill="none" stroke-linecap="square" stroke-width="1" font-style="normal" font-size="7.5625" stroke-opacity="1"/>
  <g font-weight="400" stroke="#000000" stroke-linejoin="bevel" font-family="MS Shell Dlg 2" transform="matrix(2.59843,0,0,2.59843,0,85.5885)" fill="none" stroke-linecap="square" stroke-width="1" font-style="normal" font-size="7.5625" stroke-opacity="1"/>
  <g font-weight="400" stroke="#000000" stroke-linejoin="bevel" font-family="MS Shell Dlg 2" transform="matrix(1,0,0,1,0,0)" fill="none" stroke-linecap="square" stroke-width="1" font-style="normal" font-size="7.5625" stroke-opacity="1"/>
 </g>
 <defs/>
 <g inkscape:groupmode="layer" stroke="black" stroke-linejoin="bevel" fill="none" stroke-linecap="square" stroke-width="1" inkscape:label="Map 1: LRC-H-v2 (Labels)" fill-rule="evenodd" id="Map 1: LRC-H-v2 (Labels)">
  <g font-weight="400" stroke="#000000" stroke-linejoin="bevel" font-family="MS Shell Dlg 2" transform="matrix(1,0,0,1,0,0)" fill="none" stroke-linecap="square" stroke-width="1" font-style="normal" font-size="7.5625" stroke-opacity="1"/>
  <g font-weight="400" stroke="#000000" stroke-linejoin="bevel" font-family="MS Shell Dlg 2" transform="matrix(1,0,0,1,0,0)" fill="none" stroke-linecap="square" stroke-width="1" font-style="normal" font-size="7.5625" stroke-opacity="1"/>
  <g font-weight="400" stroke="#000000" stroke-linejoin="bevel" font-family="MS Shell Dlg 2" transform="matrix(2.59843,0,0,2.59843,0,85.5885)" fill="none" stroke-linecap="square" stroke-width="1" font-style="normal" font-size="7.5625" stroke-opacity="1"/>
  <g font-weight="400" stroke="#000000" stroke-linejoin="bevel" font-family="MS Shell Dlg 2" transform="matrix(2.59843,0,0,2.59843,0,85.5885)" fill="none" stroke-linecap="square" stroke-width="1" font-style="normal" font-size="7.5625" stroke-opacity="1"/>
  <g font-weight="400" stroke="none" font-family="MS Shell Dlg 2" transform="matrix(1,0,0,1,0,85.5885)" fill="#000000" font-style="normal" fill-opacity="0" font-size="7.5625">
   <rect x="0" width="1122" y="0" height="574"/>
  </g>
  <g font-weight="400" stroke="#000000" stroke-linejoin="bevel" font-family="MS Shell Dlg 2" transform="matrix(2.59843,0,0,2.59843,0,85.5885)" fill="none" stroke-linecap="square" stroke-width="1" font-style="normal" font-size="7.5625" stroke-opacity="1"/>
  <g font-weight="400" stroke="#000000" stroke-linejoin="bevel" font-family="MS Shell Dlg 2" transform="matrix(2.59843,0,0,2.59843,0,85.5885)" fill="none" stroke-linecap="square" stroke-width="1" font-style="normal" font-size="7.5625" stroke-opacity="1"/>
  <g font-weight="400" stroke="#000000" stroke-linejoin="bevel" font-family="MS Shell Dlg 2" transform="matrix(2.59843,0,0,2.59843,0,85.5885)" fill="none" stroke-linecap="square" stroke-width="1" font-style="normal" font-size="7.5625" stroke-opacity="1"/>
  <g font-weight="400" stroke="#000000" stroke-linejoin="bevel" font-family="MS Shell Dlg 2" transform="matrix(1,0,0,1,0,0)" fill="none" stroke-linecap="square" stroke-width="1" font-style="normal" font-size="7.5625" stroke-opacity="1"/>
  <g font-weight="400" stroke="#000000" stroke-linejoin="bevel" font-family="MS Shell Dlg 2" transform="matrix(2.59843,0,0,2.59843,0,85.5885)" fill="none" stroke-linecap="square" stroke-width="1" font-style="normal" font-size="7.5625" stroke-opacity="1"/>
  <g font-weight="400" stroke="#000000" stroke-linejoin="bevel" font-family="MS Shell Dlg 2" transform="matrix(2.59843,0,0,2.59843,0,85.5885)" fill="none" stroke-linecap="square" stroke-width="1" font-style="normal" font-size="7.5625" stroke-opacity="1"/>
  <g font-weight="400" stroke="#000000" stroke-linejoin="bevel" font-family="MS Shell Dlg 2" transform="matrix(1,0,0,1,0,0)" fill="none" stroke-linecap="square" stroke-width="1" font-style="normal" font-size="7.5625" stroke-opacity="1"/>
 </g>
 <defs/>
 <g inkscape:groupmode="layer" stroke="black" stroke-linejoin="bevel" fill="none" stroke-linecap="square" stroke-width="1" inkscape:label="Map 1: Pittsburgh (Labels)" fill-rule="evenodd" id="Map 1: Pittsburgh (Labels)">
  <g font-weight="400" stroke="#000000" stroke-linejoin="bevel" font-family="MS Shell Dlg 2" transform="matrix(1,0,0,1,0,0)" fill="none" stroke-linecap="square" stroke-width="1" font-style="normal" font-size="7.5625" stroke-opacity="1"/>
  <g font-weight="400" stroke="#000000" stroke-linejoin="bevel" font-family="MS Shell Dlg 2" transform="matrix(1,0,0,1,0,0)" fill="none" stroke-linecap="square" stroke-width="1" font-style="normal" font-size="7.5625" stroke-opacity="1"/>
  <g font-weight="400" stroke="#000000" stroke-linejoin="bevel" font-family="MS Shell Dlg 2" transform="matrix(2.59843,0,0,2.59843,0,85.5885)" fill="none" stroke-linecap="square" stroke-width="1" font-style="normal" font-size="7.5625" stroke-opacity="1"/>
  <g font-weight="400" stroke="#000000" stroke-linejoin="bevel" font-family="MS Shell Dlg 2" transform="matrix(2.59843,0,0,2.59843,0,85.5885)" fill="none" stroke-linecap="square" stroke-width="1" font-style="normal" font-size="7.5625" stroke-opacity="1"/>
  <g font-weight="400" stroke="none" font-family="MS Shell Dlg 2" transform="matrix(1,0,0,1,0,85.5885)" fill="#000000" font-style="normal" fill-opacity="0" font-size="7.5625">
   <rect x="0" width="1122" y="0" height="574"/>
  </g>
  <g font-weight="400" stroke="#000000" stroke-linejoin="bevel" font-family="MS Shell Dlg 2" transform="matrix(2.59843,0,0,2.59843,0,85.5885)" fill="none" stroke-linecap="square" stroke-width="1" font-style="normal" font-size="7.5625" stroke-opacity="1"/>
  <g font-weight="400" stroke="#000000" stroke-linejoin="bevel" font-family="MS Shell Dlg 2" transform="matrix(2.59843,0,0,2.59843,0,85.5885)" fill="none" stroke-linecap="square" stroke-width="1" font-style="normal" font-size="7.5625" stroke-opacity="1"/>
  <g font-weight="400" stroke="#000000" stroke-linejoin="bevel" font-family="MS Shell Dlg 2" transform="matrix(2.59843,0,0,2.59843,0,85.5885)" fill="none" stroke-linecap="square" stroke-width="1" font-style="normal" font-size="7.5625" stroke-opacity="1"/>
  <g font-weight="400" stroke="#000000" stroke-linejoin="bevel" font-family="MS Shell Dlg 2" transform="matrix(1,0,0,1,0,0)" fill="none" stroke-linecap="square" stroke-width="1" font-style="normal" font-size="7.5625" stroke-opacity="1"/>
  <g font-weight="400" stroke="#000000" stroke-linejoin="bevel" font-family="MS Shell Dlg 2" transform="matrix(2.59843,0,0,2.59843,0,85.5885)" fill="none" stroke-linecap="square" stroke-width="1" font-style="normal" font-size="7.5625" stroke-opacity="1"/>
  <g font-weight="400" stroke="#000000" stroke-linejoin="bevel" font-family="MS Shell Dlg 2" transform="matrix(2.59843,0,0,2.59843,0,85.5885)" fill="none" stroke-linecap="square" stroke-width="1" font-style="normal" font-size="7.5625" stroke-opacity="1"/>
  <g font-weight="400" stroke="#000000" stroke-linejoin="bevel" font-family="MS Shell Dlg 2" transform="matrix(1,0,0,1,0,0)" fill="none" stroke-linecap="square" stroke-width="1" font-style="normal" font-size="7.5625" stroke-opacity="1"/>
 </g>
 <defs/>
 <g inkscape:groupmode="layer" stroke="black" stroke-linejoin="bevel" fill="none" stroke-linecap="square" stroke-width="1" inkscape:label="Map 1: Municipalities (atlas) (Labels)" fill-rule="evenodd" id="Map 1: Municipalities (atlas) (Labels)">
  <g font-weight="400" stroke="#000000" stroke-linejoin="bevel" font-family="MS Shell Dlg 2" transform="matrix(1,0,0,1,0,0)" fill="none" stroke-linecap="square" stroke-width="1" font-style="normal" font-size="7.5625" stroke-opacity="1"/>
  <g font-weight="400" stroke="#000000" stroke-linejoin="bevel" font-family="MS Shell Dlg 2" transform="matrix(1,0,0,1,0,0)" fill="none" stroke-linecap="square" stroke-width="1" font-style="normal" font-size="7.5625" stroke-opacity="1"/>
  <g font-weight="400" stroke="#000000" stroke-linejoin="bevel" font-family="MS Shell Dlg 2" transform="matrix(2.59843,0,0,2.59843,0,85.5885)" fill="none" stroke-linecap="square" stroke-width="1" font-style="normal" font-size="7.5625" stroke-opacity="1"/>
  <g font-weight="400" stroke="#000000" stroke-linejoin="bevel" font-family="MS Shell Dlg 2" transform="matrix(2.59843,0,0,2.59843,0,85.5885)" fill="none" stroke-linecap="square" stroke-width="1" font-style="normal" font-size="7.5625" stroke-opacity="1"/>
  <g font-weight="400" stroke="none" font-family="MS Shell Dlg 2" transform="matrix(1,0,0,1,0,85.5885)" fill="#000000" font-style="normal" fill-opacity="0" font-size="7.5625">
   <rect x="0" width="1122" y="0" height="574"/>
  </g>
  <g font-weight="400" stroke="#000000" stroke-linejoin="bevel" font-family="MS Shell Dlg 2" transform="matrix(2.59843,0,0,2.59843,0,85.5885)" fill="none" stroke-linecap="square" stroke-width="1" font-style="normal" font-size="7.5625" stroke-opacity="1"/>
  <g font-weight="400" stroke="#000000" stroke-linejoin="bevel" font-family="MS Shell Dlg 2" transform="matrix(2.59843,0,0,2.59843,0,85.5885)" fill="none" stroke-linecap="square" stroke-width="1" font-style="normal" font-size="7.5625" stroke-opacity="1"/>
  <g font-weight="400" stroke="#000000" stroke-linejoin="bevel" font-family="MS Shell Dlg 2" transform="matrix(2.59843,0,0,2.59843,0,85.5885)" fill="none" stroke-linecap="square" stroke-width="1" font-style="normal" font-size="7.5625" stroke-opacity="1"/>
  <g font-weight="400" stroke="#000000" stroke-linejoin="bevel" font-family="MS Shell Dlg 2" transform="matrix(1,0,0,1,0,0)" fill="none" stroke-linecap="square" stroke-width="1" font-style="normal" font-size="7.5625" stroke-opacity="1"/>
  <g font-weight="400" stroke="#000000" stroke-linejoin="bevel" font-family="MS Shell Dlg 2" transform="matrix(2.59843,0,0,2.59843,0,85.5885)" fill="none" stroke-linecap="square" stroke-width="1" font-style="normal" font-size="7.5625" stroke-opacity="1"/>
  <g font-weight="400" stroke="#000000" stroke-linejoin="bevel" font-family="MS Shell Dlg 2" transform="matrix(2.59843,0,0,2.59843,0,85.5885)" fill="none" stroke-linecap="square" stroke-width="1" font-style="normal" font-size="7.5625" stroke-opacity="1"/>
  <g font-weight="400" stroke="#000000" stroke-linejoin="bevel" font-family="MS Shell Dlg 2" transform="matrix(1,0,0,1,0,0)" fill="none" stroke-linecap="square" stroke-width="1" font-style="normal" font-size="7.5625" stroke-opacity="1"/>
 </g>
 <defs/>
 <g inkscape:groupmode="layer" stroke="black" stroke-linejoin="bevel" fill="none" stroke-linecap="square" stroke-width="1" inkscape:label="Labels" fill-rule="evenodd" id="Labels">
  <g font-weight="400" stroke="#000000" stroke-linejoin="bevel" font-family="MS Shell Dlg 2" transform="matrix(1,0,0,1,0,0)" fill="none" stroke-linecap="square" stroke-width="1" font-style="normal" font-size="7.5625" stroke-opacity="1"/>
  <g font-weight="400" stroke="#000000" stroke-linejoin="bevel" font-family="MS Shell Dlg 2" transform="matrix(1,0,0,1,0,0)" fill="none" stroke-linecap="square" stroke-width="1" font-style="normal" font-size="7.5625" stroke-opacity="1"/>
  <g font-weight="400" stroke="#000000" stroke-linejoin="bevel" font-family="MS Shell Dlg 2" transform="matrix(2.59843,0,0,2.59843,652.129,7.79528)" fill="none" stroke-linecap="square" stroke-width="1" font-style="normal" font-size="7.5625" stroke-opacity="1"/>
  <g font-weight="400" stroke="#000000" stroke-linejoin="bevel" font-family="MS Shell Dlg 2" transform="matrix(1,0,0,1,652.129,7.79528)" fill="none" stroke-linecap="square" stroke-width="1" font-style="normal" font-size="7.5625" stroke-opacity="1"/>
  <g font-weight="400" stroke="#000000" stroke-linejoin="bevel" font-family="Franklin Gothic Heavy" transform="matrix(2.59843,0,0,2.59843,652.129,7.79528)" fill="none" stroke-linecap="square" stroke-width="1" font-style="normal" font-size="33" stroke-opacity="1"/>
  <g font-weight="400" stroke="#000000" stroke-linejoin="bevel" font-family="Franklin Gothic Heavy" transform="matrix(0.259843,0,0,0.259843,652.129,7.79528)" fill="none" stroke-linecap="square" stroke-width="1" font-style="normal" font-size="127" stroke-opacity="1">
   <text font-weight="400" stroke="none" font-family="Franklin Gothic Heavy" fill="#000000" x="611.406" y="205.688" font-style="normal" xml:space="preserve" fill-opacity="1" font-size="127">LRC-House Final</text>
  </g>
  <g font-weight="400" stroke="#000000" stroke-linejoin="bevel" font-family="Franklin Gothic Heavy" transform="matrix(2.59843,0,0,2.59843,652.129,7.79528)" fill="none" stroke-linecap="square" stroke-width="1" font-style="normal" font-size="33" stroke-opacity="1"/>
  <g font-weight="400" stroke="#000000" stroke-linejoin="bevel" font-family="MS Shell Dlg 2" transform="matrix(1,0,0,1,652.129,7.79528)" fill="none" stroke-linecap="square" stroke-width="1" font-style="normal" font-size="7.5625" stroke-opacity="1"/>
  <g font-weight="400" stroke="#000000" stroke-linejoin="bevel" font-family="MS Shell Dlg 2" transform="matrix(2.59843,0,0,2.59843,652.129,7.79528)" fill="none" stroke-linecap="square" stroke-width="1" font-style="normal" font-size="7.5625" stroke-opacity="1"/>
  <g font-weight="400" stroke="#000000" stroke-linejoin="bevel" font-family="MS Shell Dlg 2" transform="matrix(2.59843,0,0,2.59843,652.129,7.79528)" fill="none" stroke-linecap="square" stroke-width="1" font-style="normal" font-size="7.5625" stroke-opacity="1"/>
  <g font-weight="400" stroke="#000000" stroke-linejoin="bevel" font-family="MS Shell Dlg 2" transform="matrix(2.59843,0,0,2.59843,13.2208,3.4618e-15)" fill="none" stroke-linecap="square" stroke-width="1" font-style="normal" font-size="7.5625" stroke-opacity="1"/>
  <g font-weight="400" stroke="#000000" stroke-linejoin="bevel" font-family="MS Shell Dlg 2" transform="matrix(1,0,0,1,13.2208,3.4618e-15)" fill="none" stroke-linecap="square" stroke-width="1" font-style="normal" font-size="7.5625" stroke-opacity="1"/>
  <g font-weight="400" stroke="#000000" stroke-linejoin="bevel" font-family="MS Shell Dlg 2" transform="matrix(2.59843,0,0,2.59843,13.2208,3.4618e-15)" fill="none" stroke-linecap="square" stroke-width="1" font-style="normal" font-size="12.8333" stroke-opacity="1"/>
  <g font-weight="400" stroke="#000000" stroke-linejoin="bevel" font-family="MS Shell Dlg 2" transform="matrix(2.59843,0,0,2.59843,13.2208,3.4618e-15)" fill="none" stroke-linecap="square" stroke-width="1" font-style="normal" font-size="12.8333" stroke-opacity="1"/>
  <g font-weight="400" stroke="#000000" stroke-linejoin="bevel" font-family="MS Shell Dlg 2" transform="matrix(1,0,0,1,13.2208,3.4618e-15)" fill="none" stroke-linecap="square" stroke-width="1" font-style="normal" font-size="7.5625" stroke-opacity="1"/>
  <g font-weight="400" stroke="#000000" stroke-linejoin="bevel" font-family="MS Shell Dlg 2" transform="matrix(2.59843,0,0,2.59843,13.2208,3.4618e-15)" fill="none" stroke-linecap="square" stroke-width="1" font-style="normal" font-size="7.5625" stroke-opacity="1"/>
  <g font-weight="400" stroke="#000000" stroke-linejoin="bevel" font-family="MS Shell Dlg 2" transform="matrix(2.59843,0,0,2.59843,13.2208,3.4618e-15)" fill="none" stroke-linecap="square" stroke-width="1" font-style="normal" font-size="7.5625" stroke-opacity="1"/>
  <g font-weight="400" stroke="#000000" stroke-linejoin="bevel" font-family="MS Shell Dlg 2" transform="matrix(2.59843,0,0,2.59843,55.5276,20.5514)" fill="none" stroke-linecap="square" stroke-width="1" font-style="normal" font-size="7.5625" stroke-opacity="1"/>
  <g font-weight="400" stroke="#000000" stroke-linejoin="bevel" font-family="MS Shell Dlg 2" transform="matrix(2.59843,0,0,2.59843,55.5276,20.5514)" fill="none" stroke-linecap="square" stroke-width="1" font-style="normal" font-size="7.5625" stroke-opacity="1"/>
  <g font-weight="400" stroke="none" font-family="MS Shell Dlg 2" transform="matrix(2.59843,0,0,2.59843,55.5276,20.5514)" fill="#ffffff" font-style="normal" fill-opacity="0.701961" font-size="7.5625">
   <path fill-rule="evenodd" vector-effect="none" d="M0,0 L124.148,0 L124.148,30.0295 L0,30.0295 L0,0"/>
  </g>
  <g font-weight="400" stroke="#000000" stroke-linejoin="bevel" font-family="MS Shell Dlg 2" transform="matrix(2.59843,0,0,2.59843,55.5276,20.5514)" fill="none" stroke-linecap="square" stroke-width="1" font-style="normal" font-size="7.5625" stroke-opacity="1"/>
  <g font-weight="400" stroke="#000000" stroke-linejoin="bevel" font-family="MS Shell Dlg 2" transform="matrix(1,0,0,1,55.5276,20.5514)" fill="none" stroke-linecap="square" stroke-width="1" font-style="normal" font-size="7.5625" stroke-opacity="1"/>
  <g font-weight="400" stroke="#000000" stroke-linejoin="bevel" font-family="Franklin Gothic Book" transform="matrix(2.59843,0,0,2.59843,55.5276,20.5514)" fill="none" stroke-linecap="square" stroke-width="1" font-style="normal" font-size="15.5833" stroke-opacity="1"/>
  <g font-weight="400" stroke="#000000" stroke-linejoin="bevel" font-family="Franklin Gothic Book" transform="matrix(0.259843,0,0,0.259843,55.5276,20.5514)" fill="none" stroke-linecap="square" stroke-width="1" font-style="normal" font-size="60" stroke-opacity="1">
   <text font-weight="400" stroke="none" font-family="Franklin Gothic Book" fill="#000000" x="0" y="57" font-style="normal" xml:space="preserve" fill-opacity="1" font-size="60">District: 186</text>
   <text font-weight="400" stroke="none" font-family="Franklin Gothic Book" fill="#000000" x="0" y="132" font-style="normal" xml:space="preserve" fill-opacity="1" font-size="60">Total Population: 62,436</text>
   <text font-weight="400" stroke="none" font-family="Franklin Gothic Book" fill="#000000" x="0" y="207" font-style="normal" xml:space="preserve" fill-opacity="1" font-size="60">Deviation: -2.52</text>
  </g>
  <g font-weight="400" stroke="#000000" stroke-linejoin="bevel" font-family="Franklin Gothic Book" transform="matrix(2.59843,0,0,2.59843,55.5276,20.5514)" fill="none" stroke-linecap="square" stroke-width="1" font-style="normal" font-size="15.5833" stroke-opacity="1"/>
  <g font-weight="400" stroke="#000000" stroke-linejoin="bevel" font-family="MS Shell Dlg 2" transform="matrix(1,0,0,1,55.5276,20.5514)" fill="none" stroke-linecap="square" stroke-width="1" font-style="normal" font-size="7.5625" stroke-opacity="1"/>
  <g font-weight="400" stroke="#000000" stroke-linejoin="bevel" font-family="MS Shell Dlg 2" transform="matrix(2.59843,0,0,2.59843,55.5276,20.5514)" fill="none" stroke-linecap="square" stroke-width="1" font-style="normal" font-size="7.5625" stroke-opacity="1"/>
  <g font-weight="400" stroke="#000000" stroke-linejoin="bevel" font-family="MS Shell Dlg 2" transform="matrix(2.59843,0,0,2.59843,55.5276,20.5514)" fill="none" stroke-linecap="square" stroke-width="1" font-style="normal" font-size="7.5625" stroke-opacity="1"/>
  <g font-weight="400" stroke="#000000" stroke-linejoin="bevel" font-family="MS Shell Dlg 2" transform="matrix(2.59843,0,0,2.59843,853.616,23.1499)" fill="none" stroke-linecap="square" stroke-width="1" font-style="normal" font-size="7.5625" stroke-opacity="1"/>
  <g font-weight="400" stroke="#000000" stroke-linejoin="bevel" font-family="MS Shell Dlg 2" transform="matrix(1,0,0,1,853.616,23.1499)" fill="none" stroke-linecap="square" stroke-width="1" font-style="normal" font-size="7.5625" stroke-opacity="1"/>
  <g font-weight="400" stroke="#000000" stroke-linejoin="bevel" font-family="Franklin Gothic Heavy" transform="matrix(2.59843,0,0,2.59843,853.616,23.1499)" fill="none" stroke-linecap="square" stroke-width="1" font-style="normal" font-size="12.8333" stroke-opacity="1"/>
  <g font-weight="400" stroke="#000000" stroke-linejoin="bevel" font-family="Franklin Gothic Heavy" transform="matrix(0.259843,0,0,0.259843,853.616,23.1499)" fill="none" stroke-linecap="square" stroke-width="1" font-style="normal" font-size="49" stroke-opacity="1">
   <text font-weight="400" stroke="none" font-family="Franklin Gothic Heavy" fill="#000000" x="418.984" y="47" font-style="normal" xml:space="preserve" fill-opacity="1" font-size="49">February 4, 2022</text>
  </g>
  <g font-weight="400" stroke="#000000" stroke-linejoin="bevel" font-family="Franklin Gothic Heavy" transform="matrix(2.59843,0,0,2.59843,853.616,23.1499)" fill="none" stroke-linecap="square" stroke-width="1" font-style="normal" font-size="12.8333" stroke-opacity="1"/>
  <g font-weight="400" stroke="#000000" stroke-linejoin="bevel" font-family="MS Shell Dlg 2" transform="matrix(1,0,0,1,853.616,23.1499)" fill="none" stroke-linecap="square" stroke-width="1" font-style="normal" font-size="7.5625" stroke-opacity="1"/>
  <g font-weight="400" stroke="#000000" stroke-linejoin="bevel" font-family="MS Shell Dlg 2" transform="matrix(2.59843,0,0,2.59843,853.616,23.1499)" fill="none" stroke-linecap="square" stroke-width="1" font-style="normal" font-size="7.5625" stroke-opacity="1"/>
  <g font-weight="400" stroke="#000000" stroke-linejoin="bevel" font-family="MS Shell Dlg 2" transform="matrix(2.59843,0,0,2.59843,853.616,23.1499)" fill="none" stroke-linecap="square" stroke-width="1" font-style="normal" font-size="7.5625" stroke-opacity="1"/>
  <g font-weight="400" stroke="#000000" stroke-linejoin="bevel" font-family="MS Shell Dlg 2" transform="matrix(1,0,0,1,0,0)" fill="none" stroke-linecap="square" stroke-width="1" font-style="normal" font-size="7.5625" stroke-opacity="1"/>
 </g>
 <metadata>
  <rdf:RDF xmlns:rdfs="http://www.w3.org/2000/01/rdf-schema#" xmlns:rdf="http://www.w3.org/1999/02/22-rdf-syntax-ns#" xmlns:dc="http://purl.org/dc/elements/1.1/">
   <rdf:Description dc:identifier="" dc:description="" dc:format="image/svg+xml" dc:title="" dc:date="2021-11-02T16:52:40">
    <dc:creator>
     <rdf:Bag>
      <rdf:li>Jonathan Cervas</rdf:li>
     </rdf:Bag>
    </dc:creator>
    <dc:publisher>
     <rdf:Bag>
      <rdf:li>QGIS 3.20.1-Odense</rdf:li>
     </rdf:Bag>
    </dc:publisher>
    <dc:subject>
     <rdf:Bag/>
    </dc:subject>
   </rdf:Description>
   <cc:Work rdf:about="">
    <dc:format>image/svg+xml</dc:format>
    <dc:title></dc:title>
    <dc:date>2021-11-02T16:52:40</dc:date>
    <dc:identifier></dc:identifier>
    <dc:description></dc:description>
    <dc:creator>
     <cc:Agent>
      <dc:title>Jonathan Cervas</dc:title>
     </cc:Agent>
    </dc:creator>
    <dc:publisher>
     <cc:Agent>
      <dc:title>QGIS 3.20.1-Odense</dc:title>
     </cc:Agent>
    </dc:publisher>
   </cc:Work>
  </rdf:RDF>
 </metadata>
</svg>
