<?xml version='1.0' encoding='UTF-8' standalone='no'?>
<svg viewBox="0 0 1122 660" xmlns:inkscape="http://www.inkscape.org/namespaces/inkscape" xmlns:cc="http://creativecommons.org/ns#" baseProfile="tiny" width="431.8mm" xmlns:xlink="http://www.w3.org/1999/xlink" version="1.2" height="254mm" xmlns="http://www.w3.org/2000/svg">
 <defs/>
 <g inkscape:groupmode="layer" stroke="black" stroke-linejoin="bevel" fill="none" stroke-linecap="square" stroke-width="1" inkscape:label="Layer 1" fill-rule="evenodd" id="Layer 1">
  <g font-weight="400" stroke="#000000" stroke-linejoin="bevel" font-family="MS Shell Dlg 2" transform="matrix(1,0,0,1,0,0)" fill="none" stroke-linecap="square" stroke-width="1" font-style="normal" font-size="7.5625" stroke-opacity="1"/>
  <g font-weight="400" stroke="#000000" stroke-linejoin="bevel" font-family="MS Shell Dlg 2" transform="matrix(1,0,0,1,0,0)" fill="none" stroke-linecap="square" stroke-width="1" font-style="normal" font-size="7.5625" stroke-opacity="1"/>
  <g font-weight="400" stroke="#000000" stroke-linejoin="bevel" font-family="MS Shell Dlg 2" transform="matrix(2.59843,0,0,2.59843,0,0)" fill="none" stroke-linecap="square" stroke-width="1" font-style="normal" font-size="7.5625" stroke-opacity="1"/>
  <g font-weight="400" stroke="#000000" stroke-linejoin="bevel" font-family="MS Shell Dlg 2" transform="matrix(2.59843,0,0,2.59843,0,0)" fill="none" stroke-linecap="square" stroke-width="1" font-style="normal" font-size="7.5625" stroke-opacity="1"/>
  <g font-weight="400" stroke="#000000" stroke-linejoin="bevel" font-family="MS Shell Dlg 2" transform="matrix(1,0,0,1,0,0)" fill="none" stroke-linecap="square" stroke-width="1" font-style="normal" font-size="7.5625" stroke-opacity="1"/>
 </g>
 <defs/>
 <g inkscape:groupmode="layer" stroke="black" stroke-linejoin="bevel" fill="none" stroke-linecap="square" stroke-width="1" inkscape:label="Page" fill-rule="evenodd" id="Page">
  <g font-weight="400" stroke="#000000" stroke-linejoin="bevel" font-family="MS Shell Dlg 2" transform="matrix(1,0,0,1,0,0)" fill="none" stroke-linecap="square" stroke-width="1" font-style="normal" font-size="7.5625" stroke-opacity="1"/>
  <g font-weight="400" stroke="#000000" stroke-linejoin="bevel" font-family="MS Shell Dlg 2" transform="matrix(1,0,0,1,0,0)" fill="none" stroke-linecap="square" stroke-width="1" font-style="normal" font-size="7.5625" stroke-opacity="1"/>
  <g font-weight="400" stroke="#000000" stroke-linejoin="bevel" font-family="MS Shell Dlg 2" transform="matrix(2.59843,0,0,2.59843,0,0)" fill="none" stroke-linecap="square" stroke-width="1" font-style="normal" font-size="7.5625" stroke-opacity="1"/>
  <g font-weight="400" stroke="#000000" stroke-linejoin="bevel" font-family="MS Shell Dlg 2" transform="matrix(1,0,0,1,0,0)" fill="none" stroke-linecap="square" stroke-width="1" font-style="normal" font-size="7.5625" stroke-opacity="1"/>
  <g font-weight="400" stroke="none" font-family="MS Shell Dlg 2" transform="matrix(1,0,0,1,0,0)" fill="#ffffff" font-style="normal" fill-opacity="1" font-size="7.5625">
   <path fill-rule="evenodd" vector-effect="none" d="M-2,-2 L1124,-2 L1124,663 L-2,663 L-2,-2"/>
  </g>
  <g font-weight="400" stroke="#000000" stroke-linejoin="bevel" font-family="MS Shell Dlg 2" transform="matrix(1,0,0,1,0,0)" fill="none" stroke-linecap="square" stroke-width="1" font-style="normal" font-size="7.5625" stroke-opacity="1"/>
  <g font-weight="400" stroke="#000000" stroke-linejoin="bevel" font-family="MS Shell Dlg 2" transform="matrix(2.59843,0,0,2.59843,0,0)" fill="none" stroke-linecap="square" stroke-width="1" font-style="normal" font-size="7.5625" stroke-opacity="1"/>
  <g font-weight="400" stroke="#000000" stroke-linejoin="bevel" font-family="MS Shell Dlg 2" transform="matrix(2.59843,0,0,2.59843,0,0)" fill="none" stroke-linecap="square" stroke-width="1" font-style="normal" font-size="7.5625" stroke-opacity="1"/>
  <g font-weight="400" stroke="#000000" stroke-linejoin="bevel" font-family="MS Shell Dlg 2" transform="matrix(1,0,0,1,0,0)" fill="none" stroke-linecap="square" stroke-width="1" font-style="normal" font-size="7.5625" stroke-opacity="1"/>
 </g>
 <defs/>
 <g inkscape:groupmode="layer" stroke="black" stroke-linejoin="bevel" fill="none" stroke-linecap="square" stroke-width="1" inkscape:label="Map 1: Background" fill-rule="evenodd" id="Map 1: Background">
  <g font-weight="400" stroke="#000000" stroke-linejoin="bevel" font-family="MS Shell Dlg 2" transform="matrix(1,0,0,1,0,0)" fill="none" stroke-linecap="square" stroke-width="1" font-style="normal" font-size="7.5625" stroke-opacity="1"/>
  <g font-weight="400" stroke="#000000" stroke-linejoin="bevel" font-family="MS Shell Dlg 2" transform="matrix(1,0,0,1,0,0)" fill="none" stroke-linecap="square" stroke-width="1" font-style="normal" font-size="7.5625" stroke-opacity="1"/>
  <g font-weight="400" stroke="#000000" stroke-linejoin="bevel" font-family="MS Shell Dlg 2" transform="matrix(2.59843,0,0,2.59843,0,85.5885)" fill="none" stroke-linecap="square" stroke-width="1" font-style="normal" font-size="7.5625" stroke-opacity="1"/>
  <g font-weight="400" stroke="none" font-family="MS Shell Dlg 2" transform="matrix(2.59843,0,0,2.59843,0,85.5885)" fill="#ffffff" font-style="normal" fill-opacity="1" font-size="7.5625">
   <path fill-rule="evenodd" vector-effect="none" d="M0,0 L431.8,0 L431.8,221.061 L0,221.061 L0,0"/>
  </g>
  <g font-weight="400" stroke="#000000" stroke-linejoin="bevel" font-family="MS Shell Dlg 2" transform="matrix(2.59843,0,0,2.59843,0,85.5885)" fill="none" stroke-linecap="square" stroke-width="1" font-style="normal" font-size="7.5625" stroke-opacity="1"/>
  <g font-weight="400" stroke="#000000" stroke-linejoin="bevel" font-family="MS Shell Dlg 2" transform="matrix(2.59843,0,0,2.59843,0,85.5885)" fill="none" stroke-linecap="square" stroke-width="1" font-style="normal" font-size="7.5625" stroke-opacity="1"/>
  <g font-weight="400" stroke="#000000" stroke-linejoin="bevel" font-family="MS Shell Dlg 2" transform="matrix(2.59843,0,0,2.59843,0,85.5885)" fill="none" stroke-linecap="square" stroke-width="1" font-style="normal" font-size="7.5625" stroke-opacity="1"/>
  <g font-weight="400" stroke="#000000" stroke-linejoin="bevel" font-family="MS Shell Dlg 2" transform="matrix(2.59843,0,0,2.59843,0,85.5885)" fill="none" stroke-linecap="square" stroke-width="1" font-style="normal" font-size="7.5625" stroke-opacity="1"/>
  <g font-weight="400" stroke="#000000" stroke-linejoin="bevel" font-family="MS Shell Dlg 2" transform="matrix(1,0,0,1,0,0)" fill="none" stroke-linecap="square" stroke-width="1" font-style="normal" font-size="7.5625" stroke-opacity="1"/>
  <g font-weight="400" stroke="#000000" stroke-linejoin="bevel" font-family="MS Shell Dlg 2" transform="matrix(2.59843,0,0,2.59843,0,85.5885)" fill="none" stroke-linecap="square" stroke-width="1" font-style="normal" font-size="7.5625" stroke-opacity="1"/>
  <g font-weight="400" stroke="#000000" stroke-linejoin="bevel" font-family="MS Shell Dlg 2" transform="matrix(2.59843,0,0,2.59843,0,85.5885)" fill="none" stroke-linecap="square" stroke-width="1" font-style="normal" font-size="7.5625" stroke-opacity="1"/>
  <g font-weight="400" stroke="#000000" stroke-linejoin="bevel" font-family="MS Shell Dlg 2" transform="matrix(1,0,0,1,0,0)" fill="none" stroke-linecap="square" stroke-width="1" font-style="normal" font-size="7.5625" stroke-opacity="1"/>
 </g>
 <defs/>
 <g inkscape:groupmode="layer" stroke="black" stroke-linejoin="bevel" fill="none" stroke-linecap="square" stroke-width="1" inkscape:label="Map 1: LRC-H-v2" fill-rule="evenodd" id="Map 1: LRC-H-v2">
  <g font-weight="400" stroke="#000000" stroke-linejoin="bevel" font-family="MS Shell Dlg 2" transform="matrix(1,0,0,1,0,0)" fill="none" stroke-linecap="square" stroke-width="1" font-style="normal" font-size="7.5625" stroke-opacity="1"/>
  <g font-weight="400" stroke="#000000" stroke-linejoin="bevel" font-family="MS Shell Dlg 2" transform="matrix(1,0,0,1,0,0)" fill="none" stroke-linecap="square" stroke-width="1" font-style="normal" font-size="7.5625" stroke-opacity="1"/>
  <g font-weight="400" stroke="#000000" stroke-linejoin="bevel" font-family="MS Shell Dlg 2" transform="matrix(2.59843,0,0,2.59843,0,85.5885)" fill="none" stroke-linecap="square" stroke-width="1" font-style="normal" font-size="7.5625" stroke-opacity="1"/>
  <g font-weight="400" stroke="#000000" stroke-linejoin="bevel" font-family="MS Shell Dlg 2" transform="matrix(2.59843,0,0,2.59843,0,85.5885)" fill="none" stroke-linecap="square" stroke-width="1" font-style="normal" font-size="7.5625" stroke-opacity="1"/>
  <g font-weight="400" stroke="none" font-family="MS Shell Dlg 2" transform="matrix(1,0,0,1,0,85.5885)" fill="#000000" font-style="normal" fill-opacity="0" font-size="7.5625">
   <rect x="0" width="1122" y="0" height="574"/>
  </g>
  <g font-weight="400" stroke="#000000" stroke-linejoin="bevel" font-family="MS Shell Dlg 2" transform="matrix(1,0,0,1,0,85.5885)" fill="none" stroke-linecap="square" stroke-width="1" font-style="normal" font-size="7.5625" stroke-opacity="1"/>
  <g font-weight="400" stroke="#232323" stroke-linejoin="bevel" font-family="MS Shell Dlg 2" transform="matrix(1,0,0,1,0,85.5885)" fill="#ffffff" stroke-linecap="square" stroke-width="0.675591" font-style="normal" fill-opacity="0.189807" font-size="7.5625" stroke-opacity="0.0603952">
   <path fill-rule="evenodd" vector-effect="none" d="M678.941,-80.4782 L679.478,-60.4079 L679.7,-57.5601 L680.057,-52.9045 L680.538,-41.3219 L680.628,-31.1497 L680.768,-28.8892 L681.193,-21.6446 L681.416,-19.0705 L681.546,-12.2069 L682.987,2.50722 L683.02,3.91765 L683.121,9.51823 L683.033,11.4484 L682.74,18.5353 L683.54,23.6412 L673.337,20.5621 L641.754,18.6626 L633.985,17.5229 L628.202,16.6614 L625.877,16.4352 L623.78,17.6662 L623.629,17.755 L622.561,18.3869 L621.597,18.9525 L619.299,18.578 L612.202,17.4076 L611.176,17.2588 L609.758,17.0373 L608.133,16.6324 L607.747,16.4963 L605.217,15.9389 L604.854,18.4565 L604.303,22.3173 L603.812,25.4706 L603.204,30.1547 L602.683,34.2042 L602.083,38.3297 L597.734,37.6891 L592.774,36.9716 L588.875,36.444 L584.908,35.8552 L581.245,35.3628 L576.359,34.6641 L573.11,34.2121 L560.235,32.3371 L555.79,31.7411 L551.695,31.1665 L547.34,30.5994 L547.977,26.3464 L548.505,22.2441 L549.154,17.58 L550.383,8.91733 L551.051,4.06305 L544.782,2.08822 L538.594,0.121485 L539.08,-3.23173 L539.179,-4.00354 L539.661,-8.00971 L540.411,-13.1087 L543.75,-12.0588 L546.656,-11.1015 L549.676,-10.1581 L552.858,-9.21951 L553.026,-10.4041 L553.201,-11.5995 L553.51,-13.7784 L553.894,-16.444 L554.185,-18.4117 L554.542,-20.8659 L554.941,-23.5846 L555.702,-28.8313 L556.713,-36.0972 L552.954,-36.7976 L547.056,-38.025 L543.917,-38.3434 L544.095,-39.4546 L544.406,-41.307 L544.659,-42.9049 L545.366,-48.3502 L545.904,-51.8419 L546.303,-55.0768 L547.383,-63.5665 L543.706,-63.9744 L543.887,-64.4643 L544.436,-68.6515 L535.32,-69.879 L535.958,-74.3638 L524.557,-75.9242 L678.941,-80.4782"/>
   <path fill-rule="evenodd" vector-effect="none" d="M524.557,-75.9242 L535.958,-74.3638 L535.32,-69.879 L544.436,-68.6515 L543.887,-64.4643 L543.706,-63.9744 L547.383,-63.5665 L546.303,-55.0768 L545.904,-51.8419 L545.366,-48.3502 L544.659,-42.9049 L544.406,-41.307 L544.095,-39.4546 L543.917,-38.3434 L547.056,-38.025 L552.954,-36.7976 L556.713,-36.0972 L555.702,-28.8313 L554.941,-23.5846 L554.542,-20.8659 L554.185,-18.4117 L553.894,-16.444 L553.51,-13.7784 L553.201,-11.5995 L553.026,-10.4041 L552.858,-9.21951 L549.676,-10.1581 L546.656,-11.1015 L543.75,-12.0588 L540.411,-13.1087 L539.661,-8.00971 L539.179,-4.00354 L539.08,-3.23173 L538.594,0.121485 L544.782,2.08822 L551.051,4.06305 L550.383,8.91733 L549.154,17.58 L548.505,22.2441 L547.977,26.3464 L547.34,30.5994 L542.502,29.8675 L538.692,29.3476 L534.628,28.7403 L530.554,28.0911 L525.52,27.3227 L521.833,26.8517 L509.189,25.0955 L496.452,23.2364 L493.399,22.7888 L483.653,21.4421 L479.438,20.9337 L475.839,20.4283 L471.337,19.8125 L458.023,17.8959 L449.32,16.6972 L445.248,16.0791 L441.212,15.5969 L440.781,15.5463 L437.556,15.0614 L435.619,14.8126 L428.274,13.7741 L427.77,13.7256 L427.266,13.6667 L429.52,-2.67263 L430.98,-13.7433 L431.783,-18.4644 L432.796,-25.667 L434.43,-38.2806 L435.118,-43.3038 L435.825,-48.5173 L436.387,-52.8627 L436.847,-56.7944 L431.988,-57.4633 L431.149,-57.5862 L423.818,-58.4882 L418.876,-59.1758 L415.335,-59.6516 L414.409,-59.7088 L410.948,-60.2291 L403.403,-61.2619 L398.179,-61.8888 L397.597,-57.9325 L397.041,-53.6609 L384.246,-55.3728 L371.435,-57.0739 L358.623,-58.8068 L343.028,-60.8802 L343.587,-65.078 L343.671,-65.8072 L344.114,-68.9905 L344.282,-70.6487 L524.557,-75.9242"/>
  </g>
  <g font-weight="400" stroke="none" font-family="MS Shell Dlg 2" transform="matrix(1,0,0,1,0,85.5885)" fill="#ffb81c" font-style="normal" fill-opacity="0.901961" font-size="7.5625">
   <path fill-rule="evenodd" vector-effect="none" d="M387.273,560.333 L379.825,511.962 L377.764,507.23 L376.243,497.352 L375.807,493.257 L375.573,492.19 L374.424,482.301 L374.1,479.804 L372.774,469.678 L372.49,467.454 L372.36,466.309 L369.083,438.798 L369.093,438.292 L369.153,437.859 L372.12,415.495 L375.702,402.867 L376.1,401.486 L377.148,397.906 L378.461,392.57 L378.917,390.703 L379.214,389.483 L379.617,386.343 L379.771,384.916 L379.86,384.071 L379.929,383.395 L380.1,381.757 L380.916,375.509 L381.366,372.02 L382.052,366.617 L382.657,361.776 L382.896,358.556 L385.284,343.93 L385.871,337.92 L386.239,335.781 L386.424,334.638 L386.868,332.056 L387.166,329.74 L388.267,321.334 L388.334,319.458 L388.332,317.73 L388.294,315.583 L388.278,303.913 L388.31,303.353 L388.301,301.395 L388.502,299.103 L389.977,290.17 L391.054,282.597 L391.302,280.536 L391.72,277.059 L391.84,275.907 L393.463,263.968 L393.62,262.942 L395.519,250.752 L396.129,246.648 L396.37,244.903 L396.452,244.374 L396.58,243.78 L396.685,242.935 L397.345,237.459 L397.61,235.166 L398.989,224.34 L399.053,224.033 L398.898,223.416 L398.628,222.813 L399.347,217.409 L400.152,211.098 L401.964,197.605 L402.151,196.251 L402.722,192.19 L403.974,182.853 L405.759,169.55 L407.589,156.404 L409.414,143.375 L411.346,130.12 L413.216,116.678 L414.856,104.813 L414.877,104.127 L416.66,91.3304 L418.486,78.3321 L419.404,71.7433 L420.273,65.4192 L422.056,52.6328 L423.888,39.5606 L425.704,26.5204 L427.266,13.6667 L427.77,13.7256 L428.274,13.7741 L435.619,14.8126 L437.556,15.0614 L440.781,15.5463 L441.212,15.5969 L445.248,16.0791 L449.32,16.6972 L458.023,17.8959 L471.337,19.8125 L475.839,20.4283 L479.438,20.9337 L483.653,21.4421 L493.399,22.7888 L496.452,23.2364 L509.189,25.0955 L521.833,26.8517 L525.52,27.3227 L530.554,28.0911 L534.628,28.7403 L538.692,29.3476 L542.502,29.8675 L547.34,30.5994 L551.695,31.1665 L555.79,31.7411 L560.235,32.3371 L573.11,34.2121 L576.359,34.6641 L581.245,35.3628 L584.908,35.8552 L588.875,36.444 L592.774,36.9716 L597.734,37.6891 L602.083,38.3297 L602.683,34.2042 L603.204,30.1547 L603.812,25.4706 L604.303,22.3173 L604.854,18.4565 L605.217,15.9389 L607.747,16.4963 L608.133,16.6324 L609.758,17.0373 L611.176,17.2588 L612.202,17.4076 L619.299,18.578 L621.597,18.9525 L622.561,18.3869 L623.629,17.755 L623.78,17.6662 L625.877,16.4352 L628.202,16.6614 L633.985,17.5229 L641.754,18.6626 L673.337,20.5621 L683.54,23.6412 L684.243,28.2233 L688.863,57.7158 L688.984,58.5233 L690.557,63.7432 L694.66,77.4094 L695.723,80.9802 L698.367,89.7602 L699.97,93.7889 L713.511,127.62 L716.332,134.699 L716.831,135.927 L717.111,136.624 L723.364,152.481 L727.258,162.382 L734.599,180.997 L736.574,184.678 L741.61,193.671 L743.237,196.583 L747.412,208.245 L747.845,209.444 L749.839,216.515 L752.917,225.114 L752.644,250.896 L752.122,255.43 L751.887,268.003 L750.929,272.908 L749.566,285.441 L749.456,285.866 L749.275,286.587 L746.953,295.82 L746.542,298.634 L745.146,308.155 L744.935,308.983 L744.819,309.45 L744.66,310.655 L744.33,313.193 L743.796,322.531 L742.537,328.498 L741.686,338.93 L736.829,358.402 L736.192,360.444 L732.092,373.468 L727.85,382.547 L727.266,383.618 L706.486,421.879 L701.265,438.433 L701.045,438.945 L695.361,451.964 L686.858,471.417 L677.213,483.036 L666.812,489.379 L664.614,490.761 L659.021,497.846 L653.555,504.791 L636.113,525.245 L630.776,527.256 L621.025,530.915 L607.099,537.445 L594.779,539.851 L580.579,542.618 L532.284,549.063 L481.776,554.526 L468.431,555.202 L462.082,555.63 L434.91,557.436 L431.095,557.653 L402.594,559.244 L387.273,560.333"/>
  </g>
  <g font-weight="400" stroke="#232323" stroke-linejoin="bevel" font-family="MS Shell Dlg 2" transform="matrix(1,0,0,1,0,85.5885)" fill="#ffffff" stroke-linecap="square" stroke-width="0.675591" font-style="normal" fill-opacity="0.189807" font-size="7.5625" stroke-opacity="0.0603952">
   <path fill-rule="evenodd" vector-effect="none" d="M387.273,560.333 L369.207,561.618 L354.431,562.502 L342.139,563.365 L331.832,564.445 L319.764,566.334 L311.068,567.555 L303.387,569.359 L302.944,569.466 L296.729,570.9 L291.25,572.818 L285.549,574.616 L284.841,574.826 L279.421,576.795 L272.358,579.771 L271.95,579.972 L271.35,580.274 L268.478,581.695 L266.559,582.656 L261.731,585.177 L256.072,588.722 L249.873,593.23 L245.259,596.703 L240.743,599.92 L235.012,604.899 L229.398,609.717 L225.139,613.696 L222.708,616.083 L220.988,617.776 L220.002,618.742 L218.997,619.919 L215.708,623.764 L211.806,628.016 L209.009,631.468 L206.158,634.499 L203.81,637.759 L202.158,640.134 L200.652,641.937 L198.479,644.801 L194.99,649.326 L191.097,654.189 L187.833,658.896 L184.842,662.386 L-111.171,670.875 L-125.547,165.951 L-120.389,160.955 L-114.794,155.508 L-117.368,152.843 L-120.57,149.459 L-126.179,143.728 L-126.427,135.03 L-125.445,134.051 L-120.213,128.962 L-116.797,125.61 L-113.939,122.885 L-110.442,119.531 L-105.553,114.663 L-100.748,109.997 L-95.6285,115.201 L-90.5328,120.428 L-79.8257,110.011 L-75.4522,105.841 L-70.9878,101.733 L-73.5822,99.1945 L-61.9727,88.878 L-60.0098,90.8863 L-54.1703,96.8811 L-47.2812,90.2277 L-28.429,72.0463 L-18.4316,62.3861 L-17.7688,61.7457 L-22.8314,56.5505 L-6.64871,51.0947 L-4.34365,50.323 L11.8465,44.856 L16.657,43.2329 L19.2915,42.3569 L36.951,36.3943 L53.4382,30.8441 L54.3212,30.5343 L58.682,29.0714 L68.1258,25.8824 L100.697,14.8865 L103.314,13.9896 L106.791,12.8151 L110.598,11.5363 L115.536,9.85625 L115.328,10.8102 L114.81,13.0791 L114.587,14.0651 L113.696,16.3553 L111.945,19.7341 L109.728,23.5582 L105.073,29.7275 L104.697,29.6436 L95.3598,50.8831 L75.6357,83.1753 L75.2516,84.4818 L67.1103,118.063 L70.621,135.53 L81.3315,150.674 L99.9985,161.323 L141.576,160.398 L155.675,172.346 L160.737,170.979 L164.905,169.858 L168.865,168.785 L176.706,166.768 L205.324,159.42 L209.244,158.401 L213.768,157.501 L218.778,156.882 L228.304,155.374 L229.838,155.119 L235.27,153.687 L240.074,152.368 L241.432,151.96 L243.338,151.389 L245.067,150.875 L246.08,150.583 L246.749,150.437 L246.942,150.389 L247.353,150.293 L247.707,150.209 L248.634,149.992 L249.431,149.811 L252.693,148.758 L255.53,147.854 L257.773,147.168 L258.343,146.993 L258.737,146.877 L271.875,143.494 L274.545,142.742 L286.401,139.649 L287.214,139.435 L288.59,139.079 L293.523,137.746 L297.826,136.504 L299.006,128.002 L303.672,128.656 L305.489,115.574 L306.081,111.112 L306.681,107.197 L307.385,102.395 L309.153,89.5883 L313.676,90.0887 L317.667,90.6888 L322.063,91.2771 L327.311,91.8722 L332.508,92.6689 L337.719,93.3914 L337.059,97.7291 L336.55,101.715 L335.89,106.326 L340.411,107.027 L344.238,107.558 L348.693,108.229 L346.985,121.128 L346.607,123.446 L351.296,121.856 L360.184,119.901 L366.311,118.353 L367.894,117.875 L373.593,116.424 L378.308,115.117 L382.084,114.459 L382.719,114.272 L387.148,112.942 L400.725,109.112 L414.856,104.813 L413.216,116.678 L411.346,130.12 L409.414,143.375 L407.589,156.404 L405.759,169.55 L403.974,182.853 L402.722,192.19 L402.151,196.251 L401.964,197.605 L400.152,211.098 L399.347,217.409 L398.628,222.813 L398.898,223.416 L399.053,224.033 L398.989,224.34 L397.61,235.166 L397.345,237.459 L396.685,242.935 L396.58,243.78 L396.452,244.374 L396.37,244.903 L396.129,246.648 L395.519,250.752 L393.62,262.942 L393.463,263.968 L391.84,275.907 L391.72,277.059 L391.302,280.536 L391.054,282.597 L389.977,290.17 L388.502,299.103 L388.301,301.395 L388.31,303.353 L388.278,303.913 L388.294,315.583 L388.332,317.73 L388.334,319.458 L388.267,321.334 L387.166,329.74 L386.868,332.056 L386.424,334.638 L386.239,335.781 L385.871,337.92 L385.284,343.93 L382.896,358.556 L382.657,361.776 L382.052,366.617 L381.366,372.02 L380.916,375.509 L380.1,381.757 L379.929,383.395 L379.86,384.071 L379.771,384.916 L379.617,386.343 L379.214,389.483 L378.917,390.703 L378.461,392.57 L377.148,397.906 L376.1,401.486 L375.702,402.867 L372.12,415.495 L369.153,437.859 L369.093,438.292 L369.083,438.798 L372.36,466.309 L372.49,467.454 L372.774,469.678 L374.1,479.804 L374.424,482.301 L375.573,492.19 L375.807,493.257 L376.243,497.352 L377.764,507.23 L379.825,511.962 L387.273,560.333"/>
   <path fill-rule="evenodd" vector-effect="none" d="M414.856,104.813 L400.725,109.112 L387.148,112.942 L382.719,114.272 L382.084,114.459 L378.308,115.117 L373.593,116.424 L367.894,117.875 L366.311,118.353 L360.184,119.901 L351.296,121.856 L346.607,123.446 L346.985,121.128 L348.693,108.229 L344.238,107.558 L340.411,107.027 L335.89,106.326 L336.55,101.715 L337.059,97.7291 L337.719,93.3914 L332.508,92.6689 L327.311,91.8722 L322.063,91.2771 L317.667,90.6888 L313.676,90.0887 L309.153,89.5883 L307.385,102.395 L306.681,107.197 L306.081,111.112 L305.489,115.574 L303.672,128.656 L299.006,128.002 L297.826,136.504 L293.523,137.746 L288.59,139.079 L287.214,139.435 L286.401,139.649 L274.545,142.742 L271.875,143.494 L258.737,146.877 L258.343,146.993 L257.773,147.168 L255.53,147.854 L252.693,148.758 L249.431,149.811 L248.634,149.992 L247.707,150.209 L247.353,150.293 L246.942,150.389 L246.749,150.437 L246.08,150.583 L245.067,150.875 L243.338,151.389 L241.432,151.96 L240.074,152.368 L235.27,153.687 L229.838,155.119 L228.304,155.374 L218.778,156.882 L213.768,157.501 L209.244,158.401 L205.324,159.42 L176.706,166.768 L168.865,168.785 L164.905,169.858 L160.737,170.979 L155.675,172.346 L141.576,160.398 L99.9985,161.323 L81.3315,150.674 L70.621,135.53 L67.1103,118.063 L75.2516,84.4818 L75.6357,83.1753 L95.3598,50.8831 L104.697,29.6436 L105.073,29.7275 L109.728,23.5582 L111.945,19.7341 L113.696,16.3553 L114.587,14.0651 L114.81,13.0791 L115.328,10.8102 L115.536,9.85625 L110.598,11.5363 L106.791,12.8151 L103.314,13.9896 L100.697,14.8865 L68.1258,25.8824 L58.682,29.0714 L54.3212,30.5343 L53.4382,30.8441 L36.951,36.3943 L19.2915,42.3569 L16.657,43.2329 L11.8465,44.856 L-4.34365,50.323 L-6.64871,51.0947 L-22.8314,56.5505 L-33.6126,45.3257 L-29.8744,41.6481 L-26.7756,38.5787 L-22.7836,34.7043 L-33.3877,23.9905 L-45.0719,11.7907 L-55.6844,0.760847 L-65.7144,-9.47478 L-61.5584,-13.5643 L-58.0157,-16.9833 L-53.851,-21.0521 L-50.1344,-24.6236 L-46.7175,-27.9022 L-43.0084,-31.4524 L-45.2048,-33.6963 L-47.1912,-35.6828 L-49.1065,-37.7346 L-50.6302,-39.4184 L-54.7539,-43.5663 L-43.881,-54.0306 L-40.0647,-57.7946 L-38.2156,-59.6061 L-18.5177,-60.1698 L-16.0706,-57.6386 L-21.4981,-52.3854 L-11.4103,-42.1205 L-0.820816,-31.0485 L3.35697,-26.7234 L6.75697,-23.2292 L10.9087,-18.9666 L16.1568,-13.5136 L21.4371,-8.07218 L25.2872,-11.7848 L28.5068,-14.8685 L17.9883,-25.6999 L21.7331,-29.4095 L32.2905,-18.6319 L35.2337,-15.525 L42.1764,-8.38297 L48.4809,-1.72827 L48.978,-2.20598 L52.9868,-6.03919 L55.9377,-8.87302 L57.5873,-10.4371 L58.9916,-11.7941 L60.9795,-13.7155 L67.1024,-19.5897 L68.9802,-21.3921 L72.9888,-25.2255 L74.9767,-27.1469 L77.2885,-29.3621 L82.559,-23.7102 L84.2148,-23.3681 L85.8009,-22.9082 L91.733,-19.9085 L109.678,-10.8299 L114.515,-8.39924 L118.553,-6.14572 L119.01,-8.5709 L119.524,-21.6885 L119.698,-26.0646 L120.38,-43.7372 L120.478,-45.4147 L120.513,-46.153 L120.979,-50.8114 L121.654,-54.9597 L122.229,-58.094 L122.998,-60.6651 L124.099,-63.2352 L124.612,-64.2819 L195.647,-66.3334 L197.89,-65.556 L201.255,-64.7264 L203.393,-64.5145 L207.519,-64.2652 L211.392,-64.3563 L212.323,-63.8145 L213.594,-65.5892 L215.982,-66.9219 L344.282,-70.6487 L344.114,-68.9905 L343.671,-65.8072 L343.587,-65.078 L343.028,-60.8802 L358.623,-58.8068 L371.435,-57.0739 L384.246,-55.3728 L397.041,-53.6609 L397.597,-57.9325 L398.179,-61.8888 L403.403,-61.2619 L410.948,-60.2291 L414.409,-59.7088 L415.335,-59.6516 L418.876,-59.1758 L423.818,-58.4882 L431.149,-57.5862 L431.988,-57.4633 L436.847,-56.7944 L436.387,-52.8627 L435.825,-48.5173 L435.118,-43.3038 L434.43,-38.2806 L432.796,-25.667 L431.783,-18.4644 L430.98,-13.7433 L429.52,-2.67263 L427.266,13.6667 L425.704,26.5204 L423.888,39.5606 L422.056,52.6328 L420.273,65.4192 L419.404,71.7433 L418.486,78.3321 L416.66,91.3304 L414.877,104.127 L414.856,104.813"/>
  </g>
  <g font-weight="400" stroke="#000000" stroke-linejoin="bevel" font-family="MS Shell Dlg 2" transform="matrix(1,0,0,1,0,85.5885)" fill="none" stroke-linecap="square" stroke-width="1" font-style="normal" font-size="7.5625" stroke-opacity="1"/>
  <g font-weight="400" stroke="#000000" stroke-linejoin="bevel" font-family="MS Shell Dlg 2" transform="matrix(2.59843,0,0,2.59843,0,85.5885)" fill="none" stroke-linecap="square" stroke-width="1" font-style="normal" font-size="7.5625" stroke-opacity="1"/>
  <g font-weight="400" stroke="#000000" stroke-linejoin="bevel" font-family="MS Shell Dlg 2" transform="matrix(2.59843,0,0,2.59843,0,85.5885)" fill="none" stroke-linecap="square" stroke-width="1" font-style="normal" font-size="7.5625" stroke-opacity="1"/>
  <g font-weight="400" stroke="#000000" stroke-linejoin="bevel" font-family="MS Shell Dlg 2" transform="matrix(2.59843,0,0,2.59843,0,85.5885)" fill="none" stroke-linecap="square" stroke-width="1" font-style="normal" font-size="7.5625" stroke-opacity="1"/>
  <g font-weight="400" stroke="#000000" stroke-linejoin="bevel" font-family="MS Shell Dlg 2" transform="matrix(1,0,0,1,0,0)" fill="none" stroke-linecap="square" stroke-width="1" font-style="normal" font-size="7.5625" stroke-opacity="1"/>
  <g font-weight="400" stroke="#000000" stroke-linejoin="bevel" font-family="MS Shell Dlg 2" transform="matrix(2.59843,0,0,2.59843,0,85.5885)" fill="none" stroke-linecap="square" stroke-width="1" font-style="normal" font-size="7.5625" stroke-opacity="1"/>
  <g font-weight="400" stroke="#000000" stroke-linejoin="bevel" font-family="MS Shell Dlg 2" transform="matrix(2.59843,0,0,2.59843,0,85.5885)" fill="none" stroke-linecap="square" stroke-width="1" font-style="normal" font-size="7.5625" stroke-opacity="1"/>
  <g font-weight="400" stroke="#000000" stroke-linejoin="bevel" font-family="MS Shell Dlg 2" transform="matrix(1,0,0,1,0,0)" fill="none" stroke-linecap="square" stroke-width="1" font-style="normal" font-size="7.5625" stroke-opacity="1"/>
 </g>
 <defs/>
 <g inkscape:groupmode="layer" stroke="black" stroke-linejoin="bevel" fill="none" stroke-linecap="square" stroke-width="1" inkscape:label="Map 1: Pittsburgh" fill-rule="evenodd" id="Map 1: Pittsburgh">
  <g font-weight="400" stroke="#000000" stroke-linejoin="bevel" font-family="MS Shell Dlg 2" transform="matrix(1,0,0,1,0,0)" fill="none" stroke-linecap="square" stroke-width="1" font-style="normal" font-size="7.5625" stroke-opacity="1"/>
  <g font-weight="400" stroke="#000000" stroke-linejoin="bevel" font-family="MS Shell Dlg 2" transform="matrix(1,0,0,1,0,0)" fill="none" stroke-linecap="square" stroke-width="1" font-style="normal" font-size="7.5625" stroke-opacity="1"/>
  <g font-weight="400" stroke="#000000" stroke-linejoin="bevel" font-family="MS Shell Dlg 2" transform="matrix(2.59843,0,0,2.59843,0,85.5885)" fill="none" stroke-linecap="square" stroke-width="1" font-style="normal" font-size="7.5625" stroke-opacity="1"/>
  <g font-weight="400" stroke="#000000" stroke-linejoin="bevel" font-family="MS Shell Dlg 2" transform="matrix(2.59843,0,0,2.59843,0,85.5885)" fill="none" stroke-linecap="square" stroke-width="1" font-style="normal" font-size="7.5625" stroke-opacity="1"/>
  <g font-weight="400" stroke="none" font-family="MS Shell Dlg 2" transform="matrix(1,0,0,1,0,85.5885)" fill="#000000" font-style="normal" fill-opacity="0" font-size="7.5625">
   <rect x="0" width="1122" y="0" height="574"/>
  </g>
  <g font-weight="400" stroke="#000000" stroke-linejoin="bevel" font-family="MS Shell Dlg 2" transform="matrix(1,0,0,1,0,85.5885)" fill="none" stroke-linecap="square" stroke-width="1" font-style="normal" font-size="7.5625" stroke-opacity="1"/>
  <g font-weight="400" stroke="#000000" stroke-linejoin="bevel" font-family="MS Shell Dlg 2" transform="matrix(1,0,0,1,0,85.5885)" fill="none" stroke-linecap="square" stroke-width="1" font-style="normal" font-size="7.5625" stroke-opacity="1"/>
  <g font-weight="400" stroke="#000000" stroke-linejoin="bevel" font-family="MS Shell Dlg 2" transform="matrix(2.59843,0,0,2.59843,0,85.5885)" fill="none" stroke-linecap="square" stroke-width="1" font-style="normal" font-size="7.5625" stroke-opacity="1"/>
  <g font-weight="400" stroke="#000000" stroke-linejoin="bevel" font-family="MS Shell Dlg 2" transform="matrix(2.59843,0,0,2.59843,0,85.5885)" fill="none" stroke-linecap="square" stroke-width="1" font-style="normal" font-size="7.5625" stroke-opacity="1"/>
  <g font-weight="400" stroke="#000000" stroke-linejoin="bevel" font-family="MS Shell Dlg 2" transform="matrix(2.59843,0,0,2.59843,0,85.5885)" fill="none" stroke-linecap="square" stroke-width="1" font-style="normal" font-size="7.5625" stroke-opacity="1"/>
  <g font-weight="400" stroke="#000000" stroke-linejoin="bevel" font-family="MS Shell Dlg 2" transform="matrix(1,0,0,1,0,0)" fill="none" stroke-linecap="square" stroke-width="1" font-style="normal" font-size="7.5625" stroke-opacity="1"/>
  <g font-weight="400" stroke="#000000" stroke-linejoin="bevel" font-family="MS Shell Dlg 2" transform="matrix(2.59843,0,0,2.59843,0,85.5885)" fill="none" stroke-linecap="square" stroke-width="1" font-style="normal" font-size="7.5625" stroke-opacity="1"/>
  <g font-weight="400" stroke="#000000" stroke-linejoin="bevel" font-family="MS Shell Dlg 2" transform="matrix(2.59843,0,0,2.59843,0,85.5885)" fill="none" stroke-linecap="square" stroke-width="1" font-style="normal" font-size="7.5625" stroke-opacity="1"/>
  <g font-weight="400" stroke="#000000" stroke-linejoin="bevel" font-family="MS Shell Dlg 2" transform="matrix(1,0,0,1,0,0)" fill="none" stroke-linecap="square" stroke-width="1" font-style="normal" font-size="7.5625" stroke-opacity="1"/>
 </g>
 <defs/>
 <g inkscape:groupmode="layer" stroke="black" stroke-linejoin="bevel" fill="none" stroke-linecap="square" stroke-width="1" inkscape:label="Map 1: WP_Wards_reallocated (atlas)" fill-rule="evenodd" id="Map 1: WP_Wards_reallocated (atlas)">
  <g font-weight="400" stroke="#000000" stroke-linejoin="bevel" font-family="MS Shell Dlg 2" transform="matrix(1,0,0,1,0,0)" fill="none" stroke-linecap="square" stroke-width="1" font-style="normal" font-size="7.5625" stroke-opacity="1"/>
  <g font-weight="400" stroke="#000000" stroke-linejoin="bevel" font-family="MS Shell Dlg 2" transform="matrix(1,0,0,1,0,0)" fill="none" stroke-linecap="square" stroke-width="1" font-style="normal" font-size="7.5625" stroke-opacity="1"/>
  <g font-weight="400" stroke="#000000" stroke-linejoin="bevel" font-family="MS Shell Dlg 2" transform="matrix(2.59843,0,0,2.59843,0,85.5885)" fill="none" stroke-linecap="square" stroke-width="1" font-style="normal" font-size="7.5625" stroke-opacity="1"/>
  <g font-weight="400" stroke="#000000" stroke-linejoin="bevel" font-family="MS Shell Dlg 2" transform="matrix(2.59843,0,0,2.59843,0,85.5885)" fill="none" stroke-linecap="square" stroke-width="1" font-style="normal" font-size="7.5625" stroke-opacity="1"/>
  <g font-weight="400" stroke="none" font-family="MS Shell Dlg 2" transform="matrix(1,0,0,1,0,85.5885)" fill="#000000" font-style="normal" fill-opacity="0" font-size="7.5625">
   <rect x="0" width="1122" y="0" height="574"/>
  </g>
  <g font-weight="400" stroke="#000000" stroke-linejoin="bevel" font-family="MS Shell Dlg 2" transform="matrix(1,0,0,1,0,85.5885)" fill="none" stroke-linecap="square" stroke-width="1" font-style="normal" font-size="7.5625" stroke-opacity="1"/>
  <g stroke-dasharray="2.07874,1.03937" font-weight="400" stroke="#232323" stroke-linejoin="bevel" font-family="MS Shell Dlg 2" stroke-dashoffset="0" transform="matrix(1,0,0,1,0,85.5885)" fill="none" stroke-linecap="square" stroke-width="0.519685" font-style="normal" font-size="7.5625" stroke-opacity="0.0599985">
   <path fill-rule="evenodd" vector-effect="none" d="M597.734,37.6891 L602.083,38.3297 L602.683,34.2042 L603.204,30.1547 L603.812,25.4706 L604.303,22.3173 L604.854,18.4565 L605.217,15.9389 L607.747,16.4963 L608.133,16.6324 L609.758,17.0373 L611.176,17.2588 L612.202,17.4076 L619.299,18.578 L621.597,18.9525 L622.561,18.3869 L623.629,17.755 L623.78,17.6662 L625.877,16.4352 L628.202,16.6614 L633.985,17.5229 L641.754,18.6626 L673.337,20.5621 L683.54,23.6412 L684.243,28.2233 L688.863,57.7158 L688.984,58.5233 L690.557,63.7432 L694.66,77.4094 L695.723,80.9802 L698.367,89.7602 L699.97,93.7889 L713.511,127.62 L716.332,134.699 L670.213,130.114 L640.705,124.761 L633.219,124.74 L632.205,124.738 L631.834,124.812 L630.649,125.058 L619.754,120.008 L619.022,119.661 L609.045,118.47 L598.394,116.741 L595.772,116.355 L594.884,116.223 L593.768,116.055 L592.269,115.836 L590.803,115.616 L578.079,113.969 L572.409,113.104 L562.301,111.621 L556.325,110.807 L549.306,109.844 L536.372,107.949 L523.595,106.134 L510.801,104.298 L498.278,102.58 L485.566,100.783 L472.759,99.0205 L468.192,98.4171 L467.391,98.2299 L464.476,97.8308 L459.892,97.1856 L460.554,92.6581 L461.108,88.8711 L461.696,84.2932 L462.368,79.8391 L463.006,75.5862 L463.521,71.3053 L464.291,66.8799 L464.801,62.9783 L465.463,58.4508 L463.263,58.0624 L462.106,58.149 L460.161,57.6477 L452.574,56.6586 L448.567,56.0387 L445.164,55.5906 L439.774,54.832 L435.156,54.1455 L430.555,53.5007 L427.887,53.2101 L422.894,52.4503 L422.056,52.6328 L423.888,39.5606 L425.704,26.5204 L427.266,13.6667 L427.77,13.7256 L428.274,13.7741 L435.619,14.8126 L437.556,15.0614 L440.781,15.5463 L441.212,15.5969 L445.248,16.0791 L449.32,16.6972 L458.023,17.8959 L471.337,19.8125 L475.839,20.4283 L479.438,20.9337 L483.653,21.4421 L493.399,22.7888 L496.452,23.2364 L509.189,25.0955 L521.833,26.8517 L525.52,27.3227 L530.554,28.0911 L534.628,28.7403 L538.692,29.3476 L542.502,29.8675 L547.34,30.5994 L551.695,31.1665 L555.79,31.7411 L560.235,32.3371 L573.11,34.2121 L576.359,34.6641 L581.245,35.3628 L584.908,35.8552 L588.875,36.444 L592.774,36.9716 L597.734,37.6891"/>
   <path fill-rule="evenodd" vector-effect="none" d="M683.033,11.4484 L682.74,18.5353 L683.54,23.6412 L673.337,20.5621 L641.754,18.6626 L633.985,17.5229 L628.202,16.6614 L625.877,16.4352 L623.78,17.6662 L623.629,17.755 L622.561,18.3869 L621.597,18.9525 L619.299,18.578 L612.202,17.4076 L611.176,17.2588 L609.758,17.0373 L608.133,16.6324 L607.747,16.4963 L605.217,15.9389 L604.854,18.4565 L604.303,22.3173 L603.812,25.4706 L603.204,30.1547 L602.683,34.2042 L602.083,38.3297 L597.734,37.6891 L592.774,36.9716 L588.875,36.444 L584.908,35.8552 L581.245,35.3628 L576.359,34.6641 L573.11,34.2121 L560.235,32.3371 L555.79,31.7411 L551.695,31.1665 L547.34,30.5994 L542.502,29.8675 L538.692,29.3476 L534.628,28.7403 L530.554,28.0911 L525.52,27.3227 L521.833,26.8517 L509.189,25.0955 L496.452,23.2364 L493.399,22.7888 L483.653,21.4421 L479.438,20.9337 L475.839,20.4283 L471.337,19.8125 L458.023,17.8959 L449.32,16.6972 L445.248,16.0791 L441.212,15.5969 L440.781,15.5463 L437.556,15.0614 L435.619,14.8126 L428.274,13.7741 L427.77,13.7256 L427.266,13.6667 L429.52,-2.67263 L430.98,-13.7433 L431.783,-18.4644 L432.796,-25.667 L434.43,-38.2806 L435.118,-43.3038 L435.825,-48.5173 L436.387,-52.8627 L436.847,-56.7944 L438.287,-67.4432 L439.214,-73.4211 L524.557,-75.9242 L535.958,-74.3638 L548.832,-72.7412 L555.131,-71.947 L558.15,-71.5619 L561.684,-71.0445 L564.516,-70.6644 L570.492,-69.8398 L570.939,-69.8003 L574.512,-69.3367 L583.318,-68.1848 L587.332,-67.629 L594.341,-66.6559 L602.119,-65.7267 L603.105,-65.5557 L604.033,-65.4461 L608.275,-64.8339 L616.18,-63.7401 L620.649,-63.1242 L621.993,-62.9321 L622.701,-62.8371 L623.954,-62.6635 L626.418,-62.4203 L629.816,-62.1098 L631.069,-61.9888 L631.231,-61.9726 L631.784,-61.9257 L632.199,-61.8853 L632.695,-61.8367 L633.313,-61.7813 L679.7,-57.5601 L680.057,-52.9045 L680.538,-41.3219 L680.628,-31.1497 L680.768,-28.8892 L681.193,-21.6446 L681.416,-19.0705 L681.546,-12.2069 L682.987,2.50722 L683.02,3.91765 L683.121,9.51823 L683.033,11.4484"/>
   <path fill-rule="evenodd" vector-effect="none" d="M222.708,616.083 L220.988,617.776 L214.326,465.507 L199.935,457.728 L199.238,457.443 L187.754,452.856 L129.971,435.354 L110.939,428.097 L80.8221,407.14 L80.441,406.582 L53.9975,367.16 L41.8806,283.024 L54.4007,271.879 L59.4146,267.406 L73.6301,266.166 L116.638,264.56 L120.22,258.284 L125.274,248.185 L126.943,244.735 L134.817,228.361 L135.802,226.237 L137.283,223.024 L152.903,185.898 L155.675,172.346 L160.737,170.979 L164.905,169.858 L168.865,168.785 L176.706,166.768 L205.324,159.42 L209.244,158.401 L213.768,157.501 L218.778,156.882 L228.304,155.374 L229.838,155.119 L235.27,153.687 L240.074,152.368 L241.432,151.96 L243.338,151.389 L245.067,150.875 L246.08,150.583 L246.749,150.437 L246.942,150.389 L247.353,150.293 L247.707,150.209 L248.634,149.992 L249.431,149.811 L252.693,148.758 L255.53,147.854 L257.773,147.168 L258.343,146.993 L258.737,146.877 L271.875,143.494 L274.545,142.742 L286.401,139.649 L287.214,139.435 L288.59,139.079 L293.523,137.746 L297.826,136.504 L302.74,135.382 L316.659,131.28 L318.905,130.72 L323.109,129.449 L327.845,128.321 L333.175,126.987 L337.979,125.72 L341.829,124.807 L346.607,123.446 L351.296,121.856 L360.184,119.901 L366.311,118.353 L367.894,117.875 L373.593,116.424 L378.308,115.117 L382.084,114.459 L382.719,114.272 L387.148,112.942 L400.725,109.112 L414.856,104.813 L413.216,116.678 L411.346,130.12 L409.414,143.375 L407.589,156.404 L405.759,169.55 L403.974,182.853 L402.722,192.19 L402.151,196.251 L401.964,197.605 L400.152,211.098 L399.347,217.409 L398.628,222.813 L398.898,223.416 L399.053,224.033 L398.989,224.34 L397.61,235.166 L397.345,237.459 L396.685,242.935 L396.58,243.78 L396.452,244.374 L396.37,244.903 L396.129,246.648 L395.519,250.752 L393.62,262.942 L393.463,263.968 L391.84,275.907 L391.72,277.059 L391.302,280.536 L391.054,282.597 L389.977,290.17 L388.502,299.103 L388.301,301.395 L388.31,303.353 L388.278,303.913 L388.294,315.583 L388.332,317.73 L388.334,319.458 L388.267,321.334 L387.166,329.74 L386.868,332.056 L386.424,334.638 L386.239,335.781 L385.871,337.92 L385.284,343.93 L382.896,358.556 L382.657,361.776 L382.052,366.617 L381.366,372.02 L380.916,375.509 L380.1,381.757 L379.929,383.395 L379.86,384.071 L379.771,384.916 L379.617,386.343 L379.214,389.483 L378.917,390.703 L378.461,392.57 L377.148,397.906 L376.1,401.486 L375.702,402.867 L372.12,415.495 L369.153,437.859 L369.093,438.292 L369.083,438.798 L372.36,466.309 L372.49,467.454 L372.774,469.678 L374.1,479.804 L374.424,482.301 L375.573,492.19 L375.807,493.257 L376.243,497.352 L377.764,507.23 L379.825,511.962 L387.273,560.333 L369.207,561.618 L354.431,562.502 L342.139,563.365 L331.832,564.445 L319.764,566.334 L311.068,567.555 L303.387,569.359 L302.944,569.466 L296.729,570.9 L291.25,572.818 L285.549,574.616 L284.841,574.826 L279.421,576.795 L272.358,579.771 L271.95,579.972 L271.35,580.274 L268.478,581.695 L266.559,582.656 L261.731,585.177 L256.072,588.722 L249.873,593.23 L245.259,596.703 L240.743,599.92 L235.012,604.899 L229.398,609.717 L225.139,613.696 L222.708,616.083"/>
   <path fill-rule="evenodd" vector-effect="none" d="M248.258,-39.9667 L252.526,-36.7937 L254.896,-38.3687 L256.918,-40.2074 L258.625,-41.7526 L260.668,-43.6972 L264.916,-47.0541 L272.221,-46.2445 L278.105,-45.4569 L285.165,-44.6929 L299.934,-43.1315 L313.332,-41.3303 L326.803,-39.521 L339.731,-37.6855 L355.531,-35.5443 L368.229,-33.8607 L372.668,-33.4214 L376.516,-32.986 L381.061,-32.2865 L385.063,-31.8241 L388.839,-31.355 L393.847,-30.6165 L398.272,-30.1243 L402.592,-29.608 L406.679,-29.0533 L415.4,-28.0548 L419.525,-27.5539 L432.796,-25.667 L431.783,-18.4644 L430.98,-13.7433 L429.52,-2.67263 L427.266,13.6667 L425.704,26.5204 L423.888,39.5606 L422.056,52.6328 L420.273,65.4192 L419.404,71.7433 L418.486,78.3321 L413.4,77.4486 L409.583,76.9913 L405.151,76.2993 L400.724,75.7545 L396.987,75.2527 L392.435,74.5852 L388.018,74.1137 L384.238,73.5184 L379.63,72.884 L366.919,71.0745 L362.124,70.4349 L358.403,69.9219 L354.041,69.4065 L341.224,67.5681 L325.575,65.3905 L312.735,63.5733 L299.249,61.8694 L297.45,61.6373 L285.903,59.9611 L281.574,59.4548 L277.527,58.8561 L271.353,57.9084 L270.962,57.8565 L262.936,56.7939 L258.255,56.1609 L245.345,54.4708 L238.964,53.6552 L232.636,52.7011 L228.247,52.0698 L224.226,51.5333 L219.854,50.9331 L221.603,37.9798 L223.379,25.0994 L218.917,24.4597 L214.845,23.8509 L210.503,23.4288 L206.29,22.6976 L204.148,22.3804 L202.121,22.081 L197.775,21.5326 L193.451,20.8993 L189.218,20.3161 L185.028,19.8473 L171.161,17.8151 L169.017,17.403 L168.961,18.2894 L168.258,24.8295 L167.563,30.4952 L166.915,34.2003 L166.824,34.677 L166.727,36.9338 L166.881,39.1728 L167.184,40.6913 L167.592,42.1962 L167.693,42.5831 L168.059,43.4573 L168.365,44.2278 L168.623,44.7575 L167.135,44.3371 L165.689,43.947 L162.656,43.0972 L161.858,42.9833 L146.22,39.1584 L133.923,35.932 L131.28,35.9345 L127.809,34.4968 L125.335,34.4733 L111.893,31.4375 L105.073,29.7275 L109.728,23.5582 L111.945,19.7341 L113.696,16.3553 L114.587,14.0651 L114.81,13.0791 L115.328,10.8102 L115.536,9.85625 L115.762,8.69113 L118.553,-6.14572 L119.01,-8.5709 L119.524,-21.6885 L119.698,-26.0646 L120.38,-43.7372 L120.478,-45.4147 L120.513,-46.153 L120.979,-50.8114 L121.654,-54.9597 L122.229,-58.094 L122.998,-60.6651 L124.099,-63.2352 L124.612,-64.2819 L195.647,-66.3334 L197.89,-65.556 L201.255,-64.7264 L203.393,-64.5145 L207.519,-64.2652 L211.392,-64.3563 L212.323,-63.8145 L220.117,-59.2583 L221.287,-58.8919 L222.271,-58.4886 L224.906,-57.3747 L240.22,-45.9585 L248.258,-39.9667"/>
   <path fill-rule="evenodd" vector-effect="none" d="M460.161,57.6477 L462.106,58.149 L463.263,58.0624 L465.463,58.4508 L464.801,62.9783 L464.291,66.8799 L463.521,71.3053 L463.006,75.5862 L462.368,79.8391 L461.696,84.2932 L461.108,88.8711 L460.554,92.6581 L459.892,97.1856 L464.476,97.8308 L467.391,98.2299 L468.192,98.4171 L472.759,99.0205 L485.566,100.783 L498.278,102.58 L510.801,104.298 L523.595,106.134 L536.372,107.949 L549.306,109.844 L556.325,110.807 L562.301,111.621 L572.409,113.104 L578.079,113.969 L590.803,115.616 L592.269,115.836 L593.768,116.055 L594.884,116.223 L595.772,116.355 L598.394,116.741 L609.045,118.47 L619.022,119.661 L619.754,120.008 L630.649,125.058 L631.834,124.812 L632.205,124.738 L633.219,124.74 L640.705,124.761 L670.213,130.114 L716.332,134.699 L716.831,135.927 L717.111,136.624 L723.364,152.481 L727.258,162.382 L734.599,180.997 L736.574,184.678 L741.61,193.671 L743.237,196.583 L747.412,208.245 L747.845,209.444 L749.839,216.515 L752.917,225.114 L752.644,250.896 L752.122,255.43 L751.887,268.003 L750.929,272.908 L749.566,285.441 L749.456,285.866 L749.275,286.587 L746.953,295.82 L746.542,298.634 L745.146,308.155 L744.935,308.983 L744.819,309.45 L744.66,310.655 L744.33,313.193 L743.796,322.531 L742.537,328.498 L741.686,338.93 L736.829,358.402 L736.192,360.444 L732.092,373.468 L727.85,382.547 L727.266,383.618 L706.486,421.879 L701.265,438.433 L701.045,438.945 L695.361,451.964 L686.858,471.417 L677.213,483.036 L666.812,489.379 L664.614,490.761 L659.021,497.846 L653.555,504.791 L636.113,525.245 L630.776,527.256 L621.025,530.915 L607.099,537.445 L594.779,539.851 L580.579,542.618 L532.284,549.063 L481.776,554.526 L468.431,555.202 L462.082,555.63 L434.91,557.436 L431.095,557.653 L402.594,559.244 L387.273,560.333 L379.825,511.962 L377.764,507.23 L376.243,497.352 L375.807,493.257 L375.573,492.19 L374.424,482.301 L374.1,479.804 L372.774,469.678 L372.49,467.454 L372.36,466.309 L369.083,438.798 L369.093,438.292 L369.153,437.859 L372.12,415.495 L375.702,402.867 L376.1,401.486 L377.148,397.906 L378.461,392.57 L378.917,390.703 L379.214,389.483 L379.617,386.343 L379.771,384.916 L379.86,384.071 L379.929,383.395 L380.1,381.757 L380.916,375.509 L381.366,372.02 L382.052,366.617 L382.657,361.776 L382.896,358.556 L385.284,343.93 L385.871,337.92 L386.239,335.781 L386.424,334.638 L386.868,332.056 L387.166,329.74 L388.267,321.334 L388.334,319.458 L388.332,317.73 L388.294,315.583 L388.278,303.913 L388.31,303.353 L388.301,301.395 L388.502,299.103 L389.977,290.17 L391.054,282.597 L391.302,280.536 L391.72,277.059 L391.84,275.907 L393.463,263.968 L393.62,262.942 L395.519,250.752 L396.129,246.648 L396.37,244.903 L396.452,244.374 L396.58,243.78 L396.685,242.935 L397.345,237.459 L397.61,235.166 L398.989,224.34 L399.053,224.033 L398.898,223.416 L398.628,222.813 L399.347,217.409 L400.152,211.098 L401.964,197.605 L402.151,196.251 L402.722,192.19 L403.974,182.853 L405.759,169.55 L407.589,156.404 L409.414,143.375 L411.346,130.12 L413.216,116.678 L414.856,104.813 L414.877,104.127 L416.66,91.3304 L418.486,78.3321 L419.404,71.7433 L420.273,65.4192 L422.056,52.6328 L422.894,52.4503 L427.887,53.2101 L430.555,53.5007 L435.156,54.1455 L439.774,54.832 L445.164,55.5906 L448.567,56.0387 L452.574,56.6586 L460.161,57.6477"/>
   <path fill-rule="evenodd" vector-effect="none" d="M-33.3877,23.9905 L-22.7836,34.7043 L-26.7756,38.5787 L-29.8744,41.6481 L-33.6126,45.3257 L-22.8314,56.5505 L-6.64871,51.0947 L-4.34365,50.323 L11.8465,44.856 L16.657,43.2329 L19.2915,42.3569 L36.951,36.3943 L53.4382,30.8441 L54.3212,30.5343 L58.682,29.0714 L68.1258,25.8824 L100.697,14.8865 L103.314,13.9896 L106.791,12.8151 L110.598,11.5363 L115.536,9.85625 L115.328,10.8102 L114.81,13.0791 L114.587,14.0651 L113.696,16.3553 L111.945,19.7341 L109.728,23.5582 L105.073,29.7275 L104.697,29.6436 L95.3598,50.8831 L75.6357,83.1753 L75.2516,84.4818 L67.1103,118.063 L70.621,135.53 L81.3315,150.674 L99.9985,161.323 L141.576,160.398 L155.675,172.346 L152.903,185.898 L137.283,223.024 L135.802,226.237 L134.817,228.361 L126.943,244.735 L125.274,248.185 L120.22,258.284 L116.638,264.56 L73.6301,266.166 L59.4146,267.406 L54.4007,271.879 L41.8806,283.024 L53.9975,367.16 L80.441,406.582 L80.8221,407.14 L110.939,428.097 L129.971,435.354 L187.754,452.856 L199.238,457.443 L199.935,457.728 L214.326,465.507 L220.988,617.776 L220.002,618.742 L218.997,619.919 L215.708,623.764 L211.806,628.016 L209.009,631.468 L206.158,634.499 L203.81,637.759 L202.158,640.134 L200.652,641.937 L198.479,644.801 L194.99,649.326 L191.097,654.189 L187.833,658.896 L184.842,662.386 L54.6627,666.135 L55.0055,649.282 L55.0514,646.921 L55.2461,636.741 L55.2658,636.013 L53.8309,636.349 L52.6576,636.752 L51.3945,637.136 L50.2291,637.527 L50.0522,637.585 L47.3831,638.462 L46.2416,638.842 L44.8821,639.261 L40.8303,640.03 L39.3297,640.336 L38.0624,640.573 L36.6407,640.803 L34.3231,640.922 L30.2382,641.102 L29.7433,641.106 L29.4525,641.157 L26.8813,642.052 L25.2416,642.604 L23.835,643.077 L23.6113,643.199 L23.1698,643.369 L22.9112,643.408 L22.6256,643.353 L13.7192,642.65 L12.2873,642.523 L10.758,642.398 L10.3838,642.367 L3.82776,641.838 L-1.18403,641.392 L-2.58474,641.221 L-4.18126,641.014 L-4.88972,640.929 L-9.86637,640.292 L-17.1327,638.762 L-18.798,638.42 L-20.1945,638.112 L-27.7308,636.506 L-35.0127,635.281 L-35.3862,635.271 L-37.2527,634.987 L-48.266,633.248 L-50.3364,632.928 L-51.8116,632.707 L-60.6153,631.325 L-64.6011,630.997 L-65.9751,630.91 L-67.0163,630.824 L-67.2928,630.8 L-67.6184,630.767 L-68.8389,630.654 L-69.3188,630.615 L-75.9488,630.046 L-76.429,629.997 L-79.5304,629.664 L-81.4761,629.445 L-82.3551,629.355 L-83.6336,629.202 L-85.0739,629.064 L-87.352,628.855 L-92.9132,628.771 L-93.4166,628.764 L-94.2605,628.767 L-95.7065,629.282 L-97.1372,629.765 L-98.5196,630.237 L-98.7766,630.328 L-101.509,631.259 L-105.605,633.619 L-107.646,635.489 L-108.697,636.478 L-108.997,636.77 L-109.661,637.39 L-112.06,639.626 L-129.782,17.1786 L-128.863,16.5512 L-127.953,15.767 L-127.226,16.2623 L-120.73,20.5643 L-117.652,22.4357 L-115.211,24.1567 L-114.784,24.6501 L-112.847,25.764 L-111.57,26.4649 L-109.289,27.1056 L-107.922,27.2984 L-106.983,27.2189 L-105.678,26.95 L-104.624,26.6461 L-103.676,26.3452 L-102.907,26.0073 L-100.157,23.7698 L-87.309,11.4382 L-76.5094,0.913254 L-72.5714,-2.86455 L-69.5407,-5.76332 L-65.7144,-9.47478 L-55.6844,0.760847 L-45.0719,11.7907 L-33.3877,23.9905"/>
   <path fill-rule="evenodd" vector-effect="none" d="M221.603,37.9798 L219.854,50.9331 L224.226,51.5333 L228.247,52.0698 L232.636,52.7011 L238.964,53.6552 L245.345,54.4708 L258.255,56.1609 L262.936,56.7939 L270.962,57.8565 L271.353,57.9084 L277.527,58.8561 L281.574,59.4548 L285.903,59.9611 L297.45,61.6373 L299.249,61.8694 L312.735,63.5733 L325.575,65.3905 L341.224,67.5681 L354.041,69.4065 L358.403,69.9219 L362.124,70.4349 L366.919,71.0745 L379.63,72.884 L384.238,73.5184 L388.018,74.1137 L392.435,74.5852 L396.987,75.2527 L400.724,75.7545 L405.151,76.2993 L409.583,76.9913 L413.4,77.4486 L418.486,78.3321 L416.66,91.3304 L414.877,104.127 L414.856,104.813 L400.725,109.112 L387.148,112.942 L382.719,114.272 L382.084,114.459 L378.308,115.117 L373.593,116.424 L367.894,117.875 L366.311,118.353 L360.184,119.901 L351.296,121.856 L346.607,123.446 L341.829,124.807 L337.979,125.72 L333.175,126.987 L327.845,128.321 L323.109,129.449 L318.905,130.72 L316.659,131.28 L302.74,135.382 L297.826,136.504 L293.523,137.746 L288.59,139.079 L287.214,139.435 L286.401,139.649 L274.545,142.742 L271.875,143.494 L258.737,146.877 L258.343,146.993 L257.773,147.168 L255.53,147.854 L252.693,148.758 L249.431,149.811 L248.634,149.992 L247.707,150.209 L247.353,150.293 L246.942,150.389 L246.749,150.437 L246.08,150.583 L245.067,150.875 L243.338,151.389 L241.432,151.96 L240.074,152.368 L235.27,153.687 L229.838,155.119 L228.304,155.374 L218.778,156.882 L213.768,157.501 L209.244,158.401 L205.324,159.42 L176.706,166.768 L168.865,168.785 L164.905,169.858 L160.737,170.979 L155.675,172.346 L141.576,160.398 L99.9985,161.323 L81.3315,150.674 L70.621,135.53 L67.1103,118.063 L75.2516,84.4818 L75.6357,83.1753 L95.3598,50.8831 L104.697,29.6436 L105.073,29.7275 L111.893,31.4375 L125.335,34.4733 L127.809,34.4968 L131.28,35.9345 L133.923,35.932 L146.22,39.1584 L161.858,42.9833 L162.656,43.0972 L165.689,43.947 L167.135,44.3371 L168.623,44.7575 L168.365,44.2278 L168.059,43.4573 L167.693,42.5831 L167.592,42.1962 L167.184,40.6913 L166.881,39.1728 L166.727,36.9338 L166.824,34.677 L166.915,34.2003 L167.563,30.4952 L168.258,24.8295 L168.961,18.2894 L169.017,17.403 L171.161,17.8151 L185.028,19.8473 L189.218,20.3161 L193.451,20.8993 L197.775,21.5326 L202.121,22.081 L204.148,22.3804 L206.29,22.6976 L210.503,23.4288 L214.845,23.8509 L218.917,24.4597 L223.379,25.0994 L221.603,37.9798"/>
   <path fill-rule="evenodd" vector-effect="none" d="M31.0124,-61.5896 L28.9282,-59.5183 L19.0106,-50.2704 L14.6293,-45.858 L10.0605,-41.4823 L14.2122,-37.2197 L17.6536,-33.6951 L21.7331,-29.4095 L32.2905,-18.6319 L35.2337,-15.525 L42.1764,-8.38297 L48.4809,-1.72827 L48.978,-2.20598 L52.9868,-6.03919 L55.9377,-8.87302 L57.5873,-10.4371 L58.9916,-11.7941 L60.9795,-13.7155 L67.1024,-19.5897 L68.9802,-21.3921 L72.9888,-25.2255 L74.9767,-27.1469 L77.2885,-29.3621 L82.559,-23.7102 L84.2148,-23.3681 L85.8009,-22.9082 L91.733,-19.9085 L109.678,-10.8299 L114.515,-8.39924 L118.553,-6.14572 L115.762,8.69113 L115.536,9.85625 L110.598,11.5363 L106.791,12.8151 L103.314,13.9896 L100.697,14.8865 L68.1258,25.8824 L58.682,29.0714 L54.3212,30.5343 L53.4382,30.8441 L36.951,36.3943 L19.2915,42.3569 L16.657,43.2329 L11.8465,44.856 L-4.34365,50.323 L-6.64871,51.0947 L-22.8314,56.5505 L-33.6126,45.3257 L-29.8744,41.6481 L-26.7756,38.5787 L-22.7836,34.7043 L-33.3877,23.9905 L-45.0719,11.7907 L-55.6844,0.760847 L-65.7144,-9.47478 L-69.5407,-5.76332 L-72.5714,-2.86455 L-76.5094,0.913254 L-80.6743,-3.53906 L-84.0946,-6.9067 L-88.1172,-11.2051 L-93.5517,-16.6851 L-99.0104,-22.1644 L-104.044,-28.9408 L-108.721,-35.1798 L-109.218,-35.5343 L-113.347,-39.8824 L-115.066,-41.5819 L-116.757,-43.4612 L-120.922,-47.6504 L-126.698,-53.7739 L-129.889,-56.9899 L31.0124,-61.5896"/>
  </g>
  <g font-weight="400" stroke="#000000" stroke-linejoin="bevel" font-family="MS Shell Dlg 2" transform="matrix(1,0,0,1,0,85.5885)" fill="none" stroke-linecap="square" stroke-width="1" font-style="normal" font-size="7.5625" stroke-opacity="1"/>
  <g font-weight="400" stroke="#000000" stroke-linejoin="bevel" font-family="MS Shell Dlg 2" transform="matrix(2.59843,0,0,2.59843,0,85.5885)" fill="none" stroke-linecap="square" stroke-width="1" font-style="normal" font-size="7.5625" stroke-opacity="1"/>
  <g font-weight="400" stroke="#000000" stroke-linejoin="bevel" font-family="MS Shell Dlg 2" transform="matrix(2.59843,0,0,2.59843,0,85.5885)" fill="none" stroke-linecap="square" stroke-width="1" font-style="normal" font-size="7.5625" stroke-opacity="1"/>
  <g font-weight="400" stroke="#000000" stroke-linejoin="bevel" font-family="MS Shell Dlg 2" transform="matrix(2.59843,0,0,2.59843,0,85.5885)" fill="none" stroke-linecap="square" stroke-width="1" font-style="normal" font-size="7.5625" stroke-opacity="1"/>
  <g font-weight="400" stroke="#000000" stroke-linejoin="bevel" font-family="MS Shell Dlg 2" transform="matrix(1,0,0,1,0,0)" fill="none" stroke-linecap="square" stroke-width="1" font-style="normal" font-size="7.5625" stroke-opacity="1"/>
  <g font-weight="400" stroke="#000000" stroke-linejoin="bevel" font-family="MS Shell Dlg 2" transform="matrix(2.59843,0,0,2.59843,0,85.5885)" fill="none" stroke-linecap="square" stroke-width="1" font-style="normal" font-size="7.5625" stroke-opacity="1"/>
  <g font-weight="400" stroke="#000000" stroke-linejoin="bevel" font-family="MS Shell Dlg 2" transform="matrix(2.59843,0,0,2.59843,0,85.5885)" fill="none" stroke-linecap="square" stroke-width="1" font-style="normal" font-size="7.5625" stroke-opacity="1"/>
  <g font-weight="400" stroke="#000000" stroke-linejoin="bevel" font-family="MS Shell Dlg 2" transform="matrix(1,0,0,1,0,0)" fill="none" stroke-linecap="square" stroke-width="1" font-style="normal" font-size="7.5625" stroke-opacity="1"/>
 </g>
 <defs/>
 <g inkscape:groupmode="layer" stroke="black" stroke-linejoin="bevel" fill="none" stroke-linecap="square" stroke-width="1" inkscape:label="Map 1: Municipalities (atlas)" fill-rule="evenodd" id="Map 1: Municipalities (atlas)">
  <g font-weight="400" stroke="#000000" stroke-linejoin="bevel" font-family="MS Shell Dlg 2" transform="matrix(1,0,0,1,0,0)" fill="none" stroke-linecap="square" stroke-width="1" font-style="normal" font-size="7.5625" stroke-opacity="1"/>
  <g font-weight="400" stroke="#000000" stroke-linejoin="bevel" font-family="MS Shell Dlg 2" transform="matrix(1,0,0,1,0,0)" fill="none" stroke-linecap="square" stroke-width="1" font-style="normal" font-size="7.5625" stroke-opacity="1"/>
  <g font-weight="400" stroke="#000000" stroke-linejoin="bevel" font-family="MS Shell Dlg 2" transform="matrix(2.59843,0,0,2.59843,0,85.5885)" fill="none" stroke-linecap="square" stroke-width="1" font-style="normal" font-size="7.5625" stroke-opacity="1"/>
  <g font-weight="400" stroke="#000000" stroke-linejoin="bevel" font-family="MS Shell Dlg 2" transform="matrix(2.59843,0,0,2.59843,0,85.5885)" fill="none" stroke-linecap="square" stroke-width="1" font-style="normal" font-size="7.5625" stroke-opacity="1"/>
  <g font-weight="400" stroke="none" font-family="MS Shell Dlg 2" transform="matrix(1,0,0,1,0,85.5885)" fill="#000000" font-style="normal" fill-opacity="0" font-size="7.5625">
   <rect x="0" width="1122" y="0" height="574"/>
  </g>
  <g font-weight="400" stroke="#000000" stroke-linejoin="bevel" font-family="MS Shell Dlg 2" transform="matrix(1,0,0,1,0,85.5885)" fill="none" stroke-linecap="square" stroke-width="1" font-style="normal" font-size="7.5625" stroke-opacity="1"/>
  <g font-weight="400" stroke="#232323" stroke-linejoin="bevel" font-family="MS Shell Dlg 2" transform="matrix(1,0,0,1,0,85.5885)" fill="none" stroke-linecap="square" stroke-width="0.519685" font-style="normal" font-size="7.5625" stroke-opacity="0.0500038">
   <path fill-rule="evenodd" vector-effect="none" d="M-131.892,-56.9329 L678.941,-80.4782 L679.478,-60.4079 L679.7,-57.5601 L680.057,-52.9045 L680.538,-41.3219 L680.628,-31.1497 L680.768,-28.8892 L681.193,-21.6446 L681.416,-19.0705 L681.546,-12.2069 L682.987,2.50722 L683.02,3.91765 L683.121,9.51823 L683.033,11.4484 L682.74,18.5353 L683.54,23.6412 L684.243,28.2233 L688.863,57.7158 L688.984,58.5233 L690.557,63.7432 L694.66,77.4094 L695.723,80.9802 L698.367,89.7602 L699.97,93.7889 L713.511,127.62 L716.332,134.699 L716.831,135.927 L717.111,136.624 L723.364,152.481 L727.258,162.382 L734.599,180.997 L736.574,184.678 L741.61,193.671 L743.237,196.583 L747.412,208.245 L747.845,209.444 L749.839,216.515 L752.917,225.114 L752.644,250.896 L752.122,255.43 L751.887,268.003 L750.929,272.908 L749.566,285.441 L749.456,285.866 L749.275,286.587 L746.953,295.82 L746.542,298.634 L745.146,308.155 L744.935,308.983 L744.819,309.45 L744.66,310.655 L744.33,313.193 L743.796,322.531 L742.537,328.498 L741.686,338.93 L736.829,358.402 L736.192,360.444 L732.092,373.468 L727.85,382.547 L727.266,383.618 L706.486,421.879 L701.265,438.433 L701.045,438.945 L695.361,451.964 L686.858,471.417 L677.213,483.036 L666.812,489.379 L664.614,490.761 L659.021,497.846 L653.555,504.791 L636.113,525.245 L630.776,527.256 L621.025,530.915 L607.099,537.445 L594.779,539.851 L580.579,542.618 L532.284,549.063 L481.776,554.526 L468.431,555.202 L462.082,555.63 L434.91,557.436 L431.095,557.653 L402.594,559.244 L387.273,560.333 L369.207,561.618 L354.431,562.502 L342.139,563.365 L331.832,564.445 L319.764,566.334 L311.068,567.555 L303.387,569.359 L302.944,569.466 L296.729,570.9 L291.25,572.818 L285.549,574.616 L284.841,574.826 L279.421,576.795 L272.358,579.771 L271.95,579.972 L271.35,580.274 L268.478,581.695 L266.559,582.656 L261.731,585.177 L256.072,588.722 L249.873,593.23 L245.259,596.703 L240.743,599.92 L235.012,604.899 L229.398,609.717 L225.139,613.696 L222.708,616.083 L220.988,617.776 L220.002,618.742 L218.997,619.919 L215.708,623.764 L211.806,628.016 L209.009,631.468 L206.158,634.499 L203.81,637.759 L202.158,640.134 L200.652,641.937 L198.479,644.801 L194.99,649.326 L191.097,654.189 L187.833,658.896 L184.842,662.386 L54.6627,666.135 L55.0055,649.282 L55.0514,646.921 L55.2461,636.741 L55.2658,636.013 L53.8309,636.349 L52.6576,636.752 L51.3945,637.136 L50.2291,637.527 L50.0522,637.585 L47.3831,638.462 L46.2416,638.842 L44.8821,639.261 L40.8303,640.03 L39.3297,640.336 L38.0624,640.573 L36.6407,640.803 L34.3231,640.922 L30.2382,641.102 L29.7433,641.106 L29.4525,641.157 L26.8813,642.052 L25.2416,642.604 L23.835,643.077 L23.6113,643.199 L23.1698,643.369 L22.9112,643.408 L22.6256,643.353 L13.7192,642.65 L12.2873,642.523 L10.758,642.398 L10.3838,642.367 L3.82776,641.838 L-1.18403,641.392 L-2.58474,641.221 L-4.18126,641.014 L-4.88972,640.929 L-9.86637,640.292 L-17.1327,638.762 L-18.798,638.42 L-20.1945,638.112 L-27.7308,636.506 L-35.0127,635.281 L-35.3862,635.271 L-37.2527,634.987 L-48.266,633.248 L-50.3364,632.928 L-51.8116,632.707 L-60.6153,631.325 L-64.6011,630.997 L-65.9751,630.91 L-67.0163,630.824 L-67.2928,630.8 L-67.6184,630.767 L-68.8389,630.654 L-69.3188,630.615 L-75.9488,630.046 L-76.429,629.997 L-79.5304,629.664 L-81.4761,629.445 L-82.3551,629.355 L-83.6336,629.202 L-85.0739,629.064 L-87.352,628.855 L-92.9132,628.771 L-93.4166,628.764 L-94.2605,628.767 L-95.7065,629.282 L-97.1372,629.765 L-98.5196,630.237 L-98.7766,630.328 L-101.509,631.259 L-105.605,633.619 L-107.646,635.489 L-108.697,636.478 L-108.997,636.77 L-109.661,637.39 L-112.06,639.626 L-129.782,17.1786 L-128.863,16.5512 L-127.953,15.767 L-127.455,15.3209 L-126.101,14.1975 L-124.33,13.1675 L-123.98,12.9153 L-122.671,11.9196 L-121.132,10.4328 L-118.91,7.60989 L-118.465,6.4281 L-118.509,5.18648 L-118.502,3.70119 L-117.962,2.75891 L-117.4,1.97403 L-117.188,0.588218 L-117.6,-1.05368 L-117.587,-2.5813 L-117.794,-4.16583 L-118.381,-5.40251 L-118.822,-6.39053 L-119.271,-8.47375 L-119.466,-11.3436 L-119.667,-12.4333 L-120.249,-13.2277 L-120.999,-13.9121 L-122.083,-14.4078 L-123.674,-14.7627 L-126.042,-15.0534 L-127.384,-15.2048 L-129.009,-15.3481 L-130.646,-15.5964 L-130.715,-15.5968 L-131.892,-56.9329"/>
  </g>
  <g font-weight="400" stroke="#000000" stroke-linejoin="bevel" font-family="MS Shell Dlg 2" transform="matrix(1,0,0,1,0,85.5885)" fill="none" stroke-linecap="square" stroke-width="1" font-style="normal" font-size="7.5625" stroke-opacity="1"/>
  <g font-weight="400" stroke="#000000" stroke-linejoin="bevel" font-family="MS Shell Dlg 2" transform="matrix(2.59843,0,0,2.59843,0,85.5885)" fill="none" stroke-linecap="square" stroke-width="1" font-style="normal" font-size="7.5625" stroke-opacity="1"/>
  <g font-weight="400" stroke="#000000" stroke-linejoin="bevel" font-family="MS Shell Dlg 2" transform="matrix(2.59843,0,0,2.59843,0,85.5885)" fill="none" stroke-linecap="square" stroke-width="1" font-style="normal" font-size="7.5625" stroke-opacity="1"/>
  <g font-weight="400" stroke="#000000" stroke-linejoin="bevel" font-family="MS Shell Dlg 2" transform="matrix(2.59843,0,0,2.59843,0,85.5885)" fill="none" stroke-linecap="square" stroke-width="1" font-style="normal" font-size="7.5625" stroke-opacity="1"/>
  <g font-weight="400" stroke="#000000" stroke-linejoin="bevel" font-family="MS Shell Dlg 2" transform="matrix(1,0,0,1,0,0)" fill="none" stroke-linecap="square" stroke-width="1" font-style="normal" font-size="7.5625" stroke-opacity="1"/>
  <g font-weight="400" stroke="#000000" stroke-linejoin="bevel" font-family="MS Shell Dlg 2" transform="matrix(2.59843,0,0,2.59843,0,85.5885)" fill="none" stroke-linecap="square" stroke-width="1" font-style="normal" font-size="7.5625" stroke-opacity="1"/>
  <g font-weight="400" stroke="#000000" stroke-linejoin="bevel" font-family="MS Shell Dlg 2" transform="matrix(2.59843,0,0,2.59843,0,85.5885)" fill="none" stroke-linecap="square" stroke-width="1" font-style="normal" font-size="7.5625" stroke-opacity="1"/>
  <g font-weight="400" stroke="#000000" stroke-linejoin="bevel" font-family="MS Shell Dlg 2" transform="matrix(1,0,0,1,0,0)" fill="none" stroke-linecap="square" stroke-width="1" font-style="normal" font-size="7.5625" stroke-opacity="1"/>
 </g>
 <defs/>
 <g inkscape:groupmode="layer" stroke="black" stroke-linejoin="bevel" fill="none" stroke-linecap="square" stroke-width="1" inkscape:label="Map 1: County Population" fill-rule="evenodd" id="Map 1: County Population">
  <g font-weight="400" stroke="#000000" stroke-linejoin="bevel" font-family="MS Shell Dlg 2" transform="matrix(1,0,0,1,0,0)" fill="none" stroke-linecap="square" stroke-width="1" font-style="normal" font-size="7.5625" stroke-opacity="1"/>
  <g font-weight="400" stroke="#000000" stroke-linejoin="bevel" font-family="MS Shell Dlg 2" transform="matrix(1,0,0,1,0,0)" fill="none" stroke-linecap="square" stroke-width="1" font-style="normal" font-size="7.5625" stroke-opacity="1"/>
  <g font-weight="400" stroke="#000000" stroke-linejoin="bevel" font-family="MS Shell Dlg 2" transform="matrix(2.59843,0,0,2.59843,0,85.5885)" fill="none" stroke-linecap="square" stroke-width="1" font-style="normal" font-size="7.5625" stroke-opacity="1"/>
  <g font-weight="400" stroke="#000000" stroke-linejoin="bevel" font-family="MS Shell Dlg 2" transform="matrix(2.59843,0,0,2.59843,0,85.5885)" fill="none" stroke-linecap="square" stroke-width="1" font-style="normal" font-size="7.5625" stroke-opacity="1"/>
  <g font-weight="400" stroke="none" font-family="MS Shell Dlg 2" transform="matrix(1,0,0,1,0,85.5885)" fill="#000000" font-style="normal" fill-opacity="0" font-size="7.5625">
   <rect x="0" width="1122" y="0" height="574"/>
  </g>
  <g font-weight="400" stroke="#000000" stroke-linejoin="bevel" font-family="MS Shell Dlg 2" transform="matrix(1,0,0,1,0,85.5885)" fill="none" stroke-linecap="square" stroke-width="1" font-style="normal" font-size="7.5625" stroke-opacity="1"/>
  <g font-weight="400" stroke="#232323" stroke-linejoin="bevel" font-family="MS Shell Dlg 2" transform="matrix(1,0,0,1,0,85.5885)" fill="none" stroke-linecap="square" stroke-width="2.59843" font-style="normal" font-size="7.5625" stroke-opacity="0.701961">
   <path fill-rule="evenodd" vector-effect="none" d="M-131.892,-56.9329 L678.941,-80.4782 L679.478,-60.4079 L679.7,-57.5601 L680.057,-52.9045 L680.538,-41.3219 L680.628,-31.1497 L680.768,-28.8892 L681.193,-21.6446 L681.416,-19.0705 L681.546,-12.2069 L682.987,2.50722 L683.02,3.91765 L683.121,9.51823 L683.033,11.4484 L682.74,18.5353 L683.54,23.6412 L684.243,28.2233 L688.863,57.7158 L688.984,58.5233 L690.557,63.7432 L694.66,77.4094 L695.723,80.9802 L698.367,89.7602 L699.97,93.7889 L713.511,127.62 L716.332,134.699 L716.831,135.927 L717.111,136.624 L723.364,152.481 L727.258,162.382 L734.599,180.997 L736.574,184.678 L741.61,193.671 L743.237,196.583 L747.412,208.245 L747.845,209.444 L749.839,216.515 L752.917,225.114 L752.644,250.896 L752.122,255.43 L751.887,268.003 L750.929,272.908 L749.566,285.441 L749.456,285.866 L749.275,286.587 L746.953,295.82 L746.542,298.634 L745.146,308.155 L744.935,308.983 L744.819,309.45 L744.66,310.655 L744.33,313.193 L743.796,322.531 L742.537,328.498 L741.686,338.93 L736.829,358.402 L736.192,360.444 L732.092,373.468 L727.85,382.547 L727.266,383.618 L706.486,421.879 L701.265,438.433 L701.045,438.945 L695.361,451.964 L686.858,471.417 L677.213,483.036 L666.812,489.379 L664.614,490.761 L659.021,497.846 L653.555,504.791 L636.113,525.245 L630.776,527.256 L621.025,530.915 L607.099,537.445 L594.779,539.851 L580.579,542.618 L532.284,549.063 L481.776,554.526 L468.431,555.202 L462.082,555.63 L434.91,557.436 L431.095,557.653 L402.594,559.244 L387.273,560.333 L369.207,561.618 L354.431,562.502 L342.139,563.365 L331.832,564.445 L319.764,566.334 L311.068,567.555 L303.387,569.359 L302.944,569.466 L296.729,570.9 L291.25,572.818 L285.549,574.616 L284.841,574.826 L279.421,576.795 L272.358,579.771 L271.95,579.972 L271.35,580.274 L268.478,581.695 L266.559,582.656 L261.731,585.177 L256.072,588.722 L249.873,593.23 L245.259,596.703 L240.743,599.92 L235.012,604.899 L229.398,609.717 L225.139,613.696 L222.708,616.083 L220.988,617.776 L220.002,618.742 L218.997,619.919 L215.708,623.764 L211.806,628.016 L209.009,631.468 L206.158,634.499 L203.81,637.759 L202.158,640.134 L200.652,641.937 L198.479,644.801 L194.99,649.326 L191.097,654.189 L187.833,658.896 L184.842,662.386 L54.6627,666.135 L55.0055,649.282 L55.0514,646.921 L55.2461,636.741 L55.2658,636.013 L53.8309,636.349 L52.6576,636.752 L51.3945,637.136 L50.2291,637.527 L50.0522,637.585 L47.3831,638.462 L46.2416,638.842 L44.8821,639.261 L40.8303,640.03 L39.3297,640.336 L38.0624,640.573 L36.6407,640.803 L34.3231,640.922 L30.2382,641.102 L29.7433,641.106 L29.4525,641.157 L26.8813,642.052 L25.2416,642.604 L23.835,643.077 L23.6113,643.199 L23.1698,643.369 L22.9112,643.408 L22.6256,643.353 L13.7192,642.65 L12.2873,642.523 L10.758,642.398 L10.3838,642.367 L3.82776,641.838 L-1.18403,641.392 L-2.58474,641.221 L-4.18126,641.014 L-4.88972,640.929 L-9.86637,640.292 L-17.1327,638.762 L-18.798,638.42 L-20.1945,638.112 L-27.7308,636.506 L-35.0127,635.281 L-35.3862,635.271 L-37.2527,634.987 L-48.266,633.248 L-50.3364,632.928 L-51.8116,632.707 L-60.6153,631.325 L-64.6011,630.997 L-65.9751,630.91 L-67.0163,630.824 L-67.2928,630.8 L-67.6184,630.767 L-68.8389,630.654 L-69.3188,630.615 L-75.9488,630.046 L-76.429,629.997 L-79.5304,629.664 L-81.4761,629.445 L-82.3551,629.355 L-83.6336,629.202 L-85.0739,629.064 L-87.352,628.855 L-92.9132,628.771 L-93.4166,628.764 L-94.2605,628.767 L-95.7065,629.282 L-97.1372,629.765 L-98.5196,630.237 L-98.7766,630.328 L-101.509,631.259 L-105.605,633.619 L-107.646,635.489 L-108.697,636.478 L-108.997,636.77 L-109.661,637.39 L-112.06,639.626 L-129.782,17.1786 L-128.863,16.5512 L-127.953,15.767 L-127.455,15.3209 L-126.101,14.1975 L-124.33,13.1675 L-123.98,12.9153 L-122.671,11.9196 L-121.132,10.4328 L-118.91,7.60989 L-118.465,6.4281 L-118.509,5.18648 L-118.502,3.70119 L-117.962,2.75891 L-117.4,1.97403 L-117.188,0.588218 L-117.6,-1.05368 L-117.587,-2.5813 L-117.794,-4.16583 L-118.381,-5.40251 L-118.822,-6.39053 L-119.271,-8.47375 L-119.466,-11.3436 L-119.667,-12.4333 L-120.249,-13.2277 L-120.999,-13.9121 L-122.083,-14.4078 L-123.674,-14.7627 L-126.042,-15.0534 L-127.384,-15.2048 L-129.009,-15.3481 L-130.646,-15.5964 L-130.715,-15.5968 L-131.892,-56.9329"/>
  </g>
  <g font-weight="400" stroke="#000000" stroke-linejoin="bevel" font-family="MS Shell Dlg 2" transform="matrix(1,0,0,1,0,85.5885)" fill="none" stroke-linecap="square" stroke-width="1" font-style="normal" font-size="7.5625" stroke-opacity="1"/>
  <g font-weight="400" stroke="#000000" stroke-linejoin="bevel" font-family="MS Shell Dlg 2" transform="matrix(2.59843,0,0,2.59843,0,85.5885)" fill="none" stroke-linecap="square" stroke-width="1" font-style="normal" font-size="7.5625" stroke-opacity="1"/>
  <g font-weight="400" stroke="#000000" stroke-linejoin="bevel" font-family="MS Shell Dlg 2" transform="matrix(2.59843,0,0,2.59843,0,85.5885)" fill="none" stroke-linecap="square" stroke-width="1" font-style="normal" font-size="7.5625" stroke-opacity="1"/>
  <g font-weight="400" stroke="#000000" stroke-linejoin="bevel" font-family="MS Shell Dlg 2" transform="matrix(2.59843,0,0,2.59843,0,85.5885)" fill="none" stroke-linecap="square" stroke-width="1" font-style="normal" font-size="7.5625" stroke-opacity="1"/>
  <g font-weight="400" stroke="#000000" stroke-linejoin="bevel" font-family="MS Shell Dlg 2" transform="matrix(1,0,0,1,0,0)" fill="none" stroke-linecap="square" stroke-width="1" font-style="normal" font-size="7.5625" stroke-opacity="1"/>
  <g font-weight="400" stroke="#000000" stroke-linejoin="bevel" font-family="MS Shell Dlg 2" transform="matrix(2.59843,0,0,2.59843,0,85.5885)" fill="none" stroke-linecap="square" stroke-width="1" font-style="normal" font-size="7.5625" stroke-opacity="1"/>
  <g font-weight="400" stroke="#000000" stroke-linejoin="bevel" font-family="MS Shell Dlg 2" transform="matrix(2.59843,0,0,2.59843,0,85.5885)" fill="none" stroke-linecap="square" stroke-width="1" font-style="normal" font-size="7.5625" stroke-opacity="1"/>
  <g font-weight="400" stroke="#000000" stroke-linejoin="bevel" font-family="MS Shell Dlg 2" transform="matrix(1,0,0,1,0,0)" fill="none" stroke-linecap="square" stroke-width="1" font-style="normal" font-size="7.5625" stroke-opacity="1"/>
 </g>
 <defs/>
 <g inkscape:groupmode="layer" stroke="black" stroke-linejoin="bevel" fill="none" stroke-linecap="square" stroke-width="1" inkscape:label="Map 1: LRC-H-v2 (Labels)" fill-rule="evenodd" id="Map 1: LRC-H-v2 (Labels)">
  <g font-weight="400" stroke="#000000" stroke-linejoin="bevel" font-family="MS Shell Dlg 2" transform="matrix(1,0,0,1,0,0)" fill="none" stroke-linecap="square" stroke-width="1" font-style="normal" font-size="7.5625" stroke-opacity="1"/>
  <g font-weight="400" stroke="#000000" stroke-linejoin="bevel" font-family="MS Shell Dlg 2" transform="matrix(1,0,0,1,0,0)" fill="none" stroke-linecap="square" stroke-width="1" font-style="normal" font-size="7.5625" stroke-opacity="1"/>
  <g font-weight="400" stroke="#000000" stroke-linejoin="bevel" font-family="MS Shell Dlg 2" transform="matrix(2.59843,0,0,2.59843,0,85.5885)" fill="none" stroke-linecap="square" stroke-width="1" font-style="normal" font-size="7.5625" stroke-opacity="1"/>
  <g font-weight="400" stroke="#000000" stroke-linejoin="bevel" font-family="MS Shell Dlg 2" transform="matrix(2.59843,0,0,2.59843,0,85.5885)" fill="none" stroke-linecap="square" stroke-width="1" font-style="normal" font-size="7.5625" stroke-opacity="1"/>
  <g font-weight="400" stroke="none" font-family="MS Shell Dlg 2" transform="matrix(1,0,0,1,0,85.5885)" fill="#000000" font-style="normal" fill-opacity="0" font-size="7.5625">
   <rect x="0" width="1122" y="0" height="574"/>
  </g>
  <g font-weight="400" stroke="#000000" stroke-linejoin="bevel" font-family="MS Shell Dlg 2" transform="matrix(2.59843,0,0,2.59843,0,85.5885)" fill="none" stroke-linecap="square" stroke-width="1" font-style="normal" font-size="7.5625" stroke-opacity="1"/>
  <g font-weight="400" stroke="#000000" stroke-linejoin="bevel" font-family="MS Shell Dlg 2" transform="matrix(2.59843,0,0,2.59843,0,85.5885)" fill="none" stroke-linecap="square" stroke-width="1" font-style="normal" font-size="7.5625" stroke-opacity="1"/>
  <g font-weight="400" stroke="#000000" stroke-linejoin="bevel" font-family="MS Shell Dlg 2" transform="matrix(2.59843,0,0,2.59843,0,85.5885)" fill="none" stroke-linecap="square" stroke-width="1" font-style="normal" font-size="7.5625" stroke-opacity="1"/>
  <g font-weight="400" stroke="#000000" stroke-linejoin="bevel" font-family="MS Shell Dlg 2" transform="matrix(1,0,0,1,0,0)" fill="none" stroke-linecap="square" stroke-width="1" font-style="normal" font-size="7.5625" stroke-opacity="1"/>
  <g font-weight="400" stroke="#000000" stroke-linejoin="bevel" font-family="MS Shell Dlg 2" transform="matrix(2.59843,0,0,2.59843,0,85.5885)" fill="none" stroke-linecap="square" stroke-width="1" font-style="normal" font-size="7.5625" stroke-opacity="1"/>
  <g font-weight="400" stroke="#000000" stroke-linejoin="bevel" font-family="MS Shell Dlg 2" transform="matrix(2.59843,0,0,2.59843,0,85.5885)" fill="none" stroke-linecap="square" stroke-width="1" font-style="normal" font-size="7.5625" stroke-opacity="1"/>
  <g font-weight="400" stroke="#000000" stroke-linejoin="bevel" font-family="MS Shell Dlg 2" transform="matrix(1,0,0,1,0,0)" fill="none" stroke-linecap="square" stroke-width="1" font-style="normal" font-size="7.5625" stroke-opacity="1"/>
 </g>
 <defs/>
 <g inkscape:groupmode="layer" stroke="black" stroke-linejoin="bevel" fill="none" stroke-linecap="square" stroke-width="1" inkscape:label="Map 1: Pittsburgh (Labels)" fill-rule="evenodd" id="Map 1: Pittsburgh (Labels)">
  <g font-weight="400" stroke="#000000" stroke-linejoin="bevel" font-family="MS Shell Dlg 2" transform="matrix(1,0,0,1,0,0)" fill="none" stroke-linecap="square" stroke-width="1" font-style="normal" font-size="7.5625" stroke-opacity="1"/>
  <g font-weight="400" stroke="#000000" stroke-linejoin="bevel" font-family="MS Shell Dlg 2" transform="matrix(1,0,0,1,0,0)" fill="none" stroke-linecap="square" stroke-width="1" font-style="normal" font-size="7.5625" stroke-opacity="1"/>
  <g font-weight="400" stroke="#000000" stroke-linejoin="bevel" font-family="MS Shell Dlg 2" transform="matrix(2.59843,0,0,2.59843,0,85.5885)" fill="none" stroke-linecap="square" stroke-width="1" font-style="normal" font-size="7.5625" stroke-opacity="1"/>
  <g font-weight="400" stroke="#000000" stroke-linejoin="bevel" font-family="MS Shell Dlg 2" transform="matrix(2.59843,0,0,2.59843,0,85.5885)" fill="none" stroke-linecap="square" stroke-width="1" font-style="normal" font-size="7.5625" stroke-opacity="1"/>
  <g font-weight="400" stroke="none" font-family="MS Shell Dlg 2" transform="matrix(1,0,0,1,0,85.5885)" fill="#000000" font-style="normal" fill-opacity="0" font-size="7.5625">
   <rect x="0" width="1122" y="0" height="574"/>
  </g>
  <g font-weight="400" stroke="#000000" stroke-linejoin="bevel" font-family="MS Shell Dlg 2" transform="matrix(2.59843,0,0,2.59843,0,85.5885)" fill="none" stroke-linecap="square" stroke-width="1" font-style="normal" font-size="7.5625" stroke-opacity="1"/>
  <g font-weight="400" stroke="#000000" stroke-linejoin="bevel" font-family="MS Shell Dlg 2" transform="matrix(2.59843,0,0,2.59843,0,85.5885)" fill="none" stroke-linecap="square" stroke-width="1" font-style="normal" font-size="7.5625" stroke-opacity="1"/>
  <g font-weight="400" stroke="#000000" stroke-linejoin="bevel" font-family="MS Shell Dlg 2" transform="matrix(2.59843,0,0,2.59843,0,85.5885)" fill="none" stroke-linecap="square" stroke-width="1" font-style="normal" font-size="7.5625" stroke-opacity="1"/>
  <g font-weight="400" stroke="#000000" stroke-linejoin="bevel" font-family="MS Shell Dlg 2" transform="matrix(1,0,0,1,0,0)" fill="none" stroke-linecap="square" stroke-width="1" font-style="normal" font-size="7.5625" stroke-opacity="1"/>
  <g font-weight="400" stroke="#000000" stroke-linejoin="bevel" font-family="MS Shell Dlg 2" transform="matrix(2.59843,0,0,2.59843,0,85.5885)" fill="none" stroke-linecap="square" stroke-width="1" font-style="normal" font-size="7.5625" stroke-opacity="1"/>
  <g font-weight="400" stroke="#000000" stroke-linejoin="bevel" font-family="MS Shell Dlg 2" transform="matrix(2.59843,0,0,2.59843,0,85.5885)" fill="none" stroke-linecap="square" stroke-width="1" font-style="normal" font-size="7.5625" stroke-opacity="1"/>
  <g font-weight="400" stroke="#000000" stroke-linejoin="bevel" font-family="MS Shell Dlg 2" transform="matrix(1,0,0,1,0,0)" fill="none" stroke-linecap="square" stroke-width="1" font-style="normal" font-size="7.5625" stroke-opacity="1"/>
 </g>
 <defs/>
 <g inkscape:groupmode="layer" stroke="black" stroke-linejoin="bevel" fill="none" stroke-linecap="square" stroke-width="1" inkscape:label="Map 1: Municipalities (atlas) (Labels)" fill-rule="evenodd" id="Map 1: Municipalities (atlas) (Labels)">
  <g font-weight="400" stroke="#000000" stroke-linejoin="bevel" font-family="MS Shell Dlg 2" transform="matrix(1,0,0,1,0,0)" fill="none" stroke-linecap="square" stroke-width="1" font-style="normal" font-size="7.5625" stroke-opacity="1"/>
  <g font-weight="400" stroke="#000000" stroke-linejoin="bevel" font-family="MS Shell Dlg 2" transform="matrix(1,0,0,1,0,0)" fill="none" stroke-linecap="square" stroke-width="1" font-style="normal" font-size="7.5625" stroke-opacity="1"/>
  <g font-weight="400" stroke="#000000" stroke-linejoin="bevel" font-family="MS Shell Dlg 2" transform="matrix(2.59843,0,0,2.59843,0,85.5885)" fill="none" stroke-linecap="square" stroke-width="1" font-style="normal" font-size="7.5625" stroke-opacity="1"/>
  <g font-weight="400" stroke="#000000" stroke-linejoin="bevel" font-family="MS Shell Dlg 2" transform="matrix(2.59843,0,0,2.59843,0,85.5885)" fill="none" stroke-linecap="square" stroke-width="1" font-style="normal" font-size="7.5625" stroke-opacity="1"/>
  <g font-weight="400" stroke="none" font-family="MS Shell Dlg 2" transform="matrix(1,0,0,1,0,85.5885)" fill="#000000" font-style="normal" fill-opacity="0" font-size="7.5625">
   <rect x="0" width="1122" y="0" height="574"/>
  </g>
  <g font-weight="400" stroke="#000000" stroke-linejoin="bevel" font-family="MS Shell Dlg 2" transform="matrix(2.59843,0,0,2.59843,0,85.5885)" fill="none" stroke-linecap="square" stroke-width="1" font-style="normal" font-size="7.5625" stroke-opacity="1"/>
  <g font-weight="400" stroke="#000000" stroke-linejoin="bevel" font-family="MS Shell Dlg 2" transform="matrix(2.59843,0,0,2.59843,0,85.5885)" fill="none" stroke-linecap="square" stroke-width="1" font-style="normal" font-size="7.5625" stroke-opacity="1"/>
  <g font-weight="400" stroke="#000000" stroke-linejoin="bevel" font-family="MS Shell Dlg 2" transform="matrix(2.59843,0,0,2.59843,0,85.5885)" fill="none" stroke-linecap="square" stroke-width="1" font-style="normal" font-size="7.5625" stroke-opacity="1"/>
  <g font-weight="400" stroke="#000000" stroke-linejoin="bevel" font-family="MS Shell Dlg 2" transform="matrix(1,0,0,1,0,0)" fill="none" stroke-linecap="square" stroke-width="1" font-style="normal" font-size="7.5625" stroke-opacity="1"/>
  <g font-weight="400" stroke="#000000" stroke-linejoin="bevel" font-family="MS Shell Dlg 2" transform="matrix(2.59843,0,0,2.59843,0,85.5885)" fill="none" stroke-linecap="square" stroke-width="1" font-style="normal" font-size="7.5625" stroke-opacity="1"/>
  <g font-weight="400" stroke="#000000" stroke-linejoin="bevel" font-family="MS Shell Dlg 2" transform="matrix(2.59843,0,0,2.59843,0,85.5885)" fill="none" stroke-linecap="square" stroke-width="1" font-style="normal" font-size="7.5625" stroke-opacity="1"/>
  <g font-weight="400" stroke="#000000" stroke-linejoin="bevel" font-family="MS Shell Dlg 2" transform="matrix(1,0,0,1,0,0)" fill="none" stroke-linecap="square" stroke-width="1" font-style="normal" font-size="7.5625" stroke-opacity="1"/>
 </g>
 <defs/>
 <g inkscape:groupmode="layer" stroke="black" stroke-linejoin="bevel" fill="none" stroke-linecap="square" stroke-width="1" inkscape:label="Labels" fill-rule="evenodd" id="Labels">
  <g font-weight="400" stroke="#000000" stroke-linejoin="bevel" font-family="MS Shell Dlg 2" transform="matrix(1,0,0,1,0,0)" fill="none" stroke-linecap="square" stroke-width="1" font-style="normal" font-size="7.5625" stroke-opacity="1"/>
  <g font-weight="400" stroke="#000000" stroke-linejoin="bevel" font-family="MS Shell Dlg 2" transform="matrix(1,0,0,1,0,0)" fill="none" stroke-linecap="square" stroke-width="1" font-style="normal" font-size="7.5625" stroke-opacity="1"/>
  <g font-weight="400" stroke="#000000" stroke-linejoin="bevel" font-family="MS Shell Dlg 2" transform="matrix(2.59843,0,0,2.59843,652.129,7.79528)" fill="none" stroke-linecap="square" stroke-width="1" font-style="normal" font-size="7.5625" stroke-opacity="1"/>
  <g font-weight="400" stroke="#000000" stroke-linejoin="bevel" font-family="MS Shell Dlg 2" transform="matrix(1,0,0,1,652.129,7.79528)" fill="none" stroke-linecap="square" stroke-width="1" font-style="normal" font-size="7.5625" stroke-opacity="1"/>
  <g font-weight="400" stroke="#000000" stroke-linejoin="bevel" font-family="Franklin Gothic Heavy" transform="matrix(2.59843,0,0,2.59843,652.129,7.79528)" fill="none" stroke-linecap="square" stroke-width="1" font-style="normal" font-size="33" stroke-opacity="1"/>
  <g font-weight="400" stroke="#000000" stroke-linejoin="bevel" font-family="Franklin Gothic Heavy" transform="matrix(0.259843,0,0,0.259843,652.129,7.79528)" fill="none" stroke-linecap="square" stroke-width="1" font-style="normal" font-size="127" stroke-opacity="1">
   <text font-weight="400" stroke="none" font-family="Franklin Gothic Heavy" fill="#000000" x="611.406" y="205.688" font-style="normal" xml:space="preserve" fill-opacity="1" font-size="127">LRC-House Final</text>
  </g>
  <g font-weight="400" stroke="#000000" stroke-linejoin="bevel" font-family="Franklin Gothic Heavy" transform="matrix(2.59843,0,0,2.59843,652.129,7.79528)" fill="none" stroke-linecap="square" stroke-width="1" font-style="normal" font-size="33" stroke-opacity="1"/>
  <g font-weight="400" stroke="#000000" stroke-linejoin="bevel" font-family="MS Shell Dlg 2" transform="matrix(1,0,0,1,652.129,7.79528)" fill="none" stroke-linecap="square" stroke-width="1" font-style="normal" font-size="7.5625" stroke-opacity="1"/>
  <g font-weight="400" stroke="#000000" stroke-linejoin="bevel" font-family="MS Shell Dlg 2" transform="matrix(2.59843,0,0,2.59843,652.129,7.79528)" fill="none" stroke-linecap="square" stroke-width="1" font-style="normal" font-size="7.5625" stroke-opacity="1"/>
  <g font-weight="400" stroke="#000000" stroke-linejoin="bevel" font-family="MS Shell Dlg 2" transform="matrix(2.59843,0,0,2.59843,652.129,7.79528)" fill="none" stroke-linecap="square" stroke-width="1" font-style="normal" font-size="7.5625" stroke-opacity="1"/>
  <g font-weight="400" stroke="#000000" stroke-linejoin="bevel" font-family="MS Shell Dlg 2" transform="matrix(2.59843,0,0,2.59843,13.2208,3.4618e-15)" fill="none" stroke-linecap="square" stroke-width="1" font-style="normal" font-size="7.5625" stroke-opacity="1"/>
  <g font-weight="400" stroke="#000000" stroke-linejoin="bevel" font-family="MS Shell Dlg 2" transform="matrix(1,0,0,1,13.2208,3.4618e-15)" fill="none" stroke-linecap="square" stroke-width="1" font-style="normal" font-size="7.5625" stroke-opacity="1"/>
  <g font-weight="400" stroke="#000000" stroke-linejoin="bevel" font-family="MS Shell Dlg 2" transform="matrix(2.59843,0,0,2.59843,13.2208,3.4618e-15)" fill="none" stroke-linecap="square" stroke-width="1" font-style="normal" font-size="12.8333" stroke-opacity="1"/>
  <g font-weight="400" stroke="#000000" stroke-linejoin="bevel" font-family="MS Shell Dlg 2" transform="matrix(2.59843,0,0,2.59843,13.2208,3.4618e-15)" fill="none" stroke-linecap="square" stroke-width="1" font-style="normal" font-size="12.8333" stroke-opacity="1"/>
  <g font-weight="400" stroke="#000000" stroke-linejoin="bevel" font-family="MS Shell Dlg 2" transform="matrix(1,0,0,1,13.2208,3.4618e-15)" fill="none" stroke-linecap="square" stroke-width="1" font-style="normal" font-size="7.5625" stroke-opacity="1"/>
  <g font-weight="400" stroke="#000000" stroke-linejoin="bevel" font-family="MS Shell Dlg 2" transform="matrix(2.59843,0,0,2.59843,13.2208,3.4618e-15)" fill="none" stroke-linecap="square" stroke-width="1" font-style="normal" font-size="7.5625" stroke-opacity="1"/>
  <g font-weight="400" stroke="#000000" stroke-linejoin="bevel" font-family="MS Shell Dlg 2" transform="matrix(2.59843,0,0,2.59843,13.2208,3.4618e-15)" fill="none" stroke-linecap="square" stroke-width="1" font-style="normal" font-size="7.5625" stroke-opacity="1"/>
  <g font-weight="400" stroke="#000000" stroke-linejoin="bevel" font-family="MS Shell Dlg 2" transform="matrix(2.59843,0,0,2.59843,55.5276,20.5514)" fill="none" stroke-linecap="square" stroke-width="1" font-style="normal" font-size="7.5625" stroke-opacity="1"/>
  <g font-weight="400" stroke="#000000" stroke-linejoin="bevel" font-family="MS Shell Dlg 2" transform="matrix(2.59843,0,0,2.59843,55.5276,20.5514)" fill="none" stroke-linecap="square" stroke-width="1" font-style="normal" font-size="7.5625" stroke-opacity="1"/>
  <g font-weight="400" stroke="none" font-family="MS Shell Dlg 2" transform="matrix(2.59843,0,0,2.59843,55.5276,20.5514)" fill="#ffffff" font-style="normal" fill-opacity="0.701961" font-size="7.5625">
   <path fill-rule="evenodd" vector-effect="none" d="M0,0 L124.148,0 L124.148,30.0295 L0,30.0295 L0,0"/>
  </g>
  <g font-weight="400" stroke="#000000" stroke-linejoin="bevel" font-family="MS Shell Dlg 2" transform="matrix(2.59843,0,0,2.59843,55.5276,20.5514)" fill="none" stroke-linecap="square" stroke-width="1" font-style="normal" font-size="7.5625" stroke-opacity="1"/>
  <g font-weight="400" stroke="#000000" stroke-linejoin="bevel" font-family="MS Shell Dlg 2" transform="matrix(1,0,0,1,55.5276,20.5514)" fill="none" stroke-linecap="square" stroke-width="1" font-style="normal" font-size="7.5625" stroke-opacity="1"/>
  <g font-weight="400" stroke="#000000" stroke-linejoin="bevel" font-family="Franklin Gothic Book" transform="matrix(2.59843,0,0,2.59843,55.5276,20.5514)" fill="none" stroke-linecap="square" stroke-width="1" font-style="normal" font-size="15.5833" stroke-opacity="1"/>
  <g font-weight="400" stroke="#000000" stroke-linejoin="bevel" font-family="Franklin Gothic Book" transform="matrix(0.259843,0,0,0.259843,55.5276,20.5514)" fill="none" stroke-linecap="square" stroke-width="1" font-style="normal" font-size="60" stroke-opacity="1">
   <text font-weight="400" stroke="none" font-family="Franklin Gothic Book" fill="#000000" x="0" y="57" font-style="normal" xml:space="preserve" fill-opacity="1" font-size="60">District: 184</text>
   <text font-weight="400" stroke="none" font-family="Franklin Gothic Book" fill="#000000" x="0" y="132" font-style="normal" xml:space="preserve" fill-opacity="1" font-size="60">Total Population: 64,108</text>
   <text font-weight="400" stroke="none" font-family="Franklin Gothic Book" fill="#000000" x="0" y="207" font-style="normal" xml:space="preserve" fill-opacity="1" font-size="60">Deviation: 0.09</text>
  </g>
  <g font-weight="400" stroke="#000000" stroke-linejoin="bevel" font-family="Franklin Gothic Book" transform="matrix(2.59843,0,0,2.59843,55.5276,20.5514)" fill="none" stroke-linecap="square" stroke-width="1" font-style="normal" font-size="15.5833" stroke-opacity="1"/>
  <g font-weight="400" stroke="#000000" stroke-linejoin="bevel" font-family="MS Shell Dlg 2" transform="matrix(1,0,0,1,55.5276,20.5514)" fill="none" stroke-linecap="square" stroke-width="1" font-style="normal" font-size="7.5625" stroke-opacity="1"/>
  <g font-weight="400" stroke="#000000" stroke-linejoin="bevel" font-family="MS Shell Dlg 2" transform="matrix(2.59843,0,0,2.59843,55.5276,20.5514)" fill="none" stroke-linecap="square" stroke-width="1" font-style="normal" font-size="7.5625" stroke-opacity="1"/>
  <g font-weight="400" stroke="#000000" stroke-linejoin="bevel" font-family="MS Shell Dlg 2" transform="matrix(2.59843,0,0,2.59843,55.5276,20.5514)" fill="none" stroke-linecap="square" stroke-width="1" font-style="normal" font-size="7.5625" stroke-opacity="1"/>
  <g font-weight="400" stroke="#000000" stroke-linejoin="bevel" font-family="MS Shell Dlg 2" transform="matrix(2.59843,0,0,2.59843,853.616,23.1499)" fill="none" stroke-linecap="square" stroke-width="1" font-style="normal" font-size="7.5625" stroke-opacity="1"/>
  <g font-weight="400" stroke="#000000" stroke-linejoin="bevel" font-family="MS Shell Dlg 2" transform="matrix(1,0,0,1,853.616,23.1499)" fill="none" stroke-linecap="square" stroke-width="1" font-style="normal" font-size="7.5625" stroke-opacity="1"/>
  <g font-weight="400" stroke="#000000" stroke-linejoin="bevel" font-family="Franklin Gothic Heavy" transform="matrix(2.59843,0,0,2.59843,853.616,23.1499)" fill="none" stroke-linecap="square" stroke-width="1" font-style="normal" font-size="12.8333" stroke-opacity="1"/>
  <g font-weight="400" stroke="#000000" stroke-linejoin="bevel" font-family="Franklin Gothic Heavy" transform="matrix(0.259843,0,0,0.259843,853.616,23.1499)" fill="none" stroke-linecap="square" stroke-width="1" font-style="normal" font-size="49" stroke-opacity="1">
   <text font-weight="400" stroke="none" font-family="Franklin Gothic Heavy" fill="#000000" x="418.984" y="47" font-style="normal" xml:space="preserve" fill-opacity="1" font-size="49">February 4, 2022</text>
  </g>
  <g font-weight="400" stroke="#000000" stroke-linejoin="bevel" font-family="Franklin Gothic Heavy" transform="matrix(2.59843,0,0,2.59843,853.616,23.1499)" fill="none" stroke-linecap="square" stroke-width="1" font-style="normal" font-size="12.8333" stroke-opacity="1"/>
  <g font-weight="400" stroke="#000000" stroke-linejoin="bevel" font-family="MS Shell Dlg 2" transform="matrix(1,0,0,1,853.616,23.1499)" fill="none" stroke-linecap="square" stroke-width="1" font-style="normal" font-size="7.5625" stroke-opacity="1"/>
  <g font-weight="400" stroke="#000000" stroke-linejoin="bevel" font-family="MS Shell Dlg 2" transform="matrix(2.59843,0,0,2.59843,853.616,23.1499)" fill="none" stroke-linecap="square" stroke-width="1" font-style="normal" font-size="7.5625" stroke-opacity="1"/>
  <g font-weight="400" stroke="#000000" stroke-linejoin="bevel" font-family="MS Shell Dlg 2" transform="matrix(2.59843,0,0,2.59843,853.616,23.1499)" fill="none" stroke-linecap="square" stroke-width="1" font-style="normal" font-size="7.5625" stroke-opacity="1"/>
  <g font-weight="400" stroke="#000000" stroke-linejoin="bevel" font-family="MS Shell Dlg 2" transform="matrix(1,0,0,1,0,0)" fill="none" stroke-linecap="square" stroke-width="1" font-style="normal" font-size="7.5625" stroke-opacity="1"/>
 </g>
 <metadata>
  <rdf:RDF xmlns:rdfs="http://www.w3.org/2000/01/rdf-schema#" xmlns:rdf="http://www.w3.org/1999/02/22-rdf-syntax-ns#" xmlns:dc="http://purl.org/dc/elements/1.1/">
   <rdf:Description dc:identifier="" dc:description="" dc:format="image/svg+xml" dc:title="" dc:date="2021-11-02T16:52:40">
    <dc:creator>
     <rdf:Bag>
      <rdf:li>Jonathan Cervas</rdf:li>
     </rdf:Bag>
    </dc:creator>
    <dc:publisher>
     <rdf:Bag>
      <rdf:li>QGIS 3.20.1-Odense</rdf:li>
     </rdf:Bag>
    </dc:publisher>
    <dc:subject>
     <rdf:Bag/>
    </dc:subject>
   </rdf:Description>
   <cc:Work rdf:about="">
    <dc:format>image/svg+xml</dc:format>
    <dc:title></dc:title>
    <dc:date>2021-11-02T16:52:40</dc:date>
    <dc:identifier></dc:identifier>
    <dc:description></dc:description>
    <dc:creator>
     <cc:Agent>
      <dc:title>Jonathan Cervas</dc:title>
     </cc:Agent>
    </dc:creator>
    <dc:publisher>
     <cc:Agent>
      <dc:title>QGIS 3.20.1-Odense</dc:title>
     </cc:Agent>
    </dc:publisher>
   </cc:Work>
  </rdf:RDF>
 </metadata>
</svg>
