<?xml version='1.0' encoding='UTF-8' standalone='no'?>
<svg viewBox="0 0 1122 660" xmlns:inkscape="http://www.inkscape.org/namespaces/inkscape" xmlns:cc="http://creativecommons.org/ns#" baseProfile="tiny" width="431.8mm" xmlns:xlink="http://www.w3.org/1999/xlink" version="1.2" height="254mm" xmlns="http://www.w3.org/2000/svg">
 <defs/>
 <g inkscape:groupmode="layer" stroke="black" stroke-linejoin="bevel" fill="none" stroke-linecap="square" stroke-width="1" inkscape:label="Layer 1" fill-rule="evenodd" id="Layer 1">
  <g font-weight="400" stroke="#000000" stroke-linejoin="bevel" font-family="MS Shell Dlg 2" transform="matrix(1,0,0,1,0,0)" fill="none" stroke-linecap="square" stroke-width="1" font-style="normal" font-size="7.5625" stroke-opacity="1"/>
  <g font-weight="400" stroke="#000000" stroke-linejoin="bevel" font-family="MS Shell Dlg 2" transform="matrix(1,0,0,1,0,0)" fill="none" stroke-linecap="square" stroke-width="1" font-style="normal" font-size="7.5625" stroke-opacity="1"/>
  <g font-weight="400" stroke="#000000" stroke-linejoin="bevel" font-family="MS Shell Dlg 2" transform="matrix(2.59843,0,0,2.59843,0,0)" fill="none" stroke-linecap="square" stroke-width="1" font-style="normal" font-size="7.5625" stroke-opacity="1"/>
  <g font-weight="400" stroke="#000000" stroke-linejoin="bevel" font-family="MS Shell Dlg 2" transform="matrix(2.59843,0,0,2.59843,0,0)" fill="none" stroke-linecap="square" stroke-width="1" font-style="normal" font-size="7.5625" stroke-opacity="1"/>
  <g font-weight="400" stroke="#000000" stroke-linejoin="bevel" font-family="MS Shell Dlg 2" transform="matrix(1,0,0,1,0,0)" fill="none" stroke-linecap="square" stroke-width="1" font-style="normal" font-size="7.5625" stroke-opacity="1"/>
 </g>
 <defs/>
 <g inkscape:groupmode="layer" stroke="black" stroke-linejoin="bevel" fill="none" stroke-linecap="square" stroke-width="1" inkscape:label="Page" fill-rule="evenodd" id="Page">
  <g font-weight="400" stroke="#000000" stroke-linejoin="bevel" font-family="MS Shell Dlg 2" transform="matrix(1,0,0,1,0,0)" fill="none" stroke-linecap="square" stroke-width="1" font-style="normal" font-size="7.5625" stroke-opacity="1"/>
  <g font-weight="400" stroke="#000000" stroke-linejoin="bevel" font-family="MS Shell Dlg 2" transform="matrix(1,0,0,1,0,0)" fill="none" stroke-linecap="square" stroke-width="1" font-style="normal" font-size="7.5625" stroke-opacity="1"/>
  <g font-weight="400" stroke="#000000" stroke-linejoin="bevel" font-family="MS Shell Dlg 2" transform="matrix(2.59843,0,0,2.59843,0,0)" fill="none" stroke-linecap="square" stroke-width="1" font-style="normal" font-size="7.5625" stroke-opacity="1"/>
  <g font-weight="400" stroke="#000000" stroke-linejoin="bevel" font-family="MS Shell Dlg 2" transform="matrix(1,0,0,1,0,0)" fill="none" stroke-linecap="square" stroke-width="1" font-style="normal" font-size="7.5625" stroke-opacity="1"/>
  <g font-weight="400" stroke="none" font-family="MS Shell Dlg 2" transform="matrix(1,0,0,1,0,0)" fill="#ffffff" font-style="normal" fill-opacity="1" font-size="7.5625">
   <path fill-rule="evenodd" vector-effect="none" d="M-2,-2 L1124,-2 L1124,663 L-2,663 L-2,-2"/>
  </g>
  <g font-weight="400" stroke="#000000" stroke-linejoin="bevel" font-family="MS Shell Dlg 2" transform="matrix(1,0,0,1,0,0)" fill="none" stroke-linecap="square" stroke-width="1" font-style="normal" font-size="7.5625" stroke-opacity="1"/>
  <g font-weight="400" stroke="#000000" stroke-linejoin="bevel" font-family="MS Shell Dlg 2" transform="matrix(2.59843,0,0,2.59843,0,0)" fill="none" stroke-linecap="square" stroke-width="1" font-style="normal" font-size="7.5625" stroke-opacity="1"/>
  <g font-weight="400" stroke="#000000" stroke-linejoin="bevel" font-family="MS Shell Dlg 2" transform="matrix(2.59843,0,0,2.59843,0,0)" fill="none" stroke-linecap="square" stroke-width="1" font-style="normal" font-size="7.5625" stroke-opacity="1"/>
  <g font-weight="400" stroke="#000000" stroke-linejoin="bevel" font-family="MS Shell Dlg 2" transform="matrix(1,0,0,1,0,0)" fill="none" stroke-linecap="square" stroke-width="1" font-style="normal" font-size="7.5625" stroke-opacity="1"/>
 </g>
 <defs/>
 <g inkscape:groupmode="layer" stroke="black" stroke-linejoin="bevel" fill="none" stroke-linecap="square" stroke-width="1" inkscape:label="Map 1: Background" fill-rule="evenodd" id="Map 1: Background">
  <g font-weight="400" stroke="#000000" stroke-linejoin="bevel" font-family="MS Shell Dlg 2" transform="matrix(1,0,0,1,0,0)" fill="none" stroke-linecap="square" stroke-width="1" font-style="normal" font-size="7.5625" stroke-opacity="1"/>
  <g font-weight="400" stroke="#000000" stroke-linejoin="bevel" font-family="MS Shell Dlg 2" transform="matrix(1,0,0,1,0,0)" fill="none" stroke-linecap="square" stroke-width="1" font-style="normal" font-size="7.5625" stroke-opacity="1"/>
  <g font-weight="400" stroke="#000000" stroke-linejoin="bevel" font-family="MS Shell Dlg 2" transform="matrix(2.59843,0,0,2.59843,0,85.5885)" fill="none" stroke-linecap="square" stroke-width="1" font-style="normal" font-size="7.5625" stroke-opacity="1"/>
  <g font-weight="400" stroke="none" font-family="MS Shell Dlg 2" transform="matrix(2.59843,0,0,2.59843,0,85.5885)" fill="#ffffff" font-style="normal" fill-opacity="1" font-size="7.5625">
   <path fill-rule="evenodd" vector-effect="none" d="M0,0 L431.8,0 L431.8,221.061 L0,221.061 L0,0"/>
  </g>
  <g font-weight="400" stroke="#000000" stroke-linejoin="bevel" font-family="MS Shell Dlg 2" transform="matrix(2.59843,0,0,2.59843,0,85.5885)" fill="none" stroke-linecap="square" stroke-width="1" font-style="normal" font-size="7.5625" stroke-opacity="1"/>
  <g font-weight="400" stroke="#000000" stroke-linejoin="bevel" font-family="MS Shell Dlg 2" transform="matrix(2.59843,0,0,2.59843,0,85.5885)" fill="none" stroke-linecap="square" stroke-width="1" font-style="normal" font-size="7.5625" stroke-opacity="1"/>
  <g font-weight="400" stroke="#000000" stroke-linejoin="bevel" font-family="MS Shell Dlg 2" transform="matrix(2.59843,0,0,2.59843,0,85.5885)" fill="none" stroke-linecap="square" stroke-width="1" font-style="normal" font-size="7.5625" stroke-opacity="1"/>
  <g font-weight="400" stroke="#000000" stroke-linejoin="bevel" font-family="MS Shell Dlg 2" transform="matrix(2.59843,0,0,2.59843,0,85.5885)" fill="none" stroke-linecap="square" stroke-width="1" font-style="normal" font-size="7.5625" stroke-opacity="1"/>
  <g font-weight="400" stroke="#000000" stroke-linejoin="bevel" font-family="MS Shell Dlg 2" transform="matrix(1,0,0,1,0,0)" fill="none" stroke-linecap="square" stroke-width="1" font-style="normal" font-size="7.5625" stroke-opacity="1"/>
  <g font-weight="400" stroke="#000000" stroke-linejoin="bevel" font-family="MS Shell Dlg 2" transform="matrix(2.59843,0,0,2.59843,0,85.5885)" fill="none" stroke-linecap="square" stroke-width="1" font-style="normal" font-size="7.5625" stroke-opacity="1"/>
  <g font-weight="400" stroke="#000000" stroke-linejoin="bevel" font-family="MS Shell Dlg 2" transform="matrix(2.59843,0,0,2.59843,0,85.5885)" fill="none" stroke-linecap="square" stroke-width="1" font-style="normal" font-size="7.5625" stroke-opacity="1"/>
  <g font-weight="400" stroke="#000000" stroke-linejoin="bevel" font-family="MS Shell Dlg 2" transform="matrix(1,0,0,1,0,0)" fill="none" stroke-linecap="square" stroke-width="1" font-style="normal" font-size="7.5625" stroke-opacity="1"/>
 </g>
 <defs/>
 <g inkscape:groupmode="layer" stroke="black" stroke-linejoin="bevel" fill="none" stroke-linecap="square" stroke-width="1" inkscape:label="Map 1: LRC-H-v2" fill-rule="evenodd" id="Map 1: LRC-H-v2">
  <g font-weight="400" stroke="#000000" stroke-linejoin="bevel" font-family="MS Shell Dlg 2" transform="matrix(1,0,0,1,0,0)" fill="none" stroke-linecap="square" stroke-width="1" font-style="normal" font-size="7.5625" stroke-opacity="1"/>
  <g font-weight="400" stroke="#000000" stroke-linejoin="bevel" font-family="MS Shell Dlg 2" transform="matrix(1,0,0,1,0,0)" fill="none" stroke-linecap="square" stroke-width="1" font-style="normal" font-size="7.5625" stroke-opacity="1"/>
  <g font-weight="400" stroke="#000000" stroke-linejoin="bevel" font-family="MS Shell Dlg 2" transform="matrix(2.59843,0,0,2.59843,0,85.5885)" fill="none" stroke-linecap="square" stroke-width="1" font-style="normal" font-size="7.5625" stroke-opacity="1"/>
  <g font-weight="400" stroke="#000000" stroke-linejoin="bevel" font-family="MS Shell Dlg 2" transform="matrix(2.59843,0,0,2.59843,0,85.5885)" fill="none" stroke-linecap="square" stroke-width="1" font-style="normal" font-size="7.5625" stroke-opacity="1"/>
  <g font-weight="400" stroke="none" font-family="MS Shell Dlg 2" transform="matrix(1,0,0,1,0,85.5885)" fill="#000000" font-style="normal" fill-opacity="0" font-size="7.5625">
   <rect x="0" width="1122" y="0" height="574"/>
  </g>
  <g font-weight="400" stroke="#000000" stroke-linejoin="bevel" font-family="MS Shell Dlg 2" transform="matrix(1,0,0,1,0,85.5885)" fill="none" stroke-linecap="square" stroke-width="1" font-style="normal" font-size="7.5625" stroke-opacity="1"/>
  <g font-weight="400" stroke="#232323" stroke-linejoin="bevel" font-family="MS Shell Dlg 2" transform="matrix(1,0,0,1,0,85.5885)" fill="#ffffff" stroke-linecap="square" stroke-width="0.675591" font-style="normal" fill-opacity="0.189807" font-size="7.5625" stroke-opacity="0.0603952">
   <path fill-rule="evenodd" vector-effect="none" d="M675.208,47.0619 L678.295,25.2407 L681.241,4.14875 L685.917,-29.1575 L686.118,-30.8944 L686.423,-33.3828 L686.711,-35.8474 L687.091,-38.8526 L688.878,-50.3435 L689.716,-56.7773 L690.603,-63.3529 L692.062,-74.3897 L692.96,-80.8413 L1232.99,-96.7641 L1234.83,-34.5988 L1224.78,-14.8673 L1203.77,26.3402 L1202.76,30.1126 L1201.22,35.8425 L1196.11,54.8943 L1194.49,60.8839 L1193.89,63.1473 L1193.36,65.1514 L1193.16,65.8823 L1192.87,66.9436 L1192.61,67.9103 L1191.86,70.6459 L1188.56,83.0012 L1178.78,119.314 L1176.12,149.171 L1175.66,154.354 L1173.81,174.783 L1170.97,206.305 L1169.09,227.554 L1168.52,237.419 L1167.64,253.164 L1165.39,292.693 L1165.83,301.03 L1166.03,307.761 L1167.38,358.224 L1167.87,364.549 L1168.67,374.888 L1169.73,400.61 L1169.93,423.201 L1170.24,428.221 L1171.19,444.31 L1171.68,450.026 L1171.97,465.269 L1175.17,497.946 L1175.25,501.078 L1175.47,513.516 L1175.27,517.803 L1174.62,533.541 L1176.4,544.88 L1153.74,538.042 L1083.6,533.824 L1066.35,531.293 L1053.51,529.38 L1048.34,528.877 L1043.69,531.611 L1043.35,531.808 L1040.98,533.212 L1038.84,534.468 L1033.73,533.636 L1017.97,531.037 L1015.69,530.707 L1012.55,530.215 L1008.94,529.315 L1008.08,529.013 L1002.46,527.775 L1001.65,533.366 L1000.43,541.94 L999.34,548.943 L997.99,559.346 L996.833,568.339 L995.5,577.501 L985.842,576.078 L974.828,574.485 L966.168,573.313 L957.359,572.005 L949.223,570.912 L938.373,569.36 L931.158,568.356 L902.565,564.192 L892.694,562.869 L883.598,561.593 L873.927,560.333 L875.342,550.888 L876.514,541.778 L877.956,531.42 L880.686,512.182 L882.169,501.401 L868.247,497.016 L854.505,492.648 L855.582,485.201 L855.802,483.487 L856.873,474.59 L858.539,463.266 L865.954,465.598 L872.409,467.724 L879.115,469.819 L886.181,471.903 L886.554,469.273 L886.944,466.618 L887.63,461.779 L888.482,455.859 L889.128,451.489 L889.922,446.039 L890.807,440.001 L892.498,428.349 L894.742,412.213 L886.396,410.658 L873.297,407.932 L866.326,407.225 L866.721,404.757 L867.411,400.643 L867.973,397.095 L869.543,385.002 L870.738,377.247 L871.625,370.064 L874.023,351.21 L865.858,350.304 L866.258,349.216 L867.479,339.917 L847.233,337.191 L848.65,327.231 L820.232,323.341 L806.078,321.441 L798.815,320.602 L791.859,319.754 L793.263,309.935 L795.063,295.824 L796.208,287.603 L796.731,283.962 L797.991,274.755 L799.602,263.41 L800.784,253.995 L801.105,252.676 L802.545,241.616 L803.719,233.161 L805.347,221.183 L806.506,212.845 L792.318,210.969 L786.732,210.198 L778.109,209.001 L781.805,182.179 L783.011,173.606 L784.271,164.376 L786.7,146.574 L787.589,140.068 L788.449,133.774 L789.009,129.57 L789.41,126.658 L789.912,122.292 L791.536,110.783 L763.152,107.336 L734.614,103.495 L706.533,99.9442 L685.661,97.2345 L687.994,81.6341 L688.852,74.0535 L671.786,71.6063 L673.76,58.4726 L675.208,47.0619"/>
   <path fill-rule="evenodd" vector-effect="none" d="M692.96,-80.8413 L692.062,-74.3897 L690.603,-63.3529 L689.716,-56.7773 L688.878,-50.3435 L687.091,-38.8526 L686.711,-35.8474 L686.423,-33.3828 L686.118,-30.8944 L685.917,-29.1575 L681.241,4.14875 L678.295,25.2407 L675.208,47.0619 L674.157,46.8354 L672.997,46.5653 L643.635,42.8639 L616.071,39.0627 L589.442,13.6667 L592.528,-7.61629 L595.573,-29.0384 L596.946,-38.7393 L597.242,-40.9233 L597.988,-44.9685 L598.452,-47.5551 L599.104,-51.1063 L569.975,-54.9327 L541.638,-58.7594 L541.816,-60.0745 L544.162,-75.8855 L544.249,-76.4888 L692.96,-80.8413"/>
  </g>
  <g font-weight="400" stroke="none" font-family="MS Shell Dlg 2" transform="matrix(1,0,0,1,0,85.5885)" fill="#ffb81c" font-style="normal" fill-opacity="0.901961" font-size="7.5625">
   <path fill-rule="evenodd" vector-effect="none" d="M367.049,54.3773 L375.85,55.5246 L380.529,56.1135 L410.431,60.4588 L431.542,63.3524 L459.886,67.3914 L494.415,71.7406 L523.027,75.6537 L551.688,79.4245 L553.82,63.6431 L554.928,55.3769 L556.368,44.9022 L558.159,31.6571 L586.73,35.4299 L589.077,16.5779 L589.442,13.6667 L616.071,39.0627 L643.635,42.8639 L672.997,46.5653 L674.157,46.8354 L675.208,47.0619 L673.76,58.4726 L671.786,71.6063 L688.852,74.0535 L687.994,81.6341 L685.661,97.2345 L706.533,99.9442 L734.614,103.495 L763.152,107.336 L791.536,110.783 L789.912,122.292 L789.41,126.658 L789.009,129.57 L788.449,133.774 L787.589,140.068 L786.7,146.574 L784.271,164.376 L783.011,173.606 L781.805,182.179 L778.109,209.001 L786.732,210.198 L792.318,210.969 L806.506,212.845 L805.347,221.183 L803.719,233.161 L802.545,241.616 L801.105,252.676 L800.784,253.995 L799.602,263.41 L797.991,274.755 L796.731,283.962 L796.208,287.603 L795.063,295.824 L793.263,309.935 L791.859,319.754 L798.815,320.602 L806.078,321.441 L820.232,323.341 L848.65,327.231 L847.233,337.191 L867.479,339.917 L866.258,349.216 L865.858,350.304 L874.023,351.21 L871.625,370.064 L870.738,377.247 L869.543,385.002 L867.973,397.095 L867.411,400.643 L866.721,404.757 L866.326,407.225 L873.297,407.932 L886.396,410.658 L894.742,412.213 L892.498,428.349 L890.807,440.001 L889.922,446.039 L889.128,451.489 L888.482,455.859 L887.63,461.779 L886.944,466.618 L886.554,469.273 L886.181,471.903 L879.115,469.819 L872.409,467.724 L865.954,465.598 L858.539,463.266 L856.873,474.59 L855.802,483.487 L855.582,485.201 L854.505,492.648 L868.247,497.016 L882.169,501.401 L880.686,512.182 L877.956,531.42 L876.514,541.778 L875.342,550.888 L873.927,560.333 L863.182,558.708 L854.721,557.553 L845.695,556.205 L836.649,554.763 L825.47,553.056 L817.282,552.01 L789.201,548.11 L760.916,543.981 L754.134,542.987 L732.491,539.997 L723.13,538.868 L715.138,537.745 L705.14,536.378 L675.573,532.121 L656.245,529.459 L647.201,528.087 L638.238,527.016 L637.281,526.903 L630.118,525.826 L625.816,525.274 L609.506,522.968 L608.387,522.86 L607.266,522.729 L612.273,486.443 L615.515,461.857 L617.298,451.372 L619.548,435.377 L623.176,407.365 L624.704,396.209 L626.274,384.631 L627.522,374.98 L628.545,366.249 L617.752,364.764 L615.89,364.491 L599.608,362.487 L588.634,360.96 L580.771,359.904 L578.715,359.777 L571.029,358.621 L554.271,356.328 L542.671,354.935 L541.379,363.722 L540.144,373.208 L511.728,369.406 L483.277,365.628 L454.824,361.78 L420.192,357.175 L421.433,347.853 L421.62,346.233 L422.602,339.164 L423.217,333.088 L423.98,328.972 L424.618,324.322 L425.949,315.605 L397.119,311.743 L367.204,307.725 L366.474,313.594 L365.533,318.978 L336.291,314.566 L337.073,310.52 L337.247,309.696 L337.435,308.731 L338.863,307.661 L339.373,307.272 L343.02,304.499 L354.921,294.609 L359.838,290.326 L366.764,284.58 L360.621,283.847 L351.366,282.572 L327.559,279.288 L317.294,277.949 L307.557,276.852 L287.312,274.096 L274.726,272.169 L246.687,266.363 L240.548,260.179 L227.258,247.044 L244.672,229.838 L245.949,228.561 L247.537,227.439 L274.103,207.978 L282.472,199.197 L298.237,186.622 L315.291,171.904 L343.163,124.381 L354.856,91.9011 L355.724,89.56 L367.049,54.3773"/>
  </g>
  <g font-weight="400" stroke="#232323" stroke-linejoin="bevel" font-family="MS Shell Dlg 2" transform="matrix(1,0,0,1,0,85.5885)" fill="#ffffff" stroke-linecap="square" stroke-width="0.675591" font-style="normal" fill-opacity="0.189807" font-size="7.5625" stroke-opacity="0.0603952">
   <path fill-rule="evenodd" vector-effect="none" d="M589.997,650.323 L591.737,637.661 L595.697,609.265 L599.764,580.234 L603.797,551.275 L607.266,522.729 L608.387,522.86 L609.506,522.968 L625.816,525.274 L630.118,525.826 L637.281,526.903 L638.238,527.016 L647.201,528.087 L656.245,529.459 L675.573,532.121 L705.14,536.378 L715.138,537.745 L723.13,538.868 L732.491,539.997 L754.134,542.987 L760.916,543.981 L789.201,548.11 L817.282,552.01 L825.47,553.056 L836.649,554.763 L845.695,556.205 L854.721,557.553 L863.182,558.708 L873.927,560.333 L883.598,561.593 L892.694,562.869 L902.565,564.192 L931.158,568.356 L938.373,569.36 L949.223,570.912 L957.359,572.005 L966.168,573.313 L974.828,574.485 L985.842,576.078 L995.5,577.501 L996.833,568.339 L997.99,559.346 L999.34,548.943 L1000.43,541.94 L1001.65,533.366 L1002.46,527.775 L1008.08,529.013 L1008.94,529.315 L1012.55,530.215 L1015.69,530.707 L1017.97,531.037 L1033.73,533.636 L1038.84,534.468 L1040.98,533.212 L1043.35,531.808 L1043.69,531.611 L1048.34,528.877 L1053.51,529.38 L1066.35,531.293 L1083.6,533.824 L1153.74,538.042 L1176.4,544.88 L1177.96,555.056 L1188.22,620.553 L1188.49,622.347 L1191.59,632.62 L589.997,650.323"/>
   <path fill-rule="evenodd" vector-effect="none" d="M-111.112,670.666 L-114.027,569.432 L-109.094,558.211 L-108.26,558.397 L-97.9224,544.696 L-92.9991,536.204 L-89.1097,528.7 L-87.1314,523.614 L-86.6363,521.424 L-85.485,516.385 L-85.0238,514.267 L-95.9905,517.998 L-104.444,520.838 L-112.166,523.446 L-115.32,524.527 L-117.218,458.622 L-98.0336,468.327 L-87.2904,473.725 L-78.3231,478.73 L-77.3079,473.344 L-76.1668,444.212 L-75.7807,434.494 L-74.2651,395.246 L-74.0484,391.521 L-73.9696,389.881 L-72.9354,379.536 L-71.4365,370.323 L-70.1607,363.363 L-68.4528,357.653 L-66.0066,351.945 L-62.9629,345.729 L-58.6402,338.914 L-55.5612,335.177 L-51.584,331.366 L-46.2405,326.861 L-38.1019,320.638 L-24.1017,315.392 L-13.8726,312.36 L-5.24351,310.661 L1.32646,309.98 L6.89442,309.515 L11.7471,309.843 L15.3686,310.557 L22.293,313.421 L75.5444,337.496 L92.4495,344.913 L97.8693,346.791 L105.341,348.634 L110.09,349.104 L119.252,349.658 L127.853,349.456 L129.922,350.659 L132.743,346.718 L151.046,336.503 L170.836,325.427 L171.971,324.81 L172.713,323.712 L219.888,254.299 L227.258,247.044 L240.548,260.179 L246.687,266.363 L274.726,272.169 L287.312,274.096 L307.557,276.852 L317.294,277.949 L327.559,279.288 L351.366,282.572 L360.621,283.847 L366.764,284.58 L359.838,290.326 L354.921,294.609 L343.02,304.499 L339.373,307.272 L338.863,307.661 L337.435,308.731 L337.247,309.696 L337.073,310.52 L336.291,314.566 L365.533,318.978 L366.474,313.594 L367.204,307.725 L397.119,311.743 L425.949,315.605 L424.618,324.322 L423.98,328.972 L423.217,333.088 L422.602,339.164 L421.62,346.233 L421.433,347.853 L420.192,357.175 L454.824,361.78 L483.277,365.628 L511.728,369.406 L540.144,373.208 L541.379,363.722 L542.671,354.935 L554.271,356.328 L571.029,358.621 L578.715,359.777 L580.771,359.904 L588.634,360.96 L599.608,362.487 L615.89,364.491 L617.752,364.764 L628.545,366.249 L627.522,374.98 L626.274,384.631 L624.704,396.209 L623.176,407.365 L619.548,435.377 L617.298,451.372 L615.515,461.857 L612.273,486.443 L607.266,522.729 L603.797,551.275 L599.764,580.234 L595.697,609.265 L591.737,637.661 L589.997,650.323 L-111.112,670.666"/>
   <path fill-rule="evenodd" vector-effect="none" d="M367.049,54.3773 L355.724,89.56 L354.856,91.9011 L343.163,124.381 L315.291,171.904 L298.237,186.622 L282.472,199.197 L274.103,207.978 L247.537,227.439 L245.949,228.561 L244.672,229.838 L227.258,247.044 L219.888,254.299 L172.713,323.712 L171.971,324.81 L170.836,325.427 L151.046,336.503 L132.743,346.718 L129.922,350.659 L127.853,349.456 L119.252,349.658 L110.09,349.104 L105.341,348.634 L97.8693,346.791 L92.4495,344.913 L75.5444,337.496 L22.293,313.421 L15.3686,310.557 L11.7471,309.843 L6.89442,309.515 L1.32646,309.98 L-5.24351,310.661 L-13.8726,312.36 L-24.1017,315.392 L-38.1019,320.638 L-46.2405,326.861 L-51.584,331.366 L-55.5612,335.177 L-58.6402,338.914 L-62.9629,345.729 L-66.0066,351.945 L-68.4528,357.653 L-70.1607,363.363 L-71.4365,370.323 L-72.9354,379.536 L-73.9696,389.881 L-74.0484,391.521 L-74.2651,395.246 L-75.7807,434.494 L-76.1668,444.212 L-77.3079,473.344 L-78.3231,478.73 L-87.2904,473.725 L-98.0336,468.327 L-117.218,458.622 L-130.732,-10.7035 L-115.79,-8.71605 L-100.087,-6.64217 L-81.3139,-4.18916 L-65.215,-2.10366 L-51.8248,-0.314459 L-25.6057,3.13947 L16.5147,8.68335 L45.7013,12.6586 L79.7752,16.9363 L115.358,21.731 L159.05,27.4128 L163.934,28.2069 L199.626,33.02 L221.726,35.9344 L227.274,36.6623 L236.001,37.7657 L240.481,38.3374 L243.445,38.7192 L274.294,42.8758 L277.8,43.3354 L309.463,47.6081 L311.797,48.0081 L331.607,50.1454 L349.07,52.0467 L350.082,52.181 L351.112,52.3148 L352.304,52.4672 L353.37,52.6 L367.049,54.3773"/>
   <path fill-rule="evenodd" vector-effect="none" d="M589.442,13.6667 L564.052,-11.228 L557.076,-12.1703 L535.442,-15.1404 L518.965,-17.1854 L505.921,-18.8162 L510.548,-50.8572 L510.538,-51.2078 L511.216,-53.8475 L511.822,-55.9236 L512.047,-56.8424 L509.233,-59.4971 L504.21,-60.1691 L488.257,-74.8536 L544.249,-76.4888 L544.162,-75.8855 L541.816,-60.0745 L541.638,-58.7594 L569.975,-54.9327 L599.104,-51.1063 L598.452,-47.5551 L597.988,-44.9685 L597.242,-40.9233 L596.946,-38.7393 L595.573,-29.0384 L592.528,-7.61629 L589.442,13.6667"/>
   <path fill-rule="evenodd" vector-effect="none" d="M-132.061,-56.8702 L488.257,-74.8536 L504.21,-60.1691 L509.233,-59.4971 L512.047,-56.8424 L511.822,-55.9236 L511.216,-53.8475 L510.538,-51.2078 L510.548,-50.8572 L505.921,-18.8162 L518.965,-17.1854 L535.442,-15.1404 L557.076,-12.1703 L564.052,-11.228 L589.442,13.6667 L589.077,16.5779 L586.73,35.4299 L558.159,31.6571 L556.368,44.9022 L554.928,55.3769 L553.82,63.6431 L551.688,79.4245 L523.027,75.6537 L494.415,71.7406 L459.886,67.3914 L431.542,63.3524 L410.431,60.4588 L380.529,56.1135 L375.85,55.5246 L367.049,54.3773 L353.37,52.6 L352.304,52.4672 L351.112,52.3148 L350.082,52.181 L349.07,52.0467 L331.607,50.1454 L311.797,48.0081 L309.463,47.6081 L277.8,43.3354 L274.294,42.8758 L243.445,38.7192 L240.481,38.3374 L236.001,37.7657 L227.274,36.6623 L221.726,35.9344 L199.626,33.02 L163.934,28.2069 L159.05,27.4128 L115.358,21.731 L79.7752,16.9363 L45.7013,12.6586 L16.5147,8.68335 L-25.6057,3.13947 L-51.8248,-0.314459 L-65.215,-2.10366 L-81.3139,-4.18916 L-100.087,-6.64217 L-115.79,-8.71605 L-130.732,-10.7035 L-132.061,-56.8702"/>
  </g>
  <g font-weight="400" stroke="#000000" stroke-linejoin="bevel" font-family="MS Shell Dlg 2" transform="matrix(1,0,0,1,0,85.5885)" fill="none" stroke-linecap="square" stroke-width="1" font-style="normal" font-size="7.5625" stroke-opacity="1"/>
  <g font-weight="400" stroke="#000000" stroke-linejoin="bevel" font-family="MS Shell Dlg 2" transform="matrix(2.59843,0,0,2.59843,0,85.5885)" fill="none" stroke-linecap="square" stroke-width="1" font-style="normal" font-size="7.5625" stroke-opacity="1"/>
  <g font-weight="400" stroke="#000000" stroke-linejoin="bevel" font-family="MS Shell Dlg 2" transform="matrix(2.59843,0,0,2.59843,0,85.5885)" fill="none" stroke-linecap="square" stroke-width="1" font-style="normal" font-size="7.5625" stroke-opacity="1"/>
  <g font-weight="400" stroke="#000000" stroke-linejoin="bevel" font-family="MS Shell Dlg 2" transform="matrix(2.59843,0,0,2.59843,0,85.5885)" fill="none" stroke-linecap="square" stroke-width="1" font-style="normal" font-size="7.5625" stroke-opacity="1"/>
  <g font-weight="400" stroke="#000000" stroke-linejoin="bevel" font-family="MS Shell Dlg 2" transform="matrix(1,0,0,1,0,0)" fill="none" stroke-linecap="square" stroke-width="1" font-style="normal" font-size="7.5625" stroke-opacity="1"/>
  <g font-weight="400" stroke="#000000" stroke-linejoin="bevel" font-family="MS Shell Dlg 2" transform="matrix(2.59843,0,0,2.59843,0,85.5885)" fill="none" stroke-linecap="square" stroke-width="1" font-style="normal" font-size="7.5625" stroke-opacity="1"/>
  <g font-weight="400" stroke="#000000" stroke-linejoin="bevel" font-family="MS Shell Dlg 2" transform="matrix(2.59843,0,0,2.59843,0,85.5885)" fill="none" stroke-linecap="square" stroke-width="1" font-style="normal" font-size="7.5625" stroke-opacity="1"/>
  <g font-weight="400" stroke="#000000" stroke-linejoin="bevel" font-family="MS Shell Dlg 2" transform="matrix(1,0,0,1,0,0)" fill="none" stroke-linecap="square" stroke-width="1" font-style="normal" font-size="7.5625" stroke-opacity="1"/>
 </g>
 <defs/>
 <g inkscape:groupmode="layer" stroke="black" stroke-linejoin="bevel" fill="none" stroke-linecap="square" stroke-width="1" inkscape:label="Map 1: Pittsburgh" fill-rule="evenodd" id="Map 1: Pittsburgh">
  <g font-weight="400" stroke="#000000" stroke-linejoin="bevel" font-family="MS Shell Dlg 2" transform="matrix(1,0,0,1,0,0)" fill="none" stroke-linecap="square" stroke-width="1" font-style="normal" font-size="7.5625" stroke-opacity="1"/>
  <g font-weight="400" stroke="#000000" stroke-linejoin="bevel" font-family="MS Shell Dlg 2" transform="matrix(1,0,0,1,0,0)" fill="none" stroke-linecap="square" stroke-width="1" font-style="normal" font-size="7.5625" stroke-opacity="1"/>
  <g font-weight="400" stroke="#000000" stroke-linejoin="bevel" font-family="MS Shell Dlg 2" transform="matrix(2.59843,0,0,2.59843,0,85.5885)" fill="none" stroke-linecap="square" stroke-width="1" font-style="normal" font-size="7.5625" stroke-opacity="1"/>
  <g font-weight="400" stroke="#000000" stroke-linejoin="bevel" font-family="MS Shell Dlg 2" transform="matrix(2.59843,0,0,2.59843,0,85.5885)" fill="none" stroke-linecap="square" stroke-width="1" font-style="normal" font-size="7.5625" stroke-opacity="1"/>
  <g font-weight="400" stroke="none" font-family="MS Shell Dlg 2" transform="matrix(1,0,0,1,0,85.5885)" fill="#000000" font-style="normal" fill-opacity="0" font-size="7.5625">
   <rect x="0" width="1122" y="0" height="574"/>
  </g>
  <g font-weight="400" stroke="#000000" stroke-linejoin="bevel" font-family="MS Shell Dlg 2" transform="matrix(1,0,0,1,0,85.5885)" fill="none" stroke-linecap="square" stroke-width="1" font-style="normal" font-size="7.5625" stroke-opacity="1"/>
  <g font-weight="400" stroke="#000000" stroke-linejoin="bevel" font-family="MS Shell Dlg 2" transform="matrix(1,0,0,1,0,85.5885)" fill="none" stroke-linecap="square" stroke-width="1" font-style="normal" font-size="7.5625" stroke-opacity="1"/>
  <g font-weight="400" stroke="#000000" stroke-linejoin="bevel" font-family="MS Shell Dlg 2" transform="matrix(2.59843,0,0,2.59843,0,85.5885)" fill="none" stroke-linecap="square" stroke-width="1" font-style="normal" font-size="7.5625" stroke-opacity="1"/>
  <g font-weight="400" stroke="#000000" stroke-linejoin="bevel" font-family="MS Shell Dlg 2" transform="matrix(2.59843,0,0,2.59843,0,85.5885)" fill="none" stroke-linecap="square" stroke-width="1" font-style="normal" font-size="7.5625" stroke-opacity="1"/>
  <g font-weight="400" stroke="#000000" stroke-linejoin="bevel" font-family="MS Shell Dlg 2" transform="matrix(2.59843,0,0,2.59843,0,85.5885)" fill="none" stroke-linecap="square" stroke-width="1" font-style="normal" font-size="7.5625" stroke-opacity="1"/>
  <g font-weight="400" stroke="#000000" stroke-linejoin="bevel" font-family="MS Shell Dlg 2" transform="matrix(1,0,0,1,0,0)" fill="none" stroke-linecap="square" stroke-width="1" font-style="normal" font-size="7.5625" stroke-opacity="1"/>
  <g font-weight="400" stroke="#000000" stroke-linejoin="bevel" font-family="MS Shell Dlg 2" transform="matrix(2.59843,0,0,2.59843,0,85.5885)" fill="none" stroke-linecap="square" stroke-width="1" font-style="normal" font-size="7.5625" stroke-opacity="1"/>
  <g font-weight="400" stroke="#000000" stroke-linejoin="bevel" font-family="MS Shell Dlg 2" transform="matrix(2.59843,0,0,2.59843,0,85.5885)" fill="none" stroke-linecap="square" stroke-width="1" font-style="normal" font-size="7.5625" stroke-opacity="1"/>
  <g font-weight="400" stroke="#000000" stroke-linejoin="bevel" font-family="MS Shell Dlg 2" transform="matrix(1,0,0,1,0,0)" fill="none" stroke-linecap="square" stroke-width="1" font-style="normal" font-size="7.5625" stroke-opacity="1"/>
 </g>
 <defs/>
 <g inkscape:groupmode="layer" stroke="black" stroke-linejoin="bevel" fill="none" stroke-linecap="square" stroke-width="1" inkscape:label="Map 1: WP_Wards_reallocated (atlas)" fill-rule="evenodd" id="Map 1: WP_Wards_reallocated (atlas)">
  <g font-weight="400" stroke="#000000" stroke-linejoin="bevel" font-family="MS Shell Dlg 2" transform="matrix(1,0,0,1,0,0)" fill="none" stroke-linecap="square" stroke-width="1" font-style="normal" font-size="7.5625" stroke-opacity="1"/>
  <g font-weight="400" stroke="#000000" stroke-linejoin="bevel" font-family="MS Shell Dlg 2" transform="matrix(1,0,0,1,0,0)" fill="none" stroke-linecap="square" stroke-width="1" font-style="normal" font-size="7.5625" stroke-opacity="1"/>
  <g font-weight="400" stroke="#000000" stroke-linejoin="bevel" font-family="MS Shell Dlg 2" transform="matrix(2.59843,0,0,2.59843,0,85.5885)" fill="none" stroke-linecap="square" stroke-width="1" font-style="normal" font-size="7.5625" stroke-opacity="1"/>
  <g font-weight="400" stroke="#000000" stroke-linejoin="bevel" font-family="MS Shell Dlg 2" transform="matrix(2.59843,0,0,2.59843,0,85.5885)" fill="none" stroke-linecap="square" stroke-width="1" font-style="normal" font-size="7.5625" stroke-opacity="1"/>
  <g font-weight="400" stroke="none" font-family="MS Shell Dlg 2" transform="matrix(1,0,0,1,0,85.5885)" fill="#000000" font-style="normal" fill-opacity="0" font-size="7.5625">
   <rect x="0" width="1122" y="0" height="574"/>
  </g>
  <g font-weight="400" stroke="#000000" stroke-linejoin="bevel" font-family="MS Shell Dlg 2" transform="matrix(1,0,0,1,0,85.5885)" fill="none" stroke-linecap="square" stroke-width="1" font-style="normal" font-size="7.5625" stroke-opacity="1"/>
  <g stroke-dasharray="2.07874,1.03937" font-weight="400" stroke="#232323" stroke-linejoin="bevel" font-family="MS Shell Dlg 2" stroke-dashoffset="0" transform="matrix(1,0,0,1,0,85.5885)" fill="none" stroke-linecap="square" stroke-width="0.519685" font-style="normal" font-size="7.5625" stroke-opacity="0.0599985">
   <path fill-rule="evenodd" vector-effect="none" d="M985.842,576.078 L995.5,577.501 L996.833,568.339 L997.99,559.346 L999.34,548.943 L1000.43,541.94 L1001.65,533.366 L1002.46,527.775 L1008.08,529.013 L1008.94,529.315 L1012.55,530.215 L1015.69,530.707 L1017.97,531.037 L1033.73,533.636 L1038.84,534.468 L1040.98,533.212 L1043.35,531.808 L1043.69,531.611 L1048.34,528.877 L1053.51,529.38 L1066.35,531.293 L1083.6,533.824 L1153.74,538.042 L1176.4,544.88 L1177.96,555.056 L1188.22,620.553 L1188.49,622.347 L1191.59,632.62 L688.354,647.444 L689.493,640.905 L690.626,632.24 L692.096,622.186 L687.208,621.323 L684.639,621.515 L680.32,620.402 L663.472,618.206 L654.571,616.829 L647.015,615.834 L635.044,614.149 L624.789,612.625 L614.572,611.192 L608.646,610.547 L597.558,608.86 L595.697,609.265 L599.764,580.234 L603.797,551.275 L607.266,522.729 L608.387,522.86 L609.506,522.968 L625.816,525.274 L630.118,525.826 L637.281,526.903 L638.238,527.016 L647.201,528.087 L656.245,529.459 L675.573,532.121 L705.14,536.378 L715.138,537.745 L723.13,538.868 L732.491,539.997 L754.134,542.987 L760.916,543.981 L789.201,548.11 L817.282,552.01 L825.47,553.056 L836.649,554.763 L845.695,556.205 L854.721,557.553 L863.182,558.708 L873.927,560.333 L883.598,561.593 L892.694,562.869 L902.565,564.192 L931.158,568.356 L938.373,569.36 L949.223,570.912 L957.359,572.005 L966.168,573.313 L974.828,574.485 L985.842,576.078"/>
   <path fill-rule="evenodd" vector-effect="none" d="M1175.27,517.803 L1174.62,533.541 L1176.4,544.88 L1153.74,538.042 L1083.6,533.824 L1066.35,531.293 L1053.51,529.38 L1048.34,528.877 L1043.69,531.611 L1043.35,531.808 L1040.98,533.212 L1038.84,534.468 L1033.73,533.636 L1017.97,531.037 L1015.69,530.707 L1012.55,530.215 L1008.94,529.315 L1008.08,529.013 L1002.46,527.775 L1001.65,533.366 L1000.43,541.94 L999.34,548.943 L997.99,559.346 L996.833,568.339 L995.5,577.501 L985.842,576.078 L974.828,574.485 L966.168,573.313 L957.359,572.005 L949.223,570.912 L938.373,569.36 L931.158,568.356 L902.565,564.192 L892.694,562.869 L883.598,561.593 L873.927,560.333 L863.182,558.708 L854.721,557.553 L845.695,556.205 L836.649,554.763 L825.47,553.056 L817.282,552.01 L789.201,548.11 L760.916,543.981 L754.134,542.987 L732.491,539.997 L723.13,538.868 L715.138,537.745 L705.14,536.378 L675.573,532.121 L656.245,529.459 L647.201,528.087 L638.238,527.016 L637.281,526.903 L630.118,525.826 L625.816,525.274 L609.506,522.968 L608.387,522.86 L607.266,522.729 L612.273,486.443 L615.515,461.857 L617.298,451.372 L619.548,435.377 L623.176,407.365 L624.704,396.209 L626.274,384.631 L627.522,374.98 L628.545,366.249 L631.742,342.6 L633.893,328.736 L634.223,325.849 L634.86,319.936 L636.483,310.181 L637.91,299.286 L639.393,299.5 L640.712,299.648 L659.635,302.111 L664.014,302.849 L678.061,304.8 L706.471,308.458 L713.79,309.366 L734.97,312.044 L742.706,313.033 L754.889,314.664 L763.42,315.793 L774.065,317.142 L782.583,318.412 L791.859,319.754 L798.815,320.602 L806.078,321.441 L820.232,323.341 L848.65,327.231 L877.241,330.834 L891.229,332.598 L897.934,333.453 L905.782,334.602 L912.073,335.446 L925.343,337.278 L926.335,337.366 L934.27,338.395 L953.827,340.953 L962.74,342.188 L978.307,344.349 L995.581,346.412 L997.771,346.792 L999.831,347.035 L1009.25,348.395 L1026.81,350.824 L1036.73,352.192 L1039.72,352.618 L1041.29,352.829 L1044.07,353.215 L1049.54,353.755 L1057.09,354.444 L1059.87,354.713 L1060.23,354.749 L1061.46,354.853 L1062.38,354.943 L1063.48,355.051 L1064.86,355.174 L1167.87,364.549 L1168.67,374.888 L1169.73,400.61 L1169.93,423.201 L1170.24,428.221 L1171.19,444.31 L1171.68,450.026 L1171.97,465.269 L1175.17,497.946 L1175.25,501.078 L1175.47,513.516 L1175.27,517.803"/>
   <path fill-rule="evenodd" vector-effect="none" d="M1232.99,-96.7641 L1234.83,-34.5988 L1224.78,-14.8673 L1203.77,26.3402 L1202.76,30.1126 L1201.22,35.8425 L1196.11,54.8943 L1194.49,60.8839 L1193.89,63.1473 L1193.36,65.1514 L1193.16,65.8823 L1192.87,66.9436 L1192.61,67.9103 L1191.86,70.6459 L1188.56,83.0012 L1178.78,119.314 L1176.12,149.171 L1175.66,154.354 L1173.81,174.783 L1170.97,206.305 L1169.09,227.554 L1168.52,237.419 L1167.64,253.164 L1165.39,292.693 L1165.83,301.03 L1166.03,307.761 L1167.38,358.224 L1167.87,364.549 L1064.86,355.174 L1063.48,355.051 L1062.38,354.943 L1061.46,354.853 L1060.23,354.749 L1059.87,354.713 L1057.09,354.444 L1049.54,353.755 L1044.07,353.215 L1041.29,352.829 L1039.72,352.618 L1036.73,352.192 L1026.81,350.824 L1009.25,348.395 L999.831,347.035 L997.771,346.792 L995.581,346.412 L978.307,344.349 L962.74,342.188 L953.827,340.953 L934.27,338.395 L926.335,337.366 L925.343,337.278 L912.073,335.446 L905.782,334.602 L897.934,333.453 L891.229,332.598 L877.241,330.834 L848.65,327.231 L820.232,323.341 L806.078,321.441 L798.815,320.602 L791.859,319.754 L782.583,318.412 L774.065,317.142 L763.42,315.793 L754.889,314.664 L742.706,313.033 L734.97,312.044 L713.79,309.366 L706.471,308.458 L678.061,304.8 L664.014,302.849 L659.635,302.111 L640.712,299.648 L639.393,299.5 L637.91,299.286 L639.589,289.599 L639.616,289.271 L640.076,285.936 L641.436,275.791 L642.647,275.966 L643.984,276.114 L644.534,272.145 L647.032,254.785 L649.032,240.06 L650.346,230.221 L651.208,221.541 L652.654,211.276 L655.243,192.721 L658.908,166.041 L661.424,148.681 L663.892,130.293 L666.121,115.421 L666.518,114.824 L667.272,114.147 L668.832,113.306 L679.189,114.126 L682.806,114.066 L683.811,110.903 L685.21,100.265 L685.661,97.2345 L687.994,81.6341 L688.852,74.0535 L671.786,71.6063 L673.76,58.4726 L675.208,47.0619 L678.295,25.2407 L681.241,4.14875 L685.917,-29.1575 L686.118,-30.8944 L686.423,-33.3828 L686.711,-35.8474 L687.091,-38.8526 L688.878,-50.3435 L689.716,-56.7773 L690.603,-63.3529 L692.062,-74.3897 L692.96,-80.8413 L1232.99,-96.7641"/>
   <path fill-rule="evenodd" vector-effect="none" d="M692.96,-80.8413 L692.062,-74.3897 L690.603,-63.3529 L689.716,-56.7773 L688.878,-50.3435 L687.091,-38.8526 L686.711,-35.8474 L686.423,-33.3828 L686.118,-30.8944 L685.917,-29.1575 L681.241,4.14875 L678.295,25.2407 L675.208,47.0619 L673.76,58.4726 L671.786,71.6063 L688.852,74.0535 L687.994,81.6341 L685.661,97.2345 L685.21,100.265 L683.811,110.903 L682.806,114.066 L679.189,114.126 L668.832,113.306 L667.272,114.147 L666.518,114.824 L666.121,115.421 L663.892,130.293 L661.424,148.681 L658.908,166.041 L655.243,192.721 L652.654,211.276 L651.208,221.541 L650.346,230.221 L649.032,240.06 L647.032,254.785 L644.534,272.145 L643.984,276.114 L642.647,275.966 L641.436,275.791 L624.62,273.359 L611.986,271.67 L598.015,269.834 L583.693,268.334 L555.324,264.204 L526.628,260.622 L498.278,257.122 L484.262,254.981 L469.772,253.252 L435.281,248.457 L420.887,246.935 L406.463,244.969 L395.455,243.488 L385.385,242.051 L366.953,239.71 L346.849,236.857 L324.601,233.925 L314.012,232.572 L303.75,231.326 L285.687,224.343 L281.504,222.289 L274.103,207.978 L282.472,199.197 L298.237,186.622 L315.291,171.904 L343.163,124.381 L354.856,91.9011 L355.724,89.56 L367.049,54.3773 L371.89,33.9092 L372.401,31.6722 L372.639,29.9577 L374.198,18.5908 L374.945,14.5691 L376.673,6.51898 L381.186,-14.0565 L384.377,-28.7457 L369.85,-71.4022 L692.96,-80.8413"/>
   <path fill-rule="evenodd" vector-effect="none" d="M371.89,33.9092 L367.049,54.3773 L353.37,52.6 L352.304,52.4672 L351.112,52.3148 L350.082,52.181 L349.07,52.0467 L331.607,50.1454 L311.797,48.0081 L309.463,47.6081 L277.8,43.3354 L274.294,42.8758 L243.445,38.7192 L240.481,38.3374 L236.001,37.7657 L227.274,36.6623 L221.726,35.9344 L199.626,33.02 L163.934,28.2069 L159.05,27.4128 L115.358,21.731 L79.7752,16.9363 L45.7013,12.6586 L16.5147,8.68335 L-25.6057,3.13947 L-23.7429,-12.7736 L-23.9524,-13.7967 L-27.2968,-44.2258 L-28.2408,-51.9878 L-29.0754,-59.8391 L369.85,-71.4022 L384.377,-28.7457 L381.186,-14.0565 L376.673,6.51898 L374.945,14.5691 L374.198,18.5908 L372.639,29.9577 L372.401,31.6722 L371.89,33.9092"/>
   <path fill-rule="evenodd" vector-effect="none" d="M219.888,254.299 L172.713,323.712 L171.971,324.81 L170.836,325.427 L151.046,336.503 L132.743,346.718 L129.922,350.659 L127.853,349.456 L119.252,349.658 L110.09,349.104 L105.341,348.634 L97.8693,346.791 L92.4495,344.913 L75.5444,337.496 L22.293,313.421 L15.3686,310.557 L11.7471,309.843 L6.89442,309.515 L1.32646,309.98 L-5.24351,310.661 L-13.8726,312.36 L-24.1017,315.392 L-38.1019,320.638 L-46.2405,326.861 L-51.584,331.366 L-55.5612,335.177 L-58.6402,338.914 L-62.9629,345.729 L-66.0066,351.945 L-68.4528,357.653 L-70.1607,363.363 L-71.4365,370.323 L-72.9354,379.536 L-73.9696,389.881 L-74.0484,391.521 L-74.2651,395.246 L-75.7807,434.494 L-76.1668,444.212 L-77.3079,473.344 L-78.3231,478.73 L-87.2904,473.725 L-98.0336,468.327 L-117.218,458.622 L-130.732,-10.7035 L-115.79,-8.71605 L-100.087,-6.64217 L-81.3139,-4.18916 L-65.215,-2.10366 L-51.8248,-0.314459 L-25.6057,3.13947 L16.5147,8.68335 L45.7013,12.6586 L79.7752,16.9363 L115.358,21.731 L159.05,27.4128 L163.934,28.2069 L199.626,33.02 L221.726,35.9344 L227.274,36.6623 L236.001,37.7657 L240.481,38.3374 L243.445,38.7192 L274.294,42.8758 L277.8,43.3354 L309.463,47.6081 L311.797,48.0081 L331.607,50.1454 L349.07,52.0467 L350.082,52.181 L351.112,52.3148 L352.304,52.4672 L353.37,52.6 L367.049,54.3773 L355.724,89.56 L354.856,91.9011 L343.163,124.381 L315.291,171.904 L298.237,186.622 L282.472,199.197 L274.103,207.978 L247.537,227.439 L245.949,228.561 L244.672,229.838 L227.258,247.044 L219.888,254.299"/>
   <path fill-rule="evenodd" vector-effect="none" d="M627.522,374.98 L626.274,384.631 L624.704,396.209 L623.176,407.365 L619.548,435.377 L590.076,431.186 L580.914,430.074 L561.547,427.857 L552.472,426.625 L542.877,425.478 L533.05,424.385 L521.928,422.745 L513.543,421.703 L504.654,420.676 L494.561,419.123 L486.016,418.156 L476.156,417.18 L447.958,413.441 L412.87,408.686 L384.158,404.61 L354.242,400.592 L324.488,396.592 L291.689,393.124 L276.011,391.427 L262.942,389.678 L246.721,387.88 L237.286,395.335 L232.748,399.654 L228.958,403.085 L224.467,407.169 L219.203,410.667 L209.726,403.62 L191.875,390.313 L157.866,364.96 L152.015,362.487 L149.828,361.591 L147.23,360.777 L129.922,350.659 L132.743,346.718 L151.046,336.503 L170.836,325.427 L171.971,324.81 L172.713,323.712 L219.888,254.299 L227.258,247.044 L244.672,229.838 L245.949,228.561 L247.537,227.439 L274.103,207.978 L281.504,222.289 L285.687,224.343 L303.75,231.326 L314.012,232.572 L324.601,233.925 L346.849,236.857 L366.953,239.71 L385.385,242.051 L395.455,243.488 L406.463,244.969 L420.887,246.935 L435.281,248.457 L469.772,253.252 L484.262,254.981 L498.278,257.122 L526.628,260.622 L555.324,264.204 L583.693,268.334 L598.015,269.834 L611.986,271.67 L624.62,273.359 L641.436,275.791 L640.076,285.936 L639.616,289.271 L639.589,289.599 L637.91,299.286 L636.483,310.181 L634.86,319.936 L634.223,325.849 L633.893,328.736 L631.742,342.6 L628.545,366.249 L627.522,374.98"/>
   <path fill-rule="evenodd" vector-effect="none" d="M209.726,403.62 L219.203,410.667 L224.467,407.169 L228.958,403.085 L232.748,399.654 L237.286,395.335 L246.721,387.88 L262.942,389.678 L276.011,391.427 L291.689,393.124 L324.488,396.592 L354.242,400.592 L384.158,404.61 L412.87,408.686 L447.958,413.441 L476.156,417.18 L486.016,418.156 L494.561,419.123 L504.654,420.676 L513.543,421.703 L521.928,422.745 L533.05,424.385 L542.877,425.478 L552.472,426.625 L561.547,427.857 L580.914,430.074 L590.076,431.186 L619.548,435.377 L617.298,451.372 L615.515,461.857 L612.273,486.443 L607.266,522.729 L603.797,551.275 L599.764,580.234 L595.697,609.265 L591.737,637.661 L589.997,650.323 L493.719,653.135 L473.247,650.22 L462.599,648.8 L454.336,647.661 L444.65,646.516 L416.185,642.433 L381.432,637.597 L352.916,633.562 L322.966,629.778 L318.971,629.262 L293.327,625.54 L283.714,624.415 L274.725,623.086 L261.014,620.981 L260.146,620.866 L242.322,618.506 L231.926,617.1 L203.257,613.347 L189.086,611.536 L175.032,609.417 L165.285,608.015 L156.355,606.823 L146.646,605.49 L150.531,576.724 L154.475,548.119 L144.565,546.698 L135.523,545.346 L125.88,544.409 L116.523,542.785 L111.767,542.081 L107.264,541.416 L97.6127,540.198 L88.0103,538.791 L78.6091,537.496 L69.3054,536.455 L38.509,531.942 L33.7467,531.027 L33.6235,532.995 L32.0623,547.519 L30.517,560.102 L29.08,568.33 L28.8765,569.389 L28.6611,574.401 L29.0028,579.373 L29.6764,582.745 L30.5833,586.088 L30.8062,586.947 L31.6186,588.888 L32.2983,590.599 L32.8725,591.776 L29.5682,590.842 L26.3558,589.976 L19.6204,588.088 L17.8484,587.835 L-16.8813,579.341 L-44.1892,572.176 L-50.0594,572.181 L-57.7686,568.989 L-63.2623,568.936 L-93.1146,562.195 L-108.26,558.397 L-97.9224,544.696 L-92.9991,536.204 L-89.1097,528.7 L-87.1314,523.614 L-86.6363,521.424 L-85.485,516.385 L-85.0238,514.267 L-84.5222,511.679 L-78.3231,478.73 L-77.3079,473.344 L-76.1668,444.212 L-75.7807,434.494 L-74.2651,395.246 L-74.0484,391.521 L-73.9696,389.881 L-72.9354,379.536 L-71.4365,370.323 L-70.1607,363.363 L-68.4528,357.653 L-66.0066,351.945 L-62.9629,345.729 L-58.6402,338.914 L-55.5612,335.177 L-51.584,331.366 L-46.2405,326.861 L-38.1019,320.638 L-24.1017,315.392 L-13.8726,312.36 L-5.24351,310.661 L1.32646,309.98 L6.89442,309.515 L11.7471,309.843 L15.3686,310.557 L22.293,313.421 L75.5444,337.496 L92.4495,344.913 L97.8693,346.791 L105.341,348.634 L110.09,349.104 L119.252,349.658 L127.853,349.456 L129.922,350.659 L147.23,360.777 L149.828,361.591 L152.015,362.487 L157.866,364.96 L191.875,390.313 L209.726,403.62"/>
   <path fill-rule="evenodd" vector-effect="none" d="M150.531,576.724 L146.646,605.49 L156.355,606.823 L165.285,608.015 L175.032,609.417 L189.086,611.536 L203.257,613.347 L231.926,617.1 L242.322,618.506 L260.146,620.866 L261.014,620.981 L274.725,623.086 L283.714,624.415 L293.327,625.54 L318.971,629.262 L322.966,629.778 L352.916,633.562 L381.432,637.597 L416.185,642.433 L444.65,646.516 L454.336,647.661 L462.599,648.8 L473.247,650.22 L493.719,653.135 L-111.112,670.666 L-114.027,569.432 L-109.094,558.211 L-108.26,558.397 L-93.1146,562.195 L-63.2623,568.936 L-57.7686,568.989 L-50.0594,572.181 L-44.1892,572.176 L-16.8813,579.341 L17.8484,587.835 L19.6204,588.088 L26.3558,589.976 L29.5682,590.842 L32.8725,591.776 L32.2983,590.599 L31.6186,588.888 L30.8062,586.947 L30.5833,586.088 L29.6764,582.745 L29.0028,579.373 L28.6611,574.401 L28.8765,569.389 L29.08,568.33 L30.517,560.102 L32.0623,547.519 L33.6235,532.995 L33.7467,531.027 L38.509,531.942 L69.3054,536.455 L78.6091,537.496 L88.0103,538.791 L97.6127,540.198 L107.264,541.416 L111.767,542.081 L116.523,542.785 L125.88,544.409 L135.523,545.346 L144.565,546.698 L154.475,548.119 L150.531,576.724"/>
  </g>
  <g font-weight="400" stroke="#000000" stroke-linejoin="bevel" font-family="MS Shell Dlg 2" transform="matrix(1,0,0,1,0,85.5885)" fill="none" stroke-linecap="square" stroke-width="1" font-style="normal" font-size="7.5625" stroke-opacity="1"/>
  <g font-weight="400" stroke="#000000" stroke-linejoin="bevel" font-family="MS Shell Dlg 2" transform="matrix(2.59843,0,0,2.59843,0,85.5885)" fill="none" stroke-linecap="square" stroke-width="1" font-style="normal" font-size="7.5625" stroke-opacity="1"/>
  <g font-weight="400" stroke="#000000" stroke-linejoin="bevel" font-family="MS Shell Dlg 2" transform="matrix(2.59843,0,0,2.59843,0,85.5885)" fill="none" stroke-linecap="square" stroke-width="1" font-style="normal" font-size="7.5625" stroke-opacity="1"/>
  <g font-weight="400" stroke="#000000" stroke-linejoin="bevel" font-family="MS Shell Dlg 2" transform="matrix(2.59843,0,0,2.59843,0,85.5885)" fill="none" stroke-linecap="square" stroke-width="1" font-style="normal" font-size="7.5625" stroke-opacity="1"/>
  <g font-weight="400" stroke="#000000" stroke-linejoin="bevel" font-family="MS Shell Dlg 2" transform="matrix(1,0,0,1,0,0)" fill="none" stroke-linecap="square" stroke-width="1" font-style="normal" font-size="7.5625" stroke-opacity="1"/>
  <g font-weight="400" stroke="#000000" stroke-linejoin="bevel" font-family="MS Shell Dlg 2" transform="matrix(2.59843,0,0,2.59843,0,85.5885)" fill="none" stroke-linecap="square" stroke-width="1" font-style="normal" font-size="7.5625" stroke-opacity="1"/>
  <g font-weight="400" stroke="#000000" stroke-linejoin="bevel" font-family="MS Shell Dlg 2" transform="matrix(2.59843,0,0,2.59843,0,85.5885)" fill="none" stroke-linecap="square" stroke-width="1" font-style="normal" font-size="7.5625" stroke-opacity="1"/>
  <g font-weight="400" stroke="#000000" stroke-linejoin="bevel" font-family="MS Shell Dlg 2" transform="matrix(1,0,0,1,0,0)" fill="none" stroke-linecap="square" stroke-width="1" font-style="normal" font-size="7.5625" stroke-opacity="1"/>
 </g>
 <defs/>
 <g inkscape:groupmode="layer" stroke="black" stroke-linejoin="bevel" fill="none" stroke-linecap="square" stroke-width="1" inkscape:label="Map 1: Municipalities (atlas)" fill-rule="evenodd" id="Map 1: Municipalities (atlas)">
  <g font-weight="400" stroke="#000000" stroke-linejoin="bevel" font-family="MS Shell Dlg 2" transform="matrix(1,0,0,1,0,0)" fill="none" stroke-linecap="square" stroke-width="1" font-style="normal" font-size="7.5625" stroke-opacity="1"/>
  <g font-weight="400" stroke="#000000" stroke-linejoin="bevel" font-family="MS Shell Dlg 2" transform="matrix(1,0,0,1,0,0)" fill="none" stroke-linecap="square" stroke-width="1" font-style="normal" font-size="7.5625" stroke-opacity="1"/>
  <g font-weight="400" stroke="#000000" stroke-linejoin="bevel" font-family="MS Shell Dlg 2" transform="matrix(2.59843,0,0,2.59843,0,85.5885)" fill="none" stroke-linecap="square" stroke-width="1" font-style="normal" font-size="7.5625" stroke-opacity="1"/>
  <g font-weight="400" stroke="#000000" stroke-linejoin="bevel" font-family="MS Shell Dlg 2" transform="matrix(2.59843,0,0,2.59843,0,85.5885)" fill="none" stroke-linecap="square" stroke-width="1" font-style="normal" font-size="7.5625" stroke-opacity="1"/>
  <g font-weight="400" stroke="none" font-family="MS Shell Dlg 2" transform="matrix(1,0,0,1,0,85.5885)" fill="#000000" font-style="normal" fill-opacity="0" font-size="7.5625">
   <rect x="0" width="1122" y="0" height="574"/>
  </g>
  <g font-weight="400" stroke="#000000" stroke-linejoin="bevel" font-family="MS Shell Dlg 2" transform="matrix(1,0,0,1,0,85.5885)" fill="none" stroke-linecap="square" stroke-width="1" font-style="normal" font-size="7.5625" stroke-opacity="1"/>
  <g font-weight="400" stroke="#232323" stroke-linejoin="bevel" font-family="MS Shell Dlg 2" transform="matrix(1,0,0,1,0,85.5885)" fill="none" stroke-linecap="square" stroke-width="0.519685" font-style="normal" font-size="7.5625" stroke-opacity="0.0500038">
   <path fill-rule="evenodd" vector-effect="none" d="M-111.112,670.666 L-132.061,-56.8702 L1232.99,-96.7641 L1234.83,-34.5988 L1224.78,-14.8673 L1203.77,26.3402 L1202.76,30.1126 L1201.22,35.8425 L1196.11,54.8943 L1194.49,60.8839 L1193.89,63.1473 L1193.36,65.1514 L1193.16,65.8823 L1192.87,66.9436 L1192.61,67.9103 L1191.86,70.6459 L1188.56,83.0012 L1178.78,119.314 L1176.12,149.171 L1175.66,154.354 L1173.81,174.783 L1170.97,206.305 L1169.09,227.554 L1168.52,237.419 L1167.64,253.164 L1165.39,292.693 L1165.83,301.03 L1166.03,307.761 L1167.38,358.224 L1167.87,364.549 L1168.67,374.888 L1169.73,400.61 L1169.93,423.201 L1170.24,428.221 L1171.19,444.31 L1171.68,450.026 L1171.97,465.269 L1175.17,497.946 L1175.25,501.078 L1175.47,513.516 L1175.27,517.803 L1174.62,533.541 L1176.4,544.88 L1177.96,555.056 L1188.22,620.553 L1188.49,622.347 L1191.59,632.62 L-111.112,670.666"/>
  </g>
  <g font-weight="400" stroke="#000000" stroke-linejoin="bevel" font-family="MS Shell Dlg 2" transform="matrix(1,0,0,1,0,85.5885)" fill="none" stroke-linecap="square" stroke-width="1" font-style="normal" font-size="7.5625" stroke-opacity="1"/>
  <g font-weight="400" stroke="#000000" stroke-linejoin="bevel" font-family="MS Shell Dlg 2" transform="matrix(2.59843,0,0,2.59843,0,85.5885)" fill="none" stroke-linecap="square" stroke-width="1" font-style="normal" font-size="7.5625" stroke-opacity="1"/>
  <g font-weight="400" stroke="#000000" stroke-linejoin="bevel" font-family="MS Shell Dlg 2" transform="matrix(2.59843,0,0,2.59843,0,85.5885)" fill="none" stroke-linecap="square" stroke-width="1" font-style="normal" font-size="7.5625" stroke-opacity="1"/>
  <g font-weight="400" stroke="#000000" stroke-linejoin="bevel" font-family="MS Shell Dlg 2" transform="matrix(2.59843,0,0,2.59843,0,85.5885)" fill="none" stroke-linecap="square" stroke-width="1" font-style="normal" font-size="7.5625" stroke-opacity="1"/>
  <g font-weight="400" stroke="#000000" stroke-linejoin="bevel" font-family="MS Shell Dlg 2" transform="matrix(1,0,0,1,0,0)" fill="none" stroke-linecap="square" stroke-width="1" font-style="normal" font-size="7.5625" stroke-opacity="1"/>
  <g font-weight="400" stroke="#000000" stroke-linejoin="bevel" font-family="MS Shell Dlg 2" transform="matrix(2.59843,0,0,2.59843,0,85.5885)" fill="none" stroke-linecap="square" stroke-width="1" font-style="normal" font-size="7.5625" stroke-opacity="1"/>
  <g font-weight="400" stroke="#000000" stroke-linejoin="bevel" font-family="MS Shell Dlg 2" transform="matrix(2.59843,0,0,2.59843,0,85.5885)" fill="none" stroke-linecap="square" stroke-width="1" font-style="normal" font-size="7.5625" stroke-opacity="1"/>
  <g font-weight="400" stroke="#000000" stroke-linejoin="bevel" font-family="MS Shell Dlg 2" transform="matrix(1,0,0,1,0,0)" fill="none" stroke-linecap="square" stroke-width="1" font-style="normal" font-size="7.5625" stroke-opacity="1"/>
 </g>
 <defs/>
 <g inkscape:groupmode="layer" stroke="black" stroke-linejoin="bevel" fill="none" stroke-linecap="square" stroke-width="1" inkscape:label="Map 1: County Population" fill-rule="evenodd" id="Map 1: County Population">
  <g font-weight="400" stroke="#000000" stroke-linejoin="bevel" font-family="MS Shell Dlg 2" transform="matrix(1,0,0,1,0,0)" fill="none" stroke-linecap="square" stroke-width="1" font-style="normal" font-size="7.5625" stroke-opacity="1"/>
  <g font-weight="400" stroke="#000000" stroke-linejoin="bevel" font-family="MS Shell Dlg 2" transform="matrix(1,0,0,1,0,0)" fill="none" stroke-linecap="square" stroke-width="1" font-style="normal" font-size="7.5625" stroke-opacity="1"/>
  <g font-weight="400" stroke="#000000" stroke-linejoin="bevel" font-family="MS Shell Dlg 2" transform="matrix(2.59843,0,0,2.59843,0,85.5885)" fill="none" stroke-linecap="square" stroke-width="1" font-style="normal" font-size="7.5625" stroke-opacity="1"/>
  <g font-weight="400" stroke="#000000" stroke-linejoin="bevel" font-family="MS Shell Dlg 2" transform="matrix(2.59843,0,0,2.59843,0,85.5885)" fill="none" stroke-linecap="square" stroke-width="1" font-style="normal" font-size="7.5625" stroke-opacity="1"/>
  <g font-weight="400" stroke="none" font-family="MS Shell Dlg 2" transform="matrix(1,0,0,1,0,85.5885)" fill="#000000" font-style="normal" fill-opacity="0" font-size="7.5625">
   <rect x="0" width="1122" y="0" height="574"/>
  </g>
  <g font-weight="400" stroke="#000000" stroke-linejoin="bevel" font-family="MS Shell Dlg 2" transform="matrix(1,0,0,1,0,85.5885)" fill="none" stroke-linecap="square" stroke-width="1" font-style="normal" font-size="7.5625" stroke-opacity="1"/>
  <g font-weight="400" stroke="#232323" stroke-linejoin="bevel" font-family="MS Shell Dlg 2" transform="matrix(1,0,0,1,0,85.5885)" fill="none" stroke-linecap="square" stroke-width="2.59843" font-style="normal" font-size="7.5625" stroke-opacity="0.701961">
   <path fill-rule="evenodd" vector-effect="none" d="M-111.112,670.666 L-132.061,-56.8702 L1232.99,-96.7641 L1234.83,-34.5988 L1224.78,-14.8673 L1203.77,26.3402 L1202.76,30.1126 L1201.22,35.8425 L1196.11,54.8943 L1194.49,60.8839 L1193.89,63.1473 L1193.36,65.1514 L1193.16,65.8823 L1192.87,66.9436 L1192.61,67.9103 L1191.86,70.6459 L1188.56,83.0012 L1178.78,119.314 L1176.12,149.171 L1175.66,154.354 L1173.81,174.783 L1170.97,206.305 L1169.09,227.554 L1168.52,237.419 L1167.64,253.164 L1165.39,292.693 L1165.83,301.03 L1166.03,307.761 L1167.38,358.224 L1167.87,364.549 L1168.67,374.888 L1169.73,400.61 L1169.93,423.201 L1170.24,428.221 L1171.19,444.31 L1171.68,450.026 L1171.97,465.269 L1175.17,497.946 L1175.25,501.078 L1175.47,513.516 L1175.27,517.803 L1174.62,533.541 L1176.4,544.88 L1177.96,555.056 L1188.22,620.553 L1188.49,622.347 L1191.59,632.62 L-111.112,670.666"/>
  </g>
  <g font-weight="400" stroke="#000000" stroke-linejoin="bevel" font-family="MS Shell Dlg 2" transform="matrix(1,0,0,1,0,85.5885)" fill="none" stroke-linecap="square" stroke-width="1" font-style="normal" font-size="7.5625" stroke-opacity="1"/>
  <g font-weight="400" stroke="#000000" stroke-linejoin="bevel" font-family="MS Shell Dlg 2" transform="matrix(2.59843,0,0,2.59843,0,85.5885)" fill="none" stroke-linecap="square" stroke-width="1" font-style="normal" font-size="7.5625" stroke-opacity="1"/>
  <g font-weight="400" stroke="#000000" stroke-linejoin="bevel" font-family="MS Shell Dlg 2" transform="matrix(2.59843,0,0,2.59843,0,85.5885)" fill="none" stroke-linecap="square" stroke-width="1" font-style="normal" font-size="7.5625" stroke-opacity="1"/>
  <g font-weight="400" stroke="#000000" stroke-linejoin="bevel" font-family="MS Shell Dlg 2" transform="matrix(2.59843,0,0,2.59843,0,85.5885)" fill="none" stroke-linecap="square" stroke-width="1" font-style="normal" font-size="7.5625" stroke-opacity="1"/>
  <g font-weight="400" stroke="#000000" stroke-linejoin="bevel" font-family="MS Shell Dlg 2" transform="matrix(1,0,0,1,0,0)" fill="none" stroke-linecap="square" stroke-width="1" font-style="normal" font-size="7.5625" stroke-opacity="1"/>
  <g font-weight="400" stroke="#000000" stroke-linejoin="bevel" font-family="MS Shell Dlg 2" transform="matrix(2.59843,0,0,2.59843,0,85.5885)" fill="none" stroke-linecap="square" stroke-width="1" font-style="normal" font-size="7.5625" stroke-opacity="1"/>
  <g font-weight="400" stroke="#000000" stroke-linejoin="bevel" font-family="MS Shell Dlg 2" transform="matrix(2.59843,0,0,2.59843,0,85.5885)" fill="none" stroke-linecap="square" stroke-width="1" font-style="normal" font-size="7.5625" stroke-opacity="1"/>
  <g font-weight="400" stroke="#000000" stroke-linejoin="bevel" font-family="MS Shell Dlg 2" transform="matrix(1,0,0,1,0,0)" fill="none" stroke-linecap="square" stroke-width="1" font-style="normal" font-size="7.5625" stroke-opacity="1"/>
 </g>
 <defs/>
 <g inkscape:groupmode="layer" stroke="black" stroke-linejoin="bevel" fill="none" stroke-linecap="square" stroke-width="1" inkscape:label="Map 1: LRC-H-v2 (Labels)" fill-rule="evenodd" id="Map 1: LRC-H-v2 (Labels)">
  <g font-weight="400" stroke="#000000" stroke-linejoin="bevel" font-family="MS Shell Dlg 2" transform="matrix(1,0,0,1,0,0)" fill="none" stroke-linecap="square" stroke-width="1" font-style="normal" font-size="7.5625" stroke-opacity="1"/>
  <g font-weight="400" stroke="#000000" stroke-linejoin="bevel" font-family="MS Shell Dlg 2" transform="matrix(1,0,0,1,0,0)" fill="none" stroke-linecap="square" stroke-width="1" font-style="normal" font-size="7.5625" stroke-opacity="1"/>
  <g font-weight="400" stroke="#000000" stroke-linejoin="bevel" font-family="MS Shell Dlg 2" transform="matrix(2.59843,0,0,2.59843,0,85.5885)" fill="none" stroke-linecap="square" stroke-width="1" font-style="normal" font-size="7.5625" stroke-opacity="1"/>
  <g font-weight="400" stroke="#000000" stroke-linejoin="bevel" font-family="MS Shell Dlg 2" transform="matrix(2.59843,0,0,2.59843,0,85.5885)" fill="none" stroke-linecap="square" stroke-width="1" font-style="normal" font-size="7.5625" stroke-opacity="1"/>
  <g font-weight="400" stroke="none" font-family="MS Shell Dlg 2" transform="matrix(1,0,0,1,0,85.5885)" fill="#000000" font-style="normal" fill-opacity="0" font-size="7.5625">
   <rect x="0" width="1122" y="0" height="574"/>
  </g>
  <g font-weight="400" stroke="#000000" stroke-linejoin="bevel" font-family="MS Shell Dlg 2" transform="matrix(2.59843,0,0,2.59843,0,85.5885)" fill="none" stroke-linecap="square" stroke-width="1" font-style="normal" font-size="7.5625" stroke-opacity="1"/>
  <g font-weight="400" stroke="#000000" stroke-linejoin="bevel" font-family="MS Shell Dlg 2" transform="matrix(2.59843,0,0,2.59843,0,85.5885)" fill="none" stroke-linecap="square" stroke-width="1" font-style="normal" font-size="7.5625" stroke-opacity="1"/>
  <g font-weight="400" stroke="#000000" stroke-linejoin="bevel" font-family="MS Shell Dlg 2" transform="matrix(2.59843,0,0,2.59843,0,85.5885)" fill="none" stroke-linecap="square" stroke-width="1" font-style="normal" font-size="7.5625" stroke-opacity="1"/>
  <g font-weight="400" stroke="#000000" stroke-linejoin="bevel" font-family="MS Shell Dlg 2" transform="matrix(1,0,0,1,0,0)" fill="none" stroke-linecap="square" stroke-width="1" font-style="normal" font-size="7.5625" stroke-opacity="1"/>
  <g font-weight="400" stroke="#000000" stroke-linejoin="bevel" font-family="MS Shell Dlg 2" transform="matrix(2.59843,0,0,2.59843,0,85.5885)" fill="none" stroke-linecap="square" stroke-width="1" font-style="normal" font-size="7.5625" stroke-opacity="1"/>
  <g font-weight="400" stroke="#000000" stroke-linejoin="bevel" font-family="MS Shell Dlg 2" transform="matrix(2.59843,0,0,2.59843,0,85.5885)" fill="none" stroke-linecap="square" stroke-width="1" font-style="normal" font-size="7.5625" stroke-opacity="1"/>
  <g font-weight="400" stroke="#000000" stroke-linejoin="bevel" font-family="MS Shell Dlg 2" transform="matrix(1,0,0,1,0,0)" fill="none" stroke-linecap="square" stroke-width="1" font-style="normal" font-size="7.5625" stroke-opacity="1"/>
 </g>
 <defs/>
 <g inkscape:groupmode="layer" stroke="black" stroke-linejoin="bevel" fill="none" stroke-linecap="square" stroke-width="1" inkscape:label="Map 1: Pittsburgh (Labels)" fill-rule="evenodd" id="Map 1: Pittsburgh (Labels)">
  <g font-weight="400" stroke="#000000" stroke-linejoin="bevel" font-family="MS Shell Dlg 2" transform="matrix(1,0,0,1,0,0)" fill="none" stroke-linecap="square" stroke-width="1" font-style="normal" font-size="7.5625" stroke-opacity="1"/>
  <g font-weight="400" stroke="#000000" stroke-linejoin="bevel" font-family="MS Shell Dlg 2" transform="matrix(1,0,0,1,0,0)" fill="none" stroke-linecap="square" stroke-width="1" font-style="normal" font-size="7.5625" stroke-opacity="1"/>
  <g font-weight="400" stroke="#000000" stroke-linejoin="bevel" font-family="MS Shell Dlg 2" transform="matrix(2.59843,0,0,2.59843,0,85.5885)" fill="none" stroke-linecap="square" stroke-width="1" font-style="normal" font-size="7.5625" stroke-opacity="1"/>
  <g font-weight="400" stroke="#000000" stroke-linejoin="bevel" font-family="MS Shell Dlg 2" transform="matrix(2.59843,0,0,2.59843,0,85.5885)" fill="none" stroke-linecap="square" stroke-width="1" font-style="normal" font-size="7.5625" stroke-opacity="1"/>
  <g font-weight="400" stroke="none" font-family="MS Shell Dlg 2" transform="matrix(1,0,0,1,0,85.5885)" fill="#000000" font-style="normal" fill-opacity="0" font-size="7.5625">
   <rect x="0" width="1122" y="0" height="574"/>
  </g>
  <g font-weight="400" stroke="#000000" stroke-linejoin="bevel" font-family="MS Shell Dlg 2" transform="matrix(2.59843,0,0,2.59843,0,85.5885)" fill="none" stroke-linecap="square" stroke-width="1" font-style="normal" font-size="7.5625" stroke-opacity="1"/>
  <g font-weight="400" stroke="#000000" stroke-linejoin="bevel" font-family="MS Shell Dlg 2" transform="matrix(2.59843,0,0,2.59843,0,85.5885)" fill="none" stroke-linecap="square" stroke-width="1" font-style="normal" font-size="7.5625" stroke-opacity="1"/>
  <g font-weight="400" stroke="#000000" stroke-linejoin="bevel" font-family="MS Shell Dlg 2" transform="matrix(2.59843,0,0,2.59843,0,85.5885)" fill="none" stroke-linecap="square" stroke-width="1" font-style="normal" font-size="7.5625" stroke-opacity="1"/>
  <g font-weight="400" stroke="#000000" stroke-linejoin="bevel" font-family="MS Shell Dlg 2" transform="matrix(1,0,0,1,0,0)" fill="none" stroke-linecap="square" stroke-width="1" font-style="normal" font-size="7.5625" stroke-opacity="1"/>
  <g font-weight="400" stroke="#000000" stroke-linejoin="bevel" font-family="MS Shell Dlg 2" transform="matrix(2.59843,0,0,2.59843,0,85.5885)" fill="none" stroke-linecap="square" stroke-width="1" font-style="normal" font-size="7.5625" stroke-opacity="1"/>
  <g font-weight="400" stroke="#000000" stroke-linejoin="bevel" font-family="MS Shell Dlg 2" transform="matrix(2.59843,0,0,2.59843,0,85.5885)" fill="none" stroke-linecap="square" stroke-width="1" font-style="normal" font-size="7.5625" stroke-opacity="1"/>
  <g font-weight="400" stroke="#000000" stroke-linejoin="bevel" font-family="MS Shell Dlg 2" transform="matrix(1,0,0,1,0,0)" fill="none" stroke-linecap="square" stroke-width="1" font-style="normal" font-size="7.5625" stroke-opacity="1"/>
 </g>
 <defs/>
 <g inkscape:groupmode="layer" stroke="black" stroke-linejoin="bevel" fill="none" stroke-linecap="square" stroke-width="1" inkscape:label="Map 1: Municipalities (atlas) (Labels)" fill-rule="evenodd" id="Map 1: Municipalities (atlas) (Labels)">
  <g font-weight="400" stroke="#000000" stroke-linejoin="bevel" font-family="MS Shell Dlg 2" transform="matrix(1,0,0,1,0,0)" fill="none" stroke-linecap="square" stroke-width="1" font-style="normal" font-size="7.5625" stroke-opacity="1"/>
  <g font-weight="400" stroke="#000000" stroke-linejoin="bevel" font-family="MS Shell Dlg 2" transform="matrix(1,0,0,1,0,0)" fill="none" stroke-linecap="square" stroke-width="1" font-style="normal" font-size="7.5625" stroke-opacity="1"/>
  <g font-weight="400" stroke="#000000" stroke-linejoin="bevel" font-family="MS Shell Dlg 2" transform="matrix(2.59843,0,0,2.59843,0,85.5885)" fill="none" stroke-linecap="square" stroke-width="1" font-style="normal" font-size="7.5625" stroke-opacity="1"/>
  <g font-weight="400" stroke="#000000" stroke-linejoin="bevel" font-family="MS Shell Dlg 2" transform="matrix(2.59843,0,0,2.59843,0,85.5885)" fill="none" stroke-linecap="square" stroke-width="1" font-style="normal" font-size="7.5625" stroke-opacity="1"/>
  <g font-weight="400" stroke="none" font-family="MS Shell Dlg 2" transform="matrix(1,0,0,1,0,85.5885)" fill="#000000" font-style="normal" fill-opacity="0" font-size="7.5625">
   <rect x="0" width="1122" y="0" height="574"/>
  </g>
  <g font-weight="400" stroke="#000000" stroke-linejoin="bevel" font-family="MS Shell Dlg 2" transform="matrix(2.59843,0,0,2.59843,0,85.5885)" fill="none" stroke-linecap="square" stroke-width="1" font-style="normal" font-size="7.5625" stroke-opacity="1"/>
  <g font-weight="400" stroke="#000000" stroke-linejoin="bevel" font-family="MS Shell Dlg 2" transform="matrix(2.59843,0,0,2.59843,0,85.5885)" fill="none" stroke-linecap="square" stroke-width="1" font-style="normal" font-size="7.5625" stroke-opacity="1"/>
  <g font-weight="400" stroke="#000000" stroke-linejoin="bevel" font-family="MS Shell Dlg 2" transform="matrix(2.59843,0,0,2.59843,0,85.5885)" fill="none" stroke-linecap="square" stroke-width="1" font-style="normal" font-size="7.5625" stroke-opacity="1"/>
  <g font-weight="400" stroke="#000000" stroke-linejoin="bevel" font-family="MS Shell Dlg 2" transform="matrix(1,0,0,1,0,0)" fill="none" stroke-linecap="square" stroke-width="1" font-style="normal" font-size="7.5625" stroke-opacity="1"/>
  <g font-weight="400" stroke="#000000" stroke-linejoin="bevel" font-family="MS Shell Dlg 2" transform="matrix(2.59843,0,0,2.59843,0,85.5885)" fill="none" stroke-linecap="square" stroke-width="1" font-style="normal" font-size="7.5625" stroke-opacity="1"/>
  <g font-weight="400" stroke="#000000" stroke-linejoin="bevel" font-family="MS Shell Dlg 2" transform="matrix(2.59843,0,0,2.59843,0,85.5885)" fill="none" stroke-linecap="square" stroke-width="1" font-style="normal" font-size="7.5625" stroke-opacity="1"/>
  <g font-weight="400" stroke="#000000" stroke-linejoin="bevel" font-family="MS Shell Dlg 2" transform="matrix(1,0,0,1,0,0)" fill="none" stroke-linecap="square" stroke-width="1" font-style="normal" font-size="7.5625" stroke-opacity="1"/>
 </g>
 <defs/>
 <g inkscape:groupmode="layer" stroke="black" stroke-linejoin="bevel" fill="none" stroke-linecap="square" stroke-width="1" inkscape:label="Labels" fill-rule="evenodd" id="Labels">
  <g font-weight="400" stroke="#000000" stroke-linejoin="bevel" font-family="MS Shell Dlg 2" transform="matrix(1,0,0,1,0,0)" fill="none" stroke-linecap="square" stroke-width="1" font-style="normal" font-size="7.5625" stroke-opacity="1"/>
  <g font-weight="400" stroke="#000000" stroke-linejoin="bevel" font-family="MS Shell Dlg 2" transform="matrix(1,0,0,1,0,0)" fill="none" stroke-linecap="square" stroke-width="1" font-style="normal" font-size="7.5625" stroke-opacity="1"/>
  <g font-weight="400" stroke="#000000" stroke-linejoin="bevel" font-family="MS Shell Dlg 2" transform="matrix(2.59843,0,0,2.59843,652.129,7.79528)" fill="none" stroke-linecap="square" stroke-width="1" font-style="normal" font-size="7.5625" stroke-opacity="1"/>
  <g font-weight="400" stroke="#000000" stroke-linejoin="bevel" font-family="MS Shell Dlg 2" transform="matrix(1,0,0,1,652.129,7.79528)" fill="none" stroke-linecap="square" stroke-width="1" font-style="normal" font-size="7.5625" stroke-opacity="1"/>
  <g font-weight="400" stroke="#000000" stroke-linejoin="bevel" font-family="Franklin Gothic Heavy" transform="matrix(2.59843,0,0,2.59843,652.129,7.79528)" fill="none" stroke-linecap="square" stroke-width="1" font-style="normal" font-size="33" stroke-opacity="1"/>
  <g font-weight="400" stroke="#000000" stroke-linejoin="bevel" font-family="Franklin Gothic Heavy" transform="matrix(0.259843,0,0,0.259843,652.129,7.79528)" fill="none" stroke-linecap="square" stroke-width="1" font-style="normal" font-size="127" stroke-opacity="1">
   <text font-weight="400" stroke="none" font-family="Franklin Gothic Heavy" fill="#000000" x="611.406" y="205.688" font-style="normal" xml:space="preserve" fill-opacity="1" font-size="127">LRC-House Final</text>
  </g>
  <g font-weight="400" stroke="#000000" stroke-linejoin="bevel" font-family="Franklin Gothic Heavy" transform="matrix(2.59843,0,0,2.59843,652.129,7.79528)" fill="none" stroke-linecap="square" stroke-width="1" font-style="normal" font-size="33" stroke-opacity="1"/>
  <g font-weight="400" stroke="#000000" stroke-linejoin="bevel" font-family="MS Shell Dlg 2" transform="matrix(1,0,0,1,652.129,7.79528)" fill="none" stroke-linecap="square" stroke-width="1" font-style="normal" font-size="7.5625" stroke-opacity="1"/>
  <g font-weight="400" stroke="#000000" stroke-linejoin="bevel" font-family="MS Shell Dlg 2" transform="matrix(2.59843,0,0,2.59843,652.129,7.79528)" fill="none" stroke-linecap="square" stroke-width="1" font-style="normal" font-size="7.5625" stroke-opacity="1"/>
  <g font-weight="400" stroke="#000000" stroke-linejoin="bevel" font-family="MS Shell Dlg 2" transform="matrix(2.59843,0,0,2.59843,652.129,7.79528)" fill="none" stroke-linecap="square" stroke-width="1" font-style="normal" font-size="7.5625" stroke-opacity="1"/>
  <g font-weight="400" stroke="#000000" stroke-linejoin="bevel" font-family="MS Shell Dlg 2" transform="matrix(2.59843,0,0,2.59843,13.2208,3.4618e-15)" fill="none" stroke-linecap="square" stroke-width="1" font-style="normal" font-size="7.5625" stroke-opacity="1"/>
  <g font-weight="400" stroke="#000000" stroke-linejoin="bevel" font-family="MS Shell Dlg 2" transform="matrix(1,0,0,1,13.2208,3.4618e-15)" fill="none" stroke-linecap="square" stroke-width="1" font-style="normal" font-size="7.5625" stroke-opacity="1"/>
  <g font-weight="400" stroke="#000000" stroke-linejoin="bevel" font-family="MS Shell Dlg 2" transform="matrix(2.59843,0,0,2.59843,13.2208,3.4618e-15)" fill="none" stroke-linecap="square" stroke-width="1" font-style="normal" font-size="12.8333" stroke-opacity="1"/>
  <g font-weight="400" stroke="#000000" stroke-linejoin="bevel" font-family="MS Shell Dlg 2" transform="matrix(2.59843,0,0,2.59843,13.2208,3.4618e-15)" fill="none" stroke-linecap="square" stroke-width="1" font-style="normal" font-size="12.8333" stroke-opacity="1"/>
  <g font-weight="400" stroke="#000000" stroke-linejoin="bevel" font-family="MS Shell Dlg 2" transform="matrix(1,0,0,1,13.2208,3.4618e-15)" fill="none" stroke-linecap="square" stroke-width="1" font-style="normal" font-size="7.5625" stroke-opacity="1"/>
  <g font-weight="400" stroke="#000000" stroke-linejoin="bevel" font-family="MS Shell Dlg 2" transform="matrix(2.59843,0,0,2.59843,13.2208,3.4618e-15)" fill="none" stroke-linecap="square" stroke-width="1" font-style="normal" font-size="7.5625" stroke-opacity="1"/>
  <g font-weight="400" stroke="#000000" stroke-linejoin="bevel" font-family="MS Shell Dlg 2" transform="matrix(2.59843,0,0,2.59843,13.2208,3.4618e-15)" fill="none" stroke-linecap="square" stroke-width="1" font-style="normal" font-size="7.5625" stroke-opacity="1"/>
  <g font-weight="400" stroke="#000000" stroke-linejoin="bevel" font-family="MS Shell Dlg 2" transform="matrix(2.59843,0,0,2.59843,55.5276,20.5514)" fill="none" stroke-linecap="square" stroke-width="1" font-style="normal" font-size="7.5625" stroke-opacity="1"/>
  <g font-weight="400" stroke="#000000" stroke-linejoin="bevel" font-family="MS Shell Dlg 2" transform="matrix(2.59843,0,0,2.59843,55.5276,20.5514)" fill="none" stroke-linecap="square" stroke-width="1" font-style="normal" font-size="7.5625" stroke-opacity="1"/>
  <g font-weight="400" stroke="none" font-family="MS Shell Dlg 2" transform="matrix(2.59843,0,0,2.59843,55.5276,20.5514)" fill="#ffffff" font-style="normal" fill-opacity="0.701961" font-size="7.5625">
   <path fill-rule="evenodd" vector-effect="none" d="M0,0 L124.148,0 L124.148,30.0295 L0,30.0295 L0,0"/>
  </g>
  <g font-weight="400" stroke="#000000" stroke-linejoin="bevel" font-family="MS Shell Dlg 2" transform="matrix(2.59843,0,0,2.59843,55.5276,20.5514)" fill="none" stroke-linecap="square" stroke-width="1" font-style="normal" font-size="7.5625" stroke-opacity="1"/>
  <g font-weight="400" stroke="#000000" stroke-linejoin="bevel" font-family="MS Shell Dlg 2" transform="matrix(1,0,0,1,55.5276,20.5514)" fill="none" stroke-linecap="square" stroke-width="1" font-style="normal" font-size="7.5625" stroke-opacity="1"/>
  <g font-weight="400" stroke="#000000" stroke-linejoin="bevel" font-family="Franklin Gothic Book" transform="matrix(2.59843,0,0,2.59843,55.5276,20.5514)" fill="none" stroke-linecap="square" stroke-width="1" font-style="normal" font-size="15.5833" stroke-opacity="1"/>
  <g font-weight="400" stroke="#000000" stroke-linejoin="bevel" font-family="Franklin Gothic Book" transform="matrix(0.259843,0,0,0.259843,55.5276,20.5514)" fill="none" stroke-linecap="square" stroke-width="1" font-style="normal" font-size="60" stroke-opacity="1">
   <text font-weight="400" stroke="none" font-family="Franklin Gothic Book" fill="#000000" x="0" y="57" font-style="normal" xml:space="preserve" fill-opacity="1" font-size="60">District: 182</text>
   <text font-weight="400" stroke="none" font-family="Franklin Gothic Book" fill="#000000" x="0" y="132" font-style="normal" xml:space="preserve" fill-opacity="1" font-size="60">Total Population: 66,317</text>
   <text font-weight="400" stroke="none" font-family="Franklin Gothic Book" fill="#000000" x="0" y="207" font-style="normal" xml:space="preserve" fill-opacity="1" font-size="60">Deviation: 3.53</text>
  </g>
  <g font-weight="400" stroke="#000000" stroke-linejoin="bevel" font-family="Franklin Gothic Book" transform="matrix(2.59843,0,0,2.59843,55.5276,20.5514)" fill="none" stroke-linecap="square" stroke-width="1" font-style="normal" font-size="15.5833" stroke-opacity="1"/>
  <g font-weight="400" stroke="#000000" stroke-linejoin="bevel" font-family="MS Shell Dlg 2" transform="matrix(1,0,0,1,55.5276,20.5514)" fill="none" stroke-linecap="square" stroke-width="1" font-style="normal" font-size="7.5625" stroke-opacity="1"/>
  <g font-weight="400" stroke="#000000" stroke-linejoin="bevel" font-family="MS Shell Dlg 2" transform="matrix(2.59843,0,0,2.59843,55.5276,20.5514)" fill="none" stroke-linecap="square" stroke-width="1" font-style="normal" font-size="7.5625" stroke-opacity="1"/>
  <g font-weight="400" stroke="#000000" stroke-linejoin="bevel" font-family="MS Shell Dlg 2" transform="matrix(2.59843,0,0,2.59843,55.5276,20.5514)" fill="none" stroke-linecap="square" stroke-width="1" font-style="normal" font-size="7.5625" stroke-opacity="1"/>
  <g font-weight="400" stroke="#000000" stroke-linejoin="bevel" font-family="MS Shell Dlg 2" transform="matrix(2.59843,0,0,2.59843,853.616,23.1499)" fill="none" stroke-linecap="square" stroke-width="1" font-style="normal" font-size="7.5625" stroke-opacity="1"/>
  <g font-weight="400" stroke="#000000" stroke-linejoin="bevel" font-family="MS Shell Dlg 2" transform="matrix(1,0,0,1,853.616,23.1499)" fill="none" stroke-linecap="square" stroke-width="1" font-style="normal" font-size="7.5625" stroke-opacity="1"/>
  <g font-weight="400" stroke="#000000" stroke-linejoin="bevel" font-family="Franklin Gothic Heavy" transform="matrix(2.59843,0,0,2.59843,853.616,23.1499)" fill="none" stroke-linecap="square" stroke-width="1" font-style="normal" font-size="12.8333" stroke-opacity="1"/>
  <g font-weight="400" stroke="#000000" stroke-linejoin="bevel" font-family="Franklin Gothic Heavy" transform="matrix(0.259843,0,0,0.259843,853.616,23.1499)" fill="none" stroke-linecap="square" stroke-width="1" font-style="normal" font-size="49" stroke-opacity="1">
   <text font-weight="400" stroke="none" font-family="Franklin Gothic Heavy" fill="#000000" x="418.984" y="47" font-style="normal" xml:space="preserve" fill-opacity="1" font-size="49">February 4, 2022</text>
  </g>
  <g font-weight="400" stroke="#000000" stroke-linejoin="bevel" font-family="Franklin Gothic Heavy" transform="matrix(2.59843,0,0,2.59843,853.616,23.1499)" fill="none" stroke-linecap="square" stroke-width="1" font-style="normal" font-size="12.8333" stroke-opacity="1"/>
  <g font-weight="400" stroke="#000000" stroke-linejoin="bevel" font-family="MS Shell Dlg 2" transform="matrix(1,0,0,1,853.616,23.1499)" fill="none" stroke-linecap="square" stroke-width="1" font-style="normal" font-size="7.5625" stroke-opacity="1"/>
  <g font-weight="400" stroke="#000000" stroke-linejoin="bevel" font-family="MS Shell Dlg 2" transform="matrix(2.59843,0,0,2.59843,853.616,23.1499)" fill="none" stroke-linecap="square" stroke-width="1" font-style="normal" font-size="7.5625" stroke-opacity="1"/>
  <g font-weight="400" stroke="#000000" stroke-linejoin="bevel" font-family="MS Shell Dlg 2" transform="matrix(2.59843,0,0,2.59843,853.616,23.1499)" fill="none" stroke-linecap="square" stroke-width="1" font-style="normal" font-size="7.5625" stroke-opacity="1"/>
  <g font-weight="400" stroke="#000000" stroke-linejoin="bevel" font-family="MS Shell Dlg 2" transform="matrix(1,0,0,1,0,0)" fill="none" stroke-linecap="square" stroke-width="1" font-style="normal" font-size="7.5625" stroke-opacity="1"/>
 </g>
 <metadata>
  <rdf:RDF xmlns:rdfs="http://www.w3.org/2000/01/rdf-schema#" xmlns:rdf="http://www.w3.org/1999/02/22-rdf-syntax-ns#" xmlns:dc="http://purl.org/dc/elements/1.1/">
   <rdf:Description dc:identifier="" dc:description="" dc:format="image/svg+xml" dc:title="" dc:date="2021-11-02T16:52:40">
    <dc:creator>
     <rdf:Bag>
      <rdf:li>Jonathan Cervas</rdf:li>
     </rdf:Bag>
    </dc:creator>
    <dc:publisher>
     <rdf:Bag>
      <rdf:li>QGIS 3.20.1-Odense</rdf:li>
     </rdf:Bag>
    </dc:publisher>
    <dc:subject>
     <rdf:Bag/>
    </dc:subject>
   </rdf:Description>
   <cc:Work rdf:about="">
    <dc:format>image/svg+xml</dc:format>
    <dc:title></dc:title>
    <dc:date>2021-11-02T16:52:40</dc:date>
    <dc:identifier></dc:identifier>
    <dc:description></dc:description>
    <dc:creator>
     <cc:Agent>
      <dc:title>Jonathan Cervas</dc:title>
     </cc:Agent>
    </dc:creator>
    <dc:publisher>
     <cc:Agent>
      <dc:title>QGIS 3.20.1-Odense</dc:title>
     </cc:Agent>
    </dc:publisher>
   </cc:Work>
  </rdf:RDF>
 </metadata>
</svg>
