<?xml version='1.0' encoding='UTF-8' standalone='no'?>
<svg viewBox="0 0 1122 660" xmlns:inkscape="http://www.inkscape.org/namespaces/inkscape" xmlns:cc="http://creativecommons.org/ns#" baseProfile="tiny" width="431.8mm" xmlns:xlink="http://www.w3.org/1999/xlink" version="1.2" height="254mm" xmlns="http://www.w3.org/2000/svg">
 <defs/>
 <g inkscape:groupmode="layer" stroke="black" stroke-linejoin="bevel" fill="none" stroke-linecap="square" stroke-width="1" inkscape:label="Layer 1" fill-rule="evenodd" id="Layer 1">
  <g font-weight="400" stroke="#000000" stroke-linejoin="bevel" font-family="MS Shell Dlg 2" transform="matrix(1,0,0,1,0,0)" fill="none" stroke-linecap="square" stroke-width="1" font-style="normal" font-size="7.5625" stroke-opacity="1"/>
  <g font-weight="400" stroke="#000000" stroke-linejoin="bevel" font-family="MS Shell Dlg 2" transform="matrix(1,0,0,1,0,0)" fill="none" stroke-linecap="square" stroke-width="1" font-style="normal" font-size="7.5625" stroke-opacity="1"/>
  <g font-weight="400" stroke="#000000" stroke-linejoin="bevel" font-family="MS Shell Dlg 2" transform="matrix(2.59843,0,0,2.59843,0,0)" fill="none" stroke-linecap="square" stroke-width="1" font-style="normal" font-size="7.5625" stroke-opacity="1"/>
  <g font-weight="400" stroke="#000000" stroke-linejoin="bevel" font-family="MS Shell Dlg 2" transform="matrix(2.59843,0,0,2.59843,0,0)" fill="none" stroke-linecap="square" stroke-width="1" font-style="normal" font-size="7.5625" stroke-opacity="1"/>
  <g font-weight="400" stroke="#000000" stroke-linejoin="bevel" font-family="MS Shell Dlg 2" transform="matrix(1,0,0,1,0,0)" fill="none" stroke-linecap="square" stroke-width="1" font-style="normal" font-size="7.5625" stroke-opacity="1"/>
 </g>
 <defs/>
 <g inkscape:groupmode="layer" stroke="black" stroke-linejoin="bevel" fill="none" stroke-linecap="square" stroke-width="1" inkscape:label="Page" fill-rule="evenodd" id="Page">
  <g font-weight="400" stroke="#000000" stroke-linejoin="bevel" font-family="MS Shell Dlg 2" transform="matrix(1,0,0,1,0,0)" fill="none" stroke-linecap="square" stroke-width="1" font-style="normal" font-size="7.5625" stroke-opacity="1"/>
  <g font-weight="400" stroke="#000000" stroke-linejoin="bevel" font-family="MS Shell Dlg 2" transform="matrix(1,0,0,1,0,0)" fill="none" stroke-linecap="square" stroke-width="1" font-style="normal" font-size="7.5625" stroke-opacity="1"/>
  <g font-weight="400" stroke="#000000" stroke-linejoin="bevel" font-family="MS Shell Dlg 2" transform="matrix(2.59843,0,0,2.59843,0,0)" fill="none" stroke-linecap="square" stroke-width="1" font-style="normal" font-size="7.5625" stroke-opacity="1"/>
  <g font-weight="400" stroke="#000000" stroke-linejoin="bevel" font-family="MS Shell Dlg 2" transform="matrix(1,0,0,1,0,0)" fill="none" stroke-linecap="square" stroke-width="1" font-style="normal" font-size="7.5625" stroke-opacity="1"/>
  <g font-weight="400" stroke="none" font-family="MS Shell Dlg 2" transform="matrix(1,0,0,1,0,0)" fill="#ffffff" font-style="normal" fill-opacity="1" font-size="7.5625">
   <path fill-rule="evenodd" vector-effect="none" d="M-2,-2 L1124,-2 L1124,663 L-2,663 L-2,-2"/>
  </g>
  <g font-weight="400" stroke="#000000" stroke-linejoin="bevel" font-family="MS Shell Dlg 2" transform="matrix(1,0,0,1,0,0)" fill="none" stroke-linecap="square" stroke-width="1" font-style="normal" font-size="7.5625" stroke-opacity="1"/>
  <g font-weight="400" stroke="#000000" stroke-linejoin="bevel" font-family="MS Shell Dlg 2" transform="matrix(2.59843,0,0,2.59843,0,0)" fill="none" stroke-linecap="square" stroke-width="1" font-style="normal" font-size="7.5625" stroke-opacity="1"/>
  <g font-weight="400" stroke="#000000" stroke-linejoin="bevel" font-family="MS Shell Dlg 2" transform="matrix(2.59843,0,0,2.59843,0,0)" fill="none" stroke-linecap="square" stroke-width="1" font-style="normal" font-size="7.5625" stroke-opacity="1"/>
  <g font-weight="400" stroke="#000000" stroke-linejoin="bevel" font-family="MS Shell Dlg 2" transform="matrix(1,0,0,1,0,0)" fill="none" stroke-linecap="square" stroke-width="1" font-style="normal" font-size="7.5625" stroke-opacity="1"/>
 </g>
 <defs/>
 <g inkscape:groupmode="layer" stroke="black" stroke-linejoin="bevel" fill="none" stroke-linecap="square" stroke-width="1" inkscape:label="Map 1: Background" fill-rule="evenodd" id="Map 1: Background">
  <g font-weight="400" stroke="#000000" stroke-linejoin="bevel" font-family="MS Shell Dlg 2" transform="matrix(1,0,0,1,0,0)" fill="none" stroke-linecap="square" stroke-width="1" font-style="normal" font-size="7.5625" stroke-opacity="1"/>
  <g font-weight="400" stroke="#000000" stroke-linejoin="bevel" font-family="MS Shell Dlg 2" transform="matrix(1,0,0,1,0,0)" fill="none" stroke-linecap="square" stroke-width="1" font-style="normal" font-size="7.5625" stroke-opacity="1"/>
  <g font-weight="400" stroke="#000000" stroke-linejoin="bevel" font-family="MS Shell Dlg 2" transform="matrix(2.59843,0,0,2.59843,0,85.5885)" fill="none" stroke-linecap="square" stroke-width="1" font-style="normal" font-size="7.5625" stroke-opacity="1"/>
  <g font-weight="400" stroke="none" font-family="MS Shell Dlg 2" transform="matrix(2.59843,0,0,2.59843,0,85.5885)" fill="#ffffff" font-style="normal" fill-opacity="1" font-size="7.5625">
   <path fill-rule="evenodd" vector-effect="none" d="M0,0 L431.8,0 L431.8,221.061 L0,221.061 L0,0"/>
  </g>
  <g font-weight="400" stroke="#000000" stroke-linejoin="bevel" font-family="MS Shell Dlg 2" transform="matrix(2.59843,0,0,2.59843,0,85.5885)" fill="none" stroke-linecap="square" stroke-width="1" font-style="normal" font-size="7.5625" stroke-opacity="1"/>
  <g font-weight="400" stroke="#000000" stroke-linejoin="bevel" font-family="MS Shell Dlg 2" transform="matrix(2.59843,0,0,2.59843,0,85.5885)" fill="none" stroke-linecap="square" stroke-width="1" font-style="normal" font-size="7.5625" stroke-opacity="1"/>
  <g font-weight="400" stroke="#000000" stroke-linejoin="bevel" font-family="MS Shell Dlg 2" transform="matrix(2.59843,0,0,2.59843,0,85.5885)" fill="none" stroke-linecap="square" stroke-width="1" font-style="normal" font-size="7.5625" stroke-opacity="1"/>
  <g font-weight="400" stroke="#000000" stroke-linejoin="bevel" font-family="MS Shell Dlg 2" transform="matrix(2.59843,0,0,2.59843,0,85.5885)" fill="none" stroke-linecap="square" stroke-width="1" font-style="normal" font-size="7.5625" stroke-opacity="1"/>
  <g font-weight="400" stroke="#000000" stroke-linejoin="bevel" font-family="MS Shell Dlg 2" transform="matrix(1,0,0,1,0,0)" fill="none" stroke-linecap="square" stroke-width="1" font-style="normal" font-size="7.5625" stroke-opacity="1"/>
  <g font-weight="400" stroke="#000000" stroke-linejoin="bevel" font-family="MS Shell Dlg 2" transform="matrix(2.59843,0,0,2.59843,0,85.5885)" fill="none" stroke-linecap="square" stroke-width="1" font-style="normal" font-size="7.5625" stroke-opacity="1"/>
  <g font-weight="400" stroke="#000000" stroke-linejoin="bevel" font-family="MS Shell Dlg 2" transform="matrix(2.59843,0,0,2.59843,0,85.5885)" fill="none" stroke-linecap="square" stroke-width="1" font-style="normal" font-size="7.5625" stroke-opacity="1"/>
  <g font-weight="400" stroke="#000000" stroke-linejoin="bevel" font-family="MS Shell Dlg 2" transform="matrix(1,0,0,1,0,0)" fill="none" stroke-linecap="square" stroke-width="1" font-style="normal" font-size="7.5625" stroke-opacity="1"/>
 </g>
 <defs/>
 <g inkscape:groupmode="layer" stroke="black" stroke-linejoin="bevel" fill="none" stroke-linecap="square" stroke-width="1" inkscape:label="Map 1: LRC-H-v2" fill-rule="evenodd" id="Map 1: LRC-H-v2">
  <g font-weight="400" stroke="#000000" stroke-linejoin="bevel" font-family="MS Shell Dlg 2" transform="matrix(1,0,0,1,0,0)" fill="none" stroke-linecap="square" stroke-width="1" font-style="normal" font-size="7.5625" stroke-opacity="1"/>
  <g font-weight="400" stroke="#000000" stroke-linejoin="bevel" font-family="MS Shell Dlg 2" transform="matrix(1,0,0,1,0,0)" fill="none" stroke-linecap="square" stroke-width="1" font-style="normal" font-size="7.5625" stroke-opacity="1"/>
  <g font-weight="400" stroke="#000000" stroke-linejoin="bevel" font-family="MS Shell Dlg 2" transform="matrix(2.59843,0,0,2.59843,0,85.5885)" fill="none" stroke-linecap="square" stroke-width="1" font-style="normal" font-size="7.5625" stroke-opacity="1"/>
  <g font-weight="400" stroke="#000000" stroke-linejoin="bevel" font-family="MS Shell Dlg 2" transform="matrix(2.59843,0,0,2.59843,0,85.5885)" fill="none" stroke-linecap="square" stroke-width="1" font-style="normal" font-size="7.5625" stroke-opacity="1"/>
  <g font-weight="400" stroke="none" font-family="MS Shell Dlg 2" transform="matrix(1,0,0,1,0,85.5885)" fill="#000000" font-style="normal" fill-opacity="0" font-size="7.5625">
   <rect x="0" width="1122" y="0" height="574"/>
  </g>
  <g font-weight="400" stroke="#000000" stroke-linejoin="bevel" font-family="MS Shell Dlg 2" transform="matrix(1,0,0,1,0,85.5885)" fill="none" stroke-linecap="square" stroke-width="1" font-style="normal" font-size="7.5625" stroke-opacity="1"/>
  <g font-weight="400" stroke="#232323" stroke-linejoin="bevel" font-family="MS Shell Dlg 2" transform="matrix(1,0,0,1,0,85.5885)" fill="#ffffff" stroke-linecap="square" stroke-width="0.675591" font-style="normal" fill-opacity="0.189807" font-size="7.5625" stroke-opacity="0.0603952">
   <path fill-rule="evenodd" vector-effect="none" d="M-132.832,-56.8361 L82.064,-63.2798 L80.2201,-61.6035 L76.4006,-58.7141 L72.6763,-55.511 L68.9224,-52.3443 L65.1381,-49.2326 L61.3527,-46.158 L57.5238,-43.1008 L53.6806,-40.0432 L50.5497,-37.5657 L49.9764,-37.1202 L49.7796,-37.0025 L47.2506,-34.9713 L45.9924,-33.9839 L42.1338,-30.963 L38.2459,-27.96 L34.3866,-24.9578 L30.5274,-21.9557 L26.64,-18.9341 L22.751,-15.9683 L18.8625,-12.9839 L17.7433,-12.131 L14.9745,-9.98092 L11.8716,-7.52291 L11.13,-6.96065 L7.35975,-3.8495 L4.17933,-1.10987 L3.63459,-0.665244 L2.85406,0.0285345 L2.30988,0.491769 L-0.0603163,2.57396 L-3.71235,5.81187 L-7.39301,9.05062 L-11.1331,12.2167 L-14.9326,15.31 L-18.315,17.9998 L-18.7619,18.367 L-22.6963,21.2595 L-26.6164,24.1515 L-29.752,26.4801 L-30.0097,26.9533 L-30.4297,27.2639 L-34.3207,30.1737 L-38.1198,33.2855 L-41.9332,36.3978 L-45.7317,39.5282 L-48.4402,41.7881 L-49.5155,42.6769 L-51.6929,44.5111 L-53.2712,45.806 L-57.0549,48.9546 L-60.7958,52.1019 L-64.5653,55.25 L-68.3508,58.3427 L-72.2089,61.4004 L-75.847,64.6377 L-79.2035,68.2017 L-82.3679,71.9647 L-82.7961,72.4803 L-85.4598,75.7629 L-88.5517,79.561 L-91.6574,83.3782 L-94.6178,87.2655 L-97.3874,91.3146 L-99.8798,95.5417 L-102.154,99.8739 L-104.342,104.259 L-106.427,108.698 L-108.44,113.171 L-109.938,116.661 L-113.717,128.133 L-114.282,129.807 L-114.983,131.727 L-115.359,131.105 L-127.467,122.594 L-132.832,-56.8361"/>
   <path fill-rule="evenodd" vector-effect="none" d="M761.184,-72.1146 L757.311,-66.8007 L755.224,-63.9064 L743.317,-47.6021 L735.137,-36.1977 L731.151,-30.8245 L728.115,-26.2439 L725.798,-21.4991 L724.527,-19.0767 L723.994,-17.7942 L723.276,-16.0218 L720.719,-7.91778 L720.561,-6.9819 L719.288,0.989733 L718.717,8.53022 L718.698,14.9365 L718.729,18.2688 L718.45,25.0556 L717.557,46.4229 L717.498,47.2999 L717.236,53.2295 L716.743,64.2498 L714.191,74.8862 L710.572,83.8233 L709.733,85.8787 L702.512,96.8439 L701.562,98.0647 L673.916,133.806 L671.783,132.381 L670.95,131.829 L668.671,130.297 L652.939,119.4 L643.256,112.563 L638.441,109.079 L633.54,105.579 L628.85,102.426 L623.645,98.8046 L618.644,94.8417 L614.227,91.7363 L591.257,74.8206 L570.239,59.9307 L555.479,49.8964 L540.082,39.1364 L538.931,38.9293 L538.072,38.4341 L534.377,35.9768 L529.16,32.4298 L523.68,28.7047 L519.56,25.9251 L515.346,22.8876 L511.39,20.3079 L506.23,16.7591 L501.986,13.6667 L494.865,8.66918 L477.436,-3.53812 L466.048,-11.4786 L456.852,-17.8844 L448.242,-23.8611 L422.784,-41.8028 L422.012,-42.7476 L396.549,-60.3918 L384.279,-69.1256 L379.813,-72.2684 L741.725,-83.2887 L742.804,-82.5946 L743.146,-82.1768 L748.028,-78.8253 L753.335,-75.1331 L754.676,-72.0085 L761.184,-72.1146"/>
   <path fill-rule="evenodd" vector-effect="none" d="M1232.88,-98.4104 L1253.67,572.622 L1246.7,575.152 L1226.17,582.622 L1184.21,602.505 L1179.3,603.532 L1163.28,606.913 L1161.93,607.179 L1141.5,611.497 L1121.23,615.754 L1072.63,631.22 L1059.08,636.757 L943.285,640.322 L929.349,616.227 L926.96,612.073 L899.054,564.012 L892.872,553.829 L891.017,550.777 L889.395,548.294 L883.71,539.865 L883.441,539.483 L874.923,525.499 L874.354,524.697 L866.384,511.757 L863.77,507.759 L860.242,501.965 L854.147,492.282 L834.691,506.249 L828.338,497.505 L821.679,488.101 L815.075,479.048 L814.46,478.136 L835.736,462.81 L829.682,453.052 L823.989,443.879 L823.541,443.259 L824.323,442.621 L838.765,432.29 L832.635,422.367 L844.532,413.995 L846.04,412.757 L875.693,391.531 L869.009,382.239 L862.31,372.892 L855.551,363.472 L848.837,354.144 L842.124,344.816 L835.437,335.412 L826.722,323.333 L816.926,309.63 L825.579,303.313 L837.536,294.604 L848.237,286.511 L858.759,279.075 L870.291,271.011 L861.104,264.552 L845.774,253.794 L821.559,237.069 L820.419,236.304 L805.662,226.03 L797.955,220.68 L796.303,219.538 L774.296,204.31 L769.207,200.76 L750.854,187.988 L727.222,171.561 L715.782,163.438 L705.132,155.905 L704.025,154.803 L691.077,146.018 L677.217,135.995 L674.281,134.037 L673.916,133.806 L701.562,98.0647 L702.512,96.8439 L709.733,85.8787 L710.572,83.8233 L714.191,74.8862 L716.743,64.2498 L717.236,53.2295 L717.498,47.2999 L717.557,46.4229 L718.45,25.0556 L718.729,18.2688 L718.698,14.9365 L718.717,8.53022 L719.288,0.989733 L720.561,-6.9819 L720.719,-7.91778 L723.276,-16.0218 L723.994,-17.7942 L724.527,-19.0767 L725.798,-21.4991 L728.115,-26.2439 L731.151,-30.8245 L735.137,-36.1977 L743.317,-47.6021 L755.224,-63.9064 L757.311,-66.8007 L761.184,-72.1146 L764.624,-77.527 L766.257,-79.346 L769.796,-84.1478 L941.009,-89.4012 L939.918,-87.2254 L952.721,-80.8223 L963.786,-75.1293 L964.786,-76.1284 L966.027,-76.7066 L967.546,-77.1072 L969.651,-77.0416 L981.704,-75.9974 L998.949,-74.5358 L998.957,-57.5533 L1030.58,-63.1457 L1043.98,-65.365 L1036.14,-92.3303 L1232.88,-98.4104"/>
   <path fill-rule="evenodd" vector-effect="none" d="M459.515,655.098 L457.392,646.766 L438.352,652.985 L433.149,637.222 L429.728,626.861 L426.857,617.656 L425.807,616.552 L420.288,610.649 L416.214,605.67 L414.899,603.382 L407.195,592.927 L406.806,591.896 L403.994,587.941 L399.26,581.008 L391.731,570.194 L391.127,569.635 L385.949,563.628 L401.963,552.101 L399.663,548.967 L397.167,545.486 L392.214,538.412 L380.339,522.124 L363.379,537.851 L362.835,531.723 L363.556,522.912 L360.568,522.574 L353.058,521.833 L350.631,521.552 L348.521,520.909 L346.718,519.511 L330.814,507.255 L316.437,496.219 L306.664,489.737 L289.747,513.078 L278.786,505.663 L271.106,515.41 L260.238,529.09 L256.702,534.28 L255.317,537.264 L254.31,539.957 L252.127,541.14 L245.671,550.646 L225.216,537.446 L224.081,536.847 L217.022,532.051 L198.254,520.197 L181.995,509.384 L165.677,496.636 L172.64,486.818 L173.345,485.996 L181.24,474.827 L189.595,462.788 L197.979,450.767 L206.372,439.043 L214.631,427.156 L231.799,403.604 L237.202,395.75 L241.024,392.413 L238.342,390.353 L236.593,388.357 L239.165,386.809 L243.715,384.344 L244.603,383.889 L246.307,382.962 L247.621,383.835 L248.313,384.447 L249.298,385.311 L251.001,386.731 L253.555,388.832 L254.909,389.592 L265.803,397.196 L276.386,404.436 L302.252,422.406 L303.132,421.225 L305.777,417.327 L308.97,412.631 L309.501,411.722 L315.177,403.45 L321.762,393.977 L330.961,380.105 L337.733,370.217 L343.65,374.154 L349.058,377.863 L359.565,384.956 L381.764,400 L396.529,410.111 L404.137,415.076 L443.128,441.415 L488.552,472.121 L500.843,468.153 L524.826,462.638 L529.022,461.766 L560.09,455.272 L564.073,454.443 L565.168,454.205 L565.751,454.094 L567.628,453.683 L567.608,454.428 L567.526,456.907 L567.445,459.424 L568.453,460.082 L570.114,461.968 L576.466,470.787 L580.355,476.255 L584.091,481.411 L592.284,492.837 L600.391,504.247 L603.917,509.093 L607.147,513.613 L610.227,517.914 L613.903,522.96 L620.671,532.25 L627.272,541.676 L634,551.042 L640.754,560.333 L650.817,553.248 L659.683,546.814 L668.058,540.711 L695.519,521.084 L698.967,525.69 L702.274,530.375 L705.558,534.781 L709.002,539.722 L733.587,522.044 L756.602,505.512 L749.8,496.074 L743.173,486.761 L768.695,468.402 L775.382,477.824 L776.032,478.456 L782.136,487.077 L785.634,491.905 L788.937,496.459 L796.055,506.353 L821.679,488.101 L828.338,497.505 L834.691,506.249 L854.147,492.282 L860.242,501.965 L863.77,507.759 L866.384,511.757 L874.354,524.697 L874.923,525.499 L883.441,539.483 L883.71,539.865 L889.395,548.294 L891.017,550.777 L892.872,553.829 L899.054,564.012 L926.96,612.073 L929.349,616.227 L943.285,640.322 L459.515,655.098"/>
   <path fill-rule="evenodd" vector-effect="none" d="M-123.372,259.534 L-119.911,256.468 L-81.0823,221.043 L-80.7348,220.698 L-74.1884,214.673 L-61.915,203.468 L-34.2443,222.75 L-10.323,238.68 L12.9061,254.891 L69.5498,291.363 L70.6002,292.021 L78.5114,297.127 L80.4822,298.409 L83.044,300.305 L118.044,326.142 L120.09,327.532 L136.484,338.64 L160.899,355.129 L181.281,368.853 L197.736,380.051 L202.814,383.716 L208.206,387.352 L213.673,391.134 L220.061,395.523 L222.139,397.49 L225.169,395.462 L229.999,392.336 L236.593,388.357 L238.342,390.353 L241.024,392.413 L237.202,395.75 L231.799,403.604 L214.631,427.156 L206.372,439.043 L197.979,450.767 L189.595,462.788 L181.24,474.827 L173.345,485.996 L172.64,486.818 L165.677,496.636 L181.995,509.384 L198.254,520.197 L217.022,532.051 L224.081,536.847 L225.216,537.446 L245.671,550.646 L252.127,541.14 L254.31,539.957 L255.317,537.264 L256.702,534.28 L260.238,529.09 L271.106,515.41 L278.786,505.663 L289.747,513.078 L306.664,489.737 L316.437,496.219 L330.814,507.255 L346.718,519.511 L348.521,520.909 L350.631,521.552 L353.058,521.833 L360.568,522.574 L363.556,522.912 L362.835,531.723 L363.379,537.851 L380.339,522.124 L392.214,538.412 L397.167,545.486 L399.663,548.967 L401.963,552.101 L385.949,563.628 L391.127,569.635 L391.731,570.194 L399.26,581.008 L403.994,587.941 L406.806,591.896 L407.195,592.927 L414.899,603.382 L416.214,605.67 L420.288,610.649 L425.807,616.552 L426.857,617.656 L429.728,626.861 L433.149,637.222 L438.352,652.985 L457.392,646.766 L459.515,655.098 L-111.031,672.287 L-113.936,575.143 L-111.362,571.558 L-110.932,570.614 L-113.164,570.178 L-114.089,570.002 L-123.372,259.534"/>
  </g>
  <g font-weight="400" stroke="none" font-family="MS Shell Dlg 2" transform="matrix(1,0,0,1,0,85.5885)" fill="#ffb81c" font-style="normal" fill-opacity="0.901961" font-size="7.5625">
   <path fill-rule="evenodd" vector-effect="none" d="M501.986,13.6667 L506.23,16.7591 L511.39,20.3079 L515.346,22.8876 L519.56,25.9251 L523.68,28.7047 L529.16,32.4298 L534.377,35.9768 L538.072,38.4341 L538.931,38.9293 L540.082,39.1364 L555.479,49.8964 L570.239,59.9307 L591.257,74.8206 L614.227,91.7363 L618.644,94.8417 L623.645,98.8046 L628.85,102.426 L633.54,105.579 L638.441,109.079 L643.256,112.563 L652.939,119.4 L668.671,130.297 L670.95,131.829 L671.783,132.381 L673.916,133.806 L674.281,134.037 L677.217,135.995 L691.077,146.018 L704.025,154.803 L705.132,155.905 L715.782,163.438 L727.222,171.561 L750.854,187.988 L769.207,200.76 L774.296,204.31 L796.303,219.538 L797.955,220.68 L805.662,226.03 L820.419,236.304 L821.559,237.069 L845.774,253.794 L861.104,264.552 L870.291,271.011 L858.759,279.075 L848.237,286.511 L837.536,294.604 L825.579,303.313 L816.926,309.63 L826.722,323.333 L835.437,335.412 L842.124,344.816 L848.837,354.144 L855.551,363.472 L862.31,372.892 L869.009,382.239 L875.693,391.531 L846.04,412.757 L844.532,413.995 L832.635,422.367 L838.765,432.29 L824.323,442.621 L823.541,443.259 L823.989,443.879 L829.682,453.052 L835.736,462.81 L814.46,478.136 L815.075,479.048 L821.679,488.101 L796.055,506.353 L788.937,496.459 L785.634,491.905 L782.136,487.077 L776.032,478.456 L775.382,477.824 L768.695,468.402 L743.173,486.761 L749.8,496.074 L756.602,505.512 L733.587,522.044 L709.002,539.722 L705.558,534.781 L702.274,530.375 L698.967,525.69 L695.519,521.084 L668.058,540.711 L659.683,546.814 L650.817,553.248 L640.754,560.333 L634,551.042 L627.272,541.676 L620.671,532.25 L613.903,522.96 L610.227,517.914 L607.147,513.613 L603.917,509.093 L600.391,504.247 L592.284,492.837 L584.091,481.411 L580.355,476.255 L576.466,470.787 L570.114,461.968 L568.453,460.082 L567.445,459.424 L567.526,456.907 L567.608,454.428 L567.628,453.683 L565.751,454.094 L565.168,454.205 L564.073,454.443 L560.09,455.272 L529.022,461.766 L524.826,462.638 L500.843,468.153 L488.552,472.121 L443.128,441.415 L404.137,415.076 L396.529,410.111 L381.764,400 L359.565,384.956 L349.058,377.863 L343.65,374.154 L337.733,370.217 L330.961,380.105 L321.762,393.977 L315.177,403.45 L309.501,411.722 L308.97,412.631 L305.777,417.327 L303.132,421.225 L302.252,422.406 L276.386,404.436 L265.803,397.196 L254.909,389.592 L253.555,388.832 L251.001,386.731 L249.298,385.311 L248.313,384.447 L247.621,383.835 L246.307,382.962 L251.974,380.072 L254.161,379.019 L252.056,375.21 L253.436,372.561 L255.497,368.29 L264.354,354.895 L270.506,345.79 L280.687,331.255 L286.49,322.924 L291.706,315.541 L297.144,307.91 L302.358,299.987 L307.178,292.784 L312.838,284.941 L316.802,279.235 L319.5,275.205 L320.669,273.624 L322.14,271.625 L324.315,268.3 L329.504,260.527 L332.679,256.185 L335.135,252.685 L337.863,248.71 L340.382,245.375 L346.327,236.574 L351.71,228.571 L354.191,224.977 L356.491,221.5 L362.184,213.357 L367.715,205.555 L372.962,198.283 L378.707,189.487 L386.875,178.011 L395.113,166.011 L403.141,154.186 L411.454,142.798 L419.32,130.828 L427.634,118.975 L435.561,108.102 L443.585,96.6108 L451.992,84.1028 L460.43,72.1338 L468.63,60.3396 L476.9,48.5246 L485.113,36.6926 L493.126,25.835 L501.986,13.6667"/>
  </g>
  <g font-weight="400" stroke="#232323" stroke-linejoin="bevel" font-family="MS Shell Dlg 2" transform="matrix(1,0,0,1,0,85.5885)" fill="#ffffff" stroke-linecap="square" stroke-width="0.675591" font-style="normal" fill-opacity="0.189807" font-size="7.5625" stroke-opacity="0.0603952">
   <path fill-rule="evenodd" vector-effect="none" d="M379.813,-72.2684 L384.279,-69.1256 L396.549,-60.3918 L422.012,-42.7476 L422.784,-41.8028 L448.242,-23.8611 L456.852,-17.8844 L466.048,-11.4786 L477.436,-3.53812 L494.865,8.66918 L501.986,13.6667 L493.126,25.835 L485.113,36.6926 L476.9,48.5246 L468.63,60.3396 L460.43,72.1338 L451.992,84.1028 L443.585,96.6108 L435.561,108.102 L427.634,118.975 L419.32,130.828 L411.454,142.798 L403.141,154.186 L395.113,166.011 L386.875,178.011 L378.707,189.487 L372.962,198.283 L367.715,205.555 L362.184,213.357 L356.491,221.5 L354.191,224.977 L351.71,228.571 L346.327,236.574 L340.382,245.375 L337.863,248.71 L335.135,252.685 L332.679,256.185 L329.504,260.527 L324.315,268.3 L322.14,271.625 L320.669,273.624 L319.5,275.205 L316.802,279.235 L312.838,284.941 L307.178,292.784 L302.358,299.987 L297.144,307.91 L291.706,315.541 L286.49,322.924 L280.687,331.255 L270.506,345.79 L264.354,354.895 L255.497,368.29 L253.436,372.561 L252.056,375.21 L254.161,379.019 L251.974,380.072 L246.307,382.962 L244.603,383.889 L243.715,384.344 L239.165,386.809 L236.593,388.357 L229.999,392.336 L225.169,395.462 L222.139,397.49 L220.061,395.523 L213.673,391.134 L208.206,387.352 L202.814,383.716 L197.736,380.051 L181.281,368.853 L160.899,355.129 L136.484,338.64 L120.09,327.532 L118.044,326.142 L83.044,300.305 L80.4822,298.409 L78.5114,297.127 L70.6002,292.021 L69.5498,291.363 L12.9061,254.891 L-10.323,238.68 L-34.2443,222.75 L-61.915,203.468 L-74.1884,214.673 L-80.7348,220.698 L-81.0823,221.043 L-119.911,256.468 L-123.372,259.534 L-127.467,122.594 L-115.359,131.105 L-114.983,131.727 L-114.282,129.807 L-113.717,128.133 L-109.938,116.661 L-108.44,113.171 L-106.427,108.698 L-104.342,104.259 L-102.154,99.8739 L-99.8798,95.5417 L-97.3874,91.3146 L-94.6178,87.2655 L-91.6574,83.3782 L-88.5517,79.561 L-85.4598,75.7629 L-82.7961,72.4803 L-82.3679,71.9647 L-79.2035,68.2017 L-75.847,64.6377 L-72.2089,61.4004 L-68.3508,58.3427 L-64.5653,55.25 L-60.7958,52.1019 L-57.0549,48.9546 L-53.2712,45.806 L-51.6929,44.5111 L-49.5155,42.6769 L-48.4402,41.7881 L-45.7317,39.5282 L-41.9332,36.3978 L-38.1198,33.2855 L-34.3207,30.1737 L-30.4297,27.2639 L-30.0097,26.9533 L-29.752,26.4801 L-26.6164,24.1515 L-22.6963,21.2595 L-18.7619,18.367 L-18.315,17.9998 L-14.9326,15.31 L-11.1331,12.2167 L-7.39301,9.05062 L-3.71235,5.81187 L-0.0603163,2.57396 L2.30988,0.491769 L2.85406,0.0285345 L3.63459,-0.665244 L4.17933,-1.10987 L7.35975,-3.8495 L11.13,-6.96065 L11.8716,-7.52291 L14.9745,-9.98092 L17.7433,-12.131 L18.8625,-12.9839 L22.751,-15.9683 L26.64,-18.9341 L30.5274,-21.9557 L34.3866,-24.9578 L38.2459,-27.96 L42.1338,-30.963 L45.9924,-33.9839 L47.2506,-34.9713 L49.7796,-37.0025 L49.9764,-37.1202 L50.5497,-37.5657 L53.6806,-40.0432 L57.5238,-43.1008 L61.3527,-46.158 L65.1381,-49.2326 L68.9224,-52.3443 L72.6763,-55.511 L76.4006,-58.7141 L80.2201,-61.6035 L82.064,-63.2798 L379.813,-72.2684"/>
  </g>
  <g font-weight="400" stroke="#000000" stroke-linejoin="bevel" font-family="MS Shell Dlg 2" transform="matrix(1,0,0,1,0,85.5885)" fill="none" stroke-linecap="square" stroke-width="1" font-style="normal" font-size="7.5625" stroke-opacity="1"/>
  <g font-weight="400" stroke="#000000" stroke-linejoin="bevel" font-family="MS Shell Dlg 2" transform="matrix(2.59843,0,0,2.59843,0,85.5885)" fill="none" stroke-linecap="square" stroke-width="1" font-style="normal" font-size="7.5625" stroke-opacity="1"/>
  <g font-weight="400" stroke="#000000" stroke-linejoin="bevel" font-family="MS Shell Dlg 2" transform="matrix(2.59843,0,0,2.59843,0,85.5885)" fill="none" stroke-linecap="square" stroke-width="1" font-style="normal" font-size="7.5625" stroke-opacity="1"/>
  <g font-weight="400" stroke="#000000" stroke-linejoin="bevel" font-family="MS Shell Dlg 2" transform="matrix(2.59843,0,0,2.59843,0,85.5885)" fill="none" stroke-linecap="square" stroke-width="1" font-style="normal" font-size="7.5625" stroke-opacity="1"/>
  <g font-weight="400" stroke="#000000" stroke-linejoin="bevel" font-family="MS Shell Dlg 2" transform="matrix(1,0,0,1,0,0)" fill="none" stroke-linecap="square" stroke-width="1" font-style="normal" font-size="7.5625" stroke-opacity="1"/>
  <g font-weight="400" stroke="#000000" stroke-linejoin="bevel" font-family="MS Shell Dlg 2" transform="matrix(2.59843,0,0,2.59843,0,85.5885)" fill="none" stroke-linecap="square" stroke-width="1" font-style="normal" font-size="7.5625" stroke-opacity="1"/>
  <g font-weight="400" stroke="#000000" stroke-linejoin="bevel" font-family="MS Shell Dlg 2" transform="matrix(2.59843,0,0,2.59843,0,85.5885)" fill="none" stroke-linecap="square" stroke-width="1" font-style="normal" font-size="7.5625" stroke-opacity="1"/>
  <g font-weight="400" stroke="#000000" stroke-linejoin="bevel" font-family="MS Shell Dlg 2" transform="matrix(1,0,0,1,0,0)" fill="none" stroke-linecap="square" stroke-width="1" font-style="normal" font-size="7.5625" stroke-opacity="1"/>
 </g>
 <defs/>
 <g inkscape:groupmode="layer" stroke="black" stroke-linejoin="bevel" fill="none" stroke-linecap="square" stroke-width="1" inkscape:label="Map 1: Pittsburgh" fill-rule="evenodd" id="Map 1: Pittsburgh">
  <g font-weight="400" stroke="#000000" stroke-linejoin="bevel" font-family="MS Shell Dlg 2" transform="matrix(1,0,0,1,0,0)" fill="none" stroke-linecap="square" stroke-width="1" font-style="normal" font-size="7.5625" stroke-opacity="1"/>
  <g font-weight="400" stroke="#000000" stroke-linejoin="bevel" font-family="MS Shell Dlg 2" transform="matrix(1,0,0,1,0,0)" fill="none" stroke-linecap="square" stroke-width="1" font-style="normal" font-size="7.5625" stroke-opacity="1"/>
  <g font-weight="400" stroke="#000000" stroke-linejoin="bevel" font-family="MS Shell Dlg 2" transform="matrix(2.59843,0,0,2.59843,0,85.5885)" fill="none" stroke-linecap="square" stroke-width="1" font-style="normal" font-size="7.5625" stroke-opacity="1"/>
  <g font-weight="400" stroke="#000000" stroke-linejoin="bevel" font-family="MS Shell Dlg 2" transform="matrix(2.59843,0,0,2.59843,0,85.5885)" fill="none" stroke-linecap="square" stroke-width="1" font-style="normal" font-size="7.5625" stroke-opacity="1"/>
  <g font-weight="400" stroke="none" font-family="MS Shell Dlg 2" transform="matrix(1,0,0,1,0,85.5885)" fill="#000000" font-style="normal" fill-opacity="0" font-size="7.5625">
   <rect x="0" width="1122" y="0" height="574"/>
  </g>
  <g font-weight="400" stroke="#000000" stroke-linejoin="bevel" font-family="MS Shell Dlg 2" transform="matrix(1,0,0,1,0,85.5885)" fill="none" stroke-linecap="square" stroke-width="1" font-style="normal" font-size="7.5625" stroke-opacity="1"/>
  <g font-weight="400" stroke="#000000" stroke-linejoin="bevel" font-family="MS Shell Dlg 2" transform="matrix(1,0,0,1,0,85.5885)" fill="none" stroke-linecap="square" stroke-width="1" font-style="normal" font-size="7.5625" stroke-opacity="1"/>
  <g font-weight="400" stroke="#000000" stroke-linejoin="bevel" font-family="MS Shell Dlg 2" transform="matrix(2.59843,0,0,2.59843,0,85.5885)" fill="none" stroke-linecap="square" stroke-width="1" font-style="normal" font-size="7.5625" stroke-opacity="1"/>
  <g font-weight="400" stroke="#000000" stroke-linejoin="bevel" font-family="MS Shell Dlg 2" transform="matrix(2.59843,0,0,2.59843,0,85.5885)" fill="none" stroke-linecap="square" stroke-width="1" font-style="normal" font-size="7.5625" stroke-opacity="1"/>
  <g font-weight="400" stroke="#000000" stroke-linejoin="bevel" font-family="MS Shell Dlg 2" transform="matrix(2.59843,0,0,2.59843,0,85.5885)" fill="none" stroke-linecap="square" stroke-width="1" font-style="normal" font-size="7.5625" stroke-opacity="1"/>
  <g font-weight="400" stroke="#000000" stroke-linejoin="bevel" font-family="MS Shell Dlg 2" transform="matrix(1,0,0,1,0,0)" fill="none" stroke-linecap="square" stroke-width="1" font-style="normal" font-size="7.5625" stroke-opacity="1"/>
  <g font-weight="400" stroke="#000000" stroke-linejoin="bevel" font-family="MS Shell Dlg 2" transform="matrix(2.59843,0,0,2.59843,0,85.5885)" fill="none" stroke-linecap="square" stroke-width="1" font-style="normal" font-size="7.5625" stroke-opacity="1"/>
  <g font-weight="400" stroke="#000000" stroke-linejoin="bevel" font-family="MS Shell Dlg 2" transform="matrix(2.59843,0,0,2.59843,0,85.5885)" fill="none" stroke-linecap="square" stroke-width="1" font-style="normal" font-size="7.5625" stroke-opacity="1"/>
  <g font-weight="400" stroke="#000000" stroke-linejoin="bevel" font-family="MS Shell Dlg 2" transform="matrix(1,0,0,1,0,0)" fill="none" stroke-linecap="square" stroke-width="1" font-style="normal" font-size="7.5625" stroke-opacity="1"/>
 </g>
 <defs/>
 <g inkscape:groupmode="layer" stroke="black" stroke-linejoin="bevel" fill="none" stroke-linecap="square" stroke-width="1" inkscape:label="Map 1: WP_Wards_reallocated (atlas)" fill-rule="evenodd" id="Map 1: WP_Wards_reallocated (atlas)">
  <g font-weight="400" stroke="#000000" stroke-linejoin="bevel" font-family="MS Shell Dlg 2" transform="matrix(1,0,0,1,0,0)" fill="none" stroke-linecap="square" stroke-width="1" font-style="normal" font-size="7.5625" stroke-opacity="1"/>
  <g font-weight="400" stroke="#000000" stroke-linejoin="bevel" font-family="MS Shell Dlg 2" transform="matrix(1,0,0,1,0,0)" fill="none" stroke-linecap="square" stroke-width="1" font-style="normal" font-size="7.5625" stroke-opacity="1"/>
  <g font-weight="400" stroke="#000000" stroke-linejoin="bevel" font-family="MS Shell Dlg 2" transform="matrix(2.59843,0,0,2.59843,0,85.5885)" fill="none" stroke-linecap="square" stroke-width="1" font-style="normal" font-size="7.5625" stroke-opacity="1"/>
  <g font-weight="400" stroke="#000000" stroke-linejoin="bevel" font-family="MS Shell Dlg 2" transform="matrix(2.59843,0,0,2.59843,0,85.5885)" fill="none" stroke-linecap="square" stroke-width="1" font-style="normal" font-size="7.5625" stroke-opacity="1"/>
  <g font-weight="400" stroke="none" font-family="MS Shell Dlg 2" transform="matrix(1,0,0,1,0,85.5885)" fill="#000000" font-style="normal" fill-opacity="0" font-size="7.5625">
   <rect x="0" width="1122" y="0" height="574"/>
  </g>
  <g font-weight="400" stroke="#000000" stroke-linejoin="bevel" font-family="MS Shell Dlg 2" transform="matrix(1,0,0,1,0,85.5885)" fill="none" stroke-linecap="square" stroke-width="1" font-style="normal" font-size="7.5625" stroke-opacity="1"/>
  <g stroke-dasharray="2.07874,1.03937" font-weight="400" stroke="#232323" stroke-linejoin="bevel" font-family="MS Shell Dlg 2" stroke-dashoffset="0" transform="matrix(1,0,0,1,0,85.5885)" fill="none" stroke-linecap="square" stroke-width="0.519685" font-style="normal" font-size="7.5625" stroke-opacity="0.0599985">
   <path fill-rule="evenodd" vector-effect="none" d="M-132.832,-56.8361 L82.064,-63.2798 L80.2201,-61.6035 L76.4006,-58.7141 L72.6763,-55.511 L68.9224,-52.3443 L65.1381,-49.2326 L61.3527,-46.158 L57.5238,-43.1008 L53.6806,-40.0432 L50.5497,-37.5657 L49.9764,-37.1202 L49.7796,-37.0025 L47.2506,-34.9713 L45.9924,-33.9839 L42.1338,-30.963 L38.2459,-27.96 L34.3866,-24.9578 L30.5274,-21.9557 L26.64,-18.9341 L22.751,-15.9683 L18.8625,-12.9839 L17.7433,-12.131 L14.9745,-9.98092 L11.8716,-7.52291 L11.13,-6.96065 L7.35975,-3.8495 L4.17933,-1.10987 L3.63459,-0.665244 L2.85406,0.0285345 L2.30988,0.491769 L-0.0603163,2.57396 L-3.71235,5.81187 L-7.39301,9.05062 L-11.1331,12.2167 L-14.9326,15.31 L-18.315,17.9998 L-18.7619,18.367 L-22.6963,21.2595 L-26.6164,24.1515 L-29.752,26.4801 L-30.0097,26.9533 L-30.4297,27.2639 L-34.3207,30.1737 L-38.1198,33.2855 L-41.9332,36.3978 L-45.7317,39.5282 L-48.4402,41.7881 L-49.5155,42.6769 L-51.6929,44.5111 L-53.2712,45.806 L-57.0549,48.9546 L-60.7958,52.1019 L-64.5653,55.25 L-68.3508,58.3427 L-72.2089,61.4004 L-75.847,64.6377 L-79.2035,68.2017 L-82.3679,71.9647 L-82.7961,72.4803 L-85.4598,75.7629 L-88.5517,79.561 L-91.6574,83.3782 L-94.6178,87.2655 L-97.3874,91.3146 L-99.8798,95.5417 L-102.154,99.8739 L-104.342,104.259 L-106.427,108.698 L-108.44,113.171 L-109.938,116.661 L-113.717,128.133 L-114.282,129.807 L-114.983,131.727 L-115.359,131.105 L-127.467,122.594 L-132.832,-56.8361"/>
   <path fill-rule="evenodd" vector-effect="none" d="M240.719,456.759 L245.901,483.323 L249.348,500.314 L251.084,508.026 L253.945,524.531 L254.262,534.074 L254.31,539.957 L255.246,552.442 L255.347,556.759 L257.641,558.291 L268.169,565.105 L280.405,573.004 L287.896,577.861 L288.944,578.425 L300.862,586.239 L313.75,594.36 L333.272,606.934 L354.087,620.14 L364.927,627.298 L375.982,634.449 L386.712,641.274 L391.086,644.363 L392.418,650.523 L394.653,657.065 L-68.1366,671.003 L-69.4359,669.889 L-71.082,667.033 L-72.0516,663.338 L-72.3075,658.616 L-72.0336,655.33 L-71.0276,651.632 L-69.7199,648.446 L-67.4545,644.728 L-64.3809,642.663 L-61.8667,641.042 L-59.0911,639.543 L-55.7456,637.954 L-52.8413,636.451 L-50.4216,635.02 L-48.3191,633.039 L-46.9422,631.21 L-46.1699,629.269 L-45.6841,627.802 L-45.5413,627.313 L-45.1294,626.724 L-44.4306,625.679 L-42.4037,624.519 L-39.6358,623.245 L-35.3832,622.782 L-31.7929,622.674 L-27.5346,622.882 L-24.1431,622.352 L-21.0369,620.9 L-19.336,618.894 L-18.76,616.139 L-18.4579,610.935 L-17.5565,606.141 L-17.1728,602.703 L-17.1154,601.751 L-16.5253,599.946 L-16.184,598.912 L-15.7105,598.469 L-15.3733,595.871 L-14.6093,594.135 L-12.922,592.632 L-11.9208,591.168 L-11.7797,589.19 L-12.2551,586.225 L-14.2773,579.898 L-16.9646,573.35 L-18.1851,569.886 L-19.2076,566.341 L-20.7809,564.005 L-23.138,561.785 L-25.0279,559.868 L-26.4074,557.786 L-27.5128,555.771 L-27.0028,553.205 L-27.2573,550.922 L-28.7861,548.156 L-30.8707,546.431 L-33.2055,544.955 L-35.9231,543.603 L-38.3581,543.08 L-40.6853,544.249 L-41.6287,545.729 L-41.9357,548.383 L-42.5123,551.119 L-43.7554,553.111 L-45.4112,554.706 L-48.2039,555.628 L-52.1101,556.173 L-54.812,555.826 L-57.6267,553.62 L-60.3755,551.225 L-62.5187,549.93 L-64.4374,548.963 L-66.6765,548.77 L-68.9916,549.863 L-71.1716,551.642 L-74.219,552.664 L-78.8254,553.733 L-83.1968,556.433 L-83.6882,557.714 L-83.3083,561.8 L-84.8039,563.967 L-88.2477,567.049 L-90.2203,569.064 L-92.7995,570.426 L-97.2837,571.752 L-102.216,572.458 L-105.52,572.072 L-108.094,571.218 L-110.932,570.614 L-113.164,570.178 L-114.089,570.002 L-117.246,464.43 L-114.135,463.025 L-74.7873,445.201 L-63.1737,440.086 L-58.9493,438.228 L-50.0115,434.105 L-44.8307,431.678 L-37.3262,428.456 L-34.0938,427.409 L-33.144,427.101 L-28.2818,425.987 L-23.0366,425.234 L-15.4657,425.659 L-11.6458,426.066 L-7.81051,426.509 L-2.35478,428.003 L2.752,430.271 L10.3896,434.827 L20.5114,442.977 L22.7994,444.808 L46.6643,463.942 L66.4252,479.865 L76.9857,484.966 L83.1426,486.439 L89.3013,487.017 L95.6477,486.696 L101.36,485.276 L107.184,483.314 L109.084,482.232 L114.151,479.343 L117.411,476.842 L126.003,470.253 L132.775,465.077 L142.892,457.324 L153.526,449.183 L165.574,439.975 L167.057,438.85 L173.682,433.996 L183.596,426.174 L198.067,415.701 L217.761,400.415 L222.139,397.49 L225.169,395.462 L229.999,392.336 L236.593,388.357 L239.165,386.809 L243.715,384.344 L244.603,383.889 L246.307,382.962 L246.456,384.112 L246.366,385.399 L245.778,389.141 L245.138,393.09 L242.119,410.219 L240.438,424.217 L238.327,442.977 L240.719,456.759"/>
   <path fill-rule="evenodd" vector-effect="none" d="M191.55,113.155 L186.81,128.735 L177.993,151.011 L178.09,155.663 L178.454,157.272 L181.53,170.55 L182.204,173.434 L183.621,179.611 L183.801,180.35 L187.536,195.544 L188.037,198.378 L190.287,210.358 L190.794,211.982 L190.925,213.467 L191.303,216.994 L191.252,221.465 L190.792,225.203 L190.718,225.615 L189.011,234.008 L186.778,248.246 L184.937,264.093 L184.9,264.317 L185.375,269.628 L195.004,295.594 L197.462,301.181 L198.662,303.472 L199.422,304.92 L202.446,312.668 L207.785,323.587 L209.314,327.749 L236.425,350.561 L240.057,357.081 L242.583,361.567 L243.962,372.158 L245.258,378.096 L246.307,382.962 L244.603,383.889 L243.715,384.344 L239.165,386.809 L236.593,388.357 L229.999,392.336 L225.169,395.462 L222.139,397.49 L217.761,400.415 L198.067,415.701 L183.596,426.174 L173.682,433.996 L167.057,438.85 L165.574,439.975 L153.526,449.183 L142.892,457.324 L132.775,465.077 L126.003,470.253 L117.411,476.842 L114.151,479.343 L109.084,482.232 L107.184,483.314 L101.36,485.276 L95.6477,486.696 L89.3013,487.017 L83.1426,486.439 L76.9857,484.966 L66.4252,479.865 L46.6643,463.942 L22.7994,444.808 L20.5114,442.977 L10.3896,434.827 L2.752,430.271 L-2.35478,428.003 L-7.81051,426.509 L-11.6458,426.066 L-15.4657,425.659 L-23.0366,425.234 L-28.2818,425.987 L-33.144,427.101 L-34.0938,427.409 L-37.3262,428.456 L-44.8307,431.678 L-50.0115,434.105 L-58.9493,438.228 L-63.1737,440.086 L-74.7873,445.201 L-114.135,463.025 L-117.246,464.43 L-127.467,122.594 L-115.359,131.105 L-114.983,131.727 L-114.282,129.807 L-113.717,128.133 L-109.938,116.661 L-108.44,113.171 L-106.427,108.698 L-104.342,104.259 L-102.154,99.8739 L-99.8798,95.5417 L-97.3874,91.3146 L-94.6178,87.2655 L-91.6574,83.3782 L-88.5517,79.561 L-85.4598,75.7629 L-82.7961,72.4803 L-82.3679,71.9647 L-79.2035,68.2017 L-75.847,64.6377 L-72.2089,61.4004 L-68.3508,58.3427 L-64.5653,55.25 L-60.7958,52.1019 L-57.0549,48.9546 L-53.2712,45.806 L-51.6929,44.5111 L-49.5155,42.6769 L-48.4402,41.7881 L-45.7317,39.5282 L-41.9332,36.3978 L-38.1198,33.2855 L-34.3207,30.1737 L-30.4297,27.2639 L-30.0097,26.9533 L-29.752,26.4801 L-26.6164,24.1515 L-22.6963,21.2595 L-18.7619,18.367 L-18.315,17.9998 L-14.9326,15.31 L-11.1331,12.2167 L-7.39301,9.05062 L-3.71235,5.81187 L-0.0603163,2.57396 L2.30988,0.491769 L2.85406,0.0285345 L3.63459,-0.665244 L4.17933,-1.10987 L7.35975,-3.8495 L11.13,-6.96065 L11.8716,-7.52291 L14.9745,-9.98092 L17.7433,-12.131 L18.8625,-12.9839 L22.751,-15.9683 L26.64,-18.9341 L30.5274,-21.9557 L34.3866,-24.9578 L38.2459,-27.96 L42.1338,-30.963 L45.9924,-33.9839 L47.2506,-34.9713 L49.7796,-37.0025 L49.9764,-37.1202 L50.5497,-37.5657 L53.6806,-40.0432 L57.5238,-43.1008 L61.3527,-46.158 L65.1381,-49.2326 L68.9224,-52.3443 L72.6763,-55.511 L76.4006,-58.7141 L80.2201,-61.6035 L82.064,-63.2798 L217.271,-67.3528 L217.25,-56.7186 L217.061,-37.8311 L210.457,-26.7012 L207.545,-22.2001 L205.786,-19.298 L204.992,-17.6354 L204.22,-13.8134 L204.353,-9.42284 L204.372,-6.42541 L207.427,3.79852 L217.014,27.9402 L214.977,43.9041 L209.35,57.5742 L204.214,71.3599 L195.618,100.016 L191.55,113.155"/>
   <path fill-rule="evenodd" vector-effect="none" d="M909.86,438.972 L916.115,447.793 L922.842,457.065 L929.543,466.449 L936.316,475.812 L939.844,481.122 L944.656,488.665 L944.001,489.244 L937.416,494.847 L934.115,520.646 L940.273,516.527 L952.229,509.121 L956.372,506.535 L956.672,507.439 L960.684,514.056 L961.934,515.135 L963.085,516.254 L966.423,518.2 L967.408,520.907 L967.909,522.269 L969.408,526.339 L969.623,527.729 L970.27,529.236 L974.532,536.069 L979.636,544.217 L989.151,560.33 L1002.19,573.56 L1004.12,576.74 L1005.49,576.679 L1006.51,576.909 L1007.06,577.935 L1025.56,637.79 L515.18,653.407 L519.198,650.456 L526.258,645.325 L534.361,639.66 L538.928,636.374 L542.263,633.964 L552.624,626.293 L554.51,622.4 L556.228,620.969 L570.972,610.54 L590.08,596.737 L601.735,588.319 L613.479,579.991 L625.288,571.456 L640.754,560.333 L650.817,553.248 L659.683,546.814 L668.058,540.711 L695.519,521.084 L698.967,525.69 L702.274,530.375 L705.558,534.781 L709.002,539.722 L733.587,522.044 L756.602,505.512 L749.8,496.074 L743.173,486.761 L768.695,468.402 L769.476,467.726 L772.743,465.503 L779.385,460.794 L794.26,450.096 L817.427,433.41 L823.541,443.259 L824.323,442.621 L838.765,432.29 L832.635,422.367 L844.532,413.995 L846.04,412.757 L875.693,391.531 L869.009,382.239 L862.31,372.892 L855.551,363.472 L848.837,354.144 L842.124,344.816 L835.437,335.412 L826.722,323.333 L816.926,309.63 L825.579,303.313 L837.536,294.604 L848.237,286.511 L858.759,279.075 L870.291,271.011 L873.007,269.494 L874.037,268.997 L884.055,263.811 L886.295,262.643 L888.337,261.575 L892.424,259.476 L898.514,256.44 L900.912,255.286 L910.778,250.29 L919.184,245.768 L922.736,244.001 L926.566,241.947 L934.88,237.669 L936.248,239.34 L947.49,254.916 L947.974,255.758 L960.864,273.685 L974.35,292.394 L987.767,311.161 L1005.04,335.173 L1015.16,349.218 L1007.49,354.687 L1000.82,359.38 L993.185,364.867 L984.923,370.819 L977.463,376.356 L955.458,392.06 L934.418,407.064 L919.053,418.095 L903.117,429.627 L909.86,438.972"/>
   <path fill-rule="evenodd" vector-effect="none" d="M251.974,380.072 L246.307,382.962 L245.258,378.096 L243.962,372.158 L242.583,361.567 L240.057,357.081 L236.425,350.561 L209.314,327.749 L207.785,323.587 L202.446,312.668 L199.422,304.92 L198.662,303.472 L197.462,301.181 L195.004,295.594 L185.375,269.628 L184.9,264.317 L184.937,264.093 L186.778,248.246 L189.011,234.008 L190.718,225.615 L190.792,225.203 L191.252,221.465 L191.303,216.994 L190.925,213.467 L190.794,211.982 L190.287,210.358 L188.037,198.378 L187.536,195.544 L183.801,180.35 L183.621,179.611 L182.204,173.434 L181.53,170.55 L178.454,157.272 L178.09,155.663 L177.993,151.011 L186.81,128.735 L191.55,113.155 L195.618,100.016 L204.214,71.3599 L209.35,57.5742 L214.977,43.9041 L217.014,27.9402 L207.427,3.79852 L204.372,-6.42541 L204.353,-9.42284 L204.22,-13.8134 L204.992,-17.6354 L205.786,-19.298 L207.545,-22.2001 L210.457,-26.7012 L217.061,-37.8311 L217.25,-56.7186 L217.271,-67.3528 L379.813,-72.2684 L384.279,-69.1256 L396.549,-60.3918 L422.012,-42.7476 L422.784,-41.8028 L448.242,-23.8611 L456.852,-17.8844 L466.048,-11.4786 L477.436,-3.53812 L494.865,8.66918 L501.986,13.6667 L493.126,25.835 L485.113,36.6926 L476.9,48.5246 L468.63,60.3396 L460.43,72.1338 L451.992,84.1028 L443.585,96.6108 L435.561,108.102 L427.634,118.975 L419.32,130.828 L411.454,142.798 L403.141,154.186 L395.113,166.011 L386.875,178.011 L378.707,189.487 L372.962,198.283 L367.715,205.555 L362.184,213.357 L356.491,221.5 L354.191,224.977 L351.71,228.571 L346.327,236.574 L340.382,245.375 L337.863,248.71 L335.135,252.685 L332.679,256.185 L329.504,260.527 L324.315,268.3 L322.14,271.625 L320.669,273.624 L319.5,275.205 L316.802,279.235 L312.838,284.941 L307.178,292.784 L302.358,299.987 L297.144,307.91 L291.706,315.541 L286.49,322.924 L280.687,331.255 L270.506,345.79 L264.354,354.895 L255.497,368.29 L253.436,372.561 L252.056,375.21 L254.161,379.019 L251.974,380.072"/>
   <path fill-rule="evenodd" vector-effect="none" d="M426.32,325.729 L391.674,337.319 L385.295,333.229 L370.146,338.251 L360.523,341.447 L351.553,344.419 L339.266,348.496 L306.872,359.327 L292.02,364.263 L278.856,368.702 L278.077,368.968 L270.069,372.077 L262.281,375.348 L257.35,377.489 L254.161,379.019 L252.056,375.21 L253.436,372.561 L255.497,368.29 L264.354,354.895 L270.506,345.79 L280.687,331.255 L286.49,322.924 L291.706,315.541 L297.144,307.91 L302.358,299.987 L307.178,292.784 L312.838,284.941 L316.802,279.235 L319.5,275.205 L320.669,273.624 L322.14,271.625 L324.315,268.3 L329.504,260.527 L332.679,256.185 L335.135,252.685 L337.863,248.71 L340.382,245.375 L346.327,236.574 L351.71,228.571 L354.191,224.977 L356.491,221.5 L362.184,213.357 L367.715,205.555 L372.962,198.283 L378.707,189.487 L386.875,178.011 L395.113,166.011 L403.141,154.186 L411.454,142.798 L419.32,130.828 L427.634,118.975 L435.561,108.102 L443.585,96.6108 L451.992,84.1028 L460.43,72.1338 L468.63,60.3396 L476.9,48.5246 L485.113,36.6926 L493.126,25.835 L501.986,13.6667 L506.23,16.7591 L511.39,20.3079 L515.346,22.8876 L519.56,25.9251 L523.68,28.7047 L529.16,32.4298 L534.377,35.9768 L538.072,38.4341 L538.931,38.9293 L540.082,39.1364 L555.479,49.8964 L570.239,59.9307 L591.257,74.8206 L614.227,91.7363 L618.644,94.8417 L623.645,98.8046 L628.85,102.426 L633.54,105.579 L638.441,109.079 L643.256,112.563 L652.939,119.4 L668.671,130.297 L670.95,131.829 L671.783,132.381 L673.916,133.806 L665.102,145.136 L655.715,157.843 L651.113,164.612 L648.702,168.149 L642.838,176.261 L640.641,179.308 L634.132,187.867 L632.77,189.678 L615.938,211.717 L615.236,212.632 L611.938,216.662 L607.588,222.325 L598.076,234.737 L590.024,245.262 L580.98,257.064 L575.926,263.605 L570.181,269.999 L566.075,273.83 L561.517,277.395 L561.279,277.57 L555.191,281.628 L550.983,283.972 L545.763,286.012 L535.062,289.485 L534.466,289.67 L528.584,291.562 L528.286,291.665 L522.872,293.412 L509.91,297.847 L487.588,305.62 L478.22,308.679 L460.304,314.512 L439.037,321.693 L433.547,323.312 L426.32,325.729"/>
   <path fill-rule="evenodd" vector-effect="none" d="M688.835,227.723 L712.872,243.822 L716.761,238.08 L720.816,232.127 L729.071,219.864 L736.281,209.42 L743.062,199.511 L749.709,189.42 L750.854,187.988 L769.207,200.76 L774.296,204.31 L796.303,219.538 L797.955,220.68 L805.662,226.03 L820.419,236.304 L821.559,237.069 L845.774,253.794 L861.104,264.552 L870.291,271.011 L858.759,279.075 L848.237,286.511 L837.536,294.604 L825.579,303.313 L816.926,309.63 L826.722,323.333 L835.437,335.412 L842.124,344.816 L848.837,354.144 L855.551,363.472 L862.31,372.892 L869.009,382.239 L875.693,391.531 L846.04,412.757 L844.532,413.995 L832.635,422.367 L838.765,432.29 L824.323,442.621 L823.541,443.259 L817.427,433.41 L794.26,450.096 L779.385,460.794 L772.743,465.503 L769.476,467.726 L768.695,468.402 L743.173,486.761 L749.8,496.074 L756.602,505.512 L733.587,522.044 L709.002,539.722 L705.558,534.781 L702.274,530.375 L698.967,525.69 L695.519,521.084 L668.058,540.711 L659.683,546.814 L650.817,553.248 L640.754,560.333 L625.288,571.456 L613.479,579.991 L601.735,588.319 L590.08,596.737 L570.972,610.54 L556.228,620.969 L554.51,622.4 L555.087,617.373 L557.16,591.855 L559.559,562.006 L559.886,554.883 L560.644,546.853 L561.836,531.938 L562.041,527.854 L563.516,510.454 L564.675,495.391 L565.192,487.908 L566.014,478.256 L567.445,459.424 L567.526,456.907 L567.608,454.428 L567.628,453.683 L567.592,451.077 L567.569,448.899 L566.868,443.744 L565.837,438.096 L564.687,431.837 L561.857,418.348 L560.308,417.296 L561.35,415.793 L556.745,391.931 L554.813,388.675 L552.673,377.605 L545.084,338.023 L544.921,337.358 L544.616,335.822 L544.481,335.137 L537.048,297.841 L535.636,291.888 L535.062,289.485 L545.763,286.012 L550.983,283.972 L555.191,281.628 L561.279,277.57 L561.517,277.395 L566.075,273.83 L570.181,269.999 L575.926,263.605 L580.98,257.064 L590.024,245.262 L598.076,234.737 L607.588,222.325 L611.938,216.662 L615.236,212.632 L615.938,211.717 L632.77,189.678 L634.89,191.14 L665.302,211.701 L688.835,227.723"/>
   <path fill-rule="evenodd" vector-effect="none" d="M769.796,-84.1478 L766.257,-79.346 L764.624,-77.527 L761.184,-72.1146 L757.311,-66.8007 L755.224,-63.9064 L743.317,-47.6021 L735.137,-36.1977 L731.151,-30.8245 L728.115,-26.2439 L725.798,-21.4991 L724.527,-19.0767 L723.994,-17.7942 L723.276,-16.0218 L720.719,-7.91778 L720.561,-6.9819 L719.288,0.989733 L718.717,8.53022 L718.698,14.9365 L718.729,18.2688 L718.45,25.0556 L717.557,46.4229 L717.498,47.2999 L717.236,53.2295 L716.743,64.2498 L714.191,74.8862 L710.572,83.8233 L709.733,85.8787 L702.512,96.8439 L701.562,98.0647 L673.916,133.806 L671.783,132.381 L670.95,131.829 L668.671,130.297 L652.939,119.4 L643.256,112.563 L638.441,109.079 L633.54,105.579 L628.85,102.426 L623.645,98.8046 L618.644,94.8417 L614.227,91.7363 L591.257,74.8206 L570.239,59.9307 L555.479,49.8964 L540.082,39.1364 L538.931,38.9293 L538.072,38.4341 L534.377,35.9768 L529.16,32.4298 L523.68,28.7047 L519.56,25.9251 L515.346,22.8876 L511.39,20.3079 L506.23,16.7591 L501.986,13.6667 L494.865,8.66918 L477.436,-3.53812 L466.048,-11.4786 L456.852,-17.8844 L448.242,-23.8611 L422.784,-41.8028 L422.012,-42.7476 L396.549,-60.3918 L384.279,-69.1256 L379.813,-72.2684 L769.796,-84.1478"/>
   <path fill-rule="evenodd" vector-effect="none" d="M1232.88,-98.4104 L1238.1,70.255 L1236.44,72.0168 L1224.56,84.619 L1215.26,94.3668 L1200.8,109.377 L1200.05,110.163 L1186.65,124.191 L1185.79,124.906 L1180.23,129.659 L1171.45,133.934 L1160.71,136.166 L1159.09,135.992 L1157.55,135.816 L1158.97,132.104 L1158.63,129.843 L1157.24,126.217 L1156.17,119.882 L1157.38,113.736 L1158.69,108.203 L1160.69,105.534 L1163.5,100.903 L1165.15,96.0664 L1165.61,91.4155 L1164.91,87.2101 L1164.61,84.9103 L1165.39,81.9998 L1165.25,77.5535 L1164.76,72.2616 L1164.61,69.8267 L1164.12,62.5982 L1163.42,57.0335 L1162.66,52.1778 L1162.03,46.8717 L1161.02,42.4524 L1159.93,39.5254 L1159.92,37.6074 L1162.33,34.7399 L1165.04,33.5202 L1167.76,32.8214 L1171.62,34.0056 L1175.14,35.3864 L1178.58,36.1551 L1181.86,35.7929 L1184.69,34.0482 L1188.36,29.3908 L1191.14,23.979 L1192.64,18.1786 L1193.28,12.4048 L1193.31,5.34605 L1194.21,-0.268266 L1195.31,-5.88878 L1195.61,-9.21264 L1194.92,-10.8857 L1194.24,-12.4847 L1190.1,-16.2858 L1184.89,-19.7932 L1178.93,-24.2269 L1170.56,-26.1466 L1163.25,-26.0881 L1155.49,-25.5876 L1151.29,-24.8619 L1148.98,-24.8089 L1147.66,-24.7868 L1145.65,-23.3279 L1141.66,-20.7839 L1139.76,-19.1983 L1136.47,-13.1749 L1131.93,-7.35495 L1125.47,-0.190832 L1122,2.48603 L1114.68,6.82756 L1104.41,13.1407 L1092.6,19.3713 L1085.76,23.6418 L1075.11,27.5832 L1070.98,28.4181 L1065.04,29.6628 L1059.27,31.0697 L1053.29,31.1424 L1050.16,28.7439 L1047.66,25.8971 L1045.67,20.2045 L1043.14,17.0052 L1039.58,15.8671 L1034.44,16.156 L1030.07,16.7006 L1022.48,16.3755 L1015.71,15.7091 L1008.31,15.155 L1002.93,14.6318 L1000.21,13.6541 L999.597,13.4308 L998.895,13.3965 L998.07,13.5709 L995.253,13.1735 L991.364,13.7402 L988.306,15.7523 L984.971,19.9145 L982.665,24.0449 L981.699,29.3818 L980.393,34.8409 L979.171,37.9138 L978.655,40.2015 L979.13,44.4698 L979.436,48.855 L978.514,52.3842 L976.209,56.5147 L973.683,59.0877 L973.486,63.8236 L973.521,67.7703 L973.574,72.2937 L973.116,76.9259 L972.129,81.593 L970.293,87.0497 L967.978,90.3984 L965.552,93.4152 L961.986,95.6664 L956.888,96.4936 L952.126,96.64 L946.805,95.7981 L940.841,93.598 L935.101,90.2922 L928.375,85.6388 L921.6,79.8695 L916.422,74.8333 L911.981,68.657 L908.289,64.4689 L903.321,60.6738 L896.809,57.3916 L891.789,55.1622 L882.863,52.0472 L877.052,48.2964 L876.624,44.1198 L877.803,37.324 L878.138,31.448 L877.814,23.6742 L877.537,17.4631 L877.872,11.1401 L878.825,5.80378 L879.766,-3.1448 L881.629,-10.5202 L884.418,-18.5199 L886.072,-23.3751 L888.159,-32.2844 L886.978,-33.9426 L888.267,-39.9597 L892.057,-49.331 L896.086,-56.5495 L899.276,-62.6436 L903.691,-71.2333 L907.993,-80.7321 L912.192,-87.9745 L912.473,-88.524 L1232.88,-98.4104"/>
   <path fill-rule="evenodd" vector-effect="none" d="M537.048,297.841 L544.481,335.137 L544.616,335.822 L544.921,337.358 L545.084,338.023 L552.673,377.605 L554.813,388.675 L556.745,391.931 L561.35,415.793 L560.308,417.296 L561.857,418.348 L564.687,431.837 L565.837,438.096 L566.868,443.744 L567.569,448.899 L567.592,451.077 L567.628,453.683 L567.608,454.428 L567.526,456.907 L567.445,459.424 L566.014,478.256 L565.192,487.908 L564.675,495.391 L563.516,510.454 L562.041,527.854 L561.836,531.938 L560.644,546.853 L559.886,554.883 L559.559,562.006 L557.16,591.855 L555.087,617.373 L554.51,622.4 L552.624,626.293 L542.263,633.964 L538.928,636.374 L534.361,639.66 L526.258,645.325 L519.198,650.456 L515.18,653.407 L394.653,657.065 L392.418,650.523 L391.086,644.363 L386.712,641.274 L375.982,634.449 L364.927,627.298 L354.087,620.14 L333.272,606.934 L313.75,594.36 L300.862,586.239 L288.944,578.425 L287.896,577.861 L280.405,573.004 L268.169,565.105 L257.641,558.291 L255.347,556.759 L255.246,552.442 L254.31,539.957 L254.262,534.074 L253.945,524.531 L251.084,508.026 L249.348,500.314 L245.901,483.323 L240.719,456.759 L238.327,442.977 L240.438,424.217 L242.119,410.219 L245.138,393.09 L245.778,389.141 L246.366,385.399 L246.456,384.112 L246.307,382.962 L251.974,380.072 L254.161,379.019 L257.35,377.489 L262.281,375.348 L270.069,372.077 L278.077,368.968 L278.856,368.702 L292.02,364.263 L306.872,359.327 L339.266,348.496 L351.553,344.419 L360.523,341.447 L370.146,338.251 L385.295,333.229 L391.674,337.319 L426.32,325.729 L433.547,323.312 L439.037,321.693 L460.304,314.512 L478.22,308.679 L487.588,305.62 L509.91,297.847 L522.872,293.412 L528.286,291.665 L528.584,291.562 L534.466,289.67 L535.062,289.485 L535.636,291.888 L537.048,297.841"/>
   <path fill-rule="evenodd" vector-effect="none" d="M912.473,-88.524 L912.192,-87.9745 L907.993,-80.7321 L903.691,-71.2333 L899.276,-62.6436 L896.086,-56.5495 L892.057,-49.331 L888.267,-39.9597 L886.978,-33.9426 L888.159,-32.2844 L886.072,-23.3751 L884.418,-18.5199 L881.629,-10.5202 L879.766,-3.1448 L878.825,5.80378 L877.872,11.1401 L877.537,17.4631 L877.814,23.6742 L878.138,31.448 L877.803,37.324 L876.624,44.1198 L877.052,48.2964 L882.863,52.0472 L891.789,55.1622 L896.809,57.3916 L903.321,60.6738 L908.289,64.4689 L911.981,68.657 L916.422,74.8333 L921.6,79.8695 L928.375,85.6388 L935.101,90.2922 L940.841,93.598 L946.805,95.7981 L952.126,96.64 L956.888,96.4936 L961.986,95.6664 L965.552,93.4152 L967.978,90.3984 L970.293,87.0497 L972.129,81.593 L973.116,76.9259 L973.574,72.2937 L973.521,67.7703 L973.486,63.8236 L973.683,59.0877 L976.209,56.5147 L978.514,52.3842 L979.436,48.855 L979.13,44.4698 L978.655,40.2015 L979.171,37.9138 L980.393,34.8409 L981.699,29.3818 L982.665,24.0449 L984.971,19.9145 L988.306,15.7523 L991.364,13.7402 L995.253,13.1735 L998.07,13.5709 L998.895,13.3965 L999.597,13.4308 L1000.21,13.6541 L1002.93,14.6318 L1008.31,15.155 L1015.71,15.7091 L1022.48,16.3755 L1030.07,16.7006 L1034.44,16.156 L1039.58,15.8671 L1043.14,17.0052 L1045.67,20.2045 L1047.66,25.8971 L1050.16,28.7439 L1053.29,31.1424 L1059.27,31.0697 L1065.04,29.6628 L1070.98,28.4181 L1075.11,27.5832 L1085.76,23.6418 L1092.6,19.3713 L1104.41,13.1407 L1114.68,6.82756 L1122,2.48603 L1125.47,-0.190832 L1131.93,-7.35495 L1136.47,-13.1749 L1139.76,-19.1983 L1141.66,-20.7839 L1145.65,-23.3279 L1147.66,-24.7868 L1148.98,-24.8089 L1151.29,-24.8619 L1155.49,-25.5876 L1163.25,-26.0881 L1170.56,-26.1466 L1178.93,-24.2269 L1184.89,-19.7932 L1190.1,-16.2858 L1194.24,-12.4847 L1194.92,-10.8857 L1195.61,-9.21264 L1195.31,-5.88878 L1194.21,-0.268266 L1193.31,5.34605 L1193.28,12.4048 L1192.64,18.1786 L1191.14,23.979 L1188.36,29.3908 L1184.69,34.0482 L1181.86,35.7929 L1178.58,36.1551 L1175.14,35.3864 L1171.62,34.0056 L1167.76,32.8214 L1165.04,33.5202 L1162.33,34.7399 L1159.92,37.6074 L1159.93,39.5254 L1161.02,42.4524 L1162.03,46.8717 L1162.66,52.1778 L1163.42,57.0335 L1164.12,62.5982 L1164.61,69.8267 L1164.76,72.2616 L1165.25,77.5535 L1165.39,81.9998 L1164.61,84.9103 L1164.91,87.2101 L1165.61,91.4155 L1165.15,96.0664 L1163.5,100.903 L1160.69,105.534 L1158.69,108.203 L1157.38,113.736 L1156.17,119.882 L1157.24,126.217 L1158.63,129.843 L1158.97,132.104 L1157.55,135.816 L1155.74,135.612 L1145.47,134.477 L1142.07,134.209 L1140.15,134.064 L1139.56,134.026 L1138.13,133.903 L1109.49,148.307 L1085.03,160.775 L1047.87,179.779 L1023.59,192.203 L1011.45,198.517 L1004.43,202.104 L999.261,204.684 L987.229,210.901 L985.904,211.575 L975.029,217.217 L960.988,224.222 L952.83,228.421 L948.194,230.798 L944.503,232.718 L934.88,237.669 L926.566,241.947 L922.736,244.001 L919.184,245.768 L910.778,250.29 L900.912,255.286 L898.514,256.44 L892.424,259.476 L888.337,261.575 L886.295,262.643 L884.055,263.811 L874.037,268.997 L873.007,269.494 L870.291,271.011 L861.104,264.552 L845.774,253.794 L821.559,237.069 L820.419,236.304 L805.662,226.03 L797.955,220.68 L796.303,219.538 L774.296,204.31 L769.207,200.76 L750.854,187.988 L749.709,189.42 L743.062,199.511 L736.281,209.42 L729.071,219.864 L720.816,232.127 L716.761,238.08 L712.872,243.822 L688.835,227.723 L665.302,211.701 L634.89,191.14 L632.77,189.678 L634.132,187.867 L640.641,179.308 L642.838,176.261 L648.702,168.149 L651.113,164.612 L655.715,157.843 L665.102,145.136 L673.916,133.806 L701.562,98.0647 L702.512,96.8439 L709.733,85.8787 L710.572,83.8233 L714.191,74.8862 L716.743,64.2498 L717.236,53.2295 L717.498,47.2999 L717.557,46.4229 L718.45,25.0556 L718.729,18.2688 L718.698,14.9365 L718.717,8.53022 L719.288,0.989733 L720.561,-6.9819 L720.719,-7.91778 L723.276,-16.0218 L723.994,-17.7942 L724.527,-19.0767 L725.798,-21.4991 L728.115,-26.2439 L731.151,-30.8245 L735.137,-36.1977 L743.317,-47.6021 L755.224,-63.9064 L757.311,-66.8007 L761.184,-72.1146 L764.624,-77.527 L766.257,-79.346 L769.796,-84.1478 L912.473,-88.524"/>
   <path fill-rule="evenodd" vector-effect="none" d="M1253.67,572.622 L1246.7,575.152 L1226.17,582.622 L1184.21,602.505 L1179.3,603.532 L1163.28,606.913 L1161.93,607.179 L1141.5,611.497 L1121.23,615.754 L1072.63,631.22 L1059.08,636.757 L1025.56,637.79 L1007.06,577.935 L1006.51,576.909 L1005.49,576.679 L1004.12,576.74 L1002.19,573.56 L989.151,560.33 L979.636,544.217 L974.532,536.069 L970.27,529.236 L969.623,527.729 L969.408,526.339 L967.909,522.269 L967.408,520.907 L966.423,518.2 L963.085,516.254 L961.934,515.135 L960.684,514.056 L956.672,507.439 L956.372,506.535 L952.229,509.121 L940.273,516.527 L934.115,520.646 L937.416,494.847 L944.001,489.244 L944.656,488.665 L939.844,481.122 L936.316,475.812 L929.543,466.449 L922.842,457.065 L916.115,447.793 L909.86,438.972 L903.117,429.627 L919.053,418.095 L934.418,407.064 L955.458,392.06 L977.463,376.356 L984.923,370.819 L993.185,364.867 L1000.82,359.38 L1007.49,354.687 L1015.16,349.218 L1005.04,335.173 L987.767,311.161 L974.35,292.394 L960.864,273.685 L947.974,255.758 L947.49,254.916 L936.248,239.34 L934.88,237.669 L944.503,232.718 L948.194,230.798 L952.83,228.421 L960.988,224.222 L975.029,217.217 L985.904,211.575 L987.229,210.901 L999.261,204.684 L1004.43,202.104 L1011.45,198.517 L1023.59,192.203 L1047.87,179.779 L1085.03,160.775 L1109.49,148.307 L1138.13,133.903 L1139.56,134.026 L1140.15,134.064 L1142.07,134.209 L1145.47,134.477 L1155.74,135.612 L1157.55,135.816 L1159.09,135.992 L1160.71,136.166 L1171.45,133.934 L1180.23,129.659 L1185.79,124.906 L1186.65,124.191 L1200.05,110.163 L1200.8,109.377 L1215.26,94.3668 L1224.56,84.619 L1236.44,72.0168 L1238.1,70.255 L1253.67,572.622"/>
  </g>
  <g font-weight="400" stroke="#000000" stroke-linejoin="bevel" font-family="MS Shell Dlg 2" transform="matrix(1,0,0,1,0,85.5885)" fill="none" stroke-linecap="square" stroke-width="1" font-style="normal" font-size="7.5625" stroke-opacity="1"/>
  <g font-weight="400" stroke="#000000" stroke-linejoin="bevel" font-family="MS Shell Dlg 2" transform="matrix(2.59843,0,0,2.59843,0,85.5885)" fill="none" stroke-linecap="square" stroke-width="1" font-style="normal" font-size="7.5625" stroke-opacity="1"/>
  <g font-weight="400" stroke="#000000" stroke-linejoin="bevel" font-family="MS Shell Dlg 2" transform="matrix(2.59843,0,0,2.59843,0,85.5885)" fill="none" stroke-linecap="square" stroke-width="1" font-style="normal" font-size="7.5625" stroke-opacity="1"/>
  <g font-weight="400" stroke="#000000" stroke-linejoin="bevel" font-family="MS Shell Dlg 2" transform="matrix(2.59843,0,0,2.59843,0,85.5885)" fill="none" stroke-linecap="square" stroke-width="1" font-style="normal" font-size="7.5625" stroke-opacity="1"/>
  <g font-weight="400" stroke="#000000" stroke-linejoin="bevel" font-family="MS Shell Dlg 2" transform="matrix(1,0,0,1,0,0)" fill="none" stroke-linecap="square" stroke-width="1" font-style="normal" font-size="7.5625" stroke-opacity="1"/>
  <g font-weight="400" stroke="#000000" stroke-linejoin="bevel" font-family="MS Shell Dlg 2" transform="matrix(2.59843,0,0,2.59843,0,85.5885)" fill="none" stroke-linecap="square" stroke-width="1" font-style="normal" font-size="7.5625" stroke-opacity="1"/>
  <g font-weight="400" stroke="#000000" stroke-linejoin="bevel" font-family="MS Shell Dlg 2" transform="matrix(2.59843,0,0,2.59843,0,85.5885)" fill="none" stroke-linecap="square" stroke-width="1" font-style="normal" font-size="7.5625" stroke-opacity="1"/>
  <g font-weight="400" stroke="#000000" stroke-linejoin="bevel" font-family="MS Shell Dlg 2" transform="matrix(1,0,0,1,0,0)" fill="none" stroke-linecap="square" stroke-width="1" font-style="normal" font-size="7.5625" stroke-opacity="1"/>
 </g>
 <defs/>
 <g inkscape:groupmode="layer" stroke="black" stroke-linejoin="bevel" fill="none" stroke-linecap="square" stroke-width="1" inkscape:label="Map 1: Municipalities (atlas)" fill-rule="evenodd" id="Map 1: Municipalities (atlas)">
  <g font-weight="400" stroke="#000000" stroke-linejoin="bevel" font-family="MS Shell Dlg 2" transform="matrix(1,0,0,1,0,0)" fill="none" stroke-linecap="square" stroke-width="1" font-style="normal" font-size="7.5625" stroke-opacity="1"/>
  <g font-weight="400" stroke="#000000" stroke-linejoin="bevel" font-family="MS Shell Dlg 2" transform="matrix(1,0,0,1,0,0)" fill="none" stroke-linecap="square" stroke-width="1" font-style="normal" font-size="7.5625" stroke-opacity="1"/>
  <g font-weight="400" stroke="#000000" stroke-linejoin="bevel" font-family="MS Shell Dlg 2" transform="matrix(2.59843,0,0,2.59843,0,85.5885)" fill="none" stroke-linecap="square" stroke-width="1" font-style="normal" font-size="7.5625" stroke-opacity="1"/>
  <g font-weight="400" stroke="#000000" stroke-linejoin="bevel" font-family="MS Shell Dlg 2" transform="matrix(2.59843,0,0,2.59843,0,85.5885)" fill="none" stroke-linecap="square" stroke-width="1" font-style="normal" font-size="7.5625" stroke-opacity="1"/>
  <g font-weight="400" stroke="none" font-family="MS Shell Dlg 2" transform="matrix(1,0,0,1,0,85.5885)" fill="#000000" font-style="normal" fill-opacity="0" font-size="7.5625">
   <rect x="0" width="1122" y="0" height="574"/>
  </g>
  <g font-weight="400" stroke="#000000" stroke-linejoin="bevel" font-family="MS Shell Dlg 2" transform="matrix(1,0,0,1,0,85.5885)" fill="none" stroke-linecap="square" stroke-width="1" font-style="normal" font-size="7.5625" stroke-opacity="1"/>
  <g font-weight="400" stroke="#232323" stroke-linejoin="bevel" font-family="MS Shell Dlg 2" transform="matrix(1,0,0,1,0,85.5885)" fill="none" stroke-linecap="square" stroke-width="0.519685" font-style="normal" font-size="7.5625" stroke-opacity="0.0500038">
   <path fill-rule="evenodd" vector-effect="none" d="M-132.832,-56.8361 L82.064,-63.2798 L80.2201,-61.6035 L76.4006,-58.7141 L72.6763,-55.511 L68.9224,-52.3443 L65.1381,-49.2326 L61.3527,-46.158 L57.5238,-43.1008 L53.6806,-40.0432 L50.5497,-37.5657 L49.9764,-37.1202 L49.7796,-37.0025 L47.2506,-34.9713 L45.9924,-33.9839 L42.1338,-30.963 L38.2459,-27.96 L34.3866,-24.9578 L30.5274,-21.9557 L26.64,-18.9341 L22.751,-15.9683 L18.8625,-12.9839 L17.7433,-12.131 L14.9745,-9.98092 L11.8716,-7.52291 L11.13,-6.96065 L7.35975,-3.8495 L4.17933,-1.10987 L3.63459,-0.665244 L2.85406,0.0285345 L2.30988,0.491769 L-0.0603163,2.57396 L-3.71235,5.81187 L-7.39301,9.05062 L-11.1331,12.2167 L-14.9326,15.31 L-18.315,17.9998 L-18.7619,18.367 L-22.6963,21.2595 L-26.6164,24.1515 L-29.752,26.4801 L-30.0097,26.9533 L-30.4297,27.2639 L-34.3207,30.1737 L-38.1198,33.2855 L-41.9332,36.3978 L-45.7317,39.5282 L-48.4402,41.7881 L-49.5155,42.6769 L-51.6929,44.5111 L-53.2712,45.806 L-57.0549,48.9546 L-60.7958,52.1019 L-64.5653,55.25 L-68.3508,58.3427 L-72.2089,61.4004 L-75.847,64.6377 L-79.2035,68.2017 L-82.3679,71.9647 L-82.7961,72.4803 L-85.4598,75.7629 L-88.5517,79.561 L-91.6574,83.3782 L-94.6178,87.2655 L-97.3874,91.3146 L-99.8798,95.5417 L-102.154,99.8739 L-104.342,104.259 L-106.427,108.698 L-108.44,113.171 L-109.938,116.661 L-113.717,128.133 L-114.282,129.807 L-114.983,131.727 L-115.359,131.105 L-127.467,122.594 L-132.832,-56.8361"/>
   <path fill-rule="evenodd" vector-effect="none" d="M-111.031,672.287 L-127.467,122.594 L-115.359,131.105 L-114.983,131.727 L-114.282,129.807 L-113.717,128.133 L-109.938,116.661 L-108.44,113.171 L-106.427,108.698 L-104.342,104.259 L-102.154,99.8739 L-99.8798,95.5417 L-97.3874,91.3146 L-94.6178,87.2655 L-91.6574,83.3782 L-88.5517,79.561 L-85.4598,75.7629 L-82.7961,72.4803 L-82.3679,71.9647 L-79.2035,68.2017 L-75.847,64.6377 L-72.2089,61.4004 L-68.3508,58.3427 L-64.5653,55.25 L-60.7958,52.1019 L-57.0549,48.9546 L-53.2712,45.806 L-51.6929,44.5111 L-49.5155,42.6769 L-48.4402,41.7881 L-45.7317,39.5282 L-41.9332,36.3978 L-38.1198,33.2855 L-34.3207,30.1737 L-30.4297,27.2639 L-30.0097,26.9533 L-29.752,26.4801 L-26.6164,24.1515 L-22.6963,21.2595 L-18.7619,18.367 L-18.315,17.9998 L-14.9326,15.31 L-11.1331,12.2167 L-7.39301,9.05062 L-3.71235,5.81187 L-0.0603163,2.57396 L2.30988,0.491769 L2.85406,0.0285345 L3.63459,-0.665244 L4.17933,-1.10987 L7.35975,-3.8495 L11.13,-6.96065 L11.8716,-7.52291 L14.9745,-9.98092 L17.7433,-12.131 L18.8625,-12.9839 L22.751,-15.9683 L26.64,-18.9341 L30.5274,-21.9557 L34.3866,-24.9578 L38.2459,-27.96 L42.1338,-30.963 L45.9924,-33.9839 L47.2506,-34.9713 L49.7796,-37.0025 L49.9764,-37.1202 L50.5497,-37.5657 L53.6806,-40.0432 L57.5238,-43.1008 L61.3527,-46.158 L65.1381,-49.2326 L68.9224,-52.3443 L72.6763,-55.511 L76.4006,-58.7141 L80.2201,-61.6035 L82.064,-63.2798 L1232.88,-98.4104 L1253.67,572.622 L1246.7,575.152 L1226.17,582.622 L1184.21,602.505 L1179.3,603.532 L1163.28,606.913 L1161.93,607.179 L1141.5,611.497 L1121.23,615.754 L1072.63,631.22 L1059.08,636.757 L-111.031,672.287"/>
  </g>
  <g font-weight="400" stroke="#000000" stroke-linejoin="bevel" font-family="MS Shell Dlg 2" transform="matrix(1,0,0,1,0,85.5885)" fill="none" stroke-linecap="square" stroke-width="1" font-style="normal" font-size="7.5625" stroke-opacity="1"/>
  <g font-weight="400" stroke="#000000" stroke-linejoin="bevel" font-family="MS Shell Dlg 2" transform="matrix(2.59843,0,0,2.59843,0,85.5885)" fill="none" stroke-linecap="square" stroke-width="1" font-style="normal" font-size="7.5625" stroke-opacity="1"/>
  <g font-weight="400" stroke="#000000" stroke-linejoin="bevel" font-family="MS Shell Dlg 2" transform="matrix(2.59843,0,0,2.59843,0,85.5885)" fill="none" stroke-linecap="square" stroke-width="1" font-style="normal" font-size="7.5625" stroke-opacity="1"/>
  <g font-weight="400" stroke="#000000" stroke-linejoin="bevel" font-family="MS Shell Dlg 2" transform="matrix(2.59843,0,0,2.59843,0,85.5885)" fill="none" stroke-linecap="square" stroke-width="1" font-style="normal" font-size="7.5625" stroke-opacity="1"/>
  <g font-weight="400" stroke="#000000" stroke-linejoin="bevel" font-family="MS Shell Dlg 2" transform="matrix(1,0,0,1,0,0)" fill="none" stroke-linecap="square" stroke-width="1" font-style="normal" font-size="7.5625" stroke-opacity="1"/>
  <g font-weight="400" stroke="#000000" stroke-linejoin="bevel" font-family="MS Shell Dlg 2" transform="matrix(2.59843,0,0,2.59843,0,85.5885)" fill="none" stroke-linecap="square" stroke-width="1" font-style="normal" font-size="7.5625" stroke-opacity="1"/>
  <g font-weight="400" stroke="#000000" stroke-linejoin="bevel" font-family="MS Shell Dlg 2" transform="matrix(2.59843,0,0,2.59843,0,85.5885)" fill="none" stroke-linecap="square" stroke-width="1" font-style="normal" font-size="7.5625" stroke-opacity="1"/>
  <g font-weight="400" stroke="#000000" stroke-linejoin="bevel" font-family="MS Shell Dlg 2" transform="matrix(1,0,0,1,0,0)" fill="none" stroke-linecap="square" stroke-width="1" font-style="normal" font-size="7.5625" stroke-opacity="1"/>
 </g>
 <defs/>
 <g inkscape:groupmode="layer" stroke="black" stroke-linejoin="bevel" fill="none" stroke-linecap="square" stroke-width="1" inkscape:label="Map 1: County Population" fill-rule="evenodd" id="Map 1: County Population">
  <g font-weight="400" stroke="#000000" stroke-linejoin="bevel" font-family="MS Shell Dlg 2" transform="matrix(1,0,0,1,0,0)" fill="none" stroke-linecap="square" stroke-width="1" font-style="normal" font-size="7.5625" stroke-opacity="1"/>
  <g font-weight="400" stroke="#000000" stroke-linejoin="bevel" font-family="MS Shell Dlg 2" transform="matrix(1,0,0,1,0,0)" fill="none" stroke-linecap="square" stroke-width="1" font-style="normal" font-size="7.5625" stroke-opacity="1"/>
  <g font-weight="400" stroke="#000000" stroke-linejoin="bevel" font-family="MS Shell Dlg 2" transform="matrix(2.59843,0,0,2.59843,0,85.5885)" fill="none" stroke-linecap="square" stroke-width="1" font-style="normal" font-size="7.5625" stroke-opacity="1"/>
  <g font-weight="400" stroke="#000000" stroke-linejoin="bevel" font-family="MS Shell Dlg 2" transform="matrix(2.59843,0,0,2.59843,0,85.5885)" fill="none" stroke-linecap="square" stroke-width="1" font-style="normal" font-size="7.5625" stroke-opacity="1"/>
  <g font-weight="400" stroke="none" font-family="MS Shell Dlg 2" transform="matrix(1,0,0,1,0,85.5885)" fill="#000000" font-style="normal" fill-opacity="0" font-size="7.5625">
   <rect x="0" width="1122" y="0" height="574"/>
  </g>
  <g font-weight="400" stroke="#000000" stroke-linejoin="bevel" font-family="MS Shell Dlg 2" transform="matrix(1,0,0,1,0,85.5885)" fill="none" stroke-linecap="square" stroke-width="1" font-style="normal" font-size="7.5625" stroke-opacity="1"/>
  <g font-weight="400" stroke="#232323" stroke-linejoin="bevel" font-family="MS Shell Dlg 2" transform="matrix(1,0,0,1,0,85.5885)" fill="none" stroke-linecap="square" stroke-width="2.59843" font-style="normal" font-size="7.5625" stroke-opacity="0.701961">
   <path fill-rule="evenodd" vector-effect="none" d="M-132.832,-56.8361 L82.064,-63.2798 L80.2201,-61.6035 L76.4006,-58.7141 L72.6763,-55.511 L68.9224,-52.3443 L65.1381,-49.2326 L61.3527,-46.158 L57.5238,-43.1008 L53.6806,-40.0432 L50.5497,-37.5657 L49.9764,-37.1202 L49.7796,-37.0025 L47.2506,-34.9713 L45.9924,-33.9839 L42.1338,-30.963 L38.2459,-27.96 L34.3866,-24.9578 L30.5274,-21.9557 L26.64,-18.9341 L22.751,-15.9683 L18.8625,-12.9839 L17.7433,-12.131 L14.9745,-9.98092 L11.8716,-7.52291 L11.13,-6.96065 L7.35975,-3.8495 L4.17933,-1.10987 L3.63459,-0.665244 L2.85406,0.0285345 L2.30988,0.491769 L-0.0603163,2.57396 L-3.71235,5.81187 L-7.39301,9.05062 L-11.1331,12.2167 L-14.9326,15.31 L-18.315,17.9998 L-18.7619,18.367 L-22.6963,21.2595 L-26.6164,24.1515 L-29.752,26.4801 L-30.0097,26.9533 L-30.4297,27.2639 L-34.3207,30.1737 L-38.1198,33.2855 L-41.9332,36.3978 L-45.7317,39.5282 L-48.4402,41.7881 L-49.5155,42.6769 L-51.6929,44.5111 L-53.2712,45.806 L-57.0549,48.9546 L-60.7958,52.1019 L-64.5653,55.25 L-68.3508,58.3427 L-72.2089,61.4004 L-75.847,64.6377 L-79.2035,68.2017 L-82.3679,71.9647 L-82.7961,72.4803 L-85.4598,75.7629 L-88.5517,79.561 L-91.6574,83.3782 L-94.6178,87.2655 L-97.3874,91.3146 L-99.8798,95.5417 L-102.154,99.8739 L-104.342,104.259 L-106.427,108.698 L-108.44,113.171 L-109.938,116.661 L-113.717,128.133 L-114.282,129.807 L-114.983,131.727 L-115.359,131.105 L-127.467,122.594 L-132.832,-56.8361"/>
   <path fill-rule="evenodd" vector-effect="none" d="M-111.031,672.287 L-127.467,122.594 L-115.359,131.105 L-114.983,131.727 L-114.282,129.807 L-113.717,128.133 L-109.938,116.661 L-108.44,113.171 L-106.427,108.698 L-104.342,104.259 L-102.154,99.8739 L-99.8798,95.5417 L-97.3874,91.3146 L-94.6178,87.2655 L-91.6574,83.3782 L-88.5517,79.561 L-85.4598,75.7629 L-82.7961,72.4803 L-82.3679,71.9647 L-79.2035,68.2017 L-75.847,64.6377 L-72.2089,61.4004 L-68.3508,58.3427 L-64.5653,55.25 L-60.7958,52.1019 L-57.0549,48.9546 L-53.2712,45.806 L-51.6929,44.5111 L-49.5155,42.6769 L-48.4402,41.7881 L-45.7317,39.5282 L-41.9332,36.3978 L-38.1198,33.2855 L-34.3207,30.1737 L-30.4297,27.2639 L-30.0097,26.9533 L-29.752,26.4801 L-26.6164,24.1515 L-22.6963,21.2595 L-18.7619,18.367 L-18.315,17.9998 L-14.9326,15.31 L-11.1331,12.2167 L-7.39301,9.05062 L-3.71235,5.81187 L-0.0603163,2.57396 L2.30988,0.491769 L2.85406,0.0285345 L3.63459,-0.665244 L4.17933,-1.10987 L7.35975,-3.8495 L11.13,-6.96065 L11.8716,-7.52291 L14.9745,-9.98092 L17.7433,-12.131 L18.8625,-12.9839 L22.751,-15.9683 L26.64,-18.9341 L30.5274,-21.9557 L34.3866,-24.9578 L38.2459,-27.96 L42.1338,-30.963 L45.9924,-33.9839 L47.2506,-34.9713 L49.7796,-37.0025 L49.9764,-37.1202 L50.5497,-37.5657 L53.6806,-40.0432 L57.5238,-43.1008 L61.3527,-46.158 L65.1381,-49.2326 L68.9224,-52.3443 L72.6763,-55.511 L76.4006,-58.7141 L80.2201,-61.6035 L82.064,-63.2798 L1232.88,-98.4104 L1253.67,572.622 L1246.7,575.152 L1226.17,582.622 L1184.21,602.505 L1179.3,603.532 L1163.28,606.913 L1161.93,607.179 L1141.5,611.497 L1121.23,615.754 L1072.63,631.22 L1059.08,636.757 L-111.031,672.287"/>
  </g>
  <g font-weight="400" stroke="#000000" stroke-linejoin="bevel" font-family="MS Shell Dlg 2" transform="matrix(1,0,0,1,0,85.5885)" fill="none" stroke-linecap="square" stroke-width="1" font-style="normal" font-size="7.5625" stroke-opacity="1"/>
  <g font-weight="400" stroke="#000000" stroke-linejoin="bevel" font-family="MS Shell Dlg 2" transform="matrix(2.59843,0,0,2.59843,0,85.5885)" fill="none" stroke-linecap="square" stroke-width="1" font-style="normal" font-size="7.5625" stroke-opacity="1"/>
  <g font-weight="400" stroke="#000000" stroke-linejoin="bevel" font-family="MS Shell Dlg 2" transform="matrix(2.59843,0,0,2.59843,0,85.5885)" fill="none" stroke-linecap="square" stroke-width="1" font-style="normal" font-size="7.5625" stroke-opacity="1"/>
  <g font-weight="400" stroke="#000000" stroke-linejoin="bevel" font-family="MS Shell Dlg 2" transform="matrix(2.59843,0,0,2.59843,0,85.5885)" fill="none" stroke-linecap="square" stroke-width="1" font-style="normal" font-size="7.5625" stroke-opacity="1"/>
  <g font-weight="400" stroke="#000000" stroke-linejoin="bevel" font-family="MS Shell Dlg 2" transform="matrix(1,0,0,1,0,0)" fill="none" stroke-linecap="square" stroke-width="1" font-style="normal" font-size="7.5625" stroke-opacity="1"/>
  <g font-weight="400" stroke="#000000" stroke-linejoin="bevel" font-family="MS Shell Dlg 2" transform="matrix(2.59843,0,0,2.59843,0,85.5885)" fill="none" stroke-linecap="square" stroke-width="1" font-style="normal" font-size="7.5625" stroke-opacity="1"/>
  <g font-weight="400" stroke="#000000" stroke-linejoin="bevel" font-family="MS Shell Dlg 2" transform="matrix(2.59843,0,0,2.59843,0,85.5885)" fill="none" stroke-linecap="square" stroke-width="1" font-style="normal" font-size="7.5625" stroke-opacity="1"/>
  <g font-weight="400" stroke="#000000" stroke-linejoin="bevel" font-family="MS Shell Dlg 2" transform="matrix(1,0,0,1,0,0)" fill="none" stroke-linecap="square" stroke-width="1" font-style="normal" font-size="7.5625" stroke-opacity="1"/>
 </g>
 <defs/>
 <g inkscape:groupmode="layer" stroke="black" stroke-linejoin="bevel" fill="none" stroke-linecap="square" stroke-width="1" inkscape:label="Map 1: LRC-H-v2 (Labels)" fill-rule="evenodd" id="Map 1: LRC-H-v2 (Labels)">
  <g font-weight="400" stroke="#000000" stroke-linejoin="bevel" font-family="MS Shell Dlg 2" transform="matrix(1,0,0,1,0,0)" fill="none" stroke-linecap="square" stroke-width="1" font-style="normal" font-size="7.5625" stroke-opacity="1"/>
  <g font-weight="400" stroke="#000000" stroke-linejoin="bevel" font-family="MS Shell Dlg 2" transform="matrix(1,0,0,1,0,0)" fill="none" stroke-linecap="square" stroke-width="1" font-style="normal" font-size="7.5625" stroke-opacity="1"/>
  <g font-weight="400" stroke="#000000" stroke-linejoin="bevel" font-family="MS Shell Dlg 2" transform="matrix(2.59843,0,0,2.59843,0,85.5885)" fill="none" stroke-linecap="square" stroke-width="1" font-style="normal" font-size="7.5625" stroke-opacity="1"/>
  <g font-weight="400" stroke="#000000" stroke-linejoin="bevel" font-family="MS Shell Dlg 2" transform="matrix(2.59843,0,0,2.59843,0,85.5885)" fill="none" stroke-linecap="square" stroke-width="1" font-style="normal" font-size="7.5625" stroke-opacity="1"/>
  <g font-weight="400" stroke="none" font-family="MS Shell Dlg 2" transform="matrix(1,0,0,1,0,85.5885)" fill="#000000" font-style="normal" fill-opacity="0" font-size="7.5625">
   <rect x="0" width="1122" y="0" height="574"/>
  </g>
  <g font-weight="400" stroke="#000000" stroke-linejoin="bevel" font-family="MS Shell Dlg 2" transform="matrix(2.59843,0,0,2.59843,0,85.5885)" fill="none" stroke-linecap="square" stroke-width="1" font-style="normal" font-size="7.5625" stroke-opacity="1"/>
  <g font-weight="400" stroke="#000000" stroke-linejoin="bevel" font-family="MS Shell Dlg 2" transform="matrix(2.59843,0,0,2.59843,0,85.5885)" fill="none" stroke-linecap="square" stroke-width="1" font-style="normal" font-size="7.5625" stroke-opacity="1"/>
  <g font-weight="400" stroke="#000000" stroke-linejoin="bevel" font-family="MS Shell Dlg 2" transform="matrix(2.59843,0,0,2.59843,0,85.5885)" fill="none" stroke-linecap="square" stroke-width="1" font-style="normal" font-size="7.5625" stroke-opacity="1"/>
  <g font-weight="400" stroke="#000000" stroke-linejoin="bevel" font-family="MS Shell Dlg 2" transform="matrix(1,0,0,1,0,0)" fill="none" stroke-linecap="square" stroke-width="1" font-style="normal" font-size="7.5625" stroke-opacity="1"/>
  <g font-weight="400" stroke="#000000" stroke-linejoin="bevel" font-family="MS Shell Dlg 2" transform="matrix(2.59843,0,0,2.59843,0,85.5885)" fill="none" stroke-linecap="square" stroke-width="1" font-style="normal" font-size="7.5625" stroke-opacity="1"/>
  <g font-weight="400" stroke="#000000" stroke-linejoin="bevel" font-family="MS Shell Dlg 2" transform="matrix(2.59843,0,0,2.59843,0,85.5885)" fill="none" stroke-linecap="square" stroke-width="1" font-style="normal" font-size="7.5625" stroke-opacity="1"/>
  <g font-weight="400" stroke="#000000" stroke-linejoin="bevel" font-family="MS Shell Dlg 2" transform="matrix(1,0,0,1,0,0)" fill="none" stroke-linecap="square" stroke-width="1" font-style="normal" font-size="7.5625" stroke-opacity="1"/>
 </g>
 <defs/>
 <g inkscape:groupmode="layer" stroke="black" stroke-linejoin="bevel" fill="none" stroke-linecap="square" stroke-width="1" inkscape:label="Map 1: Pittsburgh (Labels)" fill-rule="evenodd" id="Map 1: Pittsburgh (Labels)">
  <g font-weight="400" stroke="#000000" stroke-linejoin="bevel" font-family="MS Shell Dlg 2" transform="matrix(1,0,0,1,0,0)" fill="none" stroke-linecap="square" stroke-width="1" font-style="normal" font-size="7.5625" stroke-opacity="1"/>
  <g font-weight="400" stroke="#000000" stroke-linejoin="bevel" font-family="MS Shell Dlg 2" transform="matrix(1,0,0,1,0,0)" fill="none" stroke-linecap="square" stroke-width="1" font-style="normal" font-size="7.5625" stroke-opacity="1"/>
  <g font-weight="400" stroke="#000000" stroke-linejoin="bevel" font-family="MS Shell Dlg 2" transform="matrix(2.59843,0,0,2.59843,0,85.5885)" fill="none" stroke-linecap="square" stroke-width="1" font-style="normal" font-size="7.5625" stroke-opacity="1"/>
  <g font-weight="400" stroke="#000000" stroke-linejoin="bevel" font-family="MS Shell Dlg 2" transform="matrix(2.59843,0,0,2.59843,0,85.5885)" fill="none" stroke-linecap="square" stroke-width="1" font-style="normal" font-size="7.5625" stroke-opacity="1"/>
  <g font-weight="400" stroke="none" font-family="MS Shell Dlg 2" transform="matrix(1,0,0,1,0,85.5885)" fill="#000000" font-style="normal" fill-opacity="0" font-size="7.5625">
   <rect x="0" width="1122" y="0" height="574"/>
  </g>
  <g font-weight="400" stroke="#000000" stroke-linejoin="bevel" font-family="MS Shell Dlg 2" transform="matrix(2.59843,0,0,2.59843,0,85.5885)" fill="none" stroke-linecap="square" stroke-width="1" font-style="normal" font-size="7.5625" stroke-opacity="1"/>
  <g font-weight="400" stroke="#000000" stroke-linejoin="bevel" font-family="MS Shell Dlg 2" transform="matrix(2.59843,0,0,2.59843,0,85.5885)" fill="none" stroke-linecap="square" stroke-width="1" font-style="normal" font-size="7.5625" stroke-opacity="1"/>
  <g font-weight="400" stroke="#000000" stroke-linejoin="bevel" font-family="MS Shell Dlg 2" transform="matrix(2.59843,0,0,2.59843,0,85.5885)" fill="none" stroke-linecap="square" stroke-width="1" font-style="normal" font-size="7.5625" stroke-opacity="1"/>
  <g font-weight="400" stroke="#000000" stroke-linejoin="bevel" font-family="MS Shell Dlg 2" transform="matrix(1,0,0,1,0,0)" fill="none" stroke-linecap="square" stroke-width="1" font-style="normal" font-size="7.5625" stroke-opacity="1"/>
  <g font-weight="400" stroke="#000000" stroke-linejoin="bevel" font-family="MS Shell Dlg 2" transform="matrix(2.59843,0,0,2.59843,0,85.5885)" fill="none" stroke-linecap="square" stroke-width="1" font-style="normal" font-size="7.5625" stroke-opacity="1"/>
  <g font-weight="400" stroke="#000000" stroke-linejoin="bevel" font-family="MS Shell Dlg 2" transform="matrix(2.59843,0,0,2.59843,0,85.5885)" fill="none" stroke-linecap="square" stroke-width="1" font-style="normal" font-size="7.5625" stroke-opacity="1"/>
  <g font-weight="400" stroke="#000000" stroke-linejoin="bevel" font-family="MS Shell Dlg 2" transform="matrix(1,0,0,1,0,0)" fill="none" stroke-linecap="square" stroke-width="1" font-style="normal" font-size="7.5625" stroke-opacity="1"/>
 </g>
 <defs/>
 <g inkscape:groupmode="layer" stroke="black" stroke-linejoin="bevel" fill="none" stroke-linecap="square" stroke-width="1" inkscape:label="Map 1: Municipalities (atlas) (Labels)" fill-rule="evenodd" id="Map 1: Municipalities (atlas) (Labels)">
  <g font-weight="400" stroke="#000000" stroke-linejoin="bevel" font-family="MS Shell Dlg 2" transform="matrix(1,0,0,1,0,0)" fill="none" stroke-linecap="square" stroke-width="1" font-style="normal" font-size="7.5625" stroke-opacity="1"/>
  <g font-weight="400" stroke="#000000" stroke-linejoin="bevel" font-family="MS Shell Dlg 2" transform="matrix(1,0,0,1,0,0)" fill="none" stroke-linecap="square" stroke-width="1" font-style="normal" font-size="7.5625" stroke-opacity="1"/>
  <g font-weight="400" stroke="#000000" stroke-linejoin="bevel" font-family="MS Shell Dlg 2" transform="matrix(2.59843,0,0,2.59843,0,85.5885)" fill="none" stroke-linecap="square" stroke-width="1" font-style="normal" font-size="7.5625" stroke-opacity="1"/>
  <g font-weight="400" stroke="#000000" stroke-linejoin="bevel" font-family="MS Shell Dlg 2" transform="matrix(2.59843,0,0,2.59843,0,85.5885)" fill="none" stroke-linecap="square" stroke-width="1" font-style="normal" font-size="7.5625" stroke-opacity="1"/>
  <g font-weight="400" stroke="none" font-family="MS Shell Dlg 2" transform="matrix(1,0,0,1,0,85.5885)" fill="#000000" font-style="normal" fill-opacity="0" font-size="7.5625">
   <rect x="0" width="1122" y="0" height="574"/>
  </g>
  <g font-weight="400" stroke="#000000" stroke-linejoin="bevel" font-family="MS Shell Dlg 2" transform="matrix(2.59843,0,0,2.59843,0,85.5885)" fill="none" stroke-linecap="square" stroke-width="1" font-style="normal" font-size="7.5625" stroke-opacity="1"/>
  <g font-weight="400" stroke="#000000" stroke-linejoin="bevel" font-family="MS Shell Dlg 2" transform="matrix(2.59843,0,0,2.59843,0,85.5885)" fill="none" stroke-linecap="square" stroke-width="1" font-style="normal" font-size="7.5625" stroke-opacity="1"/>
  <g font-weight="400" stroke="#000000" stroke-linejoin="bevel" font-family="MS Shell Dlg 2" transform="matrix(2.59843,0,0,2.59843,0,85.5885)" fill="none" stroke-linecap="square" stroke-width="1" font-style="normal" font-size="7.5625" stroke-opacity="1"/>
  <g font-weight="400" stroke="#000000" stroke-linejoin="bevel" font-family="MS Shell Dlg 2" transform="matrix(1,0,0,1,0,0)" fill="none" stroke-linecap="square" stroke-width="1" font-style="normal" font-size="7.5625" stroke-opacity="1"/>
  <g font-weight="400" stroke="#000000" stroke-linejoin="bevel" font-family="MS Shell Dlg 2" transform="matrix(2.59843,0,0,2.59843,0,85.5885)" fill="none" stroke-linecap="square" stroke-width="1" font-style="normal" font-size="7.5625" stroke-opacity="1"/>
  <g font-weight="400" stroke="#000000" stroke-linejoin="bevel" font-family="MS Shell Dlg 2" transform="matrix(2.59843,0,0,2.59843,0,85.5885)" fill="none" stroke-linecap="square" stroke-width="1" font-style="normal" font-size="7.5625" stroke-opacity="1"/>
  <g font-weight="400" stroke="#000000" stroke-linejoin="bevel" font-family="MS Shell Dlg 2" transform="matrix(1,0,0,1,0,0)" fill="none" stroke-linecap="square" stroke-width="1" font-style="normal" font-size="7.5625" stroke-opacity="1"/>
 </g>
 <defs/>
 <g inkscape:groupmode="layer" stroke="black" stroke-linejoin="bevel" fill="none" stroke-linecap="square" stroke-width="1" inkscape:label="Labels" fill-rule="evenodd" id="Labels">
  <g font-weight="400" stroke="#000000" stroke-linejoin="bevel" font-family="MS Shell Dlg 2" transform="matrix(1,0,0,1,0,0)" fill="none" stroke-linecap="square" stroke-width="1" font-style="normal" font-size="7.5625" stroke-opacity="1"/>
  <g font-weight="400" stroke="#000000" stroke-linejoin="bevel" font-family="MS Shell Dlg 2" transform="matrix(1,0,0,1,0,0)" fill="none" stroke-linecap="square" stroke-width="1" font-style="normal" font-size="7.5625" stroke-opacity="1"/>
  <g font-weight="400" stroke="#000000" stroke-linejoin="bevel" font-family="MS Shell Dlg 2" transform="matrix(2.59843,0,0,2.59843,652.129,7.79528)" fill="none" stroke-linecap="square" stroke-width="1" font-style="normal" font-size="7.5625" stroke-opacity="1"/>
  <g font-weight="400" stroke="#000000" stroke-linejoin="bevel" font-family="MS Shell Dlg 2" transform="matrix(1,0,0,1,652.129,7.79528)" fill="none" stroke-linecap="square" stroke-width="1" font-style="normal" font-size="7.5625" stroke-opacity="1"/>
  <g font-weight="400" stroke="#000000" stroke-linejoin="bevel" font-family="Franklin Gothic Heavy" transform="matrix(2.59843,0,0,2.59843,652.129,7.79528)" fill="none" stroke-linecap="square" stroke-width="1" font-style="normal" font-size="33" stroke-opacity="1"/>
  <g font-weight="400" stroke="#000000" stroke-linejoin="bevel" font-family="Franklin Gothic Heavy" transform="matrix(0.259843,0,0,0.259843,652.129,7.79528)" fill="none" stroke-linecap="square" stroke-width="1" font-style="normal" font-size="127" stroke-opacity="1">
   <text font-weight="400" stroke="none" font-family="Franklin Gothic Heavy" fill="#000000" x="611.406" y="205.688" font-style="normal" xml:space="preserve" fill-opacity="1" font-size="127">LRC-House Final</text>
  </g>
  <g font-weight="400" stroke="#000000" stroke-linejoin="bevel" font-family="Franklin Gothic Heavy" transform="matrix(2.59843,0,0,2.59843,652.129,7.79528)" fill="none" stroke-linecap="square" stroke-width="1" font-style="normal" font-size="33" stroke-opacity="1"/>
  <g font-weight="400" stroke="#000000" stroke-linejoin="bevel" font-family="MS Shell Dlg 2" transform="matrix(1,0,0,1,652.129,7.79528)" fill="none" stroke-linecap="square" stroke-width="1" font-style="normal" font-size="7.5625" stroke-opacity="1"/>
  <g font-weight="400" stroke="#000000" stroke-linejoin="bevel" font-family="MS Shell Dlg 2" transform="matrix(2.59843,0,0,2.59843,652.129,7.79528)" fill="none" stroke-linecap="square" stroke-width="1" font-style="normal" font-size="7.5625" stroke-opacity="1"/>
  <g font-weight="400" stroke="#000000" stroke-linejoin="bevel" font-family="MS Shell Dlg 2" transform="matrix(2.59843,0,0,2.59843,652.129,7.79528)" fill="none" stroke-linecap="square" stroke-width="1" font-style="normal" font-size="7.5625" stroke-opacity="1"/>
  <g font-weight="400" stroke="#000000" stroke-linejoin="bevel" font-family="MS Shell Dlg 2" transform="matrix(2.59843,0,0,2.59843,13.2208,3.4618e-15)" fill="none" stroke-linecap="square" stroke-width="1" font-style="normal" font-size="7.5625" stroke-opacity="1"/>
  <g font-weight="400" stroke="#000000" stroke-linejoin="bevel" font-family="MS Shell Dlg 2" transform="matrix(1,0,0,1,13.2208,3.4618e-15)" fill="none" stroke-linecap="square" stroke-width="1" font-style="normal" font-size="7.5625" stroke-opacity="1"/>
  <g font-weight="400" stroke="#000000" stroke-linejoin="bevel" font-family="MS Shell Dlg 2" transform="matrix(2.59843,0,0,2.59843,13.2208,3.4618e-15)" fill="none" stroke-linecap="square" stroke-width="1" font-style="normal" font-size="12.8333" stroke-opacity="1"/>
  <g font-weight="400" stroke="#000000" stroke-linejoin="bevel" font-family="MS Shell Dlg 2" transform="matrix(2.59843,0,0,2.59843,13.2208,3.4618e-15)" fill="none" stroke-linecap="square" stroke-width="1" font-style="normal" font-size="12.8333" stroke-opacity="1"/>
  <g font-weight="400" stroke="#000000" stroke-linejoin="bevel" font-family="MS Shell Dlg 2" transform="matrix(1,0,0,1,13.2208,3.4618e-15)" fill="none" stroke-linecap="square" stroke-width="1" font-style="normal" font-size="7.5625" stroke-opacity="1"/>
  <g font-weight="400" stroke="#000000" stroke-linejoin="bevel" font-family="MS Shell Dlg 2" transform="matrix(2.59843,0,0,2.59843,13.2208,3.4618e-15)" fill="none" stroke-linecap="square" stroke-width="1" font-style="normal" font-size="7.5625" stroke-opacity="1"/>
  <g font-weight="400" stroke="#000000" stroke-linejoin="bevel" font-family="MS Shell Dlg 2" transform="matrix(2.59843,0,0,2.59843,13.2208,3.4618e-15)" fill="none" stroke-linecap="square" stroke-width="1" font-style="normal" font-size="7.5625" stroke-opacity="1"/>
  <g font-weight="400" stroke="#000000" stroke-linejoin="bevel" font-family="MS Shell Dlg 2" transform="matrix(2.59843,0,0,2.59843,55.5276,20.5514)" fill="none" stroke-linecap="square" stroke-width="1" font-style="normal" font-size="7.5625" stroke-opacity="1"/>
  <g font-weight="400" stroke="#000000" stroke-linejoin="bevel" font-family="MS Shell Dlg 2" transform="matrix(2.59843,0,0,2.59843,55.5276,20.5514)" fill="none" stroke-linecap="square" stroke-width="1" font-style="normal" font-size="7.5625" stroke-opacity="1"/>
  <g font-weight="400" stroke="none" font-family="MS Shell Dlg 2" transform="matrix(2.59843,0,0,2.59843,55.5276,20.5514)" fill="#ffffff" font-style="normal" fill-opacity="0.701961" font-size="7.5625">
   <path fill-rule="evenodd" vector-effect="none" d="M0,0 L124.148,0 L124.148,30.0295 L0,30.0295 L0,0"/>
  </g>
  <g font-weight="400" stroke="#000000" stroke-linejoin="bevel" font-family="MS Shell Dlg 2" transform="matrix(2.59843,0,0,2.59843,55.5276,20.5514)" fill="none" stroke-linecap="square" stroke-width="1" font-style="normal" font-size="7.5625" stroke-opacity="1"/>
  <g font-weight="400" stroke="#000000" stroke-linejoin="bevel" font-family="MS Shell Dlg 2" transform="matrix(1,0,0,1,55.5276,20.5514)" fill="none" stroke-linecap="square" stroke-width="1" font-style="normal" font-size="7.5625" stroke-opacity="1"/>
  <g font-weight="400" stroke="#000000" stroke-linejoin="bevel" font-family="Franklin Gothic Book" transform="matrix(2.59843,0,0,2.59843,55.5276,20.5514)" fill="none" stroke-linecap="square" stroke-width="1" font-style="normal" font-size="15.5833" stroke-opacity="1"/>
  <g font-weight="400" stroke="#000000" stroke-linejoin="bevel" font-family="Franklin Gothic Book" transform="matrix(0.259843,0,0,0.259843,55.5276,20.5514)" fill="none" stroke-linecap="square" stroke-width="1" font-style="normal" font-size="60" stroke-opacity="1">
   <text font-weight="400" stroke="none" font-family="Franklin Gothic Book" fill="#000000" x="0" y="57" font-style="normal" xml:space="preserve" fill-opacity="1" font-size="60">District: 202</text>
   <text font-weight="400" stroke="none" font-family="Franklin Gothic Book" fill="#000000" x="0" y="132" font-style="normal" xml:space="preserve" fill-opacity="1" font-size="60">Total Population: 64,695</text>
   <text font-weight="400" stroke="none" font-family="Franklin Gothic Book" fill="#000000" x="0" y="207" font-style="normal" xml:space="preserve" fill-opacity="1" font-size="60">Deviation: 1</text>
  </g>
  <g font-weight="400" stroke="#000000" stroke-linejoin="bevel" font-family="Franklin Gothic Book" transform="matrix(2.59843,0,0,2.59843,55.5276,20.5514)" fill="none" stroke-linecap="square" stroke-width="1" font-style="normal" font-size="15.5833" stroke-opacity="1"/>
  <g font-weight="400" stroke="#000000" stroke-linejoin="bevel" font-family="MS Shell Dlg 2" transform="matrix(1,0,0,1,55.5276,20.5514)" fill="none" stroke-linecap="square" stroke-width="1" font-style="normal" font-size="7.5625" stroke-opacity="1"/>
  <g font-weight="400" stroke="#000000" stroke-linejoin="bevel" font-family="MS Shell Dlg 2" transform="matrix(2.59843,0,0,2.59843,55.5276,20.5514)" fill="none" stroke-linecap="square" stroke-width="1" font-style="normal" font-size="7.5625" stroke-opacity="1"/>
  <g font-weight="400" stroke="#000000" stroke-linejoin="bevel" font-family="MS Shell Dlg 2" transform="matrix(2.59843,0,0,2.59843,55.5276,20.5514)" fill="none" stroke-linecap="square" stroke-width="1" font-style="normal" font-size="7.5625" stroke-opacity="1"/>
  <g font-weight="400" stroke="#000000" stroke-linejoin="bevel" font-family="MS Shell Dlg 2" transform="matrix(2.59843,0,0,2.59843,853.616,23.1499)" fill="none" stroke-linecap="square" stroke-width="1" font-style="normal" font-size="7.5625" stroke-opacity="1"/>
  <g font-weight="400" stroke="#000000" stroke-linejoin="bevel" font-family="MS Shell Dlg 2" transform="matrix(1,0,0,1,853.616,23.1499)" fill="none" stroke-linecap="square" stroke-width="1" font-style="normal" font-size="7.5625" stroke-opacity="1"/>
  <g font-weight="400" stroke="#000000" stroke-linejoin="bevel" font-family="Franklin Gothic Heavy" transform="matrix(2.59843,0,0,2.59843,853.616,23.1499)" fill="none" stroke-linecap="square" stroke-width="1" font-style="normal" font-size="12.8333" stroke-opacity="1"/>
  <g font-weight="400" stroke="#000000" stroke-linejoin="bevel" font-family="Franklin Gothic Heavy" transform="matrix(0.259843,0,0,0.259843,853.616,23.1499)" fill="none" stroke-linecap="square" stroke-width="1" font-style="normal" font-size="49" stroke-opacity="1">
   <text font-weight="400" stroke="none" font-family="Franklin Gothic Heavy" fill="#000000" x="418.984" y="47" font-style="normal" xml:space="preserve" fill-opacity="1" font-size="49">February 4, 2022</text>
  </g>
  <g font-weight="400" stroke="#000000" stroke-linejoin="bevel" font-family="Franklin Gothic Heavy" transform="matrix(2.59843,0,0,2.59843,853.616,23.1499)" fill="none" stroke-linecap="square" stroke-width="1" font-style="normal" font-size="12.8333" stroke-opacity="1"/>
  <g font-weight="400" stroke="#000000" stroke-linejoin="bevel" font-family="MS Shell Dlg 2" transform="matrix(1,0,0,1,853.616,23.1499)" fill="none" stroke-linecap="square" stroke-width="1" font-style="normal" font-size="7.5625" stroke-opacity="1"/>
  <g font-weight="400" stroke="#000000" stroke-linejoin="bevel" font-family="MS Shell Dlg 2" transform="matrix(2.59843,0,0,2.59843,853.616,23.1499)" fill="none" stroke-linecap="square" stroke-width="1" font-style="normal" font-size="7.5625" stroke-opacity="1"/>
  <g font-weight="400" stroke="#000000" stroke-linejoin="bevel" font-family="MS Shell Dlg 2" transform="matrix(2.59843,0,0,2.59843,853.616,23.1499)" fill="none" stroke-linecap="square" stroke-width="1" font-style="normal" font-size="7.5625" stroke-opacity="1"/>
  <g font-weight="400" stroke="#000000" stroke-linejoin="bevel" font-family="MS Shell Dlg 2" transform="matrix(1,0,0,1,0,0)" fill="none" stroke-linecap="square" stroke-width="1" font-style="normal" font-size="7.5625" stroke-opacity="1"/>
 </g>
 <metadata>
  <rdf:RDF xmlns:rdfs="http://www.w3.org/2000/01/rdf-schema#" xmlns:rdf="http://www.w3.org/1999/02/22-rdf-syntax-ns#" xmlns:dc="http://purl.org/dc/elements/1.1/">
   <rdf:Description dc:identifier="" dc:description="" dc:format="image/svg+xml" dc:title="" dc:date="2021-11-02T16:52:40">
    <dc:creator>
     <rdf:Bag>
      <rdf:li>Jonathan Cervas</rdf:li>
     </rdf:Bag>
    </dc:creator>
    <dc:publisher>
     <rdf:Bag>
      <rdf:li>QGIS 3.20.1-Odense</rdf:li>
     </rdf:Bag>
    </dc:publisher>
    <dc:subject>
     <rdf:Bag/>
    </dc:subject>
   </rdf:Description>
   <cc:Work rdf:about="">
    <dc:format>image/svg+xml</dc:format>
    <dc:title></dc:title>
    <dc:date>2021-11-02T16:52:40</dc:date>
    <dc:identifier></dc:identifier>
    <dc:description></dc:description>
    <dc:creator>
     <cc:Agent>
      <dc:title>Jonathan Cervas</dc:title>
     </cc:Agent>
    </dc:creator>
    <dc:publisher>
     <cc:Agent>
      <dc:title>QGIS 3.20.1-Odense</dc:title>
     </cc:Agent>
    </dc:publisher>
   </cc:Work>
  </rdf:RDF>
 </metadata>
</svg>
