<?xml version='1.0' encoding='UTF-8' standalone='no'?>
<svg viewBox="0 0 1122 660" xmlns:cc="http://creativecommons.org/ns#" baseProfile="tiny" width="431.8mm" xmlns:xlink="http://www.w3.org/1999/xlink" version="1.2" height="254mm" xmlns="http://www.w3.org/2000/svg">
 <defs/>
 <g stroke="black" stroke-linejoin="bevel" fill="none" stroke-linecap="square" stroke-width="1" fill-rule="evenodd">
  <g font-weight="400" stroke="#000000" stroke-linejoin="bevel" font-family="MS Shell Dlg 2" transform="matrix(1,0,0,1,0,0)" fill="none" stroke-linecap="square" stroke-width="1" font-style="normal" font-size="7.5625" stroke-opacity="1"/>
  <g font-weight="400" stroke="#000000" stroke-linejoin="bevel" font-family="MS Shell Dlg 2" transform="matrix(1,0,0,1,0,0)" fill="none" stroke-linecap="square" stroke-width="1" font-style="normal" font-size="7.5625" stroke-opacity="1"/>
  <g font-weight="400" stroke="#000000" stroke-linejoin="bevel" font-family="MS Shell Dlg 2" transform="matrix(2.59843,0,0,2.59843,0,0)" fill="none" stroke-linecap="square" stroke-width="1" font-style="normal" font-size="7.5625" stroke-opacity="1"/>
  <g font-weight="400" stroke="#000000" stroke-linejoin="bevel" font-family="MS Shell Dlg 2" transform="matrix(2.59843,0,0,2.59843,0,0)" fill="none" stroke-linecap="square" stroke-width="1" font-style="normal" font-size="7.5625" stroke-opacity="1"/>
  <g font-weight="400" stroke="#000000" stroke-linejoin="bevel" font-family="MS Shell Dlg 2" transform="matrix(2.59843,0,0,2.59843,0,0)" fill="none" stroke-linecap="square" stroke-width="1" font-style="normal" font-size="7.5625" stroke-opacity="1"/>
  <g font-weight="400" stroke="#000000" stroke-linejoin="bevel" font-family="MS Shell Dlg 2" transform="matrix(1,0,0,1,0,0)" fill="none" stroke-linecap="square" stroke-width="1" font-style="normal" font-size="7.5625" stroke-opacity="1"/>
  <g font-weight="400" stroke="none" font-family="MS Shell Dlg 2" transform="matrix(1,0,0,1,0,0)" fill="#ffffff" font-style="normal" fill-opacity="1" font-size="7.5625">
   <path fill-rule="evenodd" vector-effect="none" d="M-2,-2 L1124,-2 L1124,663 L-2,663 L-2,-2"/>
  </g>
  <g font-weight="400" stroke="#000000" stroke-linejoin="bevel" font-family="MS Shell Dlg 2" transform="matrix(1,0,0,1,0,0)" fill="none" stroke-linecap="square" stroke-width="1" font-style="normal" font-size="7.5625" stroke-opacity="1"/>
  <g font-weight="400" stroke="#000000" stroke-linejoin="bevel" font-family="MS Shell Dlg 2" transform="matrix(2.59843,0,0,2.59843,0,0)" fill="none" stroke-linecap="square" stroke-width="1" font-style="normal" font-size="7.5625" stroke-opacity="1"/>
  <g font-weight="400" stroke="#000000" stroke-linejoin="bevel" font-family="MS Shell Dlg 2" transform="matrix(2.59843,0,0,2.59843,0,0)" fill="none" stroke-linecap="square" stroke-width="1" font-style="normal" font-size="7.5625" stroke-opacity="1"/>
  <g font-weight="400" stroke="#000000" stroke-linejoin="bevel" font-family="MS Shell Dlg 2" transform="matrix(2.59843,0,0,2.59843,0,0)" fill="none" stroke-linecap="square" stroke-width="1" font-style="normal" font-size="7.5625" stroke-opacity="1"/>
  <g font-weight="400" stroke="#000000" stroke-linejoin="bevel" font-family="MS Shell Dlg 2" transform="matrix(2.59843,0,0,2.59843,0,0)" fill="none" stroke-linecap="square" stroke-width="1" font-style="normal" font-size="7.5625" stroke-opacity="1"/>
  <g font-weight="400" stroke="#000000" stroke-linejoin="bevel" font-family="MS Shell Dlg 2" transform="matrix(2.59843,0,0,2.59843,0,85.5885)" fill="none" stroke-linecap="square" stroke-width="1" font-style="normal" font-size="7.5625" stroke-opacity="1"/>
  <g font-weight="400" stroke="none" font-family="MS Shell Dlg 2" transform="matrix(2.59843,0,0,2.59843,0,85.5885)" fill="#ffffff" font-style="normal" fill-opacity="1" font-size="7.5625">
   <path fill-rule="evenodd" vector-effect="none" d="M0,0 L431.8,0 L431.8,221.061 L0,221.061 L0,0"/>
  </g>
  <g font-weight="400" stroke="#000000" stroke-linejoin="bevel" font-family="MS Shell Dlg 2" transform="matrix(2.59843,0,0,2.59843,0,85.5885)" fill="none" stroke-linecap="square" stroke-width="1" font-style="normal" font-size="7.5625" stroke-opacity="1"/>
  <g font-weight="400" stroke="#000000" stroke-linejoin="bevel" font-family="MS Shell Dlg 2" transform="matrix(2.59843,0,0,2.59843,0,85.5885)" fill="none" stroke-linecap="square" stroke-width="1" font-style="normal" font-size="7.5625" stroke-opacity="1"/>
  <g font-weight="400" stroke="none" font-family="MS Shell Dlg 2" transform="matrix(1,0,0,1,0,85.5885)" fill="#000000" font-style="normal" fill-opacity="0" font-size="7.5625">
   <rect x="0" width="1122" y="0" height="574"/>
  </g>
  <g font-weight="400" stroke="#000000" stroke-linejoin="bevel" font-family="MS Shell Dlg 2" transform="matrix(1,0,0,1,0,85.5885)" fill="none" stroke-linecap="square" stroke-width="1" font-style="normal" font-size="7.5625" stroke-opacity="1"/>
  <g font-weight="400" stroke="#232323" stroke-linejoin="bevel" font-family="MS Shell Dlg 2" transform="matrix(1,0,0,1,0,85.5885)" fill="#ffffff" stroke-linecap="square" stroke-width="0.675591" font-style="normal" fill-opacity="0.94902" font-size="7.5625" stroke-opacity="0.301961">
   <path fill-rule="evenodd" vector-effect="none" d="M1244.72,302.559 L1242.23,302.465 L1240.15,302.259 L1216.79,299.212 L1198.87,296.829 L1196.1,296.279 L1193.52,295.474 L1190.52,294.337 L1185.69,292.278 L1185.4,294.756 L1185.95,297.036 L1185.79,298.131 L1184.72,305.416 L1184.35,307.895 L1183.77,312.084 L1182.67,320.174 L1181.13,331.701 L1178.86,348.035 L1177.67,357.064 L1176.94,362.444 L1176.26,367.708 L1174.79,377.109 L1174.48,379.567 L1174.25,381.584 L1174,383.62 L1173.83,385.041 L1170.01,412.29 L1167.6,429.546 L1165.07,447.398 L1164.21,447.213 L1163.26,446.992 L1139.24,443.964 L1116.69,440.854 L1094.9,420.077 L1097.43,402.664 L1099.92,385.138 L1101.04,377.201 L1101.28,375.415 L1101.89,372.105 L1102.27,369.989 L1102.81,367.083 L1078.98,363.953 L1055.79,360.822 L1055.94,359.746 L1057.86,346.811 L1058.71,340.853 L1059.17,337.644 L1059.94,331.861 L1061.04,324.193 L1061.37,320.873 L1061.61,318.99 L1063.55,303.738 L1057.53,302.938 L1046.06,301.417 L1044.01,301.152 L1040.46,300.7 L1041.31,294.571 L1041.89,290.229 L1042.88,283.196 L1043.8,275.38 L1044.14,273.111 L1067.5,276.142 L1068.46,268.669 L1069.36,263.763 L1069.91,258.465 L1070.84,251.491 L1072.57,238.389 L1074.47,225.281 L1075.89,214.465 L1076.06,213.484 L1077.32,204.51 L1078.62,196.473 L1080.43,181.895 L1081.72,172.595 L1084.7,151.839 L1087.66,131.773 L1087.83,127.94 L1088.61,121.889 L1089.43,116.603 L1090.03,112.011 L1091.26,103.306 L1093.71,85.9339 L1085.68,68.5242 L1080.61,58.1471 L1079.21,55.0304 L1077.33,50.7793 L1075.85,48.0476 L1072.85,41.6095 L1064.05,23.1695 L1059.75,13.0376 L1053.58,-0.159059 L1050.47,-6.23049 L1045.55,-16.9185 L1043.33,-21.9632 L1033.68,-30.5612 L1013.97,-48.0513 L1011.98,-49.3709 L1009.88,-51.6062 L1001.31,-59.7382 L995.172,-65.2811 L990.71,-69.342 L974.338,-84.0212 L977.583,-83.8096 L984.068,-83.042 L992.678,-81.6091 L1000.59,-80.7684 L1007.75,-79.6568 L1016.17,-78.3524 L1027.81,-76.7979 L1039.87,-75.2364 L1051.87,-73.6733 L1063.47,-71.8689 L1070.36,-71.0754 L1073.35,-70.5504 L1077.27,-70.0908 L1081.47,-69.429 L1091.33,-68.1863 L1102.9,-66.4965 L1114.46,-64.8446 L1126.11,-63.291 L1137.78,-61.5849 L1149.29,-60.0659 L1161.04,-58.42 L1172.57,-56.7104 L1184.13,-55.2121 L1195.85,-53.5657 L1207.47,-52.0884 L1215.17,-51.0131 L1231.68,-48.742 L1233.93,-64.7448 L1244.72,302.559"/>
   <path fill-rule="evenodd" vector-effect="none" d="M912.956,453.383 L920.156,454.322 L923.984,454.804 L948.448,458.359 L965.719,460.726 L988.909,464.031 L1017.16,467.589 L1040.57,470.79 L1064.02,473.875 L1065.76,460.964 L1066.67,454.201 L1067.84,445.631 L1069.31,434.795 L1092.68,437.882 L1094.6,422.458 L1094.9,420.077 L1116.69,440.854 L1139.24,443.964 L1163.26,446.992 L1164.21,447.213 L1165.07,447.398 L1163.89,456.734 L1162.27,467.479 L1176.23,469.481 L1175.53,475.683 L1173.62,488.446 L1190.7,490.663 L1213.67,493.568 L1237.02,496.71 L1250.47,498.344 L1252.23,558.323 L1249.26,579.886 L1252.88,580.389 L1254.36,630.757 L906.318,640.93 L900.125,640.078 L880.647,637.391 L872.249,636.295 L864.283,635.398 L847.72,633.142 L837.422,631.566 L814.483,626.816 L809.46,621.757 L798.587,611.011 L812.835,596.934 L813.88,595.889 L815.179,594.971 L836.913,579.049 L843.76,571.865 L856.658,561.577 L870.61,549.536 L893.414,510.656 L902.98,484.083 L903.69,482.168 L912.956,453.383"/>
   <path fill-rule="evenodd" vector-effect="none" d="M912.956,453.383 L903.69,482.168 L902.98,484.083 L893.414,510.656 L870.61,549.536 L856.658,561.577 L843.76,571.865 L836.913,579.049 L815.179,594.971 L813.88,595.889 L812.835,596.934 L798.587,611.011 L792.558,616.946 L773.639,644.784 L276.835,659.095 L273.46,655.517 L265.525,647.42 L263.548,645.256 L258.844,644.051 L253.976,642.774 L238.811,638.864 L229.05,636.463 L224.129,635.36 L219.168,634.43 L214.209,633.577 L209.394,632.604 L204.47,637.606 L191.734,649.643 L184.136,656.96 L178.993,661.89 L165.718,662.269 L164.363,660.892 L158.186,654.504 L150.777,646.755 L133.675,663.183 L55.1463,665.419 L50.4664,660.672 L42.7287,652.74 L34.0662,643.36 L37.188,642.296 L38.3035,632.83 L39.5933,623.798 L40.8646,613.601 L42.1414,603.594 L43.2562,594.625 L44.7035,584.403 L45.9889,574.186 L46.6052,569.958 L47.078,565.352 L48.4713,555.304 L49.8024,545.659 L50.941,537.015 L52.3964,526.563 L53.7564,515.865 L54.9636,507.047 L56.2663,496.925 L84.8265,500.647 L114.585,504.546 L120.189,505.343 L138.963,507.755 L144.969,508.694 L158.304,510.438 L167.543,511.628 L176.796,512.819 L178.249,502.826 L179.381,493.972 L180.734,483.599 L207.285,487.089 L229.138,490.082 L236.542,490.961 L237.891,480.952 L239.228,470.542 L240.784,458.517 L242.326,447.048 L243.669,436.332 L245.103,425.172 L247.1,410.552 L249.111,395.912 L250.312,385.869 L250.838,381.624 L251.397,377.494 L252.954,366.541 L254.383,367.074 L262.665,368.292 L267.512,368.861 L282.055,370.684 L289.521,371.714 L296.702,372.542 L311.321,374.439 L325.174,376.319 L337.117,377.853 L340.384,378.295 L369.241,382.156 L413.354,388.008 L428.152,389.975 L452.912,393.187 L457.391,393.766 L478.798,396.633 L481.311,396.944 L500.424,399.436 L517.928,401.764 L530.775,403.461 L546.134,405.468 L559.305,407.174 L570.26,408.638 L591.711,411.464 L626.171,416 L650.05,419.252 L677.927,422.752 L707.039,426.674 L742.784,431.323 L746.78,431.972 L775.981,435.91 L794.062,438.295 L798.601,438.89 L805.74,439.793 L809.406,440.26 L811.831,440.573 L837.07,443.974 L839.938,444.35 L865.842,447.845 L867.752,448.172 L883.959,449.921 L898.246,451.477 L899.074,451.586 L899.917,451.696 L900.892,451.821 L901.765,451.929 L912.956,453.383"/>
   <path fill-rule="evenodd" vector-effect="none" d="M777.715,-82.9677 L777.496,-81.3951 L775.391,-67.1533 L775.007,-63.6401 L773.956,-54.2132 L772.852,-46.5837 L770.053,-27.3843 L769.032,-20.427 L768.861,-19.2355 L767.804,-12.0284 L766.892,-7.94482 L765.83,-5.98116 L764.104,-3.53896 L761.661,-0.482671 L760.836,0.536374 L757.811,8.91055 L759.574,18.4472 L760.619,21.4597 L761.292,23.3539 L763.392,29.2639 L767.84,40.4833 L768.643,43.3114 L768.672,44.8224 L768.539,46.2999 L768.431,47.145 L768.012,48.937 L767.31,50.6223 L766.368,52.1614 L764.998,53.6747 L763.633,54.8243 L758.051,57.3209 L748.267,56.0162 L742.769,55.3143 L737.79,55.2099 L730.698,56.3914 L724.033,57.5605 L712.489,59.579 L702.759,61.1812 L699.081,61.7852 L695.331,62.4297 L692.796,62.8475 L689.792,63.3364 L689.337,63.4069 L689.03,63.4732 L685.571,64.0326 L684.165,64.2838 L678.043,65.3987 L675.846,65.7876 L673.004,66.2909 L636.191,72.733 L634.301,73.0555 L628.265,74.1102 L625.57,74.59 L618.068,75.8593 L585.372,81.626 L564.623,85.0762 L556.316,86.5214 L547.614,88.0163 L550.042,101.763 L552.19,114.983 L553.759,123.434 L554.601,128.118 L555.431,132.897 L557.461,145.086 L557.829,147.143 L558.081,148.724 L553.308,147.12 L524.6,140.12 L517.51,137.799 L507.92,134.573 L498.332,131.404 L493.547,129.877 L488.705,128.409 L484.963,127.311 L485.417,129.805 L485.915,132.278 L487.218,138.671 L488.701,147.737 L490.028,154.952 L490.389,157.257 L492.306,168.11 L478.051,170.588 L464.308,172.954 L444.116,176.405 L427.645,179.137 L426.471,178.271 L425.569,177.608 L423.237,175.896 L408.69,165.157 L402.405,160.61 L394.287,171.732 L394.128,172.349 L395.938,186.65 L388.903,187.809 L381.955,188.908 L373.075,190.388 L363.869,191.819 L364.436,196.204 L365.309,203.011 L367.581,220.61 L353.82,222.899 L352.505,213.005 L339.24,215.107 L338.162,206.297 L311.663,210.578 L312.84,219.787 L313.994,229.227 L287.651,233.35 L284.021,234.123 L278.785,234.847 L260.782,237.601 L249.045,239.64 L237.352,241.659 L227.133,243.195 L229.871,260.684 L232.03,273.866 L225.231,272.988 L217.811,272.014 L208.824,270.835 L206.304,255.291 L205.55,249.514 L204.795,245.249 L203.487,237.096 L200.395,218.047 L198.63,207.266 L196.188,191.912 L193.16,174.047 L189.991,155.881 L187.395,140.761 L184.871,126.614 L182.705,114.179 L180.64,102.201 L179.077,92.8302 L177.706,85.0232 L175.418,71.9413 L170.26,42.3497 L167.23,24.4282 L165.416,13.9738 L164.67,9.49786 L155.313,4.06204 L135.847,-6.90313 L131.01,-8.7363 L124.785,-11.7356 L108.086,-19.1249 L106.467,-19.6146 L82.4034,-26.603 L75.34,-29.5977 L32.457,-47.1316 L36.6056,-55.5168 L38.4276,-59.7788 L39.271,-61.7517 L777.715,-82.9677"/>
   <path fill-rule="evenodd" vector-effect="none" d="M-76.3515,669.152 L-77.8009,667.376 L-80.7205,664.665 L-81.8862,663.033 L-82.612,661.331 L-82.9463,658.891 L-84.2885,656.747 L-85.7327,654.645 L-86.4706,654.073 L-87.0287,653.61 L-87.9634,652.852 L-90.1462,650.675 L-93.0145,647.694 L-95.7792,644.73 L-98.297,641.643 L-101.062,638.66 L-102.057,637.846 L-102.974,637.221 L-103.867,636.864 L-105.303,636.12 L-106.819,634.593 L-108.444,632.86 L-109.209,631.331 L-110.266,629.352 L-111.529,626.364 L-112.166,623.665 L-112.502,622.568 L-116.215,491.441 L-115.636,490.685 L-114.373,489.023 L-113.769,487.455 L-113.086,485.561 L-112.141,484.615 L-111.434,483.581 L-110.91,482.322 L-110.479,480.894 L-110.208,479.547 L-110.45,478.291 L-110.568,477.241 L-110.368,475.992 L-109.624,473.119 L-108.543,469.166 L-108.325,468.03 L-107.764,467.039 L-106.885,465.827 L-105.841,465.243 L-104.898,464.757 L-103.77,464.533 L-103.101,464.246 L-102.605,463.543 L-102.102,462.591 L-101.838,461.512 L-101.576,459.859 L-101.806,457.952 L-102.446,456.171 L-103.124,454.583 L-103.845,452.517 L-104.065,450.993 L-103.527,449.198 L-101.806,447.044 L-100.83,446.136 L-100.007,445.06 L-99.5987,443.345 L-99.2179,441.191 L-99.5762,438.943 L-100.546,435.89 L-101.427,434.939 L-103.355,433.96 L-105.165,432.959 L-106.459,431.981 L-107.048,431.462 L-107.954,430.703 L-108.452,430.258 L-109.139,429.416 L-109.902,428.462 L-110.779,427.645 L-112.187,426.307 L-116.122,422.036 L-118.253,419.479 L-119.147,387.885 L-117.745,387.099 L-114.056,385.253 L-111.532,383.919 L-110.084,383.055 L-108.518,381.671 L-106.725,379.955 L-105.225,378.344 L-103.923,376.986 L-101.76,375.375 L-99.8048,374.21 L-97.665,372.809 L-95.5987,371.411 L-94.3532,370.151 L-93.2848,368.36 L-92.6278,366.6 L-91.9048,364.57 L-90.7251,362.547 L-88.7524,359.41 L-87.5912,357.253 L-86.859,355.548 L-86.4696,353.7 L-86.2621,350.632 L-86.3103,348.93 L-86.2709,347.723 L-85.9533,345.418 L-85.7302,343.938 L-85.5354,342.497 L-85.0889,341.107 L-84.6396,339.812 L-84.1789,338.402 L-84.1481,336.889 L-84.5614,334.777 L-85.1226,333.683 L-85.3708,332.197 L-85.0984,329.338 L-84.6678,325.307 L-84.3546,322.332 L-83.2461,322.473 L-77.049,323.426 L-70.5363,324.083 L-59.2286,325.581 L-50.5808,326.752 L-40.3231,328.087 L-30.2998,329.468 L-21.3571,330.649 L-20.3228,330.773 L-11.1425,332.024 L-0.176279,333.416 L8.51635,334.604 L18.0199,335.827 L28.9425,337.238 L37.4592,338.451 L47.2429,339.684 L45.2791,354.514 L43.4335,368.843 L41.536,383.421 L39.5813,398.059 L37.6849,412.16 L36.6707,419.997 L35.6848,427.794 L34.6863,435.669 L33.641,443.449 L32.8078,449.367 L32.437,451.865 L32.2597,453.918 L30.8626,463.832 L29.4568,473.957 L28.3246,482.831 L27.097,493.008 L56.2663,496.925 L54.9636,507.047 L53.7564,515.865 L52.3964,526.563 L50.941,537.015 L49.8024,545.659 L48.4713,555.304 L47.078,565.352 L46.6052,569.958 L45.9889,574.186 L44.7035,584.403 L43.2562,594.625 L42.1414,603.594 L40.8646,613.601 L39.5933,623.798 L38.3035,632.83 L37.188,642.296 L34.0662,643.36 L42.7287,652.74 L50.4664,660.672 L55.1463,665.419 L133.675,663.183 L150.777,646.755 L158.186,654.504 L164.363,660.892 L165.718,662.269 L178.993,661.89 L184.136,656.96 L191.734,649.643 L204.47,637.606 L209.394,632.604 L214.209,633.577 L219.168,634.43 L224.129,635.36 L229.05,636.463 L238.811,638.864 L253.976,642.774 L258.844,644.051 L263.548,645.256 L265.525,647.42 L273.46,655.517 L276.835,659.095 L-76.3515,669.152"/>
   <path fill-rule="evenodd" vector-effect="none" d="M47.2429,339.684 L37.4592,338.451 L28.9425,337.238 L18.0199,335.827 L8.51635,334.604 L-0.176279,333.416 L-11.1425,332.024 L-20.3228,330.773 L-21.3571,330.649 L-30.2998,329.468 L-40.3231,328.087 L-50.5808,326.752 L-59.2286,325.581 L-70.5363,324.083 L-77.049,323.426 L-83.2461,322.473 L-84.3546,322.332 L-83.7498,319.769 L-83.2134,318.951 L-81.5902,316.474 L-80.5845,315.068 L-80.3364,313.951 L-80.4669,312.462 L-80.9424,310.753 L-81.6647,308.649 L-82.975,306.581 L-84.8307,303.974 L-86.2527,302.12 L-88.1478,300.202 L-90.4504,298.45 L-98.826,293.367 L-104.082,290.798 L-111.532,286.665 L-115.472,284.308 L-117.269,283.249 L-118.232,282.53 L-119.409,281.53 L-120.372,280.773 L-121.548,280.327 L-122.195,280.26 L-131.741,-56.8983 L39.271,-61.7517 L38.4276,-59.7788 L36.6056,-55.5168 L32.457,-47.1316 L75.34,-29.5977 L82.4034,-26.603 L106.467,-19.6146 L108.086,-19.1249 L124.785,-11.7356 L131.01,-8.7363 L135.847,-6.90313 L155.313,4.06204 L164.67,9.49786 L165.416,13.9738 L167.23,24.4282 L170.26,42.3497 L175.418,71.9413 L177.706,85.0232 L179.077,92.8302 L180.64,102.201 L182.705,114.179 L184.871,126.614 L187.395,140.761 L189.991,155.881 L193.16,174.047 L196.188,191.912 L198.63,207.266 L200.395,218.047 L203.487,237.096 L204.795,245.249 L205.55,249.514 L186.962,241.108 L180.269,238.257 L174.814,236.46 L173.155,226.844 L172.414,222.559 L162.567,224.218 L160.178,224.611 L154.358,225.505 L146.402,226.918 L144.344,227.015 L120.321,229.901 L116.811,258.649 L114.901,273.266 L112.932,287.867 L106.029,286.934 L102.348,286.446 L93.8344,285.33 L84.2864,284.09 L82.479,298.704 L80.4192,313.25 L79.1469,323.39 L107.866,327.146 L106.805,335.386 L105.127,347.299 L76.4656,343.522 L47.2429,339.684"/>
   <path fill-rule="evenodd" vector-effect="none" d="M1094.9,420.077 L1074.13,399.709 L1068.42,398.938 L1050.72,396.508 L1037.24,394.835 L1026.57,393.501 L1030.36,367.287 L1030.35,367 L1030.9,364.841 L1031.4,363.142 L1031.58,362.391 L1029.28,360.219 L1025.17,359.669 L1005.97,341.992 L984.781,322.994 L958.868,299.426 L953.869,296.165 L944.747,293.426 L948.599,291.687 L950.157,290.092 L918.741,261.555 L918.091,260.98 L915.626,261.301 L889.89,264.48 L886.498,263.316 L884.773,262.237 L881.407,261.914 L878.94,262.158 L873.663,263 L869.224,263.78 L867.161,264.242 L864.804,264.712 L861.834,265.373 L861.146,264.512 L853.724,254.872 L836.537,232.522 L783.219,190.456 L745.566,160.431 L713.395,88.2969 L702.751,64.4539 L702.759,61.1812 L712.489,59.579 L724.033,57.5605 L730.698,56.3914 L737.79,55.2099 L742.769,55.3143 L748.267,56.0162 L758.051,57.3209 L763.633,54.8243 L764.998,53.6747 L766.368,52.1614 L767.31,50.6223 L768.012,48.937 L768.431,47.145 L768.539,46.2999 L768.672,44.8224 L768.643,43.3114 L767.84,40.4833 L763.392,29.2639 L761.292,23.3539 L760.619,21.4597 L759.574,18.4472 L757.811,8.91055 L760.836,0.536374 L761.661,-0.482671 L764.104,-3.53896 L765.83,-5.98116 L766.892,-7.94482 L767.804,-12.0284 L768.861,-19.2355 L769.032,-20.427 L770.053,-27.3843 L772.852,-46.5837 L773.956,-54.2132 L775.007,-63.6401 L775.391,-67.1533 L777.496,-81.3951 L777.715,-82.9677 L1233.01,-96.2579 L1233.93,-64.7448 L1231.68,-48.742 L1215.17,-51.0131 L1207.47,-52.0884 L1195.85,-53.5657 L1184.13,-55.2121 L1172.57,-56.7104 L1161.04,-58.42 L1149.29,-60.0659 L1137.78,-61.5849 L1126.11,-63.291 L1114.46,-64.8446 L1102.9,-66.4965 L1091.33,-68.1863 L1081.47,-69.429 L1077.27,-70.0908 L1073.35,-70.5504 L1070.36,-71.0754 L1063.47,-71.8689 L1051.87,-73.6733 L1039.87,-75.2364 L1027.81,-76.7979 L1016.17,-78.3524 L1007.75,-79.6568 L1000.59,-80.7684 L992.678,-81.6091 L984.068,-83.042 L977.583,-83.8096 L974.338,-84.0212 L990.71,-69.342 L995.172,-65.2811 L1001.31,-59.7382 L1009.88,-51.6062 L1011.98,-49.3709 L1013.97,-48.0513 L1033.68,-30.5612 L1043.33,-21.9632 L1045.55,-16.9185 L1050.47,-6.23049 L1053.58,-0.159059 L1059.75,13.0376 L1064.05,23.1695 L1072.85,41.6095 L1075.85,48.0476 L1077.33,50.7793 L1079.21,55.0304 L1080.61,58.1471 L1085.68,68.5242 L1093.71,85.9339 L1091.26,103.306 L1090.03,112.011 L1089.43,116.603 L1088.61,121.889 L1087.83,127.94 L1087.66,131.773 L1084.7,151.839 L1081.72,172.595 L1080.43,181.895 L1078.62,196.473 L1077.32,204.51 L1076.06,213.484 L1075.89,214.465 L1074.47,225.281 L1072.57,238.389 L1070.84,251.491 L1069.91,258.465 L1069.36,263.763 L1068.46,268.669 L1067.5,276.142 L1044.14,273.111 L1043.8,275.38 L1042.88,283.196 L1041.89,290.229 L1041.31,294.571 L1040.46,300.7 L1044.01,301.152 L1046.06,301.417 L1057.53,302.938 L1063.55,303.738 L1061.61,318.99 L1061.37,320.873 L1061.04,324.193 L1059.94,331.861 L1059.17,337.644 L1058.71,340.853 L1057.86,346.811 L1055.94,359.746 L1055.79,360.822 L1078.98,363.953 L1102.81,367.083 L1102.27,369.989 L1101.89,372.105 L1101.28,375.415 L1101.04,377.201 L1099.92,385.138 L1097.43,402.664 L1094.9,420.077"/>
  </g>
  <g font-weight="400" stroke="none" font-family="MS Shell Dlg 2" transform="matrix(1,0,0,1,0,85.5885)" fill="#ffb81c" font-style="normal" fill-opacity="0.901961" font-size="7.5625">
   <path fill-rule="evenodd" vector-effect="none" d="M56.2663,496.925 L27.097,493.008 L28.3246,482.831 L29.4568,473.957 L30.8626,463.832 L32.2597,453.918 L32.437,451.865 L32.8078,449.367 L33.641,443.449 L34.6863,435.669 L35.6848,427.794 L36.6707,419.997 L37.6849,412.16 L39.5813,398.059 L41.536,383.421 L43.4335,368.843 L45.2791,354.514 L47.2429,339.684 L76.4656,343.522 L105.127,347.299 L106.805,335.386 L107.866,327.146 L79.1469,323.39 L80.4192,313.25 L82.479,298.704 L84.2864,284.09 L93.8344,285.33 L102.348,286.446 L106.029,286.934 L112.932,287.867 L114.901,273.266 L116.811,258.649 L120.321,229.901 L144.344,227.015 L146.402,226.918 L154.358,225.505 L160.178,224.611 L162.567,224.218 L172.414,222.559 L173.155,226.844 L174.814,236.46 L180.269,238.257 L186.962,241.108 L205.55,249.514 L206.304,255.291 L208.824,270.835 L217.811,272.014 L225.231,272.988 L232.03,273.866 L229.871,260.684 L227.133,243.195 L237.352,241.659 L249.045,239.64 L260.782,237.601 L278.785,234.847 L284.021,234.123 L287.651,233.35 L313.994,229.227 L312.84,219.787 L311.663,210.578 L338.162,206.297 L339.24,215.107 L352.505,213.005 L353.82,222.899 L367.581,220.61 L365.309,203.011 L364.436,196.204 L363.869,191.819 L373.075,190.388 L381.955,188.908 L388.903,187.809 L395.938,186.65 L394.128,172.349 L394.287,171.732 L402.405,160.61 L408.69,165.157 L423.237,175.896 L425.569,177.608 L426.471,178.271 L427.645,179.137 L444.116,176.405 L464.308,172.954 L478.051,170.588 L492.306,168.11 L490.389,157.257 L490.028,154.952 L488.701,147.737 L487.218,138.671 L485.915,132.278 L485.417,129.805 L484.963,127.311 L488.705,128.409 L493.547,129.877 L498.332,131.404 L507.92,134.573 L517.51,137.799 L524.6,140.12 L553.308,147.12 L558.081,148.724 L557.829,147.143 L557.461,145.086 L555.431,132.897 L554.601,128.118 L553.759,123.434 L552.19,114.983 L550.042,101.763 L547.614,88.0163 L556.316,86.5214 L564.623,85.0762 L585.372,81.626 L618.068,75.8593 L625.57,74.59 L628.265,74.1102 L634.301,73.0555 L636.191,72.733 L673.004,66.2909 L675.846,65.7876 L678.043,65.3987 L684.165,64.2838 L685.571,64.0326 L689.03,63.4732 L689.337,63.4069 L689.792,63.3364 L692.796,62.8475 L695.331,62.4297 L699.081,61.7852 L702.759,61.1812 L702.751,64.4539 L713.395,88.2969 L745.566,160.431 L783.219,190.456 L836.537,232.522 L853.724,254.872 L861.146,264.512 L861.834,265.373 L864.804,264.712 L867.161,264.242 L869.224,263.78 L873.663,263 L878.94,262.158 L881.407,261.914 L884.773,262.237 L886.498,263.316 L889.89,264.48 L915.626,261.301 L918.091,260.98 L918.741,261.555 L950.157,290.092 L948.599,291.687 L944.747,293.426 L953.869,296.165 L958.868,299.426 L984.781,322.994 L1005.97,341.992 L1025.17,359.669 L1029.28,360.219 L1031.58,362.391 L1031.4,363.142 L1030.9,364.841 L1030.35,367 L1030.36,367.287 L1026.57,393.501 L1037.24,394.835 L1050.72,396.508 L1068.42,398.938 L1074.13,399.709 L1094.9,420.077 L1094.6,422.458 L1092.68,437.882 L1069.31,434.795 L1067.84,445.631 L1066.67,454.201 L1065.76,460.964 L1064.02,473.875 L1040.57,470.79 L1017.16,467.589 L988.909,464.031 L965.719,460.726 L948.448,458.359 L923.984,454.804 L920.156,454.322 L912.956,453.383 L901.765,451.929 L900.892,451.821 L899.917,451.696 L899.074,451.586 L898.246,451.477 L883.959,449.921 L867.752,448.172 L865.842,447.845 L839.938,444.35 L837.07,443.974 L811.831,440.573 L809.406,440.26 L805.74,439.793 L798.601,438.89 L794.062,438.295 L775.981,435.91 L746.78,431.972 L742.784,431.323 L707.039,426.674 L677.927,422.752 L650.05,419.252 L626.171,416 L591.711,411.464 L570.26,408.638 L559.305,407.174 L546.134,405.468 L530.775,403.461 L517.928,401.764 L500.424,399.436 L481.311,396.944 L478.798,396.633 L457.391,393.766 L452.912,393.187 L428.152,389.975 L413.354,388.008 L369.241,382.156 L340.384,378.295 L337.117,377.853 L325.174,376.319 L311.321,374.439 L296.702,372.542 L289.521,371.714 L282.055,370.684 L267.512,368.861 L262.665,368.292 L254.383,367.074 L252.954,366.541 L251.397,377.494 L250.838,381.624 L250.312,385.869 L249.111,395.912 L247.1,410.552 L245.103,425.172 L243.669,436.332 L242.326,447.048 L240.784,458.517 L239.228,470.542 L237.891,480.952 L236.542,490.961 L229.138,490.082 L207.285,487.089 L180.734,483.599 L179.381,493.972 L178.249,502.826 L176.796,512.819 L167.543,511.628 L158.304,510.438 L144.969,508.694 L138.963,507.755 L120.189,505.343 L114.585,504.546 L84.8265,500.647 L56.2663,496.925"/>
  </g>
  <g font-weight="400" stroke="#000000" stroke-linejoin="bevel" font-family="MS Shell Dlg 2" transform="matrix(1,0,0,1,0,85.5885)" fill="none" stroke-linecap="square" stroke-width="1" font-style="normal" font-size="7.5625" stroke-opacity="1"/>
  <g font-weight="400" stroke="#000000" stroke-linejoin="bevel" font-family="MS Shell Dlg 2" transform="matrix(1,0,0,1,0,85.5885)" fill="none" stroke-linecap="square" stroke-width="1" font-style="normal" font-size="7.5625" stroke-opacity="1"/>
  <g font-weight="400" stroke="#232323" stroke-linejoin="bevel" font-family="MS Shell Dlg 2" transform="matrix(1,0,0,1,0,85.5885)" fill="none" stroke-linecap="square" stroke-width="0.519685" font-style="normal" font-size="7.5625" stroke-opacity="0.301961">
   <path fill-rule="evenodd" vector-effect="none" d="M-76.3515,669.152 L-77.8009,667.376 L-80.7205,664.665 L-81.8862,663.033 L-82.612,661.331 L-82.9463,658.891 L-84.2885,656.747 L-85.7327,654.645 L-86.4706,654.073 L-87.0287,653.61 L-87.9634,652.852 L-90.1462,650.675 L-93.0145,647.694 L-95.7792,644.73 L-98.297,641.643 L-101.062,638.66 L-102.057,637.846 L-102.974,637.221 L-103.867,636.864 L-105.303,636.12 L-106.819,634.593 L-108.444,632.86 L-109.209,631.331 L-110.266,629.352 L-111.529,626.364 L-112.166,623.665 L-112.502,622.568 L-116.215,491.441 L-115.636,490.685 L-114.373,489.023 L-113.769,487.455 L-113.086,485.561 L-112.141,484.615 L-111.434,483.581 L-110.91,482.322 L-110.479,480.894 L-110.208,479.547 L-110.45,478.291 L-110.568,477.241 L-110.368,475.992 L-109.624,473.119 L-108.543,469.166 L-108.325,468.03 L-107.764,467.039 L-106.885,465.827 L-105.841,465.243 L-104.898,464.757 L-103.77,464.533 L-103.101,464.246 L-102.605,463.543 L-102.102,462.591 L-101.838,461.512 L-101.576,459.859 L-101.806,457.952 L-102.446,456.171 L-103.124,454.583 L-103.845,452.517 L-104.065,450.993 L-103.527,449.198 L-101.806,447.044 L-100.83,446.136 L-100.007,445.06 L-99.5987,443.345 L-99.2179,441.191 L-99.5762,438.943 L-100.546,435.89 L-101.427,434.939 L-103.355,433.96 L-105.165,432.959 L-106.459,431.981 L-107.048,431.462 L-107.954,430.703 L-108.452,430.258 L-109.139,429.416 L-109.902,428.462 L-110.779,427.645 L-112.187,426.307 L-116.122,422.036 L-118.253,419.479 L-119.147,387.885 L-117.745,387.099 L-114.056,385.253 L-111.532,383.919 L-110.084,383.055 L-108.518,381.671 L-106.725,379.955 L-105.225,378.344 L-103.923,376.986 L-101.76,375.375 L-99.8048,374.21 L-97.665,372.809 L-95.5987,371.411 L-94.3532,370.151 L-93.2848,368.36 L-92.6278,366.6 L-91.9048,364.57 L-90.7251,362.547 L-88.7524,359.41 L-87.5912,357.253 L-86.859,355.548 L-86.4696,353.7 L-86.2621,350.632 L-86.3103,348.93 L-86.2709,347.723 L-85.9533,345.418 L-85.7302,343.938 L-85.5354,342.497 L-85.0889,341.107 L-84.6396,339.812 L-84.1789,338.402 L-84.1481,336.889 L-84.5614,334.777 L-85.1226,333.683 L-85.3708,332.197 L-85.0984,329.338 L-84.6678,325.307 L-84.3546,322.332 L-83.2461,322.473 L-77.049,323.426 L-70.5363,324.083 L-59.2286,325.581 L-50.5808,326.752 L-40.3231,328.087 L-30.2998,329.468 L-21.3571,330.649 L-20.3228,330.773 L-11.1425,332.024 L-0.176279,333.416 L8.51635,334.604 L18.0199,335.827 L28.9425,337.238 L37.4592,338.451 L47.2429,339.684 L45.2791,354.514 L43.4335,368.843 L41.536,383.421 L39.5813,398.059 L37.6849,412.16 L36.6707,419.997 L35.6848,427.794 L34.6863,435.669 L33.641,443.449 L32.8078,449.367 L32.437,451.865 L32.2597,453.918 L30.8626,463.832 L29.4568,473.957 L28.3246,482.831 L27.097,493.008 L56.2663,496.925 L54.9636,507.047 L53.7564,515.865 L52.3964,526.563 L50.941,537.015 L49.8024,545.659 L48.4713,555.304 L47.078,565.352 L46.6052,569.958 L45.9889,574.186 L44.7035,584.403 L43.2562,594.625 L42.1414,603.594 L40.8646,613.601 L39.5933,623.798 L38.3035,632.83 L37.188,642.296 L34.0662,643.36 L42.7287,652.74 L50.4664,660.672 L55.1463,665.419 L-76.3515,669.152"/>
   <path fill-rule="evenodd" vector-effect="none" d="M201.082,329.214 L197.128,359.372 L188.407,358.243 L187.521,358.154 L180.679,357.315 L179.836,357.206 L173.45,356.354 L165.262,355.325 L159.543,354.608 L149.404,353.328 L134.871,351.331 L124.596,349.902 L115.876,348.811 L105.127,347.299 L76.4656,343.522 L47.2429,339.684 L37.4592,338.451 L28.9425,337.238 L18.0199,335.827 L22.0778,305.551 L25.9311,276.373 L27.0744,267.901 L28.0961,260.332 L29.7678,247.137 L33.5612,217.941 L37.7807,186.131 L37.7138,184.295 L37.6751,183.454 L37.6131,182.308 L38.9323,182.098 L50.0081,180.137 L62.2275,178.01 L57.1835,148.74 L53.8409,129.583 L52.9274,124.385 L51.9899,118.862 L47.7339,93.99 L43.6703,70.7011 L42.5815,64.5125 L40.4904,52.5923 L38.6744,42.0612 L37.7588,36.7863 L36.9254,31.8152 L34.9047,20.2948 L34.1323,15.9153 L32.8175,7.99171 L31.6732,1.40287 L30.4739,-5.05046 L29.6847,-10.0228 L28.3296,-17.8112 L26.7687,-27.144 L26.5717,-30.9658 L27.3035,-34.2207 L28.4206,-37.3909 L32.457,-47.1316 L75.34,-29.5977 L82.4034,-26.603 L106.467,-19.6146 L108.086,-19.1249 L124.785,-11.7356 L131.01,-8.7363 L135.847,-6.90313 L155.313,4.06204 L164.67,9.49786 L165.416,13.9738 L167.23,24.4282 L170.26,42.3497 L175.418,71.9413 L177.706,85.0232 L179.077,92.8302 L180.64,102.201 L182.705,114.179 L184.871,126.614 L187.395,140.761 L189.991,155.881 L193.16,174.047 L196.188,191.912 L198.63,207.266 L200.395,218.047 L203.487,237.096 L204.795,245.249 L205.55,249.514 L206.304,255.291 L208.824,270.835 L206.84,285.915 L206.016,292.138 L204.989,299.995 L201.082,329.214"/>
   <path fill-rule="evenodd" vector-effect="none" d="M593.235,398.445 L591.711,411.464 L570.26,408.638 L559.305,407.174 L546.134,405.468 L530.775,403.461 L517.928,401.764 L500.424,399.436 L481.311,396.944 L478.798,396.633 L457.391,393.766 L452.912,393.187 L428.152,389.975 L413.354,388.008 L369.241,382.156 L373.819,351.807 L379.26,315.616 L379.384,314.292 L377.363,298.255 L376.871,294.959 L376.483,291.716 L375.666,284.774 L374.371,274.554 L372.991,263.417 L371.309,252.519 L370.3,242.004 L367.581,220.61 L365.309,203.011 L364.436,196.204 L363.869,191.819 L360.521,165.468 L355.48,125.75 L350.519,122.199 L371.556,118.476 L407.381,112.395 L422.983,109.65 L431.919,108.092 L428.423,94.012 L425.178,79.982 L418.588,53.0541 L416.717,45.319 L413.641,32.5473 L410.913,21.6409 L443.426,36.1692 L457.328,42.41 L472.78,49.3523 L483.564,54.1899 L494.11,58.9384 L508.786,65.4817 L512.993,67.3891 L546.742,82.3002 L556.316,86.5214 L547.614,88.0163 L550.042,101.763 L552.19,114.983 L553.759,123.434 L554.601,128.118 L555.431,132.897 L557.461,145.086 L557.829,147.143 L558.081,148.724 L558.913,153.58 L560.215,161.446 L562.891,176.123 L566.276,195.986 L568.022,205.963 L569.799,215.997 L573.428,237.173 L577.177,258.403 L579.002,269.086 L580.81,279.674 L582.603,290.282 L582.777,291.712 L582.998,293.237 L583.097,294.65 L582.81,295.941 L582.683,297.131 L582.331,298.213 L582.242,299.21 L582.571,302.454 L583.781,313.749 L583.894,314.607 L585.082,325.653 L585.988,334.085 L587.736,349.249 L589.555,366.362 L590.328,372.713 L593.064,397.608 L593.235,398.445"/>
   <path fill-rule="evenodd" vector-effect="none" d="M1187.15,279.758 L1186.66,284.212 L1185.69,292.278 L1185.4,294.756 L1185.95,297.036 L1185.79,298.131 L1184.72,305.416 L1184.35,307.895 L1183.77,312.084 L1182.67,320.174 L1181.13,331.701 L1178.86,348.035 L1177.67,357.064 L1176.94,362.444 L1176.26,367.708 L1174.79,377.109 L1174.48,379.567 L1174.25,381.584 L1174,383.62 L1173.83,385.041 L1170.01,412.29 L1167.6,429.546 L1165.07,447.398 L1163.89,456.734 L1162.27,467.479 L1176.23,469.481 L1175.53,475.683 L1173.62,488.446 L1173.25,490.926 L1172.11,499.629 L1171.29,502.217 L1168.33,502.266 L1159.85,501.595 L1158.58,502.283 L1157.96,502.837 L1157.64,503.325 L1155.81,515.493 L1153.79,530.536 L1151.74,544.739 L1148.74,566.567 L1146.62,581.748 L1145.44,590.145 L1144.73,597.247 L1143.66,605.297 L1142.02,617.344 L1139.98,631.546 L1139.62,634.121 L1135.46,634.243 L1123.68,632.54 L1113.35,631.158 L1101.92,629.656 L1090.2,628.429 L1066.99,625.05 L1043.51,622.119 L1020.32,619.256 L1008.85,617.505 L996.997,616.09 L968.778,612.166 L957.002,610.921 L945.201,609.313 L936.195,608.102 L927.957,606.925 L912.877,605.011 L896.43,602.676 L878.228,600.277 L869.564,599.17 L861.168,598.151 L846.39,592.438 L842.969,590.757 L836.913,579.049 L843.76,571.865 L856.658,561.577 L870.61,549.536 L893.414,510.656 L902.98,484.083 L903.69,482.168 L912.956,453.383 L916.916,436.638 L917.334,434.807 L917.529,433.405 L918.805,424.105 L919.416,420.815 L920.829,414.229 L924.522,397.395 L927.132,385.378 L914.716,348.919 L914.441,348.085 L914.072,347.024 L912.948,345.353 L912.565,344.829 L899.342,325.655 L888.487,309.915 L887.288,308.17 L863.073,267.48 L861.834,265.373 L864.804,264.712 L867.161,264.242 L869.224,263.78 L873.663,263 L878.94,262.158 L881.407,261.914 L884.773,262.237 L886.498,263.316 L889.89,264.48 L915.626,261.301 L918.091,260.98 L919.455,260.807 L938.111,257.718 L938.986,257.444 L940.401,256.981 L941.962,256.477 L945.474,256.221 L949.873,256.591 L953.932,257.41 L966.337,261.661 L968.759,262.413 L992.601,266.464 L1016.21,269.507 L1044.14,273.111 L1067.5,276.142 L1090.74,279.137 L1114.08,282.166 L1115.51,270.202 L1117.56,257.645 L1119.07,244.454 L1121.09,231.515 L1122.75,219.601 L1123.78,212.241 L1123.86,211.493 L1124.74,204.597 L1148.38,204.364 L1172.21,204.412 L1189.87,204.124 L1197.67,204.086 L1196.61,211.657 L1195.66,218.881 L1194.23,228.951 L1192.72,240.688 L1190.86,253.948 L1189.68,262.192 L1188.99,267.035 L1188.05,274.067 L1187.15,279.758"/>
   <path fill-rule="evenodd" vector-effect="none" d="M1199.89,188.252 L1197.67,204.086 L1189.87,204.124 L1172.21,204.412 L1148.38,204.364 L1124.74,204.597 L1123.86,211.493 L1123.78,212.241 L1122.75,219.601 L1121.09,231.515 L1119.07,244.454 L1117.56,257.645 L1115.51,270.202 L1114.08,282.166 L1090.74,279.137 L1067.5,276.142 L1044.14,273.111 L1016.21,269.507 L992.601,266.464 L968.759,262.413 L966.337,261.661 L957.882,254.003 L946.756,243.611 L938.843,233.832 L926.95,220.342 L926.28,219.596 L913.697,205.648 L906.425,198.645 L884.759,175.698 L884.54,172.719 L881.873,170.118 L876.144,164.524 L866.542,154.852 L861.941,150.048 L860.515,148.616 L854.772,143.023 L845.223,133.119 L843.835,131.973 L842.668,130.82 L841.041,129.069 L839.764,127.671 L838.383,126.275 L837.091,124.878 L835.699,123.598 L834.422,122.219 L832.894,120.809 L831.613,119.296 L830.132,117.98 L828.811,116.583 L825.875,113.338 L823.896,110.621 L816.718,92.0941 L826.339,93.3456 L834.409,94.3934 L850.34,96.4182 L874.334,99.7586 L884.843,101.137 L895.288,102.364 L901.321,103.222 L906.966,103.919 L913.619,104.873 L918.746,105.489 L927.111,106.566 L934.032,107.59 L937.667,108.039 L942.458,108.722 L949.996,109.708 L957.196,110.723 L965.963,111.96 L974.538,113.164 L980.806,114.015 L989.332,115.048 L1004.5,117.266 L1014.58,118.369 L1024.44,119.803 L1034.42,121.1 L1045.75,122.3 L1064.61,124.888 L1070.26,125.718 L1076.39,126.4 L1087.83,127.94 L1101,129.756 L1102.2,129.95 L1113.23,131.446 L1123.19,132.666 L1134.36,134.138 L1157.64,137.149 L1180.95,140.198 L1193.43,141.918 L1203.89,143.506 L1206.11,143.785 L1202.74,166.983 L1201.56,174.596 L1200.52,182.703 L1199.89,188.252"/>
   <path fill-rule="evenodd" vector-effect="none" d="M916.916,436.638 L912.956,453.383 L901.765,451.929 L900.892,451.821 L899.917,451.696 L899.074,451.586 L898.246,451.477 L883.959,449.921 L867.752,448.172 L865.842,447.845 L839.938,444.35 L837.07,443.974 L811.831,440.573 L809.406,440.26 L805.74,439.793 L798.601,438.89 L794.062,438.295 L775.981,435.91 L746.78,431.972 L742.784,431.323 L707.039,426.674 L677.927,422.752 L650.05,419.252 L626.171,416 L591.711,411.464 L593.235,398.445 L593.064,397.608 L590.328,372.713 L589.555,366.362 L587.736,349.249 L585.988,334.085 L585.082,325.653 L583.894,314.607 L583.781,313.749 L582.571,302.454 L582.242,299.21 L582.331,298.213 L582.683,297.131 L582.81,295.941 L583.097,294.65 L582.998,293.237 L582.777,291.712 L582.603,290.282 L580.81,279.674 L579.002,269.086 L577.177,258.403 L573.428,237.173 L569.799,215.997 L568.022,205.963 L566.276,195.986 L562.891,176.123 L560.215,161.446 L558.913,153.58 L558.081,148.724 L557.829,147.143 L557.461,145.086 L555.431,132.897 L554.601,128.118 L553.759,123.434 L552.19,114.983 L550.042,101.763 L547.614,88.0163 L556.316,86.5214 L564.623,85.0762 L585.372,81.626 L618.068,75.8593 L625.57,74.59 L628.265,74.1102 L634.301,73.0555 L636.191,72.733 L673.004,66.2909 L675.846,65.7876 L678.043,65.3987 L684.165,64.2838 L685.571,64.0326 L689.03,63.4732 L689.337,63.4069 L689.792,63.3364 L692.796,62.8475 L695.331,62.4297 L699.081,61.7852 L702.759,61.1812 L702.751,64.4539 L713.395,88.2969 L745.566,160.431 L783.219,190.456 L836.537,232.522 L853.724,254.872 L861.146,264.512 L861.834,265.373 L863.073,267.48 L887.288,308.17 L888.487,309.915 L899.342,325.655 L912.565,344.829 L912.948,345.353 L914.072,347.024 L914.441,348.085 L914.716,348.919 L927.132,385.378 L924.522,397.395 L920.829,414.229 L919.416,420.815 L918.805,424.105 L917.529,433.405 L917.334,434.807 L916.916,436.638"/>
   <path fill-rule="evenodd" vector-effect="none" d="M792.558,616.946 L773.639,644.784 L436.263,654.523 L440.5,650.517 L458.923,632.438 L466.103,625.515 L477.533,614.775 L467.81,604.472 L458.003,594.305 L452.159,588.273 L444.553,580.397 L439.954,575.649 L434.774,570.688 L434.341,569.476 L437.102,547.14 L439.038,532.502 L441.02,517.958 L442.206,508.987 L442.398,507.489 L443.718,497.538 L443.836,496.023 L444.776,489.259 L445.273,485.532 L446.784,474.064 L448.597,460.291 L449.672,452.088 L450.697,444.213 L451.579,437.489 L452.319,431.459 L453.56,422.888 L453.733,421.237 L455.342,408.56 L457.391,393.766 L478.798,396.633 L481.311,396.944 L500.424,399.436 L517.928,401.764 L530.775,403.461 L546.134,405.468 L559.305,407.174 L570.26,408.638 L591.711,411.464 L626.171,416 L650.05,419.252 L677.927,422.752 L707.039,426.674 L742.784,431.323 L746.78,431.972 L775.981,435.91 L794.062,438.295 L798.601,438.89 L805.74,439.793 L809.406,440.26 L811.831,440.573 L837.07,443.974 L839.938,444.35 L865.842,447.845 L867.752,448.172 L883.959,449.921 L898.246,451.477 L899.074,451.586 L899.917,451.696 L900.892,451.821 L901.765,451.929 L912.956,453.383 L903.69,482.168 L902.98,484.083 L893.414,510.656 L870.61,549.536 L856.658,561.577 L843.76,571.865 L836.913,579.049 L815.179,594.971 L813.88,595.889 L812.835,596.934 L798.587,611.011 L792.558,616.946"/>
   <path fill-rule="evenodd" vector-effect="none" d="M1033.68,-30.5612 L1043.33,-21.9632 L1045.55,-16.9185 L1050.47,-6.23049 L1053.58,-0.159059 L1059.75,13.0376 L1064.05,23.1695 L1072.85,41.6095 L1075.85,48.0476 L1077.33,50.7793 L1079.21,55.0304 L1080.61,58.1471 L1085.68,68.5242 L1093.71,85.9339 L1091.26,103.306 L1090.03,112.011 L1089.43,116.603 L1088.61,121.889 L1087.83,127.94 L1076.39,126.4 L1070.26,125.718 L1064.61,124.888 L1045.75,122.3 L1034.42,121.1 L1024.44,119.803 L1014.58,118.369 L1004.5,117.266 L989.332,115.048 L980.806,114.015 L974.538,113.164 L965.963,111.96 L957.196,110.723 L949.996,109.708 L942.458,108.722 L937.667,108.039 L934.032,107.59 L927.111,106.566 L918.746,105.489 L913.619,104.873 L906.966,103.919 L901.321,103.222 L895.288,102.364 L884.843,101.137 L874.334,99.7586 L850.34,96.4182 L834.409,94.3934 L826.339,93.3456 L816.718,92.0941 L823.896,110.621 L825.875,113.338 L828.811,116.583 L830.132,117.98 L831.613,119.296 L832.894,120.809 L834.422,122.219 L835.699,123.598 L837.091,124.878 L838.383,126.275 L839.764,127.671 L841.041,129.069 L842.668,130.82 L843.835,131.973 L845.223,133.119 L854.772,143.023 L860.515,148.616 L861.941,150.048 L866.542,154.852 L876.144,164.524 L881.873,170.118 L884.54,172.719 L884.759,175.698 L906.425,198.645 L913.697,205.648 L926.28,219.596 L926.95,220.342 L938.843,233.832 L946.756,243.611 L957.882,254.003 L966.337,261.661 L953.932,257.41 L949.873,256.591 L945.474,256.221 L941.962,256.477 L940.401,256.981 L938.986,257.444 L938.111,257.718 L919.455,260.807 L918.091,260.98 L915.626,261.301 L889.89,264.48 L886.498,263.316 L884.773,262.237 L881.407,261.914 L878.94,262.158 L873.663,263 L869.224,263.78 L867.161,264.242 L864.804,264.712 L861.834,265.373 L861.146,264.512 L853.724,254.872 L836.537,232.522 L783.219,190.456 L745.566,160.431 L713.395,88.2969 L702.751,64.4539 L702.759,61.1812 L712.489,59.579 L724.033,57.5605 L730.698,56.3914 L737.79,55.2099 L742.769,55.3143 L748.267,56.0162 L758.051,57.3209 L763.633,54.8243 L764.998,53.6747 L766.368,52.1614 L767.31,50.6223 L768.012,48.937 L768.431,47.145 L768.539,46.2999 L768.672,44.8224 L768.643,43.3114 L767.84,40.4833 L763.392,29.2639 L761.292,23.3539 L760.619,21.4597 L759.574,18.4472 L757.811,8.91055 L760.836,0.536374 L761.661,-0.482671 L764.104,-3.53896 L765.83,-5.98116 L766.892,-7.94482 L767.804,-12.0284 L768.861,-19.2355 L769.032,-20.427 L770.053,-27.3843 L772.852,-46.5837 L773.956,-54.2132 L785.852,-52.6829 L798.412,-51.0763 L802.773,-50.4566 L805.227,-50.1068 L808.509,-49.628 L820.721,-47.8584 L836.61,-45.7174 L845.246,-44.38 L853.484,-43.1076 L860.521,-42.0874 L869.238,-41.0204 L878.11,-39.6901 L885.2,-38.9012 L893.242,-37.7765 L903.748,-36.4365 L914.215,-34.9615 L926.015,-33.1809 L937.679,-31.5495 L949.579,-29.8678 L961.268,-28.3713 L962.578,-37.4615 L963.726,-46.0876 L964.924,-55.4616 L966.558,-66.5898 L969.114,-84.9597 L974.338,-84.0212 L990.71,-69.342 L995.172,-65.2811 L1001.31,-59.7382 L1009.88,-51.6062 L1011.98,-49.3709 L1013.97,-48.0513 L1033.68,-30.5612"/>
   <path fill-rule="evenodd" vector-effect="none" d="M773.639,644.784 L792.558,616.946 L798.587,611.011 L812.835,596.934 L813.88,595.889 L815.179,594.971 L836.913,579.049 L842.969,590.757 L846.39,592.438 L861.168,598.151 L869.564,599.17 L878.228,600.277 L896.43,602.676 L912.877,605.011 L927.957,606.925 L936.195,608.102 L945.201,609.313 L957.002,610.921 L968.778,612.166 L996.997,616.09 L1008.85,617.505 L1020.32,619.256 L1043.51,622.119 L1066.99,625.05 L1090.2,628.429 L1101.92,629.656 L1113.35,631.158 L1123.68,632.54 L1135.46,634.243 L773.639,644.784"/>
   <path fill-rule="evenodd" vector-effect="none" d="M57.1835,148.74 L62.2275,178.01 L50.0081,180.137 L38.9323,182.098 L37.6131,182.308 L37.6751,183.454 L37.7138,184.295 L37.7807,186.131 L33.5612,217.941 L29.7678,247.137 L28.0961,260.332 L27.0744,267.901 L25.9311,276.373 L22.0778,305.551 L18.0199,335.827 L8.51635,334.604 L-0.176279,333.416 L-11.1425,332.024 L-20.3228,330.773 L-21.3571,330.649 L-30.2998,329.468 L-40.3231,328.087 L-50.5808,326.752 L-59.2286,325.581 L-70.5363,324.083 L-77.049,323.426 L-83.2461,322.473 L-84.3546,322.332 L-83.7498,319.769 L-83.2134,318.951 L-81.5902,316.474 L-80.5845,315.068 L-80.3364,313.951 L-80.4669,312.462 L-80.9424,310.753 L-81.6647,308.649 L-82.975,306.581 L-84.8307,303.974 L-86.2527,302.12 L-88.1478,300.202 L-90.4504,298.45 L-98.826,293.367 L-104.082,290.798 L-111.532,286.665 L-115.472,284.308 L-117.269,283.249 L-118.232,282.53 L-119.409,281.53 L-120.372,280.773 L-121.548,280.327 L-122.195,280.26 L-131.741,-56.8983 L39.271,-61.7517 L38.4276,-59.7788 L36.6056,-55.5168 L32.457,-47.1316 L28.4206,-37.3909 L27.3035,-34.2207 L26.5717,-30.9658 L26.7687,-27.144 L28.3296,-17.8112 L29.6847,-10.0228 L30.4739,-5.05046 L31.6732,1.40287 L32.8175,7.99171 L34.1323,15.9153 L34.9047,20.2948 L36.9254,31.8152 L37.7588,36.7863 L38.6744,42.0612 L40.4904,52.5923 L42.5815,64.5125 L43.6703,70.7011 L47.7339,93.99 L51.9899,118.862 L52.9274,124.385 L53.8409,129.583 L57.1835,148.74"/>
   <path fill-rule="evenodd" vector-effect="none" d="M777.715,-82.9677 L777.496,-81.3951 L775.391,-67.1533 L775.007,-63.6401 L773.956,-54.2132 L772.852,-46.5837 L770.053,-27.3843 L769.032,-20.427 L768.861,-19.2355 L767.804,-12.0284 L766.892,-7.94482 L765.83,-5.98116 L764.104,-3.53896 L761.661,-0.482671 L760.836,0.536374 L757.811,8.91055 L759.574,18.4472 L760.619,21.4597 L761.292,23.3539 L763.392,29.2639 L767.84,40.4833 L768.643,43.3114 L768.672,44.8224 L768.539,46.2999 L768.431,47.145 L768.012,48.937 L767.31,50.6223 L766.368,52.1614 L764.998,53.6747 L763.633,54.8243 L758.051,57.3209 L748.267,56.0162 L742.769,55.3143 L737.79,55.2099 L730.698,56.3914 L724.033,57.5605 L712.489,59.579 L702.759,61.1812 L702.398,59.3736 L698.451,45.0967 L696.935,44.1071 L628.481,2.62648 L580.698,-32.3542 L547.657,-76.3129 L777.715,-82.9677"/>
   <path fill-rule="evenodd" vector-effect="none" d="M373.819,351.807 L369.241,382.156 L340.384,378.295 L337.117,377.853 L325.174,376.319 L311.321,374.439 L296.702,372.542 L289.521,371.714 L282.055,370.684 L267.512,368.861 L262.665,368.292 L254.383,367.074 L252.954,366.541 L233.138,364.161 L223.648,362.901 L214.898,361.773 L207.019,360.735 L197.128,359.372 L201.082,329.214 L204.989,299.995 L206.016,292.138 L206.84,285.915 L208.824,270.835 L206.304,255.291 L205.55,249.514 L204.795,245.249 L203.487,237.096 L200.395,218.047 L198.63,207.266 L196.188,191.912 L193.16,174.047 L189.991,155.881 L187.395,140.761 L184.871,126.614 L182.705,114.179 L180.64,102.201 L179.077,92.8302 L177.706,85.0232 L175.418,71.9413 L170.26,42.3497 L167.23,24.4282 L165.416,13.9738 L164.67,9.49786 L210.132,35.2593 L215.638,38.3361 L226.158,44.2741 L251.556,58.7043 L263.35,65.4476 L271.222,69.8917 L279.842,74.7546 L294.45,83.101 L307.275,90.3311 L310.206,92.3905 L322.117,101.139 L323.095,101.858 L324.735,103.074 L340.754,114.881 L350.519,122.199 L355.48,125.75 L360.521,165.468 L363.869,191.819 L364.436,196.204 L365.309,203.011 L367.581,220.61 L370.3,242.004 L371.309,252.519 L372.991,263.417 L374.371,274.554 L375.666,284.774 L376.483,291.716 L376.871,294.959 L377.363,298.255 L379.384,314.292 L379.26,315.616 L373.819,351.807"/>
   <path fill-rule="evenodd" vector-effect="none" d="M441.02,517.958 L439.038,532.502 L437.102,547.14 L434.341,569.476 L434.774,570.688 L439.954,575.649 L444.553,580.397 L452.159,588.273 L458.003,594.305 L467.81,604.472 L477.533,614.775 L466.103,625.515 L458.923,632.438 L440.5,650.517 L436.263,654.523 L375.35,656.272 L374.73,655.601 L366.071,646.951 L355.571,635.731 L345.163,625.141 L335.052,614.618 L325.705,605.088 L318.271,597.531 L312.869,591.486 L292.269,595.29 L282.417,596.874 L258.512,601.021 L254.245,601.163 L251.838,600.964 L241.329,601.226 L222.102,601.565 L219.071,601.651 L204.763,601.964 L197.698,602.128 L192.222,602.246 L185.666,602.203 L179.656,602.184 L165.12,602.235 L159.035,602.695 L131.305,612.174 L120.261,615.876 L110.234,619.645 L98.9435,622.971 L97.5682,623.814 L94.363,625.053 L77.8205,630.691 L67.4429,633.513 L56.5278,636.598 L47.581,638.977 L37.188,642.296 L38.3035,632.83 L39.5933,623.798 L40.8646,613.601 L42.1414,603.594 L43.2562,594.625 L44.7035,584.403 L45.9889,574.186 L46.6052,569.958 L47.078,565.352 L48.4713,555.304 L49.8024,545.659 L50.941,537.015 L52.3964,526.563 L53.7564,515.865 L54.9636,507.047 L56.2663,496.925 L84.8265,500.647 L114.585,504.546 L120.189,505.343 L138.963,507.755 L144.969,508.694 L158.304,510.438 L167.543,511.628 L176.796,512.819 L203.583,516.283 L232.742,520.311 L261.891,523.994 L291.134,527.846 L320.303,531.68 L322.299,517.059 L324.196,502.537 L325.099,495.526 L325.88,488.328 L326.766,482.236 L329.89,458.665 L331.261,448.445 L331.756,444.144 L332.753,436.767 L346.93,438.657 L361.449,440.613 L391.191,444.468 L405.824,446.325 L420.432,448.297 L433.5,449.989 L449.672,452.088 L448.597,460.291 L446.784,474.064 L445.273,485.532 L444.776,489.259 L443.836,496.023 L443.718,497.538 L442.398,507.489 L442.206,508.987 L441.02,517.958"/>
   <path fill-rule="evenodd" vector-effect="none" d="M1209.22,119.485 L1206.11,143.785 L1203.89,143.506 L1193.43,141.918 L1180.95,140.198 L1157.64,137.149 L1134.36,134.138 L1123.19,132.666 L1113.23,131.446 L1102.2,129.95 L1101,129.756 L1087.83,127.94 L1088.61,121.889 L1089.43,116.603 L1090.03,112.011 L1091.26,103.306 L1093.71,85.9339 L1085.68,68.5242 L1080.61,58.1471 L1079.21,55.0304 L1077.33,50.7793 L1075.85,48.0476 L1072.85,41.6095 L1064.05,23.1695 L1059.75,13.0376 L1053.58,-0.159059 L1050.47,-6.23049 L1045.55,-16.9185 L1043.33,-21.9632 L1033.68,-30.5612 L1013.97,-48.0513 L1011.98,-49.3709 L1009.88,-51.6062 L1001.31,-59.7382 L995.172,-65.2811 L990.71,-69.342 L974.338,-84.0212 L977.583,-83.8096 L984.068,-83.042 L992.678,-81.6091 L1000.59,-80.7684 L1007.75,-79.6568 L1016.17,-78.3524 L1027.81,-76.7979 L1039.87,-75.2364 L1051.87,-73.6733 L1063.47,-71.8689 L1070.36,-71.0754 L1073.35,-70.5504 L1077.27,-70.0908 L1081.47,-69.429 L1091.33,-68.1863 L1102.9,-66.4965 L1114.46,-64.8446 L1126.11,-63.291 L1137.78,-61.5849 L1149.29,-60.0659 L1161.04,-58.42 L1172.57,-56.7104 L1184.13,-55.2121 L1195.85,-53.5657 L1207.47,-52.0884 L1215.17,-51.0131 L1231.68,-48.742 L1227.64,-19.6108 L1223.66,7.81523 L1223.88,9.03336 L1220.24,35.2822 L1217.24,61.5502 L1213.92,86.0861 L1211.72,101.863 L1209.22,119.485"/>
   <path fill-rule="evenodd" vector-effect="none" d="M318.271,597.531 L325.705,605.088 L335.052,614.618 L345.163,625.141 L355.571,635.731 L366.071,646.951 L374.73,655.601 L375.35,656.272 L55.1463,665.419 L50.4664,660.672 L42.7287,652.74 L34.0662,643.36 L37.188,642.296 L47.581,638.977 L56.5278,636.598 L67.4429,633.513 L77.8205,630.691 L94.363,625.053 L97.5682,623.814 L98.9435,622.971 L110.234,619.645 L120.261,615.876 L131.305,612.174 L159.035,602.695 L165.12,602.235 L179.656,602.184 L185.666,602.203 L192.222,602.246 L197.698,602.128 L204.763,601.964 L219.071,601.651 L222.102,601.565 L241.329,601.226 L251.838,600.964 L254.245,601.163 L258.512,601.021 L282.417,596.874 L292.269,595.29 L312.869,591.486 L318.271,597.531"/>
   <path fill-rule="evenodd" vector-effect="none" d="M628.481,2.62648 L696.935,44.1071 L698.451,45.0967 L702.398,59.3736 L702.759,61.1812 L699.081,61.7852 L695.331,62.4297 L692.796,62.8475 L689.792,63.3364 L689.337,63.4069 L689.03,63.4732 L685.571,64.0326 L684.165,64.2838 L678.043,65.3987 L675.846,65.7876 L673.004,66.2909 L636.191,72.733 L634.301,73.0555 L628.265,74.1102 L625.57,74.59 L618.068,75.8593 L585.372,81.626 L564.623,85.0762 L556.316,86.5214 L546.742,82.3002 L512.993,67.3891 L508.786,65.4817 L494.11,58.9384 L483.564,54.1899 L472.78,49.3523 L457.328,42.41 L443.426,36.1692 L410.913,21.6409 L413.641,32.5473 L416.717,45.319 L418.588,53.0541 L425.178,79.982 L428.423,94.012 L431.919,108.092 L422.983,109.65 L407.381,112.395 L371.556,118.476 L350.519,122.199 L340.754,114.881 L324.735,103.074 L323.095,101.858 L322.117,101.139 L310.206,92.3905 L307.275,90.3311 L294.45,83.101 L279.842,74.7546 L271.222,69.8917 L263.35,65.4476 L251.556,58.7043 L226.158,44.2741 L215.638,38.3361 L210.132,35.2593 L164.67,9.49786 L155.313,4.06204 L135.847,-6.90313 L131.01,-8.7363 L124.785,-11.7356 L108.086,-19.1249 L106.467,-19.6146 L82.4034,-26.603 L75.34,-29.5977 L32.457,-47.1316 L36.6056,-55.5168 L38.4276,-59.7788 L39.271,-61.7517 L547.657,-76.3129 L580.698,-32.3542 L628.481,2.62648"/>
   <path fill-rule="evenodd" vector-effect="none" d="M452.319,431.459 L451.579,437.489 L450.697,444.213 L449.672,452.088 L433.5,449.989 L420.432,448.297 L405.824,446.325 L391.191,444.468 L361.449,440.613 L346.93,438.657 L332.753,436.767 L331.756,444.144 L331.261,448.445 L329.89,458.665 L326.766,482.236 L325.88,488.328 L325.099,495.526 L324.196,502.537 L322.299,517.059 L320.303,531.68 L291.134,527.846 L261.891,523.994 L232.742,520.311 L203.583,516.283 L176.796,512.819 L167.543,511.628 L158.304,510.438 L144.969,508.694 L138.963,507.755 L120.189,505.343 L114.585,504.546 L84.8265,500.647 L56.2663,496.925 L27.097,493.008 L28.3246,482.831 L29.4568,473.957 L30.8626,463.832 L32.2597,453.918 L32.437,451.865 L32.8078,449.367 L33.641,443.449 L34.6863,435.669 L35.6848,427.794 L36.6707,419.997 L37.6849,412.16 L39.5813,398.059 L41.536,383.421 L43.4335,368.843 L45.2791,354.514 L47.2429,339.684 L76.4656,343.522 L105.127,347.299 L115.876,348.811 L124.596,349.902 L134.871,351.331 L149.404,353.328 L159.543,354.608 L165.262,355.325 L173.45,356.354 L179.836,357.206 L180.679,357.315 L187.521,358.154 L188.407,358.243 L197.128,359.372 L207.019,360.735 L214.898,361.773 L223.648,362.901 L233.138,364.161 L252.954,366.541 L254.383,367.074 L262.665,368.292 L267.512,368.861 L282.055,370.684 L289.521,371.714 L296.702,372.542 L311.321,374.439 L325.174,376.319 L337.117,377.853 L340.384,378.295 L369.241,382.156 L413.354,388.008 L428.152,389.975 L452.912,393.187 L457.391,393.766 L455.342,408.56 L453.733,421.237 L453.56,422.888 L452.319,431.459"/>
  </g>
  <g font-weight="400" stroke="#000000" stroke-linejoin="bevel" font-family="MS Shell Dlg 2" transform="matrix(1,0,0,1,0,85.5885)" fill="none" stroke-linecap="square" stroke-width="1" font-style="normal" font-size="7.5625" stroke-opacity="1"/>
  <g font-weight="400" stroke="#232323" stroke-linejoin="bevel" font-family="MS Shell Dlg 2" transform="matrix(1,0,0,1,0,85.5885)" fill="none" stroke-linecap="square" stroke-width="0.519685" font-style="normal" font-size="7.5625" stroke-opacity="0.101961">
   <path fill-rule="evenodd" vector-effect="none" d="M-131.741,-56.8983 L1233.01,-96.2579 L1254.36,630.757 L-76.3515,669.152 L-77.8009,667.376 L-80.7205,664.665 L-81.8862,663.033 L-82.612,661.331 L-82.9463,658.891 L-84.2885,656.747 L-85.7327,654.645 L-86.4706,654.073 L-87.0287,653.61 L-87.9634,652.852 L-90.1462,650.675 L-93.0145,647.694 L-95.7792,644.73 L-98.297,641.643 L-101.062,638.66 L-102.057,637.846 L-102.974,637.221 L-103.867,636.864 L-105.303,636.12 L-106.819,634.593 L-108.444,632.86 L-109.209,631.331 L-110.266,629.352 L-111.529,626.364 L-112.166,623.665 L-112.502,622.568 L-116.215,491.441 L-115.636,490.685 L-114.373,489.023 L-113.769,487.455 L-113.086,485.561 L-112.141,484.615 L-111.434,483.581 L-110.91,482.322 L-110.479,480.894 L-110.208,479.547 L-110.45,478.291 L-110.568,477.241 L-110.368,475.992 L-109.624,473.119 L-108.543,469.166 L-108.325,468.03 L-107.764,467.039 L-106.885,465.827 L-105.841,465.243 L-104.898,464.757 L-103.77,464.533 L-103.101,464.246 L-102.605,463.543 L-102.102,462.591 L-101.838,461.512 L-101.576,459.859 L-101.806,457.952 L-102.446,456.171 L-103.124,454.583 L-103.845,452.517 L-104.065,450.993 L-103.527,449.198 L-101.806,447.044 L-100.83,446.136 L-100.007,445.06 L-99.5987,443.345 L-99.2179,441.191 L-99.5762,438.943 L-100.546,435.89 L-101.427,434.939 L-103.355,433.96 L-105.165,432.959 L-106.459,431.981 L-107.048,431.462 L-107.954,430.703 L-108.452,430.258 L-109.139,429.416 L-109.902,428.462 L-110.779,427.645 L-112.187,426.307 L-116.122,422.036 L-118.253,419.479 L-119.147,387.885 L-117.745,387.099 L-114.056,385.253 L-111.532,383.919 L-110.084,383.055 L-108.518,381.671 L-106.725,379.955 L-105.225,378.344 L-103.923,376.986 L-101.76,375.375 L-99.8048,374.21 L-97.665,372.809 L-95.5987,371.411 L-94.3532,370.151 L-93.2848,368.36 L-92.6278,366.6 L-91.9048,364.57 L-90.7251,362.547 L-88.7524,359.41 L-87.5912,357.253 L-86.859,355.548 L-86.4696,353.7 L-86.2621,350.632 L-86.3103,348.93 L-86.2709,347.723 L-85.9533,345.418 L-85.7302,343.938 L-85.5354,342.497 L-85.0889,341.107 L-84.6396,339.812 L-84.1789,338.402 L-84.1481,336.889 L-84.5614,334.777 L-85.1226,333.683 L-85.3708,332.197 L-85.0984,329.338 L-84.6678,325.307 L-84.3546,322.332 L-83.7498,319.769 L-83.2134,318.951 L-81.5902,316.474 L-80.5845,315.068 L-80.3364,313.951 L-80.4669,312.462 L-80.9424,310.753 L-81.6647,308.649 L-82.975,306.581 L-84.8307,303.974 L-86.2527,302.12 L-88.1478,300.202 L-90.4504,298.45 L-98.826,293.367 L-104.082,290.798 L-111.532,286.665 L-115.472,284.308 L-117.269,283.249 L-118.232,282.53 L-119.409,281.53 L-120.372,280.773 L-121.548,280.327 L-122.195,280.26 L-131.741,-56.8983"/>
  </g>
  <g font-weight="400" stroke="#000000" stroke-linejoin="bevel" font-family="MS Shell Dlg 2" transform="matrix(1,0,0,1,0,85.5885)" fill="none" stroke-linecap="square" stroke-width="1" font-style="normal" font-size="7.5625" stroke-opacity="1"/>
  <g font-weight="400" stroke="#232323" stroke-linejoin="bevel" font-family="MS Shell Dlg 2" transform="matrix(1,0,0,1,0,85.5885)" fill="none" stroke-linecap="square" stroke-width="2.59843" font-style="normal" font-size="7.5625" stroke-opacity="0.701961">
   <path fill-rule="evenodd" vector-effect="none" d="M-131.741,-56.8983 L1233.01,-96.2579 L1254.36,630.757 L-76.3515,669.152 L-77.8009,667.376 L-80.7205,664.665 L-81.8862,663.033 L-82.612,661.331 L-82.9463,658.891 L-84.2885,656.747 L-85.7327,654.645 L-86.4706,654.073 L-87.0287,653.61 L-87.9634,652.852 L-90.1462,650.675 L-93.0145,647.694 L-95.7792,644.73 L-98.297,641.643 L-101.062,638.66 L-102.057,637.846 L-102.974,637.221 L-103.867,636.864 L-105.303,636.12 L-106.819,634.593 L-108.444,632.86 L-109.209,631.331 L-110.266,629.352 L-111.529,626.364 L-112.166,623.665 L-112.502,622.568 L-116.215,491.441 L-115.636,490.685 L-114.373,489.023 L-113.769,487.455 L-113.086,485.561 L-112.141,484.615 L-111.434,483.581 L-110.91,482.322 L-110.479,480.894 L-110.208,479.547 L-110.45,478.291 L-110.568,477.241 L-110.368,475.992 L-109.624,473.119 L-108.543,469.166 L-108.325,468.03 L-107.764,467.039 L-106.885,465.827 L-105.841,465.243 L-104.898,464.757 L-103.77,464.533 L-103.101,464.246 L-102.605,463.543 L-102.102,462.591 L-101.838,461.512 L-101.576,459.859 L-101.806,457.952 L-102.446,456.171 L-103.124,454.583 L-103.845,452.517 L-104.065,450.993 L-103.527,449.198 L-101.806,447.044 L-100.83,446.136 L-100.007,445.06 L-99.5987,443.345 L-99.2179,441.191 L-99.5762,438.943 L-100.546,435.89 L-101.427,434.939 L-103.355,433.96 L-105.165,432.959 L-106.459,431.981 L-107.048,431.462 L-107.954,430.703 L-108.452,430.258 L-109.139,429.416 L-109.902,428.462 L-110.779,427.645 L-112.187,426.307 L-116.122,422.036 L-118.253,419.479 L-119.147,387.885 L-117.745,387.099 L-114.056,385.253 L-111.532,383.919 L-110.084,383.055 L-108.518,381.671 L-106.725,379.955 L-105.225,378.344 L-103.923,376.986 L-101.76,375.375 L-99.8048,374.21 L-97.665,372.809 L-95.5987,371.411 L-94.3532,370.151 L-93.2848,368.36 L-92.6278,366.6 L-91.9048,364.57 L-90.7251,362.547 L-88.7524,359.41 L-87.5912,357.253 L-86.859,355.548 L-86.4696,353.7 L-86.2621,350.632 L-86.3103,348.93 L-86.2709,347.723 L-85.9533,345.418 L-85.7302,343.938 L-85.5354,342.497 L-85.0889,341.107 L-84.6396,339.812 L-84.1789,338.402 L-84.1481,336.889 L-84.5614,334.777 L-85.1226,333.683 L-85.3708,332.197 L-85.0984,329.338 L-84.6678,325.307 L-84.3546,322.332 L-83.7498,319.769 L-83.2134,318.951 L-81.5902,316.474 L-80.5845,315.068 L-80.3364,313.951 L-80.4669,312.462 L-80.9424,310.753 L-81.6647,308.649 L-82.975,306.581 L-84.8307,303.974 L-86.2527,302.12 L-88.1478,300.202 L-90.4504,298.45 L-98.826,293.367 L-104.082,290.798 L-111.532,286.665 L-115.472,284.308 L-117.269,283.249 L-118.232,282.53 L-119.409,281.53 L-120.372,280.773 L-121.548,280.327 L-122.195,280.26 L-131.741,-56.8983"/>
  </g>
  <g font-weight="400" stroke="#000000" stroke-linejoin="bevel" font-family="MS Shell Dlg 2" transform="matrix(1,0,0,1,0,85.5885)" fill="none" stroke-linecap="square" stroke-width="1" font-style="normal" font-size="7.5625" stroke-opacity="1"/>
  <g font-weight="400" stroke="#000000" stroke-linejoin="bevel" font-family="MS Shell Dlg 2" transform="matrix(1,0,0,1,0,85.5885)" fill="none" stroke-linecap="square" stroke-width="1" font-style="normal" font-size="7.5625" stroke-opacity="1"/>
  <g font-weight="400" stroke="#000000" stroke-linejoin="bevel" font-family="MS Shell Dlg 2" transform="matrix(1.45455,0,0,1.45455,527.5,376.338)" fill="none" stroke-linecap="square" stroke-width="1" font-style="normal" font-size="7.5625" stroke-opacity="1"/>
  <g font-weight="400" stroke="none" font-family="MS Shell Dlg 2" transform="matrix(1,0,0,1,527.5,376.338)" fill="#323232" font-style="normal" fill-opacity="0.500008" font-size="7.5625">
   <path fill-rule="nonzero" vector-effect="none" d="M0.694336,0 L0.694336,-6.44238 L3.12451,-6.44238 C3.55225,-6.44238 3.87891,-6.42188 4.10449,-6.38086 C4.4209,-6.32813 4.68604,-6.22778 4.8999,-6.07983 C5.11377,-5.93188 5.28589,-5.72461 5.41626,-5.45801 C5.54663,-5.19141 5.61182,-4.89844 5.61182,-4.5791 C5.61182,-4.03125 5.4375,-3.56763 5.08887,-3.18823 C4.74023,-2.80884 4.11035,-2.61914 3.19922,-2.61914 L1.54688,-2.61914 L1.54688,0 L0.694336,0 M1.54688,-3.37939 L3.2124,-3.37939 C3.76318,-3.37939 4.1543,-3.48193 4.38574,-3.68701 C4.61719,-3.89209 4.73291,-4.18066 4.73291,-4.55273 C4.73291,-4.82227 4.66479,-5.05298 4.52856,-5.24487 C4.39233,-5.43677 4.21289,-5.56348 3.99023,-5.625 C3.84668,-5.66309 3.58154,-5.68213 3.19482,-5.68213 L1.54688,-5.68213 L1.54688,-3.37939 M6.7207,0 L6.7207,-6.44238 L7.57324,-6.44238 L7.57324,-3.79688 L10.9219,-3.79688 L10.9219,-6.44238 L11.7744,-6.44238 L11.7744,0 L10.9219,0 L10.9219,-3.03662 L7.57324,-3.03662 L7.57324,0 L6.7207,0 M13.8394,0 L13.8394,-6.44238 L14.6919,-6.44238 L14.6919,0 L13.8394,0 M16.6592,0 L16.6592,-6.44238 L17.5117,-6.44238 L17.5117,-0.760254 L20.6846,-0.760254 L20.6846,0 L16.6592,0 M20.9868,0 L23.4609,-6.44238 L24.3794,-6.44238 L27.0161,0 L26.0449,0 L25.2935,-1.95117 L22.5996,-1.95117 L21.8921,0 L20.9868,0 M22.8457,-2.64551 L25.0298,-2.64551 L24.3574,-4.42969 C24.1523,-4.97168 24,-5.41699 23.9004,-5.76563 C23.8184,-5.35254 23.7026,-4.94238 23.5532,-4.53516 L22.8457,-2.64551 M27.6943,0 L27.6943,-6.44238 L29.9136,-6.44238 C30.4146,-6.44238 30.7969,-6.41162 31.0605,-6.3501 C31.4297,-6.26514 31.7446,-6.11133 32.0054,-5.88867 C32.3452,-5.60156 32.5994,-5.23462 32.7678,-4.78784 C32.9363,-4.34106 33.0205,-3.83057 33.0205,-3.25635 C33.0205,-2.76709 32.9634,-2.3335 32.8491,-1.95557 C32.7349,-1.57764 32.5884,-1.26489 32.4097,-1.01733 C32.231,-0.769775 32.0354,-0.574951 31.823,-0.432861 C31.6106,-0.290771 31.3542,-0.183105 31.054,-0.109863 C30.7537,-0.0366211 30.4087,0 30.019,0 L27.6943,0 M28.5469,-0.760254 L29.9224,-0.760254 C30.3472,-0.760254 30.6804,-0.799805 30.9221,-0.878906 C31.1638,-0.958008 31.3564,-1.06934 31.5,-1.21289 C31.7021,-1.41504 31.8596,-1.68677 31.9724,-2.02808 C32.0852,-2.36938 32.1416,-2.7832 32.1416,-3.26953 C32.1416,-3.94336 32.031,-4.46118 31.8098,-4.823 C31.5886,-5.18481 31.3198,-5.42725 31.0034,-5.55029 C30.7749,-5.63818 30.4072,-5.68213 29.9004,-5.68213 L28.5469,-5.68213 L28.5469,-0.760254 M34.7119,0 L34.7119,-6.44238 L39.3701,-6.44238 L39.3701,-5.68213 L35.5645,-5.68213 L35.5645,-3.70898 L39.1284,-3.70898 L39.1284,-2.95313 L35.5645,-2.95313 L35.5645,-0.760254 L39.5195,-0.760254 L39.5195,0 L34.7119,0 M40.6592,0 L40.6592,-6.44238 L41.5117,-6.44238 L41.5117,-0.760254 L44.6846,-0.760254 L44.6846,0 L40.6592,0 M45.6943,0 L45.6943,-6.44238 L48.1245,-6.44238 C48.5522,-6.44238 48.8789,-6.42188 49.1045,-6.38086 C49.4209,-6.32813 49.686,-6.22778 49.8999,-6.07983 C50.1138,-5.93188 50.2859,-5.72461 50.4163,-5.45801 C50.5466,-5.19141 50.6118,-4.89844 50.6118,-4.5791 C50.6118,-4.03125 50.4375,-3.56763 50.0889,-3.18823 C49.7402,-2.80884 49.1104,-2.61914 48.1992,-2.61914 L46.5469,-2.61914 L46.5469,0 L45.6943,0 M46.5469,-3.37939 L48.2124,-3.37939 C48.7632,-3.37939 49.1543,-3.48193 49.3857,-3.68701 C49.6172,-3.89209 49.7329,-4.18066 49.7329,-4.55273 C49.7329,-4.82227 49.6648,-5.05298 49.5286,-5.24487 C49.3923,-5.43677 49.2129,-5.56348 48.9902,-5.625 C48.8467,-5.66309 48.5815,-5.68213 48.1948,-5.68213 L46.5469,-5.68213 L46.5469,-3.37939 M51.7207,0 L51.7207,-6.44238 L52.5732,-6.44238 L52.5732,-3.79688 L55.9219,-3.79688 L55.9219,-6.44238 L56.7744,-6.44238 L56.7744,0 L55.9219,0 L55.9219,-3.03662 L52.5732,-3.03662 L52.5732,0 L51.7207,0 M58.8394,0 L58.8394,-6.44238 L59.6919,-6.44238 L59.6919,0 L58.8394,0 M60.9868,0 L63.4609,-6.44238 L64.3794,-6.44238 L67.0161,0 L66.0449,0 L65.2935,-1.95117 L62.5996,-1.95117 L61.8921,0 L60.9868,0 M62.8457,-2.64551 L65.0298,-2.64551 L64.3574,-4.42969 C64.1523,-4.97168 64,-5.41699 63.9004,-5.76563 C63.8184,-5.35254 63.7026,-4.94238 63.5532,-4.53516 L62.8457,-2.64551"/>
  </g>
  <g font-weight="400" stroke="#000000" stroke-linejoin="bevel" font-family="MS Shell Dlg 2" transform="matrix(1.45455,0,0,1.45455,527.5,376.338)" fill="none" stroke-linecap="square" stroke-width="1" font-style="normal" font-size="7.5625" stroke-opacity="1"/>
  <g font-weight="400" stroke="#000000" stroke-linejoin="bevel" font-family="MS Shell Dlg 2" transform="matrix(1,0,0,1,0,85.5885)" fill="none" stroke-linecap="square" stroke-width="1" font-style="normal" font-size="7.5625" stroke-opacity="1"/>
  <g font-weight="400" stroke="#000000" stroke-linejoin="bevel" font-family="MS Shell Dlg 2" transform="matrix(2.59843,0,0,2.59843,0,85.5885)" fill="none" stroke-linecap="square" stroke-width="1" font-style="normal" font-size="7.5625" stroke-opacity="1"/>
  <g font-weight="400" stroke="#000000" stroke-linejoin="bevel" font-family="MS Shell Dlg 2" transform="matrix(2.59843,0,0,2.59843,0,85.5885)" fill="none" stroke-linecap="square" stroke-width="1" font-style="normal" font-size="7.5625" stroke-opacity="1"/>
  <g font-weight="400" stroke="#000000" stroke-linejoin="bevel" font-family="MS Shell Dlg 2" transform="matrix(2.59843,0,0,2.59843,0,85.5885)" fill="none" stroke-linecap="square" stroke-width="1" font-style="normal" font-size="7.5625" stroke-opacity="1"/>
  <g font-weight="400" stroke="#000000" stroke-linejoin="bevel" font-family="MS Shell Dlg 2" transform="matrix(1,0,0,1,0,0)" fill="none" stroke-linecap="square" stroke-width="1" font-style="normal" font-size="7.5625" stroke-opacity="1"/>
  <g font-weight="400" stroke="#000000" stroke-linejoin="bevel" font-family="MS Shell Dlg 2" transform="matrix(2.59843,0,0,2.59843,0,85.5885)" fill="none" stroke-linecap="square" stroke-width="1" font-style="normal" font-size="7.5625" stroke-opacity="1"/>
  <g font-weight="400" stroke="#000000" stroke-linejoin="bevel" font-family="MS Shell Dlg 2" transform="matrix(2.59843,0,0,2.59843,0,85.5885)" fill="none" stroke-linecap="square" stroke-width="1" font-style="normal" font-size="7.5625" stroke-opacity="1"/>
  <g font-weight="400" stroke="#000000" stroke-linejoin="bevel" font-family="MS Shell Dlg 2" transform="matrix(2.59843,0,0,2.59843,652.129,7.79528)" fill="none" stroke-linecap="square" stroke-width="1" font-style="normal" font-size="7.5625" stroke-opacity="1"/>
  <g font-weight="400" stroke="#000000" stroke-linejoin="bevel" font-family="MS Shell Dlg 2" transform="matrix(1,0,0,1,652.129,7.79528)" fill="none" stroke-linecap="square" stroke-width="1" font-style="normal" font-size="7.5625" stroke-opacity="1"/>
  <g font-weight="400" stroke="#000000" stroke-linejoin="bevel" font-family="Franklin Gothic Heavy" transform="matrix(2.59843,0,0,2.59843,652.129,7.79528)" fill="none" stroke-linecap="square" stroke-width="1" font-style="normal" font-size="33" stroke-opacity="1"/>
  <g font-weight="400" stroke="#000000" stroke-linejoin="bevel" font-family="Franklin Gothic Heavy" transform="matrix(0.259843,0,0,0.259843,652.129,7.79528)" fill="none" stroke-linecap="square" stroke-width="1" font-style="normal" font-size="127" stroke-opacity="1">
   <text font-weight="400" stroke="none" font-family="Franklin Gothic Heavy" fill="#000000" x="611.406" y="205.688" font-style="normal" xml:space="preserve" fill-opacity="1" font-size="127">LRC-House Final</text>
  </g>
  <g font-weight="400" stroke="#000000" stroke-linejoin="bevel" font-family="Franklin Gothic Heavy" transform="matrix(2.59843,0,0,2.59843,652.129,7.79528)" fill="none" stroke-linecap="square" stroke-width="1" font-style="normal" font-size="33" stroke-opacity="1"/>
  <g font-weight="400" stroke="#000000" stroke-linejoin="bevel" font-family="MS Shell Dlg 2" transform="matrix(1,0,0,1,652.129,7.79528)" fill="none" stroke-linecap="square" stroke-width="1" font-style="normal" font-size="7.5625" stroke-opacity="1"/>
  <g font-weight="400" stroke="#000000" stroke-linejoin="bevel" font-family="MS Shell Dlg 2" transform="matrix(2.59843,0,0,2.59843,652.129,7.79528)" fill="none" stroke-linecap="square" stroke-width="1" font-style="normal" font-size="7.5625" stroke-opacity="1"/>
  <g font-weight="400" stroke="#000000" stroke-linejoin="bevel" font-family="MS Shell Dlg 2" transform="matrix(2.59843,0,0,2.59843,652.129,7.79528)" fill="none" stroke-linecap="square" stroke-width="1" font-style="normal" font-size="7.5625" stroke-opacity="1"/>
  <g font-weight="400" stroke="#000000" stroke-linejoin="bevel" font-family="MS Shell Dlg 2" transform="matrix(2.59843,0,0,2.59843,13.2208,3.4618e-15)" fill="none" stroke-linecap="square" stroke-width="1" font-style="normal" font-size="7.5625" stroke-opacity="1"/>
  <g font-weight="400" stroke="#000000" stroke-linejoin="bevel" font-family="MS Shell Dlg 2" transform="matrix(1,0,0,1,13.2208,3.4618e-15)" fill="none" stroke-linecap="square" stroke-width="1" font-style="normal" font-size="7.5625" stroke-opacity="1"/>
  <g font-weight="400" stroke="#000000" stroke-linejoin="bevel" font-family="MS Shell Dlg 2" transform="matrix(2.59843,0,0,2.59843,13.2208,3.4618e-15)" fill="none" stroke-linecap="square" stroke-width="1" font-style="normal" font-size="12.8333" stroke-opacity="1"/>
  <g font-weight="400" stroke="#000000" stroke-linejoin="bevel" font-family="MS Shell Dlg 2" transform="matrix(2.59843,0,0,2.59843,13.2208,3.4618e-15)" fill="none" stroke-linecap="square" stroke-width="1" font-style="normal" font-size="12.8333" stroke-opacity="1"/>
  <g font-weight="400" stroke="#000000" stroke-linejoin="bevel" font-family="MS Shell Dlg 2" transform="matrix(1,0,0,1,13.2208,3.4618e-15)" fill="none" stroke-linecap="square" stroke-width="1" font-style="normal" font-size="7.5625" stroke-opacity="1"/>
  <g font-weight="400" stroke="#000000" stroke-linejoin="bevel" font-family="MS Shell Dlg 2" transform="matrix(2.59843,0,0,2.59843,13.2208,3.4618e-15)" fill="none" stroke-linecap="square" stroke-width="1" font-style="normal" font-size="7.5625" stroke-opacity="1"/>
  <g font-weight="400" stroke="#000000" stroke-linejoin="bevel" font-family="MS Shell Dlg 2" transform="matrix(2.59843,0,0,2.59843,13.2208,3.4618e-15)" fill="none" stroke-linecap="square" stroke-width="1" font-style="normal" font-size="7.5625" stroke-opacity="1"/>
  <g font-weight="400" stroke="#000000" stroke-linejoin="bevel" font-family="MS Shell Dlg 2" transform="matrix(2.59843,0,0,2.59843,55.5276,20.5514)" fill="none" stroke-linecap="square" stroke-width="1" font-style="normal" font-size="7.5625" stroke-opacity="1"/>
  <g font-weight="400" stroke="#000000" stroke-linejoin="bevel" font-family="MS Shell Dlg 2" transform="matrix(2.59843,0,0,2.59843,55.5276,20.5514)" fill="none" stroke-linecap="square" stroke-width="1" font-style="normal" font-size="7.5625" stroke-opacity="1"/>
  <g font-weight="400" stroke="none" font-family="MS Shell Dlg 2" transform="matrix(2.59843,0,0,2.59843,55.5276,20.5514)" fill="#ffffff" font-style="normal" fill-opacity="0.701961" font-size="7.5625">
   <path fill-rule="evenodd" vector-effect="none" d="M0,0 L124.148,0 L124.148,30.0295 L0,30.0295 L0,0"/>
  </g>
  <g font-weight="400" stroke="#000000" stroke-linejoin="bevel" font-family="MS Shell Dlg 2" transform="matrix(2.59843,0,0,2.59843,55.5276,20.5514)" fill="none" stroke-linecap="square" stroke-width="1" font-style="normal" font-size="7.5625" stroke-opacity="1"/>
  <g font-weight="400" stroke="#000000" stroke-linejoin="bevel" font-family="MS Shell Dlg 2" transform="matrix(1,0,0,1,55.5276,20.5514)" fill="none" stroke-linecap="square" stroke-width="1" font-style="normal" font-size="7.5625" stroke-opacity="1"/>
  <g font-weight="400" stroke="#000000" stroke-linejoin="bevel" font-family="Franklin Gothic Book" transform="matrix(2.59843,0,0,2.59843,55.5276,20.5514)" fill="none" stroke-linecap="square" stroke-width="1" font-style="normal" font-size="15.5833" stroke-opacity="1"/>
  <g font-weight="400" stroke="#000000" stroke-linejoin="bevel" font-family="Franklin Gothic Book" transform="matrix(0.259843,0,0,0.259843,55.5276,20.5514)" fill="none" stroke-linecap="square" stroke-width="1" font-style="normal" font-size="60" stroke-opacity="1">
   <text font-weight="400" stroke="none" font-family="Franklin Gothic Book" fill="#000000" x="0" y="57" font-style="normal" xml:space="preserve" fill-opacity="1" font-size="60">District: 10</text>
   <text font-weight="400" stroke="none" font-family="Franklin Gothic Book" fill="#000000" x="0" y="132" font-style="normal" xml:space="preserve" fill-opacity="1" font-size="60">Total Population: 61,532</text>
   <text font-weight="400" stroke="none" font-family="Franklin Gothic Book" fill="#000000" x="0" y="207" font-style="normal" xml:space="preserve" fill-opacity="1" font-size="60">Deviation: -3.94</text>
  </g>
  <g font-weight="400" stroke="#000000" stroke-linejoin="bevel" font-family="Franklin Gothic Book" transform="matrix(2.59843,0,0,2.59843,55.5276,20.5514)" fill="none" stroke-linecap="square" stroke-width="1" font-style="normal" font-size="15.5833" stroke-opacity="1"/>
  <g font-weight="400" stroke="#000000" stroke-linejoin="bevel" font-family="MS Shell Dlg 2" transform="matrix(1,0,0,1,55.5276,20.5514)" fill="none" stroke-linecap="square" stroke-width="1" font-style="normal" font-size="7.5625" stroke-opacity="1"/>
  <g font-weight="400" stroke="#000000" stroke-linejoin="bevel" font-family="MS Shell Dlg 2" transform="matrix(2.59843,0,0,2.59843,55.5276,20.5514)" fill="none" stroke-linecap="square" stroke-width="1" font-style="normal" font-size="7.5625" stroke-opacity="1"/>
  <g font-weight="400" stroke="#000000" stroke-linejoin="bevel" font-family="MS Shell Dlg 2" transform="matrix(2.59843,0,0,2.59843,55.5276,20.5514)" fill="none" stroke-linecap="square" stroke-width="1" font-style="normal" font-size="7.5625" stroke-opacity="1"/>
  <g font-weight="400" stroke="#000000" stroke-linejoin="bevel" font-family="MS Shell Dlg 2" transform="matrix(2.59843,0,0,2.59843,853.616,23.1499)" fill="none" stroke-linecap="square" stroke-width="1" font-style="normal" font-size="7.5625" stroke-opacity="1"/>
  <g font-weight="400" stroke="#000000" stroke-linejoin="bevel" font-family="MS Shell Dlg 2" transform="matrix(1,0,0,1,853.616,23.1499)" fill="none" stroke-linecap="square" stroke-width="1" font-style="normal" font-size="7.5625" stroke-opacity="1"/>
  <g font-weight="400" stroke="#000000" stroke-linejoin="bevel" font-family="Franklin Gothic Heavy" transform="matrix(2.59843,0,0,2.59843,853.616,23.1499)" fill="none" stroke-linecap="square" stroke-width="1" font-style="normal" font-size="12.8333" stroke-opacity="1"/>
  <g font-weight="400" stroke="#000000" stroke-linejoin="bevel" font-family="Franklin Gothic Heavy" transform="matrix(0.259843,0,0,0.259843,853.616,23.1499)" fill="none" stroke-linecap="square" stroke-width="1" font-style="normal" font-size="49" stroke-opacity="1">
   <text font-weight="400" stroke="none" font-family="Franklin Gothic Heavy" fill="#000000" x="418.984" y="47" font-style="normal" xml:space="preserve" fill-opacity="1" font-size="49">February 4, 2022</text>
  </g>
  <g font-weight="400" stroke="#000000" stroke-linejoin="bevel" font-family="Franklin Gothic Heavy" transform="matrix(2.59843,0,0,2.59843,853.616,23.1499)" fill="none" stroke-linecap="square" stroke-width="1" font-style="normal" font-size="12.8333" stroke-opacity="1"/>
  <g font-weight="400" stroke="#000000" stroke-linejoin="bevel" font-family="MS Shell Dlg 2" transform="matrix(1,0,0,1,853.616,23.1499)" fill="none" stroke-linecap="square" stroke-width="1" font-style="normal" font-size="7.5625" stroke-opacity="1"/>
  <g font-weight="400" stroke="#000000" stroke-linejoin="bevel" font-family="MS Shell Dlg 2" transform="matrix(2.59843,0,0,2.59843,853.616,23.1499)" fill="none" stroke-linecap="square" stroke-width="1" font-style="normal" font-size="7.5625" stroke-opacity="1"/>
  <g font-weight="400" stroke="#000000" stroke-linejoin="bevel" font-family="MS Shell Dlg 2" transform="matrix(2.59843,0,0,2.59843,853.616,23.1499)" fill="none" stroke-linecap="square" stroke-width="1" font-style="normal" font-size="7.5625" stroke-opacity="1"/>
  <g font-weight="400" stroke="#000000" stroke-linejoin="bevel" font-family="MS Shell Dlg 2" transform="matrix(2.59843,0,0,2.59843,55.5276,20.5514)" fill="none" stroke-linecap="square" stroke-width="1" font-style="normal" font-size="7.5625" stroke-opacity="1"/>
  <g font-weight="400" stroke="#000000" stroke-linejoin="bevel" font-family="MS Shell Dlg 2" transform="matrix(2.59843,0,0,2.59843,55.5276,20.5514)" fill="none" stroke-linecap="square" stroke-width="1" font-style="normal" font-size="7.5625" stroke-opacity="1"/>
  <g font-weight="400" stroke="#000000" stroke-linejoin="bevel" font-family="MS Shell Dlg 2" transform="matrix(1,0,0,1,0,0)" fill="none" stroke-linecap="square" stroke-width="1" font-style="normal" font-size="7.5625" stroke-opacity="1"/>
 </g>
 <metadata>
  <rdf:RDF xmlns:rdfs="http://www.w3.org/2000/01/rdf-schema#" xmlns:rdf="http://www.w3.org/1999/02/22-rdf-syntax-ns#" xmlns:dc="http://purl.org/dc/elements/1.1/">
   <rdf:Description dc:identifier="" dc:description="" dc:format="image/svg+xml" dc:title="" dc:date="2021-11-02T16:52:40">
    <dc:creator>
     <rdf:Bag>
      <rdf:li>Jonathan Cervas</rdf:li>
     </rdf:Bag>
    </dc:creator>
    <dc:publisher>
     <rdf:Bag>
      <rdf:li>QGIS 3.20.1-Odense</rdf:li>
     </rdf:Bag>
    </dc:publisher>
    <dc:subject>
     <rdf:Bag/>
    </dc:subject>
   </rdf:Description>
   <cc:Work rdf:about="">
    <dc:format>image/svg+xml</dc:format>
    <dc:title></dc:title>
    <dc:date>2021-11-02T16:52:40</dc:date>
    <dc:identifier></dc:identifier>
    <dc:description></dc:description>
    <dc:creator>
     <cc:Agent>
      <dc:title>Jonathan Cervas</dc:title>
     </cc:Agent>
    </dc:creator>
    <dc:publisher>
     <cc:Agent>
      <dc:title>QGIS 3.20.1-Odense</dc:title>
     </cc:Agent>
    </dc:publisher>
   </cc:Work>
  </rdf:RDF>
 </metadata>
</svg>
